<svg width="33" height="44" viewBox="0 0 33 44" fill="none" xmlns="http://www.w3.org/2000/svg">
<path d="M14.5978 19.8968L17.2021 12.957L19.5505 19.0989L23.8107 16.5548L17.8946 1.16988C17.5032 0.131173 16.0128 0.16128 15.6516 1.21504L9.76553 18.7677C9.50962 19.5204 9.52467 20.3333 9.79564 21.086L10.9397 24.2473L15.2602 21.6731L14.5978 19.8968Z" />
<path d="M13.7849 31.6537L7.89889 29.6064L3.23222 32.3914L2.85588 32.6172L2.64513 32.7526L0.161255 40.0086L5.7462 36.6064L5.73115 36.5914L7.23652 35.6881L19.8967 40.3247C21.0258 40.7462 22.1398 39.6322 21.7032 38.5032L15.9828 23.2086L11.6473 25.7978L13.7849 31.6537Z" />
<path d="M28.8989 43.2L32.1957 38.0215L28.2667 27.7699L24.5484 18.1053L20.3032 20.6494L28.8989 43.2Z" />

<style>
    svg { fill: #000;}
    @media (prefers-color-scheme: dark) {
        svg { fill: #FFF;}
    }
</style>
</svg>
