<svg width="556" height="556" viewBox="0 0 556 556" fill="none" xmlns="http://www.w3.org/2000/svg">
<g clip-path="url(#clip0_315_142)">
<circle cx="278" cy="278" r="278" fill="#92E528"/>
<path d="M267.565 259.412L292.742 192.322L315.445 251.699L356.631 227.104L299.437 78.37C295.653 68.3283 281.245 68.6194 277.752 78.8066L220.849 248.497C218.375 255.774 218.521 263.633 221.14 270.909L232.201 301.471L273.968 276.585L267.565 259.412Z" fill="black"/>
<path d="M259.707 373.072L202.804 353.28L157.689 380.203L154.05 382.386L152.013 383.696L128 453.843L181.992 420.953L181.847 420.807L196.4 412.075L318.793 456.899C329.708 460.974 340.477 450.205 336.257 439.29L280.954 291.429L239.041 316.46L259.707 373.072Z" fill="black"/>
<path d="M405.821 484.696L437.693 434.633L399.709 335.525L363.762 242.094L322.722 266.689L405.821 484.696Z" fill="black"/>
</g>
<defs>
<clipPath id="clip0_315_142">
<rect width="556" height="556" fill="white"/>
</clipPath>
</defs>
</svg>
