<svg width="189" height="51" viewBox="0 0 189 51" fill="none" xmlns="http://www.w3.org/2000/svg">
<g clip-path="url(#clip0_16_832)">
<path d="M142.026 4.26855C143.467 4.26855 144.632 5.41067 144.632 6.89415C144.632 8.3468 143.465 9.48896 142.026 9.48896C140.584 9.48896 139.417 8.34421 139.417 6.89415C139.42 5.41067 140.584 4.26855 142.026 4.26855Z" fill="#A6A6A6"/>
<path d="M6.81693 22.2042C8.14663 21.7063 9.17314 20.8285 10.3729 19.5632L10.378 19.5709C10.7423 19.1885 11.1321 18.7599 11.5625 18.2825L11.5549 18.2748C11.6236 18.2004 11.6924 18.1233 11.7612 18.0464C12.0515 17.723 12.3598 17.3816 12.6909 17.0198C13.0424 16.6322 13.4144 16.2241 13.7939 15.8006L13.7965 15.8032C14.6268 14.8639 15.4318 13.9373 16.1323 13.0057C18.5293 9.86164 20.343 6.25562 18.6083 3.06539C17.1054 0.311479 14.1811 -0.371224 11.9446 0.175452C9.3056 0.82222 7.55564 2.97557 7.48942 5.66018C7.41554 8.66816 8.94393 10.38 11.481 13.1648C11.8707 12.7208 12.2528 12.2768 12.6196 11.8302C10.322 9.30723 9.16552 7.9675 9.2216 5.70381C9.28016 3.42984 10.8773 2.23383 12.3547 1.87194C12.6884 1.78982 13.0527 1.74362 13.4347 1.74362C14.7389 1.74362 16.2088 2.29543 17.085 3.90465C18.2847 6.10933 17.0723 8.80422 14.9886 11.6069C13.8397 13.1314 12.5687 14.5764 11.4606 15.7929C11.1295 16.1548 10.8238 16.4962 10.5308 16.8195C9.74628 17.6922 9.07125 18.4391 8.42173 19.0653C8.41916 19.0653 8.41916 19.0627 8.41916 19.0627C7.67027 19.7788 6.99269 20.2741 6.21323 20.5667C4.78675 21.098 2.833 21.0698 2.00513 19.2347C1.53644 18.1927 1.67908 17.1096 2.39741 16.2652C2.99348 15.562 3.8519 15.1821 4.76383 15.1821C5.06441 15.1821 5.37263 15.2232 5.67831 15.3104C6.41701 15.5157 7.28309 16.2267 8.03961 16.971C8.40135 16.586 8.78596 16.16 9.2139 15.6851C8.24338 14.7329 7.18374 13.9194 6.14191 13.6294C4.25437 13.1006 2.3159 13.6781 1.08047 15.1333C-0.0759866 16.4962 -0.320525 18.3005 0.428373 19.9611C1.49568 22.33 4.06333 23.2334 6.81693 22.2042Z" fill="#A6A6A6"/>
<path d="M28.6393 23.4125L30.8579 20.8845C30.486 20.4918 30.0937 20.0631 29.6734 19.5986L26.3237 23.4125L29.6785 27.2367C30.0988 26.7695 30.4911 26.3409 30.863 25.9483L28.6393 23.4125Z" fill="#A6A6A6"/>
<path d="M26.2983 13.0564C26.986 13.9701 27.7808 14.8787 28.5959 15.8V15.7975C28.9755 16.2235 29.3473 16.629 29.7014 17.0166C30.03 17.3785 30.3382 17.7198 30.6286 18.0432C30.6974 18.1202 30.7661 18.1972 30.835 18.2716L30.8273 18.2794C31.2578 18.7567 31.6475 19.1853 32.0093 19.5703L32.0169 19.5626C33.2166 20.8279 34.2432 21.7057 35.5729 22.2036C38.3239 23.2328 40.8916 22.3294 41.9614 19.9553C42.7103 18.2947 42.4658 16.4904 41.3068 15.1276C40.0713 13.6723 38.1329 13.0974 36.2454 13.6236C35.201 13.9162 34.1413 14.7298 33.1734 15.6794C33.1759 15.6846 33.181 15.6897 33.186 15.6922C33.6089 16.1619 33.991 16.5829 34.3477 16.9653C35.1042 16.2209 35.9728 15.5126 36.7115 15.3047C37.9418 14.9607 39.2002 15.3252 39.9924 16.262C40.7107 17.1064 40.8534 18.1895 40.3847 19.2315C39.5594 21.0666 37.6005 21.0949 36.1766 20.5635C35.4149 20.2786 34.7501 19.7962 34.019 19.1032C34.0165 19.1058 34.0139 19.1083 34.0114 19.1109C33.3618 18.4846 32.6868 17.7378 31.9022 16.8652C31.6118 16.5417 31.3037 16.1978 30.9725 15.8385C29.8645 14.6245 28.5908 13.1822 27.4445 11.6576L27.442 11.6551C25.3328 8.8318 24.1 6.11642 25.3048 3.89892C26.1811 2.28969 27.6508 1.73788 28.9551 1.73788C29.3346 1.73788 29.7014 1.78408 30.0351 1.86621C31.5099 2.2281 33.1097 3.42411 33.1657 5.69807C33.2217 7.96174 32.0678 9.29896 29.7702 11.8219C30.137 12.2659 30.5166 12.7124 30.9063 13.1564C33.4433 10.3718 34.9717 8.66248 34.8979 5.65188C34.8316 2.96469 33.0817 0.813922 30.4427 0.167151C28.2062 -0.379525 25.2819 0.303179 23.7841 3.05709C22.0417 6.27298 23.8834 9.9021 26.2983 13.0564Z" fill="#A6A6A6"/>
<path d="M27.4775 29.6693L22.3193 23.4121L27.4699 17.1625C27.0878 16.7365 26.7006 16.2925 26.3108 15.833L21.1959 22.0441L16.0785 15.8356C15.6887 16.295 15.299 16.7365 14.9194 17.1625L20.0726 23.4121L14.9194 29.6616C15.3016 30.0877 15.6913 30.5292 16.0785 30.9886L21.1959 24.7826L26.3185 30.9988C26.7082 30.5394 27.0954 30.0954 27.4775 29.6693ZM21.1959 23.4172L21.1908 23.4147L21.1959 23.4121L21.1985 23.4147L21.1959 23.4172Z" fill="#A6A6A6"/>
<path d="M35.5727 24.6213C34.2634 25.1115 33.247 25.9739 32.0677 27.2109C31.6626 27.6395 31.2296 28.1169 30.7354 28.6636C30.4425 28.9896 30.1317 29.336 29.798 29.7005C28.555 31.0633 27.317 32.4133 26.298 33.7685C23.8807 36.9253 22.039 40.5545 23.7814 43.7601C24.9684 45.9442 27.0521 46.8246 28.9778 46.8246C29.4822 46.8246 29.9763 46.7655 30.4399 46.65C33.0789 46.0058 34.8289 43.8524 34.8951 41.1653C34.969 38.1598 33.4432 36.4505 30.9112 33.671C30.5214 34.1176 30.1393 34.5615 29.7751 35.0081C32.0677 37.5259 33.2164 38.8631 33.163 41.1242C33.1069 43.3981 31.5073 44.5942 30.0324 44.9561C28.5575 45.3179 26.4331 45.0023 25.3021 42.9234C24.0947 40.7059 25.3301 37.9904 27.4393 35.1672V35.1647C28.476 33.7865 29.6223 32.4827 30.6539 31.3482C30.7609 31.2302 30.8679 31.1095 30.9749 30.9889C31.306 30.6245 31.6168 30.2806 31.9097 29.9546C31.9326 29.9289 31.9556 29.9032 31.9785 29.8776L31.981 29.8802C32.4013 29.413 32.7859 28.9819 33.1579 28.5866C33.1349 28.5635 33.1604 28.5892 33.1579 28.5866C34.2608 27.4137 35.1218 26.654 36.1713 26.2613C37.5953 25.73 39.5515 25.7583 40.3768 27.5933C40.8455 28.6354 40.7029 29.7185 39.9846 30.5629C39.1923 31.4971 37.934 31.8616 36.7037 31.5202C35.9675 31.3148 35.1015 30.6091 34.3475 29.8673C33.9883 30.2497 33.6088 30.6707 33.1859 31.1429C33.1833 31.148 33.1783 31.1506 33.1731 31.1557C34.1411 32.1053 35.1982 32.9138 36.2376 33.2064C38.1251 33.7351 40.0635 33.1577 41.299 31.7024C42.4554 30.3396 42.7 28.5353 41.951 26.8747C40.894 24.4955 38.3237 23.5921 35.5727 24.6213Z" fill="#A6A6A6"/>
<path d="M12.7163 19.5986C12.296 20.0657 11.9038 20.4943 11.5293 20.8845L13.7506 23.4151L11.5293 25.9457C11.9038 26.3358 12.296 26.7644 12.7163 27.2315L16.066 23.4151L12.7163 19.5986Z" fill="#A6A6A6"/>
<path d="M16.1295 33.822C15.429 32.8904 14.6241 31.9664 13.7936 31.0245L13.7911 31.0271C13.4115 30.601 13.0397 30.1954 12.6881 29.8079C12.357 29.4461 12.0488 29.1047 11.7583 28.7813C11.6896 28.7043 11.6208 28.6273 11.552 28.5529L11.5571 28.5452C11.1266 28.0678 10.7369 27.6392 10.3727 27.2567L10.3675 27.2619C9.1678 25.9966 8.14121 25.1188 6.81156 24.6209C4.05796 23.5917 1.49286 24.4951 0.423002 26.8692C-0.325896 28.5298 -0.0813581 30.3341 1.07511 31.6969C2.31053 33.1522 4.25155 33.7271 6.13653 33.2009C7.18092 32.9083 8.24061 32.0948 9.20855 31.1451C8.78062 30.6703 8.39593 30.2442 8.03427 29.8592C7.28026 30.601 6.41164 31.312 5.67293 31.5198C4.4426 31.8638 3.18425 31.4967 2.39205 30.5625C1.67372 29.7181 1.53106 28.6324 1.99977 27.593C2.54233 26.3893 3.57143 25.9632 4.61836 25.9632C5.16602 25.9632 5.71624 26.0787 6.20786 26.2635C6.98732 26.5561 7.6649 27.0489 8.41382 27.7675L8.41631 27.7649C9.06591 28.3912 9.73838 29.1381 10.5255 30.0107C10.8184 30.3341 11.1241 30.6754 11.4552 31.0373C12.5633 32.2513 13.8344 33.6988 14.9832 35.2233C17.0669 38.0286 18.2794 40.7235 17.0796 42.9256C15.9512 45.0045 13.8268 45.3202 12.3519 44.9583C10.8745 44.5964 9.27731 43.4004 9.22131 41.129C9.16523 38.8653 10.3191 37.5256 12.6168 35.0026C12.25 34.5586 11.8679 34.1146 11.4782 33.668C8.94108 36.4528 7.41017 38.162 7.48659 41.1726C7.55282 43.8598 9.30025 46.0106 11.9417 46.6574C12.4054 46.7703 12.8996 46.8319 13.4039 46.8319C15.3297 46.8319 17.4133 45.9515 18.6004 43.7674C20.3375 40.5721 18.5265 36.9635 16.1295 33.822Z" fill="#A6A6A6"/>
<path d="M52.5452 10.8746V4.51465H53.6329V5.17939C53.7857 4.73281 54.3385 4.41455 55.0899 4.41455C55.7318 4.41455 56.2769 4.64298 56.7099 5.10752C57.1532 5.56437 57.3697 6.12901 57.3697 6.81428C57.3697 7.49698 57.1532 8.06422 56.7099 8.52871C56.2744 8.98559 55.7318 9.21399 55.0899 9.21399C54.3385 9.21399 53.7857 8.89575 53.6329 8.44915V10.8746H52.5452ZM55.9024 7.8178C56.1649 7.55345 56.2922 7.21466 56.2922 6.81428C56.2922 6.41133 56.1649 6.07512 55.9024 5.81076C55.6477 5.54641 55.3319 5.40781 54.9421 5.40781C54.5524 5.40781 54.2187 5.54384 53.9462 5.81076C53.6838 6.07512 53.5462 6.4139 53.5462 6.81428C53.5462 7.21466 53.6813 7.55345 53.9462 7.8178C54.2187 8.08219 54.5524 8.21816 54.9421 8.21816C55.3319 8.21816 55.6503 8.08219 55.9024 7.8178Z" fill="#A6A6A6"/>
<path d="M59.2065 9.11435V4.51512H60.284V5.20039C60.5005 4.71788 60.9998 4.42529 61.6417 4.42529C61.7691 4.42529 61.876 4.43299 61.9677 4.45352V5.51094C61.8327 5.48271 61.6774 5.46474 61.5143 5.46474C60.7629 5.46474 60.284 5.93956 60.284 6.69669V9.11435H59.2065Z" fill="#A6A6A6"/>
<path d="M63.71 3.3289C63.71 2.96445 64.0004 2.68213 64.362 2.68213C64.7136 2.68213 65.0039 2.96445 65.0039 3.3289C65.0039 3.69335 64.7136 3.97567 64.362 3.97567C64.0004 3.97824 63.71 3.69335 63.71 3.3289ZM63.8195 4.51465H64.9046V9.11138H63.8195V4.51465Z" fill="#A6A6A6"/>
<path d="M68.4913 9.1139L66.5349 4.51465H67.6557L68.9523 7.63557L70.2387 4.51465H71.3595L69.4057 9.1139H68.4913Z" fill="#A6A6A6"/>
<path d="M76.2728 5.18195V4.51722H77.3606V9.11388H76.2728V8.44915C76.1174 8.89576 75.5672 9.214 74.8158 9.214C74.1739 9.214 73.6288 8.9856 73.1855 8.52871C72.75 8.06422 72.5334 7.49698 72.5334 6.81428C72.5334 6.12901 72.75 5.56437 73.1855 5.10752C73.6288 4.64298 74.1714 4.41455 74.8158 4.41455C75.5672 4.41455 76.12 4.73537 76.2728 5.18195ZM75.9468 7.8178C76.2193 7.55345 76.3544 7.21466 76.3544 6.81428C76.3544 6.41133 76.2193 6.07511 75.9468 5.81076C75.6845 5.54641 75.3507 5.40781 74.961 5.40781C74.5713 5.40781 74.2554 5.54384 73.993 5.81076C73.7383 6.07511 73.6135 6.4139 73.6135 6.81428C73.6135 7.21466 73.7383 7.55345 73.993 7.8178C74.2554 8.08219 74.5713 8.21816 74.961 8.21816C75.3507 8.21816 75.6845 8.08219 75.9468 7.8178Z" fill="#A6A6A6"/>
<path d="M82.9236 5.18223V2.75684H84.0117V9.11416H82.9236V8.44943C82.7711 8.89603 82.2181 9.21427 81.4668 9.21427C80.8251 9.21427 80.2799 8.98587 79.8366 8.52899C79.401 8.0645 79.1848 7.49726 79.1848 6.81456C79.1848 6.12928 79.401 5.56464 79.8366 5.10779C80.2799 4.64325 80.822 4.41483 81.4668 4.41483C82.2181 4.41483 82.7711 4.73565 82.9236 5.18223ZM82.5977 7.81808C82.8707 7.55372 83.0053 7.21494 83.0053 6.81456C83.0053 6.41161 82.8707 6.07539 82.5977 5.81104C82.3356 5.54668 82.0019 5.40808 81.6123 5.40808C81.2226 5.40808 80.9068 5.54411 80.6439 5.81104C80.3896 6.07539 80.2644 6.41417 80.2644 6.81456C80.2644 7.21494 80.3896 7.55372 80.6439 7.81808C80.9068 8.08247 81.2226 8.21844 81.6123 8.21844C82.0019 8.21844 82.3356 8.08247 82.5977 7.81808Z" fill="#A6A6A6"/>
<path d="M89.5852 5.18195V4.51722H90.6726V9.11388H89.5852V8.44915C89.4297 8.89576 88.8798 9.214 88.1285 9.214C87.486 9.214 86.9408 8.9856 86.4975 8.52871C86.0619 8.06422 85.8457 7.49698 85.8457 6.81428C85.8457 6.12901 86.0619 5.56437 86.4975 5.10752C86.9408 4.64298 87.4837 4.41455 88.1285 4.41455C88.8798 4.41455 89.432 4.73537 89.5852 5.18195ZM89.2594 7.8178C89.5316 7.55345 89.6669 7.21466 89.6669 6.81428C89.6669 6.41133 89.5316 6.07511 89.2594 5.81076C88.9965 5.54641 88.6628 5.40781 88.2731 5.40781C87.8835 5.40781 87.5677 5.54384 87.3056 5.81076C87.0505 6.07511 86.926 6.4139 86.926 6.81428C86.926 7.21466 87.0505 7.55345 87.3056 7.8178C87.5677 8.08219 87.8835 8.21816 88.2731 8.21816C88.6628 8.21816 88.9965 8.08219 89.2594 7.8178Z" fill="#A6A6A6"/>
<path d="M97.4666 9.11432V2.75439H98.5438V5.15413C98.753 4.71524 99.25 4.42522 99.8738 4.42522C100.923 4.42522 101.54 5.1259 101.54 6.26801V9.11432H100.462V6.422C100.462 5.79063 100.126 5.40051 99.5479 5.40051C98.9591 5.40051 98.5438 5.83939 98.5438 6.4682V9.11432H97.4666Z" fill="#A6A6A6"/>
<path d="M107.106 5.18195V4.51722H108.193V9.11388H107.106V8.44915C106.952 8.89576 106.4 9.214 105.648 9.214C105.006 9.214 104.461 8.9856 104.018 8.52871C103.582 8.06422 103.366 7.49698 103.366 6.81428C103.366 6.12901 103.582 5.56437 104.018 5.10752C104.461 4.64298 105.004 4.41455 105.648 4.41455C106.397 4.41455 106.95 4.73537 107.106 5.18195ZM106.779 7.8178C107.052 7.55345 107.187 7.21466 107.187 6.81428C107.187 6.41133 107.052 6.07511 106.779 5.81076C106.517 5.54641 106.183 5.40781 105.793 5.40781C105.404 5.40781 105.088 5.54384 104.826 5.81076C104.571 6.07511 104.446 6.4139 104.446 6.81428C104.446 7.21466 104.571 7.55345 104.826 7.8178C105.088 8.08219 105.404 8.21816 105.793 8.21816C106.181 8.21816 106.517 8.08219 106.779 7.8178Z" fill="#A6A6A6"/>
<path d="M110.216 9.11416V2.75684H111.301V5.18223C111.453 4.73564 112.006 4.4174 112.758 4.4174C113.399 4.4174 113.944 4.64582 114.378 5.11036C114.821 5.56721 115.037 6.13185 115.037 6.81712C115.037 7.49983 114.821 8.06701 114.378 8.53158C113.942 8.98846 113.399 9.21686 112.758 9.21686C112.006 9.21686 111.453 8.89862 111.301 8.45202V9.11675H110.216V9.11416ZM113.575 7.81808C113.838 7.55372 113.965 7.21493 113.965 6.81455C113.965 6.41161 113.838 6.07539 113.575 5.81103C113.321 5.54668 113.005 5.40808 112.615 5.40808C112.226 5.40808 111.892 5.54411 111.619 5.81103C111.357 6.07539 111.219 6.41417 111.219 6.81455C111.219 7.21493 111.354 7.55372 111.619 7.81808C111.892 8.08247 112.226 8.21844 112.615 8.21844C113.005 8.21844 113.321 8.08247 113.575 7.81808Z" fill="#A6A6A6"/>
<path d="M116.769 3.3289C116.769 2.96445 117.057 2.68213 117.422 2.68213C117.776 2.68213 118.064 2.96445 118.064 3.3289C118.064 3.69335 117.773 3.97567 117.422 3.97567C117.057 3.97824 116.769 3.69335 116.769 3.3289ZM116.877 4.51465H117.962V9.11138H116.877V4.51465Z" fill="#A6A6A6"/>
<path d="M120.315 9.11432V5.51087H119.727V4.51505H120.315V2.75439H121.403V4.51505H122.389V5.51087H121.403V9.11432H120.315Z" fill="#A6A6A6"/>
<path d="M127.475 5.18195V4.51722H128.564V9.11388H127.475V8.44915C127.323 8.89576 126.77 9.214 126.019 9.214C125.377 9.214 124.832 8.9856 124.388 8.52871C123.953 8.06422 123.736 7.49698 123.736 6.81428C123.736 6.12901 123.953 5.56437 124.388 5.10752C124.832 4.64298 125.374 4.41455 126.019 4.41455C126.768 4.41455 127.32 4.73537 127.475 5.18195ZM127.15 7.8178C127.422 7.55345 127.557 7.21466 127.557 6.81428C127.557 6.41133 127.422 6.07511 127.15 5.81076C126.887 5.54641 126.554 5.40781 126.164 5.40781C125.774 5.40781 125.458 5.54384 125.196 5.81076C124.941 6.07511 124.816 6.4139 124.816 6.81428C124.816 7.21466 124.941 7.55345 125.196 7.8178C125.458 8.08219 125.774 8.21816 126.164 8.21816C126.551 8.21816 126.887 8.08219 127.15 7.8178Z" fill="#A6A6A6"/>
<path d="M134.697 5.16416L134.027 5.86739C133.709 5.52861 133.321 5.36435 132.869 5.36435C132.468 5.36435 132.134 5.50037 131.862 5.775C131.6 6.04962 131.465 6.39611 131.465 6.80675C131.465 7.2174 131.6 7.56389 131.862 7.83851C132.134 8.11316 132.468 8.24913 132.869 8.24913C133.321 8.24913 133.709 8.08491 134.027 7.74612L134.697 8.44937C134.208 8.97804 133.602 9.24238 132.869 9.24238C132.17 9.24238 131.582 9.01656 131.103 8.54948C130.624 8.08491 130.387 7.49972 130.387 6.80675C130.387 6.11379 130.622 5.53888 131.103 5.07176C131.582 4.60722 132.17 4.37109 132.869 4.37109C133.599 4.37109 134.208 4.63288 134.697 5.16416Z" fill="#A6A6A6"/>
<path d="M136.333 3.3289C136.333 2.96445 136.621 2.68213 136.985 2.68213C137.338 2.68213 137.626 2.96445 137.626 3.3289C137.626 3.69335 137.336 3.97567 136.985 3.97567C136.623 3.97824 136.333 3.69335 136.333 3.3289ZM136.442 4.51465H137.527V9.11138H136.442V4.51465Z" fill="#A6A6A6"/>
<path d="M146.198 9.11435V4.51512H147.276V5.17216C147.492 4.72558 148.01 4.42529 148.659 4.42529C149.746 4.42529 150.389 5.12596 150.389 6.26808V9.11435H149.301V6.42207C149.301 5.7907 148.939 5.40059 148.333 5.40059C147.716 5.40059 147.273 5.83946 147.273 6.46827V9.11435H146.198Z" fill="#A6A6A6"/>
<path d="M155.927 5.18195V4.51722H157.014V9.11388H155.927V8.44915C155.773 8.89576 155.221 9.214 154.469 9.214C153.827 9.214 153.282 8.9856 152.839 8.52871C152.403 8.06422 152.187 7.49698 152.187 6.81428C152.187 6.12901 152.403 5.56437 152.839 5.10752C153.282 4.64298 153.825 4.41455 154.469 4.41455C155.221 4.41455 155.771 4.73537 155.927 5.18195ZM155.601 7.8178C155.873 7.55345 156.008 7.21466 156.008 6.81428C156.008 6.41133 155.873 6.07511 155.601 5.81076C155.338 5.54641 155.004 5.40781 154.614 5.40781C154.225 5.40781 153.909 5.54384 153.647 5.81076C153.392 6.07511 153.267 6.4139 153.267 6.81428C153.267 7.21466 153.392 7.55345 153.647 7.8178C153.909 8.08219 154.225 8.21816 154.614 8.21816C155.004 8.21816 155.338 8.08219 155.601 7.8178Z" fill="#A6A6A6"/>
<path d="M160.124 2.75439H159.039V9.11173H160.124V2.75439Z" fill="#A6A6A6"/>
<path d="M139.637 13.0259H144.448V23.6642C144.448 24.8679 144.739 25.389 145.546 25.389C145.836 25.389 146.03 25.3556 146.127 25.3248V29.4569C145.706 29.6186 144.965 29.7161 143.9 29.7161C141.058 29.7161 139.637 28.1865 139.637 25.0963V13.0259Z" fill="#A6A6A6"/>
<path d="M149.257 17.4172V13.0284V11.1138H153.939V13.0284H157.557V17.4198H153.939V23.2766C153.939 24.8371 154.553 25.4557 156.005 25.4557C156.265 25.4557 156.683 25.4223 157.233 25.3247V29.6186C156.586 29.7803 155.811 29.847 154.877 29.847C151.13 29.847 149.26 27.8939 149.26 23.9902V17.4172H149.257Z" fill="#A6A6A6"/>
<path d="M171.855 13.0256V15.1713C171.37 13.7391 169.465 12.7305 167.012 12.7305C164.719 12.7305 162.783 13.544 161.233 15.202C159.714 16.8292 158.94 18.8465 158.94 21.2206C158.94 23.628 159.714 25.6453 161.233 27.3033C162.781 28.9305 164.719 29.7441 167.012 29.7441C168.467 29.7441 169.602 29.2539 170.497 28.5995L169.251 25.1166C168.828 25.2475 168.375 25.3194 167.886 25.3194C166.724 25.3194 165.756 24.9293 164.949 24.1491C164.141 23.3354 163.754 22.3601 163.754 21.2206C163.754 20.0811 164.141 19.1058 164.949 18.3255C165.756 17.5119 166.724 17.1218 167.886 17.1218C169.08 17.1218 170.081 17.5119 170.889 18.3255C171.727 19.1058 172.147 20.0811 172.147 21.2206V29.7082H176.414C176.444 29.7082 176.475 29.7107 176.506 29.7107C176.562 29.7107 176.612 29.7082 176.666 29.7082V23.6639V20.5071V13.0256H171.855Z" fill="#A6A6A6"/>
<path d="M112.33 13.0256V15.1713C111.846 13.7391 109.94 12.7305 107.487 12.7305C105.194 12.7305 103.259 13.544 101.708 15.202C100.189 16.8292 99.4148 18.8465 99.4148 21.2206C99.4148 23.628 100.189 25.6453 101.708 27.3033C103.256 28.9305 105.194 29.7441 107.487 29.7441C108.942 29.7441 110.078 29.2539 110.972 28.5995L109.727 25.1166C109.303 25.2475 108.85 25.3194 108.361 25.3194C107.2 25.3194 106.231 24.9293 105.424 24.1491C104.617 23.3354 104.229 22.3601 104.229 21.2206C104.229 20.0811 104.617 19.1058 105.424 18.3255C106.231 17.5119 107.2 17.1218 108.361 17.1218C109.555 17.1218 110.556 17.5119 111.365 18.3255C112.202 19.1058 112.623 20.0811 112.623 21.2206V29.7082H116.889C116.92 29.7082 116.948 29.7107 116.981 29.7107C117.037 29.7107 117.088 29.7082 117.142 29.7082V23.6639V20.5071V13.0256H112.33Z" fill="#A6A6A6"/>
<path d="M62.8922 13.0256V15.1713C62.4082 13.7391 60.5029 12.7305 58.0499 12.7305C55.7574 12.7305 53.8214 13.544 52.2701 15.202C50.752 16.8292 49.9775 18.8465 49.9775 21.2206C49.9775 23.628 50.752 25.6453 52.2701 27.3033C53.8188 28.9305 55.7574 29.7441 58.0499 29.7441C59.5044 29.7441 60.6405 29.2539 61.5345 28.5995L60.2889 25.1166C59.866 25.2475 59.4127 25.3194 58.9236 25.3194C57.762 25.3194 56.7941 24.9293 55.9866 24.1491C55.1791 23.3354 54.7919 22.3601 54.7919 21.2206C54.7919 20.0811 55.1791 19.1058 55.9866 18.3255C56.7941 17.5119 57.762 17.1218 58.9236 17.1218C60.1183 17.1218 61.1194 17.5119 61.9268 18.3255C62.7649 19.1058 63.1851 20.0811 63.1851 21.2206V29.7082H67.4544C67.4849 29.7082 67.513 29.7107 67.5461 29.7107C67.6021 29.7107 67.6531 29.7082 67.7066 29.7082V23.6639V20.5071V13.0256H62.8922Z" fill="#A6A6A6"/>
<path d="M98.6712 25.5246C97.5683 25.5246 96.9134 25.6068 96.537 24.9189C96.376 24.6469 96.3153 24.2208 96.3153 23.5972V19.4676C96.3153 15.2071 94.2495 12.6714 90.6017 12.6714C87.9215 12.6714 86.1466 13.5491 85.2444 15.2739C84.5032 13.5491 83.0184 12.6714 80.8227 12.6714C78.8534 12.6714 77.2079 13.6467 76.594 15.0787V13.0307H71.7822V29.4207H76.5915V20.217C76.5915 18.2972 77.7199 16.9652 79.2711 16.9652C80.8196 16.9652 81.6915 18.1355 81.6915 20.0553V29.4207H86.5005V20.217C86.5005 18.2972 87.5979 16.9652 89.1473 16.9652C90.6624 16.9652 91.5032 18.1355 91.5032 20.0553V24.9344C91.5032 28.0553 92.9218 29.6183 95.7957 29.6183C97.3085 29.6157 99.3844 28.7456 98.6712 25.5246Z" fill="#A6A6A6"/>
<path d="M125.555 26.3356C127.178 25.6503 129.768 24.8957 132.606 25.3757L137.884 12.9639H133.248L128.841 22.8477L124.434 12.9639H119.796L125.145 25.5374C125.262 25.8171 125.4 26.0815 125.555 26.3356Z" fill="#A6A6A6"/>
<path d="M184.575 41.1856C184.438 41.355 184.397 41.4063 184.27 41.5372C183.567 42.2661 182.835 42.9642 182.031 43.5801C181.659 43.8624 181.274 44.1269 180.865 44.3476C180.625 44.4759 180.378 44.5888 180.123 44.6786C179.552 44.8788 178.979 44.8686 178.411 44.6889C177.833 44.5067 177.389 44.1422 177.081 43.6161C176.89 43.2876 176.76 42.936 176.676 42.5638C176.644 42.4124 176.61 42.2584 176.577 42.0993C176.536 42.112 176.493 42.1121 176.465 42.1326C176.386 42.1968 176.312 42.2712 176.236 42.343C175.741 42.8025 175.227 43.2362 174.68 43.6315C174.216 43.9652 173.737 44.2705 173.222 44.5195C172.802 44.7248 172.371 44.8968 171.911 44.9815C171.401 45.0765 170.889 45.1252 170.369 45.0585C170.099 45.0251 169.835 44.9815 169.572 44.8994C168.742 44.6402 168.12 44.1243 167.692 43.3671C167.552 43.1182 167.432 42.8589 167.348 42.5843C167.333 42.5356 167.308 42.4894 167.239 42.4637C167.168 42.5227 167.086 42.5869 167.009 42.6562C166.671 42.9565 166.319 43.2439 165.952 43.5109C165.542 43.8085 165.117 44.0755 164.661 44.2988C164.124 44.5606 163.561 44.7351 162.965 44.8121C162.476 44.8737 161.986 44.8916 161.495 44.8711C160.975 44.8506 160.47 44.7428 159.984 44.558C159.669 44.4374 159.373 44.2783 159.103 44.0755C158.614 43.711 158.25 43.2465 158.015 42.6818C157.969 42.5741 157.931 42.4637 157.887 42.3559C157.87 42.3097 157.796 42.2943 157.758 42.3277C157.699 42.379 157.643 42.4329 157.585 42.4843C157.264 42.7666 156.946 43.054 156.617 43.3261C156.219 43.6572 155.794 43.9575 155.346 44.2167C154.954 44.4451 154.548 44.6427 154.103 44.748C152.643 45.0919 151.39 44.1885 151.076 42.9334C151.018 42.7024 151.013 42.4714 150.99 42.2378C150.987 42.2199 150.959 42.2045 150.939 42.1917C150.931 42.1865 150.913 42.1942 150.906 42.2019C150.875 42.2275 150.847 42.2507 150.821 42.2789C150.725 42.3842 150.633 42.4945 150.537 42.5998C150.256 42.9077 149.963 43.2003 149.645 43.4672C149.268 43.7855 148.868 44.0704 148.417 44.2757C148.144 44.4015 147.862 44.4835 147.561 44.5015C146.975 44.5349 146.537 44.2937 146.244 43.7829C146.106 43.5442 146.02 43.285 145.974 43.0155C145.938 42.8102 145.913 42.6049 145.882 42.3995C145.878 42.3636 145.819 42.3482 145.788 42.3739C145.719 42.4304 145.648 42.4894 145.582 42.5484C145.116 42.9616 144.634 43.3543 144.125 43.7136C143.649 44.0498 143.152 44.3527 142.622 44.5965C142.258 44.7633 141.881 44.9019 141.489 44.9841C140.964 45.0919 140.439 45.1046 139.917 44.961C138.745 44.6427 138.21 43.6854 138.137 42.8384C138.126 42.7357 138.116 42.6305 138.101 42.5279C138.098 42.5099 138.067 42.4945 138.047 42.4817C138.039 42.4765 138.019 42.4843 138.011 42.492C137.93 42.574 137.846 42.6562 137.767 42.7409C137.388 43.1515 137 43.5519 136.577 43.9164C136.333 44.1269 136.078 44.327 135.818 44.5221C135.602 44.6864 135.362 44.8172 135.115 44.9327C134.479 45.2253 133.818 45.2561 133.146 45.0944C132.907 45.0354 132.687 44.9174 132.491 44.7659C132.242 44.576 132.038 44.3424 131.878 44.0704C131.658 43.6956 131.526 43.2901 131.475 42.8589C131.396 42.1891 131.478 41.5346 131.676 40.893C131.822 40.431 132.012 39.9921 132.25 39.5737C133.062 38.1417 134.16 36.9944 135.578 36.1628C136.173 35.8138 136.801 35.5443 137.472 35.3851C137.673 35.3389 137.877 35.2927 138.081 35.2799C138.974 35.2234 139.69 35.5699 140.223 36.2962C140.299 36.3989 140.363 36.5119 140.434 36.6274C140.475 36.6069 140.516 36.5966 140.538 36.5709C140.635 36.4656 140.91 36.132 141.03 35.9677L142.571 36.8276C142.528 36.9225 142.464 37.0791 142.431 37.1381C142.388 37.2177 142.344 37.2973 142.288 37.3691C142.171 37.5231 142.046 37.6745 141.921 37.8233C141.57 38.2392 141.218 38.655 140.864 39.0707C140.737 39.2196 140.63 39.3813 140.538 39.5533C140.291 40.0254 140.062 40.5054 139.891 41.011C139.777 41.3447 139.69 41.6835 139.662 42.0351C139.649 42.2045 139.657 42.3739 139.685 42.5407C139.749 42.9257 140.021 43.1874 140.414 43.2388C140.699 43.2773 140.982 43.2568 141.259 43.1952C141.665 43.1079 142.051 42.9642 142.431 42.7922C143.058 42.5099 143.656 42.1788 144.222 41.7861C144.861 41.3421 145.457 40.8442 146.028 40.3155C146.104 40.2462 146.176 40.1744 146.211 40.0691C146.677 38.678 147.467 37.4794 148.42 36.3861C148.685 36.0832 148.967 35.7984 149.24 35.5006C149.354 35.3775 149.49 35.3287 149.655 35.3287C149.854 35.3287 150.04 35.3723 150.213 35.4647C150.292 35.5057 150.368 35.5596 150.435 35.6212C150.633 35.8061 150.677 36.0602 150.547 36.2962C150.485 36.4092 150.407 36.5144 150.327 36.6171C150.07 36.9585 149.806 37.2947 149.548 37.6386C149.169 38.1493 148.809 38.6729 148.488 39.2247C148.318 39.5173 148.162 39.815 148.024 40.1256C147.78 40.6748 147.628 41.2523 147.548 41.8477C147.52 42.0556 147.518 42.2635 147.582 42.4663C147.597 42.515 147.615 42.5663 147.64 42.61C147.696 42.705 147.78 42.764 147.895 42.7589C147.972 42.7537 148.05 42.7434 148.122 42.7204C148.295 42.6665 148.453 42.574 148.605 42.4765C148.889 42.2917 149.145 42.0736 149.393 41.8452C149.744 41.5192 150.075 41.1702 150.389 40.8083C151.3 39.7586 152.113 38.6318 152.865 37.4615C153.208 36.9276 153.53 36.3758 153.861 35.8343C153.901 35.7676 153.937 35.6983 153.975 35.629C154.062 35.4673 154.207 35.3851 154.38 35.3569C154.655 35.3159 154.923 35.3518 155.164 35.4981C155.231 35.5366 155.294 35.5853 155.346 35.6418C155.473 35.7906 155.524 35.96 155.44 36.1474C155.394 36.2526 155.333 36.3553 155.272 36.4529C154.946 36.9995 154.612 37.541 154.293 38.0903C153.929 38.7191 153.588 39.3633 153.285 40.0254C153.078 40.4746 152.882 40.9263 152.765 41.4114C152.722 41.5885 152.684 41.7656 152.658 41.9452C152.625 42.1788 152.635 42.4124 152.707 42.6408C152.809 42.9719 153.035 43.1644 153.366 43.2286C153.649 43.2825 153.932 43.2619 154.209 43.1849C154.459 43.1156 154.699 43.0181 154.92 42.8795C155.126 42.7486 155.333 42.6126 155.529 42.4611C155.776 42.2712 156.018 42.0762 156.247 41.8683C156.708 41.4499 157.159 41.0213 157.615 40.5978C157.702 40.5157 157.768 40.4258 157.789 40.3026C157.807 40.2 157.831 40.0999 157.859 39.9998C157.959 39.6482 158.094 39.312 158.265 38.9886C158.423 38.6883 158.601 38.4034 158.802 38.1314C159.487 37.2202 160.306 36.4503 161.258 35.8292C161.836 35.4519 162.455 35.167 163.125 34.9899C163.655 34.8513 164.192 34.8051 164.737 34.8693C165.115 34.9155 165.466 35.0336 165.78 35.2568C166.1 35.4853 166.304 35.7881 166.388 36.1756C166.434 36.3836 166.434 36.5863 166.388 36.7942C166.337 37.0252 166.253 37.2408 166.138 37.4487C165.825 38.0133 165.395 38.4779 164.905 38.8885C164.779 38.9989 164.761 39.0142 164.681 39.0861C164.355 38.7371 164.205 38.56 163.79 38.0621C163.984 37.8465 163.95 37.8875 164.096 37.7156C164.162 37.6361 164.238 37.5667 164.31 37.4897C164.46 37.3229 164.575 37.1355 164.618 36.9122C164.635 36.825 164.641 36.7301 164.625 36.6427C164.554 36.2526 164.233 36.1269 163.942 36.1474C163.802 36.1577 163.662 36.191 163.533 36.2578C163.372 36.3399 163.207 36.4143 163.051 36.5068C162.055 37.1099 161.199 37.8747 160.488 38.8012C160.076 39.3427 159.763 39.9382 159.581 40.6004C159.497 40.9033 159.449 41.2086 159.459 41.5244C159.467 41.7348 159.505 41.9376 159.574 42.1352C159.735 42.6023 160.05 42.9334 160.494 43.1387C160.84 43.2978 161.207 43.362 161.584 43.3723C161.908 43.38 162.228 43.3312 162.544 43.267C163.155 43.1413 163.731 42.9154 164.289 42.6357C164.775 42.3918 165.239 42.1095 165.685 41.799C166.184 41.4499 166.658 41.0675 167.117 40.6646C167.229 40.5671 167.308 40.4593 167.346 40.3129C167.606 39.3248 168.11 38.4676 168.777 37.7078C169.432 36.9636 170.176 36.322 171.009 35.7855C171.49 35.4776 171.997 35.2209 172.55 35.0695C172.864 34.9822 173.179 34.9309 173.508 34.9514C173.717 34.9642 173.915 35.013 174.106 35.1028C174.514 35.2953 174.74 35.6264 174.804 36.0678C174.845 36.3527 174.827 36.6376 174.756 36.9199C174.684 37.2125 174.58 37.4923 174.445 37.7592C174.127 38.3906 173.735 38.9681 173.225 39.4582C172.588 40.0691 171.921 40.644 171.238 41.201C170.777 41.5783 170.305 41.9452 169.817 42.284C169.592 42.4381 169.364 42.5843 169.136 42.7332C169.06 42.7845 169.048 42.8487 169.093 42.9334C169.315 43.3415 169.669 43.5545 170.117 43.6187C170.466 43.6674 170.815 43.6546 171.156 43.5776C171.396 43.5237 171.635 43.4672 171.867 43.3903C172.881 43.054 173.823 42.5843 174.662 41.9068C175.278 41.4089 175.859 40.875 176.424 40.3206C176.511 40.236 176.567 40.1461 176.58 40.0178C176.674 38.9629 176.924 37.9414 177.245 36.9353C177.673 35.5931 178.24 34.3123 178.926 33.0829C180.182 30.8321 181.728 28.8071 183.572 27.0157C183.962 26.6357 184.369 26.2739 184.8 25.9403C185.271 25.5706 185.768 25.2447 186.311 24.9932C186.593 24.8623 186.884 24.7571 187.186 24.6878C187.48 24.6185 187.775 24.6133 188.073 24.6416C188.231 24.6569 188.373 24.7134 188.511 24.7904C188.697 24.8956 188.832 25.0471 188.914 25.2473C188.936 25.3063 188.967 25.3628 188.995 25.4218C188.995 25.8632 188.995 26.3072 188.995 26.7487C188.974 26.7795 188.936 26.8077 188.934 26.8411C188.908 27.0773 188.82 27.2928 188.733 27.511C188.554 27.9576 188.333 28.3861 188.096 28.8045C187.648 29.5976 187.136 30.347 186.598 31.0811C185.778 32.2026 184.899 33.278 183.992 34.3277C182.576 35.9677 181.099 37.5513 179.578 39.0938C179.178 39.4994 178.773 39.9023 178.37 40.3078C178.306 40.3719 178.24 40.4336 178.177 40.5003C178.124 40.5568 178.085 40.6235 178.08 40.7082C178.042 41.2549 178.026 41.8015 178.149 42.3405C178.182 42.492 178.236 42.6408 178.299 42.782C178.439 43.0925 178.691 43.2568 179.023 43.3004C179.203 43.3235 179.381 43.3184 179.56 43.2722C179.787 43.2157 180.004 43.1335 180.212 43.0309C180.525 42.8769 180.821 42.687 181.106 42.4843C181.656 42.0942 182.174 41.6603 182.673 41.2086C183.019 40.8956 183.356 40.5722 183.696 40.2539C183.763 40.1923 183.826 40.1256 183.898 40.0717L184.575 41.1856ZM187.436 26.6486C187.434 26.6101 187.434 26.5844 187.428 26.5588C187.424 26.5331 187.416 26.5075 187.408 26.4843C187.38 26.3868 187.27 26.3098 187.172 26.3201C187.003 26.3381 186.845 26.392 186.692 26.4689C186.451 26.5921 186.223 26.741 186.007 26.9053C185.513 27.2851 185.049 27.6958 184.613 28.1398C184.206 28.5581 183.822 28.9945 183.452 29.4487C182.133 31.0759 181.001 32.8263 180.044 34.6896C179.54 35.67 179.091 36.6787 178.735 37.7258C178.671 37.9107 178.612 38.0954 178.554 38.2802C178.538 38.3264 178.551 38.3957 178.569 38.388C178.605 38.3752 178.643 38.3624 178.668 38.3392C178.727 38.2879 178.778 38.2289 178.831 38.1724C180.857 36.0704 182.767 33.8709 184.553 31.561C185.202 30.7192 185.826 29.8593 186.395 28.9585C186.616 28.6069 186.827 28.2502 187.016 27.8805C187.14 27.6368 187.252 27.3903 187.337 27.1286C187.385 26.9694 187.428 26.8077 187.436 26.6486ZM139.229 38.0621C139.234 37.8875 139.216 37.7233 139.17 37.5565C139.058 37.1304 138.773 36.9636 138.429 36.9148C138.378 36.9071 138.327 36.9097 138.273 36.9071C137.973 36.8943 137.683 36.9508 137.395 37.0328C136.827 37.1946 136.327 37.4871 135.864 37.8465C135.4 38.2058 134.995 38.6216 134.631 39.0836C134.114 39.738 133.686 40.449 133.391 41.2343C133.271 41.5526 133.187 41.8785 133.139 42.2148C133.111 42.4227 133.118 42.6279 133.167 42.8333C133.245 43.1721 133.48 43.3594 133.828 43.3851C133.997 43.398 134.163 43.38 134.328 43.3364C134.593 43.2645 134.835 43.1464 135.072 43.0104C135.375 42.8333 135.652 42.6228 135.923 42.3969C136.429 41.9709 136.891 41.4987 137.334 41.0059C137.856 40.4258 138.337 39.815 138.819 39.2042C138.916 39.0836 138.994 38.9475 139.076 38.8141C139.11 38.7602 139.138 38.6986 139.15 38.6344C139.19 38.447 139.236 38.2546 139.229 38.0621ZM169.132 40.8622C169.21 40.8159 169.29 40.7723 169.364 40.721C169.944 40.3335 170.505 39.9177 171.042 39.466C171.49 39.0913 171.905 38.6832 172.283 38.2366C172.509 37.9697 172.723 37.6925 172.906 37.3922C173 37.2357 173.088 37.0765 173.141 36.902C173.156 36.8532 173.169 36.8019 173.179 36.7505C173.204 36.6171 173.11 36.5119 172.983 36.5324C172.944 36.5375 172.906 36.5452 172.868 36.5555C172.626 36.6146 172.407 36.7223 172.196 36.8507C171.806 37.0842 171.454 37.3691 171.11 37.6668C170.232 38.4317 169.61 39.3762 169.192 40.4618C169.152 40.5696 169.122 40.6825 169.091 40.7955C169.093 40.8108 169.116 40.8339 169.132 40.8622Z" fill="#A6A6A6"/>
<path d="M120.853 50.9002C118.599 50.5794 116.928 49.4091 115.84 47.3968C115.448 46.6705 115.208 45.8903 115.053 45.0793C114.9 44.2682 114.857 43.452 114.905 42.6308C114.953 41.8094 115.104 41.0062 115.328 40.2157C115.682 38.9709 116.209 37.8005 116.866 36.6892C117.434 35.7241 118.089 34.8233 118.815 33.9712C120.588 31.8949 122.676 30.2215 125.102 28.9793C126.21 28.4121 127.359 27.9527 128.569 27.6523C129.498 27.4213 130.441 27.2751 131.404 27.3058C132 27.3238 132.585 27.4136 133.154 27.6062C133.386 27.6857 133.612 27.7833 133.826 27.9039C134.741 28.4121 135.296 29.1897 135.515 30.2138C135.63 30.7424 135.632 31.2712 135.535 31.8025C135.484 32.072 135.436 32.3389 135.352 32.5981C135.304 32.747 135.24 32.8881 135.176 33.0293C135.148 33.0883 135.098 33.1319 135.026 33.1371C135.014 33.1371 135 33.1397 134.988 33.1397C134.511 33.1653 134.033 33.191 133.556 33.2167C133.505 33.2192 133.452 33.2167 133.4 33.2167C133.368 33.2167 133.327 33.1653 133.337 33.1371C133.368 33.0524 133.396 32.9651 133.432 32.883C133.579 32.5493 133.694 32.2054 133.768 31.8461C133.852 31.4354 133.88 31.0222 133.811 30.6065C133.701 29.9366 133.358 29.4259 132.761 29.0973C132.451 28.9279 132.117 28.8278 131.77 28.7842C131.177 28.7072 130.583 28.7329 129.995 28.8175C128.871 28.9767 127.817 29.3488 126.801 29.8467C125.705 30.3832 124.689 31.0479 123.737 31.8127C121.635 33.5015 119.885 35.5009 118.507 37.8288C117.941 38.7809 117.468 39.7742 117.121 40.8291C116.93 41.4116 116.79 42.0045 116.706 42.6102C116.698 42.6615 116.693 42.7129 116.688 42.7642C116.604 43.9474 116.752 45.1023 117.154 46.2188C117.31 46.6475 117.516 47.0529 117.773 47.4302C118.303 48.2002 118.998 48.7622 119.867 49.0985C120.69 49.4168 121.535 49.5297 122.414 49.427C123.191 49.3372 123.935 49.1344 124.651 48.829C126.072 48.2259 127.333 47.3841 128.39 46.2419C128.444 46.1855 128.563 46.0545 128.647 45.9699L129.896 46.4832C129.858 46.5653 129.809 46.6423 129.753 46.7142C129.666 46.8271 129.575 46.9349 129.48 47.0453C128.551 48.1258 127.486 49.0446 126.246 49.7453C125.417 50.2124 124.546 50.5588 123.619 50.7668C123.253 50.8488 122.88 50.8899 122.512 50.9464C122.512 50.9515 121.803 51.0182 120.853 50.9002Z" fill="#A6A6A6"/>
</g>
<defs>
<clipPath id="clip0_16_832">
<rect width="189" height="51" fill="white"/>
</clipPath>
</defs>
</svg>
