<svg width="74" height="81" viewBox="0 0 74 81" fill="none" xmlns="http://www.w3.org/2000/svg">
<path d="M73.9053 69.2171V39.2257C73.9053 39.144 73.9465 39.1031 73.9465 39.0214C73.9465 38.8988 73.9465 38.7763 73.9053 38.6945V21.2064C73.9053 21.0838 73.9465 20.9612 73.9465 20.8387C73.9465 13.3204 62.2946 0 36.9732 0C11.4049 0 0 13.3204 0 20.8387V28.1118V38.4902V70.1977H0.0823458C0.411729 72.159 2.26451 74.6106 5.59951 76.4493C11.7754 79.9224 22.3569 80.9031 36.9732 80.9031C51.5896 80.9031 62.171 79.9224 68.347 76.4493C71.682 74.6106 73.4936 72.1181 73.8641 70.1977H73.9053V69.9525C73.9053 69.83 73.9465 69.6665 73.9465 69.5439C73.9053 69.4622 73.9053 69.3396 73.9053 69.2171Z" fill="#A6A6A6"/>
<path d="M68.594 44.0879C67.2764 43.1072 65.259 42.4126 62.4592 42.4126C57.3949 42.4126 52.4954 45.5588 52.4954 52.9137C52.4954 59.9416 57.3949 63.2513 62.2533 63.2513C67.3588 63.2513 70.5703 60.1459 70.5703 55.5696C70.5703 52.6685 68.7587 50.7072 65.0943 50.7072H64.0238C62.1298 50.7072 60.6476 51.6061 60.6476 53.5266C60.6476 55.2835 62.2533 56.1416 63.4473 56.1416C64.0238 56.1416 64.4355 56.305 64.4355 56.7545C64.4355 57.3265 63.7356 57.6943 62.9944 57.6943C60.5652 57.6943 58.8772 56.019 58.8772 52.9545C58.8772 49.5223 61.1417 48.2965 62.9121 48.2965C65.0531 48.2965 65.4236 49.3588 66.9059 49.3588C68.6351 49.3588 69.8291 47.9696 69.8291 46.5395C69.8291 45.4362 69.3351 44.619 68.594 44.0879Z" fill="white"/>
<path d="M39.7317 54.8753V59.5333C39.7317 61.6172 38.5377 63.2924 36.2732 63.2924C34.0087 63.2924 32.8147 61.6172 32.8147 59.5333V46.2538C32.8147 44.1291 34.0911 42.4129 36.3556 42.4129C37.7143 42.4129 38.9083 42.9441 40.0611 45.1506L43.0667 50.9527C43.2314 51.2387 43.355 51.3613 43.5196 51.3613C43.7667 51.3613 43.8902 51.1979 43.8902 50.7893V46.1312C43.8902 44.0473 45.0842 42.3721 47.3487 42.3721C49.5721 42.3721 50.8073 44.0473 50.8073 46.1312V59.4107C50.8073 61.5355 49.5309 63.2516 47.2664 63.2516C45.9489 63.2516 44.7137 62.7204 43.5608 60.514L40.5552 54.7118C40.3905 54.4258 40.267 54.3032 40.1023 54.3032C39.8553 54.3032 39.7317 54.4667 39.7317 54.8753Z" fill="white"/>
<path d="M10.2109 59.4516V56.3871C10.2109 56.1419 10.3344 55.9376 10.5814 55.9376C10.9108 55.9376 11.0343 56.2645 11.1167 56.4688C11.6108 57.6538 13.0518 60.1871 14.4105 61.658C15.3163 62.6387 16.428 63.2516 17.622 63.2516C19.6395 63.2516 21.3276 61.4946 21.3276 59.6559C21.3276 58.5118 20.8335 57.6538 19.8865 56.5914C18.6925 55.2839 17.2514 53.5677 16.7162 52.7505C16.5103 52.4645 16.5103 52.2602 16.5103 52.1785C16.5103 51.9333 16.6339 51.7699 16.8809 51.5247C17.4985 50.9527 18.9807 49.5635 19.8042 48.2968C20.4218 47.3161 20.71 46.4581 20.71 45.7226C20.71 43.843 18.9807 42.3721 17.1279 42.3721C15.9339 42.3721 14.8222 43.0258 14.04 44.2516C13.0106 45.886 11.8166 47.7656 11.0343 48.542C10.8285 48.7463 10.7461 48.7871 10.5814 48.7871C10.3344 48.7871 10.2109 48.6237 10.2109 48.3377V46.1721C10.2109 44.0473 8.93453 42.3721 6.67002 42.3721C4.36434 42.3721 3.12915 44.0882 3.12915 46.1721V59.4107C3.12915 61.5355 4.36434 63.2107 6.67002 63.2107C8.93453 63.2516 10.2109 61.5355 10.2109 59.4516Z" fill="white"/>
<path d="M68.7588 65.417C70.0352 65.417 70.5704 66.0299 70.5704 67.0923C70.5704 68.931 68.8411 71.5051 65.465 73.4256C59.8243 76.5718 50.1898 77.4707 36.8086 77.4707C23.4275 77.4707 13.793 76.5718 8.15231 73.4256C4.77614 71.546 3.04688 68.9718 3.04688 67.0923C3.04688 66.0299 3.6233 65.417 4.85848 65.417H68.7588Z" fill="white"/>
<path d="M68.7586 24.3938H4.8995C3.62314 24.3938 3.08789 23.7401 3.08789 22.596C3.08789 15.7315 13.5046 3.55518 36.8496 3.55518C59.9476 3.55518 70.6114 15.6906 70.6114 22.596C70.6114 23.7401 70.035 24.3938 68.7586 24.3938Z" fill="white"/>
<path d="M64.6413 32.9332C64.2708 32.9332 64.1061 32.7289 64.1061 32.4429V30.9719C64.1061 30.6859 64.2708 30.4816 64.6413 30.4816H64.9296C65.8354 30.4816 66.1236 31.1354 66.1236 31.6666C66.1236 32.1977 65.8354 32.9332 64.9296 32.9332H64.6413ZM47.9252 27.9483C47.0194 27.2945 45.743 26.8042 43.849 26.8042C40.4729 26.8042 37.2202 29.0106 37.2202 34.0773C37.2202 38.9397 40.4729 41.187 43.7255 41.187C47.1429 41.187 49.2839 39.0214 49.2839 35.916C49.2839 33.9139 48.0899 32.5246 45.6607 32.5246H44.9607C43.6844 32.5246 42.6962 33.1375 42.6962 34.4859C42.6962 35.6708 43.7667 36.2837 44.549 36.2837C44.9607 36.2837 45.2078 36.4063 45.2078 36.7332C45.2078 37.101 44.7548 37.387 44.2196 37.387C42.6139 37.387 41.5022 36.2429 41.5022 34.1182C41.5022 31.7483 43.0256 30.8902 44.1784 30.8902C45.6195 30.8902 45.8665 31.6257 46.8547 31.6257C48.0075 31.6257 48.7898 30.6859 48.7898 29.7053C48.7486 28.8881 48.4192 28.316 47.9252 27.9483ZM56.4479 35.6708H54.9657C54.5952 35.6708 54.4305 35.8751 54.4305 36.1612V36.5698C54.4305 36.8558 54.5952 37.0601 54.9657 37.0601H56.9008C58.0949 37.0601 59.083 37.7547 59.083 39.0214C59.083 40.3289 58.136 41.0235 56.9008 41.0235H52.8247C51.0955 41.0235 50.272 40.0429 50.272 38.6945V29.2149C50.272 27.8666 51.0955 26.8859 52.8247 26.8859H56.9008C58.0949 26.8859 59.083 27.5805 59.083 28.8472C59.083 30.1547 58.136 30.8494 56.9008 30.8494H54.9657C54.5952 30.8494 54.4305 31.0537 54.4305 31.3397V31.6666C54.4305 31.9526 54.5952 32.1569 54.9657 32.1569H56.4479C57.4773 32.1569 58.3007 32.7698 58.3007 33.873C58.3007 34.9762 57.4773 35.6708 56.4479 35.6708ZM60.03 38.8171C60.03 40.1246 60.7711 41.1461 62.171 41.1461C63.5709 41.1461 64.312 40.1246 64.312 38.8171V36.5289C64.312 36.2429 64.4355 36.1203 64.6413 36.1203C64.8884 36.1203 64.9707 36.2837 65.0119 36.5289C65.2178 37.6321 65.7118 39.1031 66.3294 39.8794C67.0706 40.8601 67.7705 41.1461 68.4704 41.1461C69.5821 41.1461 70.5702 40.2472 70.5702 39.1848C70.5702 38.4493 70.282 37.9182 69.8703 37.4278C69.1292 36.488 68.6763 35.916 68.3881 35.1397C68.3057 34.9762 68.3469 34.8128 68.5528 34.6493C69.2115 34.1182 69.9938 32.9741 69.9938 31.1762C69.9938 28.4386 67.7293 26.8859 64.9707 26.8859H62.5827C60.8534 26.8859 60.03 27.8666 60.03 29.2149V38.8171ZM26.4329 38.8171C26.4329 40.1246 27.174 41.1461 28.5739 41.1461C29.9738 41.1461 30.7149 40.1246 30.7149 38.8171V36.5289C30.7149 36.2429 30.8384 36.1203 31.0443 36.1203C31.2913 36.1203 31.3737 36.2837 31.4148 36.5289C31.6207 37.6321 32.1148 39.1031 32.7324 39.8794C33.4735 40.8601 34.1734 41.1461 34.8734 41.1461C35.985 41.1461 36.9732 40.2472 36.9732 39.1848C36.9732 38.4493 36.685 37.9182 36.2732 37.4278C35.6556 36.6106 35.0792 35.916 34.791 35.1397C34.7087 34.9762 34.7498 34.8128 34.9557 34.6493C35.6145 34.1182 36.3968 32.9741 36.3968 31.1762C36.3968 28.4386 34.1322 26.8859 31.3737 26.8859H28.9445C27.2152 26.8859 26.3917 27.8666 26.3917 29.2149V38.8171H26.4329ZM31.0443 32.9332C30.6737 32.9332 30.509 32.7289 30.509 32.4429V30.9719C30.509 30.6859 30.6737 30.4816 31.0443 30.4816H31.3325C32.2383 30.4816 32.5265 31.1354 32.5265 31.6666C32.5265 32.1977 32.2383 32.9332 31.3325 32.9332H31.0443ZM7.45222 35.1397H7.82277C8.85209 35.1397 9.18148 35.8343 9.18148 36.4472C9.18148 37.0192 8.89327 37.7956 7.82277 37.7956H7.45222C7.08166 37.7956 6.91697 37.5913 6.91697 37.3053V35.63C6.91697 35.344 7.08166 35.1397 7.45222 35.1397ZM7.45222 32.5655C7.08166 32.5655 6.91697 32.3612 6.91697 32.0752V30.6042C6.91697 30.3182 7.08166 30.1139 7.45222 30.1139H7.74043C8.6874 30.1139 8.93444 30.7676 8.93444 31.2988C8.93444 31.83 8.64623 32.5655 7.74043 32.5655H7.45222ZM5.64061 41.0235H8.6874C11.5695 41.0235 13.3399 39.1031 13.3399 36.7332C13.3399 34.8128 12.1871 33.9547 11.9401 33.7096C11.8165 33.6278 11.7342 33.5461 11.7342 33.4644C11.7342 33.3418 11.8165 33.301 11.8989 33.1784C12.3106 32.6881 12.7223 31.9526 12.7223 30.8494C12.7223 28.2752 10.9519 26.8859 8.2345 26.8859H5.64061C3.91135 26.8859 3.08789 27.8666 3.08789 29.2149V38.6945C3.08789 40.0429 3.91135 41.0235 5.64061 41.0235ZM19.6806 41.1461C16.1809 41.1461 14.3281 39.0622 14.3281 36.4472V29.1741C14.3281 27.8666 15.0692 26.8451 16.4691 26.8451C17.869 26.8451 18.6512 27.8666 18.6512 29.1741V36.202C18.6512 36.7332 18.8983 37.3053 19.6806 37.3053C20.4628 37.3053 20.7511 36.6923 20.7511 36.202V29.1741C20.7511 27.8666 21.4922 26.8451 22.892 26.8451C24.2919 26.8451 25.033 27.8666 25.033 29.1741V36.4063C25.0742 39.0622 23.1803 41.1461 19.6806 41.1461Z" fill="white"/>
<path d="M30.3033 46.4577C30.3033 44.2104 28.9857 42.4126 26.5565 42.4126C24.1273 42.4126 22.8098 44.2104 22.8098 46.4577V59.2061C22.8098 61.4534 24.1273 63.2513 26.5565 63.2513C28.9857 63.2513 30.3033 61.4534 30.3033 59.2061V46.4577Z" fill="white"/>
<path d="M70.0763 63.3334C70.0763 63.9463 69.6234 64.3957 69.0058 64.3957C68.3882 64.3957 67.9353 63.9463 67.9353 63.3334C67.9353 62.7205 68.3882 62.271 69.0058 62.271C69.6234 62.271 70.0763 62.7205 70.0763 63.3334ZM69.8293 63.3334C69.8293 62.8839 69.4999 62.5162 69.047 62.5162C68.5941 62.5162 68.2647 62.8839 68.2647 63.3334C68.2647 63.7828 68.5941 64.1506 69.047 64.1506C69.4587 64.1506 69.8293 63.7828 69.8293 63.3334ZM69.4175 63.7828C69.4587 63.8237 69.4175 63.8645 69.3763 63.8645H69.294C69.2528 63.8645 69.2117 63.8645 69.1705 63.8237C69.1293 63.7011 69.047 63.5785 69.0058 63.4559H68.8823V63.8237C68.8823 63.8645 68.8411 63.9054 68.7999 63.9054H68.7176C68.6764 63.9054 68.6352 63.8645 68.6352 63.8237V62.8839C68.6352 62.843 68.6764 62.8022 68.7176 62.8022H69.047C69.2528 62.8022 69.4175 62.9248 69.4175 63.1291C69.4175 63.2925 69.3352 63.3742 69.2528 63.4151C69.2528 63.5377 69.3352 63.6602 69.4175 63.7828ZM68.8823 63.2516H69.047C69.1293 63.2516 69.2117 63.2108 69.2117 63.1291C69.2117 63.0473 69.1705 63.0065 69.047 63.0065H68.8823V63.2516Z" fill="#E42313"/>
</svg>
