<svg width="112" height="87" viewBox="0 0 112 87" fill="none" xmlns="http://www.w3.org/2000/svg">
<g clip-path="url(#clip0_16_805)">
<path d="M103.256 42.2107C103.236 42.1488 103.236 42.0869 103.214 42.025C103.194 41.9013 103.153 41.7568 103.112 41.633C103.091 41.5711 103.07 41.4886 103.029 41.4267C102.988 41.3236 102.946 41.1998 102.885 41.0966C102.844 41.0347 102.823 40.9522 102.782 40.8903C102.72 40.7872 102.658 40.684 102.575 40.5809C102.534 40.519 102.493 40.4571 102.452 40.4158C102.369 40.3126 102.266 40.2095 102.183 40.1064C102.142 40.0651 102.122 40.0238 102.081 39.9826C101.937 39.8588 101.791 39.7351 101.627 39.6318C101.586 39.6112 101.545 39.5906 101.503 39.5493C101.4 39.4874 101.297 39.4255 101.194 39.3637L101.153 39.343C100.946 39.2399 100.719 39.1574 100.492 39.0749H100.472L54.6286 21.1673C54.443 21.0641 54.2368 20.9816 54.0305 20.9197C53.3913 20.6928 52.6901 20.5483 51.9477 20.5483C51.8446 20.5483 51.7621 20.569 51.659 20.569C51.5559 20.569 51.4734 20.5483 51.3703 20.5483C50.6485 20.5483 49.9267 20.6722 49.2874 20.9197C49.0811 20.9816 48.8956 21.0848 48.6893 21.1673L24.8087 30.5337V23.6843C24.8087 21.9925 23.4063 20.6102 21.6535 20.6102H12.6208C10.8886 20.6102 9.46565 21.9925 9.46565 23.6843V36.5166L2.82526 39.1161H2.80464C2.57779 39.1986 2.37157 39.2811 2.14473 39.3843L2.10348 39.4049C2.00037 39.4668 1.89725 39.5287 1.79415 39.5906C1.7529 39.6112 1.71165 39.6318 1.67041 39.6731C1.50544 39.7763 1.36108 39.9001 1.21671 40.0238C1.17548 40.0651 1.15485 40.1064 1.11361 40.1476C1.0105 40.2507 0.928002 40.3539 0.845516 40.4571C0.804272 40.519 0.763026 40.5809 0.721782 40.6222C0.659915 40.7253 0.577426 40.8078 0.536181 40.9316C0.494936 40.9935 0.453692 41.0553 0.433069 41.1379C0.371202 41.2411 0.329957 41.3442 0.288713 41.468C0.26809 41.5299 0.226846 41.5918 0.206223 41.6743C0.164979 41.798 0.144356 41.9219 0.103112 42.0663C0.0824894 42.1282 0.0824894 42.1901 0.061867 42.252C0.0206223 42.417 0 42.6027 0 42.809V82.4407C0 84.5657 1.77352 86.2987 3.93887 86.2987H99.3587C101.545 86.2987 103.297 84.5657 103.297 82.4407V42.809C103.318 42.6027 103.297 42.417 103.256 42.2107Z" fill="#A6A6A6"/>
<path d="M108.782 80.543C109.298 80.543 109.834 80.6873 110.371 80.9555C110.907 81.2444 111.278 81.6157 111.567 82.1315C111.876 82.6473 112.02 83.1836 112.02 83.7407C112.02 84.2977 111.876 84.8548 111.608 85.3499C111.299 85.8656 110.907 86.2577 110.391 86.5671C109.896 86.8353 109.38 86.9797 108.803 86.9797C108.246 86.9797 107.689 86.8353 107.194 86.5671C106.658 86.2577 106.287 85.8656 105.978 85.3499C105.689 84.8754 105.544 84.2977 105.544 83.7407C105.544 83.1836 105.689 82.6679 105.998 82.1315C106.287 81.6157 106.658 81.2238 107.194 80.9555C107.689 80.6873 108.226 80.543 108.782 80.543ZM108.782 81.0793C108.329 81.0793 107.875 81.2238 107.442 81.4301C106.989 81.6776 106.679 82.0284 106.431 82.4409C106.184 82.8536 106.039 83.3075 106.039 83.7613C106.039 84.2565 106.184 84.6691 106.431 85.1229C106.638 85.5356 106.988 85.845 107.421 86.0926C107.834 86.3402 108.288 86.4433 108.782 86.4433C109.236 86.4433 109.689 86.3402 110.123 86.0926C110.535 85.845 110.907 85.5356 111.092 85.1229C111.34 84.6691 111.443 84.2565 111.443 83.7613C111.443 83.3075 111.34 82.8536 111.092 82.4409C110.844 82.0284 110.535 81.6776 110.081 81.4301C109.649 81.2031 109.195 81.0793 108.782 81.0793ZM107.339 85.5356V82.0902H108.534C108.948 82.0902 109.236 82.1315 109.401 82.1934C109.608 82.2553 109.752 82.3584 109.855 82.5028C109.957 82.6679 110.04 82.8536 110.04 83.0186C110.04 83.2662 109.937 83.5138 109.752 83.6788C109.587 83.8438 109.34 83.947 109.009 83.9883C109.153 84.0502 109.257 84.0914 109.318 84.1533C109.463 84.2977 109.628 84.5453 109.813 84.8548L110.247 85.515H109.587L109.277 84.9992C109.03 84.5865 108.844 84.2977 108.68 84.1946C108.576 84.0914 108.432 84.0502 108.226 84.0502H107.917V85.515H107.339V85.5356ZM107.896 83.6169H108.597C108.906 83.6169 109.133 83.555 109.257 83.4519C109.36 83.39 109.421 83.2455 109.421 83.0598C109.421 82.9567 109.38 82.8948 109.318 82.7711C109.277 82.7092 109.174 82.6267 109.072 82.606C108.968 82.5648 108.782 82.5648 108.514 82.5648H107.875V83.6169H107.896Z" fill="#A6A6A6"/>
<path d="M25.0345 61.5418C24.4364 62.202 23.1785 63.1922 20.9925 63.1922C19.7346 63.1922 18.621 62.8828 17.6517 62.0782C16.0019 60.7166 15.8782 58.7979 15.8782 58.117C15.8782 57.5187 15.94 56.1984 16.8887 54.8986C18.2497 53.0213 20.1264 52.8975 20.9925 52.8975C23.2403 52.8975 24.5808 54.0528 25.1376 54.6511C25.4264 54.9812 25.5707 55.2081 25.7769 55.5794L23.1579 56.8379C23.1166 56.7348 23.0547 56.6523 23.0135 56.5491C22.8485 56.219 22.3536 55.2287 21.0956 55.2287C20.5182 55.2287 20.1676 55.435 19.9614 55.5794C18.9715 56.2809 19.0334 57.6838 19.0334 57.9314C19.0334 59.2518 19.4665 59.9739 19.9407 60.3452C20.4357 60.7166 20.8688 60.7166 21.1163 60.7166C22.1886 60.7166 22.7042 60.0151 22.8897 59.685C22.9516 59.5406 23.0135 59.4168 23.1166 59.1485L25.7975 60.407C25.4469 61.026 25.2614 61.2735 25.0345 61.5418Z" fill="white"/>
<path d="M32.6253 55.9709L31.5529 59.375H33.6771L32.6253 55.9709ZM34.7494 62.8822L34.3163 61.5412H30.8724L30.4393 62.8822H27.0779L30.8518 53.2271H34.3988L38.0902 62.8822H34.7494Z" fill="white"/>
<path d="M47.5146 62.2842C46.236 63.192 44.5656 63.1713 44.1532 63.1713C42.7096 63.1713 41.3485 62.9444 40.173 62.0779C39.7193 61.7478 39.4513 61.459 39.1213 61.0464L41.5135 59.561C41.7197 59.891 41.8435 60.0355 41.9878 60.1593C42.5446 60.6337 43.5757 60.8401 44.2769 60.8401C45.1637 60.8401 45.7823 60.5718 45.7823 60.0974C45.7823 59.9942 45.7204 59.9116 45.7204 59.8704C45.6586 59.726 45.5349 59.6022 45.2462 59.5197C44.8956 59.3959 44.2563 59.3134 43.3901 59.1483C42.029 58.8801 41.3073 58.5707 40.8329 58.1581C40.5236 57.8899 39.9668 57.2503 39.9874 56.1981C39.9874 55.93 40.0081 55.3523 40.3587 54.7333C41.3691 52.9179 43.9882 52.9591 44.3594 52.9591C44.8543 52.9591 46.6485 52.9798 48.0508 53.9906C48.3601 54.2175 48.5457 54.4033 48.8138 54.6508L46.8341 56.2394C46.7104 56.0743 46.6485 55.9918 46.5454 55.93C45.9679 55.4142 44.978 55.2698 44.2356 55.2698C44.1738 55.2698 43.7819 55.2698 43.4932 55.3935C43.4314 55.4142 43.1014 55.5792 43.1014 55.9093C43.1014 56.095 43.2046 56.26 43.3489 56.3425C43.5964 56.487 44.1944 56.6108 44.4625 56.652C44.8131 56.7139 45.7411 56.8377 46.7104 57.1471C47.329 57.3328 48.8551 57.8692 48.8551 59.7879C48.8138 61.1908 47.9477 61.9747 47.5146 62.2842Z" fill="white"/>
<path d="M54.0936 53.2271H50.959V62.8822H54.0936V53.2271Z" fill="white"/>
<path d="M61.4757 55.6202V62.8822H58.3411V55.6202H55.8252V53.2271H63.971V55.6202H61.4757Z" fill="white"/>
<path d="M69.8273 55.9709L68.7549 59.375H70.879L69.8273 55.9709ZM71.9513 62.8822L71.5183 61.5412H68.0744L67.6413 62.8822H64.2798L68.0537 53.2271H71.6007L75.2921 62.8822H71.9513Z" fill="white"/>
<path d="M85.0061 62.2842C83.7275 63.192 82.0571 63.1713 81.6446 63.1713C80.2011 63.1713 78.84 62.9444 77.6646 62.0779C77.2109 61.7478 76.9427 61.459 76.6128 61.0464L79.005 59.561C79.2112 59.891 79.3349 60.0355 79.4793 60.1593C80.0361 60.6337 81.0673 60.8401 81.7684 60.8401C82.6552 60.8401 83.2739 60.5718 83.2739 60.0974C83.2739 59.9942 83.212 59.9116 83.212 59.8704C83.1501 59.726 83.0264 59.6022 82.7376 59.5197C82.387 59.3959 81.7684 59.3134 80.8816 59.1483C79.5206 58.8801 78.7988 58.5707 78.3245 58.1581C78.0151 57.8899 77.4583 57.2503 77.479 56.1981C77.479 55.93 77.4996 55.3523 77.8501 54.7333C78.8607 52.9179 81.4796 52.9591 81.8509 52.9591C82.3458 52.9591 84.1399 52.9798 85.5423 53.9906C85.8516 54.2175 86.0372 54.4033 86.3053 54.6508L84.3256 56.2394C84.2018 56.0743 84.1194 55.9918 84.0368 55.93C83.4594 55.4142 82.4696 55.2698 81.7272 55.2698C81.6653 55.2698 81.2735 55.2698 80.9847 55.3935C80.9229 55.4142 80.5929 55.5792 80.5929 55.9093C80.5929 56.095 80.696 56.26 80.8404 56.3425C81.0878 56.487 81.6859 56.6108 81.954 56.652C82.3046 56.7139 83.2326 56.8377 84.2018 57.1471C84.8206 57.3328 86.3466 57.8692 86.3466 59.7879C86.3053 61.1908 85.4392 61.9747 85.0061 62.2842Z" fill="white"/>
<path d="M43.3488 44.6039V46.6464C43.122 46.832 42.8333 46.9765 42.5033 47.1003C42.1527 47.2241 41.7816 47.2859 41.3897 47.2859C41.0185 47.2859 40.6885 47.2241 40.3998 47.1209C40.1111 46.9971 39.8843 46.8527 39.6986 46.6464C39.5131 46.4401 39.3687 46.1925 39.2863 45.9037C39.1831 45.6149 39.1418 45.3054 39.1418 44.9547C39.1418 44.5833 39.1831 44.2532 39.2863 43.9437C39.3893 43.6549 39.5337 43.4073 39.7193 43.201C39.9049 42.9947 40.1318 42.8503 40.4205 42.7266C40.6885 42.6233 41.0185 42.5615 41.3691 42.5615C41.6784 42.5615 41.9465 42.6027 42.1734 42.6852C42.4002 42.7678 42.5858 42.871 42.7508 43.0154C42.9158 43.1391 43.0394 43.3042 43.122 43.4693C43.2045 43.6549 43.2663 43.8406 43.3076 44.0262L42.0703 44.1501C42.029 43.9643 41.9465 43.82 41.8228 43.7374C41.7197 43.6549 41.5547 43.593 41.3484 43.593C41.0185 43.593 40.7916 43.6962 40.6473 43.9231C40.5029 44.1501 40.4205 44.4801 40.4205 44.9341C40.4205 45.3879 40.5029 45.718 40.6679 45.9449C40.8329 46.1718 41.1216 46.2751 41.4928 46.2751C41.7609 46.2751 42.0084 46.2131 42.2146 46.1099V45.5943H41.4928V44.6245H43.3488V44.6039Z" fill="white"/>
<path d="M46.6267 44.6862C46.8741 44.6862 47.0597 44.645 47.1422 44.5418C47.2453 44.4387 47.2865 44.3149 47.2865 44.1293C47.2865 43.9641 47.2247 43.8404 47.1216 43.7372C47.0185 43.6341 46.8329 43.5928 46.5648 43.5928H46.008V44.6656H46.6267V44.6862ZM48.3383 44.8513C48.2146 45.0782 48.0496 45.2433 47.8228 45.3877L48.7714 47.1826H47.4722L46.7091 45.6353H46.0492V47.1826H44.8738V42.6851H46.6885C47.0391 42.6851 47.3484 42.7264 47.5753 42.8089C47.8021 42.8914 47.9877 42.9945 48.1321 43.1183C48.2765 43.2421 48.3796 43.4072 48.4208 43.5722C48.4826 43.7372 48.5033 43.9229 48.5033 44.1086C48.5033 44.3974 48.4414 44.645 48.3383 44.8513Z" fill="white"/>
<path d="M50.9986 47.162C50.7511 47.0794 50.5449 46.9763 50.3799 46.8112C50.2149 46.6462 50.0912 46.4399 50.0087 46.1923C49.9262 45.9447 49.885 45.6353 49.885 45.3051V42.6851H51.1223V45.367C51.1223 45.6765 51.1636 45.8828 51.2873 46.0478C51.3904 46.1923 51.576 46.2749 51.8441 46.2749C52.1122 46.2749 52.2771 46.2129 52.3803 46.0478C52.4834 45.9035 52.5453 45.6765 52.5453 45.367V42.6851H53.7826V45.3051C53.7826 45.6559 53.7414 45.9447 53.6382 46.1923C53.5351 46.4399 53.4114 46.6462 53.2464 46.8112C53.0814 46.9763 52.8752 47.0794 52.6277 47.162C52.3803 47.2445 52.1122 47.2857 51.8029 47.2857C51.5142 47.2857 51.2461 47.2445 50.9986 47.162Z" fill="white"/>
<path d="M57.0419 44.7481C57.31 44.7481 57.4749 44.7068 57.578 44.6037C57.6812 44.5212 57.7224 44.3768 57.7224 44.1911C57.7224 44.0054 57.6606 43.861 57.5575 43.7785C57.4544 43.696 57.2687 43.6341 57.0212 43.6341H56.5057V44.7481H57.0419ZM57.0419 42.6851C57.3925 42.6851 57.7018 42.7264 57.9286 42.8089C58.1761 42.8914 58.3618 42.9945 58.4854 43.1389C58.6092 43.2833 58.7329 43.4278 58.7741 43.6135C58.8154 43.7991 58.8567 43.9848 58.8567 44.1911C58.8567 44.3974 58.836 44.6037 58.7741 44.7894C58.7123 44.9751 58.6092 45.1401 58.4648 45.2845C58.3204 45.4289 58.1349 45.5322 57.9081 45.6147C57.6812 45.6972 57.3718 45.7384 57.0419 45.7384H56.5057V47.2032H55.3096V42.7057H57.0419V42.6851Z" fill="white"/>
<path d="M61.6205 45.9036C61.7855 46.1306 62.0329 46.2337 62.3629 46.2337C62.6929 46.2337 62.9403 46.1306 63.1054 45.9036C63.2703 45.6767 63.3528 45.3466 63.3528 44.9134C63.3528 44.4801 63.2703 44.15 63.1054 43.9231C62.9403 43.6961 62.6929 43.593 62.3629 43.593C62.0329 43.593 61.7855 43.6961 61.6205 43.9231C61.4556 44.15 61.373 44.4801 61.373 44.9134C61.373 45.3673 61.4556 45.6767 61.6205 45.9036ZM63.3321 42.7265C63.6003 42.8296 63.8477 42.9947 64.0333 43.201C64.2189 43.4073 64.3632 43.6549 64.4663 43.9437C64.5695 44.2325 64.6107 44.5626 64.6107 44.9134C64.6107 45.2847 64.5695 45.6148 64.4663 45.9036C64.3632 46.1925 64.2189 46.44 64.0333 46.6463C63.8477 46.8527 63.6003 47.0177 63.3115 47.1208C63.0228 47.224 62.6929 47.2859 62.3423 47.2859C61.9917 47.2859 61.6617 47.224 61.373 47.1208C61.0843 47.0177 60.8575 46.8527 60.6718 46.6669C60.4863 46.4606 60.3419 46.2131 60.2388 45.9242C60.1357 45.6354 60.0945 45.3053 60.0945 44.9546C60.0945 44.5832 60.1357 44.2532 60.2388 43.9644C60.3419 43.6755 60.4863 43.4279 60.6718 43.2217C60.8575 43.0153 61.105 42.8503 61.3937 42.7471C61.6824 42.644 61.9917 42.5821 62.3629 42.5821C62.7341 42.5615 63.0435 42.6234 63.3321 42.7265Z" fill="white"/>
<path d="M26.8302 72.4968C27.2014 72.4968 27.4902 72.3936 27.6551 72.1667C27.8407 71.9603 27.9232 71.6509 27.9232 71.259C27.9232 70.867 27.8407 70.5575 27.6757 70.3512C27.5107 70.1449 27.2427 70.0417 26.8921 70.0417H26.3146V72.4968H26.8302ZM25.0566 69.0103H26.8714C27.6345 69.0103 28.2119 69.1959 28.6037 69.5672C28.9956 69.9386 29.1812 70.475 29.1812 71.197C29.1812 71.9397 28.9749 72.4968 28.5625 72.8888C28.15 73.2807 27.5519 73.4871 26.789 73.4871H25.0566V69.0103Z" fill="white"/>
<path d="M33.9031 69.0103V70.0005H31.8203V70.7226H33.7794V71.7128H31.8203V72.5175H34.0269L33.9238 73.5077H30.6035V69.0103H33.9031Z" fill="white"/>
<path d="M36.6036 72.4971C36.7273 72.6002 36.9335 72.6621 37.181 72.6621C37.4079 72.6621 37.5728 72.6208 37.6759 72.5383C37.779 72.4558 37.8409 72.3527 37.8409 72.2083C37.8409 72.1052 37.7997 72.0226 37.7378 71.94C37.6759 71.8781 37.5315 71.8163 37.346 71.775L36.7273 71.6719C36.2118 71.5687 35.8405 71.4243 35.5931 71.1973C35.3456 70.9704 35.2218 70.6816 35.2218 70.2896C35.2218 69.8151 35.3868 69.4644 35.7168 69.2375C36.0468 69.0105 36.5005 68.8867 37.0778 68.8867C37.4079 68.8867 37.6965 68.928 37.944 68.9898C38.1708 69.0724 38.377 69.1756 38.5214 69.2994C38.6658 69.4231 38.7895 69.5675 38.8514 69.7325C38.9339 69.8977 38.9751 70.0833 38.9958 70.2483L37.7997 70.3721C37.7584 70.1865 37.6965 70.0627 37.5728 69.9802C37.4696 69.8977 37.2841 69.8358 37.0573 69.8358C36.851 69.8358 36.686 69.877 36.5829 69.9389C36.4798 70.0008 36.4386 70.104 36.4386 70.2277C36.4386 70.3309 36.4798 70.4134 36.5623 70.4753C36.6448 70.5371 36.7685 70.5785 36.9542 70.6197L37.5728 70.7435C38.109 70.8467 38.5008 71.0117 38.7276 71.2593C38.9545 71.4862 39.0782 71.7956 39.0782 72.1464C39.0782 72.3733 39.037 72.559 38.9545 72.7447C38.872 72.9304 38.7483 73.0748 38.6039 73.1985C38.4389 73.3223 38.2534 73.4255 38.0059 73.4874C37.7584 73.5493 37.4696 73.5906 37.1397 73.5906C35.8612 73.5906 35.2012 73.0541 35.1394 72.002H36.3767C36.3973 72.2289 36.4798 72.3939 36.6036 72.4971Z" fill="white"/>
<path d="M42.7916 71.6922L42.3173 70.1449L41.843 71.6922H42.7916ZM44.6476 73.5077H43.3691L43.1009 72.6413H41.5543L41.2862 73.5077H40.0488L41.6367 69.0103H43.039L44.6476 73.5077Z" fill="white"/>
<path d="M47.6582 71.032C47.9057 71.032 48.0913 70.9907 48.1737 70.8875C48.2768 70.7843 48.3181 70.6606 48.3181 70.4749C48.3181 70.3099 48.2563 70.186 48.1531 70.0829C48.05 69.9798 47.8645 69.9385 47.5963 69.9385H47.0395V71.0113H47.6582V71.032ZM49.3492 71.197C49.2255 71.4033 49.0605 71.5889 48.8336 71.7334L49.7823 73.5283H48.4831L47.7407 71.981H47.0807V73.5283H45.9053V69.0308H47.72C48.0706 69.0308 48.3799 69.072 48.6068 69.1545C48.8336 69.2371 49.0192 69.3402 49.1637 69.464C49.308 69.5878 49.4111 69.7529 49.4524 69.9179C49.5142 70.0829 49.5348 70.2686 49.5348 70.4543C49.5142 70.7225 49.4729 70.97 49.3492 71.197Z" fill="white"/>
<path d="M52.7731 71.032C53.0206 71.032 53.2062 70.9907 53.2887 70.8875C53.3918 70.7843 53.433 70.6606 53.433 70.4749C53.433 70.3099 53.3711 70.186 53.268 70.0829C53.1649 69.9798 52.9793 69.9385 52.7112 69.9385H52.1545V71.0113H52.7731V71.032ZM54.4641 71.197C54.3404 71.4033 54.1754 71.5889 53.9486 71.7334L54.8973 73.5283H53.598L52.835 71.981H52.1545V73.5283H50.979V69.0308H52.7938C53.1443 69.0308 53.4537 69.072 53.6805 69.1545C53.9073 69.2371 54.1135 69.3402 54.2373 69.464C54.3817 69.5878 54.4641 69.7529 54.526 69.9179C54.5879 70.0829 54.6085 70.2686 54.6085 70.4543C54.6291 70.7225 54.5879 70.97 54.4641 71.197Z" fill="white"/>
<path d="M57.4123 72.2489C57.5772 72.4759 57.8247 72.5791 58.1547 72.5791C58.4846 72.5791 58.7321 72.4759 58.8971 72.2489C59.0621 72.022 59.1445 71.6919 59.1445 71.2587C59.1445 70.8254 59.0621 70.4954 58.8971 70.2684C58.7321 70.0415 58.4846 69.9383 58.1547 69.9383C57.8247 69.9383 57.5772 70.0415 57.4123 70.2684C57.2473 70.4954 57.1648 70.8254 57.1648 71.2587C57.1648 71.6919 57.2473 72.022 57.4123 72.2489ZM59.1239 69.0718C59.392 69.175 59.6395 69.34 59.825 69.5463C60.0107 69.7527 60.155 70.0002 60.2582 70.289C60.3613 70.5779 60.4025 70.9079 60.4025 71.2587C60.4025 71.63 60.3613 71.9601 60.2582 72.2489C60.155 72.5378 60.0107 72.7854 59.825 72.9916C59.6395 73.1979 59.392 73.363 59.1033 73.4662C58.8146 73.5693 58.4846 73.6312 58.134 73.6312C57.7834 73.6312 57.4535 73.5693 57.1648 73.4662C56.8761 73.363 56.6492 73.1979 56.4637 72.9916C56.278 72.7854 56.1336 72.5378 56.0305 72.2489C55.9275 71.9601 55.8862 71.63 55.8862 71.2793C55.8862 70.9079 55.9481 70.5779 56.0305 70.289C56.1336 70.0002 56.278 69.7527 56.4637 69.5463C56.6492 69.34 56.8967 69.175 57.1648 69.0718C57.4535 68.9687 57.7834 68.9067 58.134 68.9067C58.5259 68.9067 58.8558 68.948 59.1239 69.0718Z" fill="white"/>
<path d="M63.084 69.0103V72.4762H65.105L65.0019 73.5077H61.8467V69.0103H63.084Z" fill="white"/>
<path d="M67.5996 69.0103V72.4762H69.6412L69.5175 73.5077H66.3623V69.0103H67.5996Z" fill="white"/>
<path d="M72.2616 72.2489C72.4266 72.4759 72.6741 72.5791 73.0041 72.5791C73.334 72.5791 73.5814 72.4759 73.7465 72.2489C73.9114 72.022 73.9939 71.6919 73.9939 71.2587C73.9939 70.8254 73.9114 70.4954 73.7465 70.2684C73.5814 70.0415 73.334 69.9383 73.0041 69.9383C72.6741 69.9383 72.4266 70.0415 72.2616 70.2684C72.0967 70.4954 72.0141 70.8254 72.0141 71.2587C72.0141 71.6919 72.0967 72.022 72.2616 72.2489ZM73.9733 69.0718C74.2414 69.175 74.4888 69.34 74.6744 69.5463C74.86 69.7527 75.0044 70.0002 75.1075 70.289C75.2106 70.5779 75.2519 70.9079 75.2519 71.2587C75.2519 71.63 75.2106 71.9601 75.1075 72.2489C75.0044 72.5378 74.86 72.7854 74.6744 72.9916C74.4888 73.1979 74.2414 73.363 73.9527 73.4662C73.6639 73.5693 73.3547 73.6312 72.9834 73.6312C72.6328 73.6312 72.3029 73.5693 72.0141 73.4662C71.7461 73.363 71.4986 73.1979 71.313 72.9916C71.1274 72.7854 70.983 72.5378 70.8799 72.2489C70.7768 71.9601 70.7356 71.63 70.7356 71.2793C70.7356 70.9079 70.7768 70.5779 70.8799 70.289C70.983 70.0002 71.1274 69.7527 71.313 69.5463C71.4986 69.34 71.7461 69.175 72.0348 69.0718C72.3235 68.9687 72.6328 68.9067 73.0041 68.9067C73.3752 68.9067 73.6846 68.948 73.9733 69.0718Z" fill="white"/>
<path d="M77.8913 72.4971C78.0151 72.6002 78.2213 72.6621 78.4688 72.6621C78.6956 72.6621 78.8606 72.6208 78.9637 72.5383C79.0668 72.4558 79.1287 72.3527 79.1287 72.2083C79.1287 72.1052 79.0874 72.0226 79.0256 71.94C78.943 71.8781 78.8194 71.8163 78.6337 71.775L78.0151 71.6719C77.4995 71.5687 77.1283 71.4243 76.8808 71.1973C76.6333 70.9704 76.5096 70.6816 76.5096 70.2896C76.5096 69.8151 76.6746 69.4644 77.0046 69.2375C77.3345 69.0105 77.7882 68.8867 78.3657 68.8867C78.6956 68.8867 78.9843 68.928 79.2112 68.9898C79.4586 69.0724 79.6442 69.1756 79.7885 69.2994C79.9329 69.4231 80.0567 69.5675 80.1186 69.7325C80.201 69.8977 80.2422 70.0833 80.2629 70.2483L79.0668 70.3721C79.0256 70.1865 78.9637 70.0627 78.8399 69.9802C78.7368 69.8977 78.5512 69.8358 78.3244 69.8358C78.1182 69.8358 77.9532 69.877 77.8501 69.9389C77.7469 70.0008 77.7057 70.104 77.7057 70.2277C77.7057 70.3309 77.747 70.4134 77.8295 70.4753C77.912 70.5371 78.0356 70.5785 78.2213 70.6197L78.8399 70.7435C79.3762 70.8467 79.768 71.0117 79.9948 71.2593C80.2217 71.4862 80.3454 71.7956 80.3454 72.1464C80.3454 72.3733 80.3041 72.559 80.2217 72.7447C80.1391 72.9304 80.0154 73.0748 79.8711 73.1985C79.7061 73.3223 79.5205 73.4255 79.2731 73.4874C79.0256 73.5493 78.7368 73.5906 78.4069 73.5906C77.1283 73.5906 76.4684 73.0541 76.4065 72.002H77.6438C77.6851 72.2289 77.7676 72.3939 77.8913 72.4971Z" fill="white"/>
</g>
<defs>
<clipPath id="clip0_16_805">
<rect width="112" height="87" fill="white"/>
</clipPath>
</defs>
</svg>
