<svg width="232" height="57" viewBox="0 0 232 57" fill="none" xmlns="http://www.w3.org/2000/svg">
<g clip-path="url(#clip0_16_869)">
<path d="M37.2225 48.326C37.3866 48.163 37.5507 48.0325 37.682 47.8695C37.7476 47.7717 37.8133 47.6738 37.8789 47.576C37.9118 47.5434 37.9446 47.4782 37.9774 47.4456C38.1087 47.2499 38.2072 47.0543 38.3056 46.8586C38.3385 46.7608 38.4041 46.663 38.4369 46.5652C38.4698 46.4999 38.5026 46.4673 38.5026 46.4021C38.5026 46.3695 38.5354 46.3369 38.5354 46.3043C38.8965 45.2934 38.995 44.2173 38.8308 43.0434C38.5354 40.663 37.2553 39.0978 34.9576 38.2499C33.8088 37.826 32.4958 37.6304 30.8218 37.6304C29.7714 37.6304 28.6882 37.6304 27.605 37.6304H23.699V56.2499H26.2921V50.2499H31.4454C31.4454 50.2499 33.5133 52.9565 34.2683 53.9673C34.8591 54.7499 35.45 55.4999 36.008 56.2825C36.6973 56.2825 37.4194 56.2825 38.1087 56.2825H38.6667C38.5026 56.0869 38.3385 55.8912 38.2072 55.663L34.6622 51.0978L33.8416 50.0217C34.3011 49.9238 34.7935 49.7934 35.2858 49.5978C36.008 49.2391 36.6645 48.8478 37.2225 48.326ZM34.2027 47.7717C33.4477 48.1304 32.7584 48.326 32.1347 48.3586C31.4454 48.3912 30.789 48.3912 30.0997 48.3912C29.6729 48.3912 29.2134 48.3912 28.7867 48.3912C28.36 48.3912 27.9004 48.3912 27.4737 48.3912H26.3905V39.5869H29.6073C30.3622 39.5869 31.1172 39.5869 31.8721 39.6195C33.1195 39.6847 34.1698 40.076 35.0233 40.826C35.9423 41.6412 36.4019 42.7173 36.369 44.0543C36.369 45.7825 35.6141 47.0869 34.2027 47.7717Z" fill="#A6A6A6"/>
<path d="M17.9219 46.9238H9.97852V48.5868H15.854V52.7281C15.6571 52.9238 15.4273 53.1194 15.1647 53.2825C15.0334 53.3803 14.8693 53.4455 14.738 53.5107C14.6067 53.5759 14.4754 53.6086 14.3113 53.6738C14.0159 53.7716 13.7205 53.902 13.3922 53.9672C11.9151 54.3586 10.3068 54.4238 9.74876 54.4238C9.68311 54.4238 9.61746 54.4238 9.55181 54.4238C9.22357 54.4238 8.86251 54.4238 8.50144 54.3912C6.13812 54.2281 4.36562 52.9564 3.5122 50.8694C2.5603 48.5542 2.49465 46.1738 3.31525 43.7607C4.16868 41.2499 5.974 39.7499 8.59992 39.3912C10.077 39.1955 11.6525 39.2607 13.7205 39.6846C14.5082 39.8477 15.3288 40.0433 16.1166 40.239C16.1494 40.239 16.1823 40.239 16.2151 40.2716L16.7731 38.6085C15.0006 37.9564 13.064 37.5325 11.0617 37.3694C10.4709 37.3042 9.9457 37.3042 9.42052 37.3042C8.04191 37.3042 6.82742 37.4998 5.7114 37.8912C3.5122 38.6738 1.96947 40.1085 1.08322 42.1303C-0.262562 45.1955 -0.295386 48.3912 0.951926 51.6846C1.83817 54.0325 3.61067 55.5325 6.17094 56.2172C8.04191 56.7064 10.0442 56.7064 12.6373 56.2499C14.3113 55.9238 16.0181 55.3368 17.9876 54.3586C17.9876 52.4672 17.9876 50.5433 17.9876 48.652V46.9238H17.9219Z" fill="#A6A6A6"/>
<path d="M57.6389 37.5977V39.815C57.6389 42.5542 57.6389 45.2933 57.6389 48.0324C57.6389 49.1411 57.442 50.152 57.0809 51.0324C56.129 53.3477 54.3893 54.4237 51.665 54.3259C49.236 54.2607 47.4635 52.8911 46.807 50.6411C46.5444 49.7281 46.4131 48.8477 46.3803 48.0324C46.3475 45.2933 46.3475 42.489 46.3475 39.7824V37.5977H43.6887V39.6846C43.6887 42.2607 43.6887 44.8694 43.6887 47.4455C43.6887 49.4672 43.9513 50.9672 44.5093 52.3368C45.2643 54.1955 46.5116 55.402 48.3497 55.989C50.6802 56.739 53.1092 56.7716 55.4725 56.0216C57.3763 55.4346 58.6565 54.1955 59.4442 52.2716C59.9694 50.9346 60.232 49.4346 60.232 47.3803C60.232 44.8694 60.232 42.3259 60.232 39.815V37.5977H57.6389Z" fill="#A6A6A6"/>
<path d="M79.3685 39.6524C78.2525 38.5437 76.8082 37.8915 74.9373 37.6959C73.8541 37.598 72.7052 37.5654 71.622 37.5654H71.2938C70.4732 37.5654 69.6526 37.5654 68.832 37.5654H66.2717V56.185H68.8648V51.0002H72.4098C72.935 51.0002 73.4274 51.0002 73.9525 51.0002C75.2327 50.9676 76.3487 50.7393 77.3991 50.3154C79.0403 49.6306 80.0906 48.5546 80.6486 46.9893C81.1082 45.7176 81.2066 44.3154 80.9441 42.7502C80.6815 41.5111 80.1891 40.4676 79.3685 39.6524ZM77.5304 47.4459C76.7098 48.3915 75.5609 48.9459 74.1495 49.0437C73.3617 49.0763 72.5739 49.1089 71.8518 49.1089H70.6373H70.0465C69.8167 49.1089 68.832 49.1089 68.832 49.1089V48.0002V39.5546H69.9808C70.4404 39.5872 70.9327 39.5546 71.3923 39.5872C72.4755 39.6198 73.5915 39.6524 74.7075 39.8154C77.0708 40.1415 78.5807 42.0328 78.5151 44.5111C78.5151 45.2611 78.3838 46.435 77.5304 47.4459Z" fill="#A6A6A6"/>
<path d="M98.0453 37.8262C96.8308 37.4349 95.5835 37.2393 94.3362 37.2393C93.056 37.2393 91.7431 37.4675 90.4301 37.8914C88.6248 38.511 87.2462 39.6523 86.2943 41.3153C85.4737 42.8153 85.047 44.5762 85.0142 46.8588C85.047 48.7501 85.2767 50.1523 85.7691 51.424C86.721 53.8045 88.395 55.3045 90.8568 56.0219C92.7935 56.6088 94.8614 56.674 96.9293 56.2175C100.343 55.5001 102.444 53.4784 103.264 50.0871C103.855 47.6414 103.79 45.2284 103.035 42.8806C102.214 40.3045 100.573 38.6414 98.0453 37.8262ZM100.343 50.511C99.5552 52.6958 97.8484 54.0001 95.4522 54.3262C95.0583 54.3914 94.6644 54.3914 94.2705 54.3914C93.3186 54.3914 92.3996 54.2284 91.579 53.8697C89.8393 53.1523 88.6248 51.7501 88.1324 49.8262C87.9027 48.9458 87.7057 48.1306 87.7057 47.0871C87.6729 46.5979 87.6729 46.2719 87.6729 46.0436C87.837 44.7066 87.9355 44.0219 88.592 42.6849C89.4782 40.8914 90.9881 39.7501 93.0561 39.4566C94.5331 39.2284 95.9117 39.3588 97.1262 39.848C98.8331 40.5327 100.015 41.9023 100.54 43.761C101.196 46.174 101.131 48.424 100.343 50.511Z" fill="#A6A6A6"/>
<path d="M122.433 49.4349C122.302 49.2392 122.204 49.1414 122.105 49.011C119.184 45.1305 113.111 37.0762 113.111 37.0762C113.111 37.0762 109.173 37.0762 109.041 37.0762C109.041 43.6631 109.041 50.1849 109.041 56.7066C110.551 56.7066 112.028 56.7066 113.538 56.7066C113.538 52.6631 113.538 48.6523 113.538 44.5436C113.669 44.7066 113.735 44.7718 113.801 44.8697C116.755 48.7501 122.795 56.7066 122.795 56.7066C122.795 56.7066 125.322 56.7066 126.405 56.7066C126.569 56.7066 126.733 56.7066 126.898 56.7066C126.898 50.1523 126.898 43.6305 126.898 37.1088C125.388 37.1088 123.943 37.1088 122.401 37.1088C122.433 41.1849 122.433 45.261 122.433 49.4349Z" fill="#A6A6A6"/>
<path d="M191.856 37.0435H185.751C185.751 37.0435 181.221 48.5869 179.055 54.1956C178.727 55.0109 178.399 55.8587 178.07 56.7065C178.136 56.7391 182.895 56.7065 182.895 56.7065L184.274 53.0543H193.301C193.301 53.0543 194.318 55.7609 194.679 56.7065C196.288 56.7065 197.896 56.7065 199.537 56.7065C196.944 50.1848 191.856 37.0435 191.856 37.0435ZM185.784 48.9782C186.801 46.2391 187.786 43.5326 188.771 40.8913C189.756 43.5326 190.74 46.2391 191.791 48.9782C189.756 48.9782 187.786 48.9782 185.784 48.9782Z" fill="#A6A6A6"/>
<path d="M177.086 37.0762C176.921 37.0762 171.932 37.0762 171.932 37.0762C171.932 37.0762 167.567 43.5327 167.304 43.8914C167.238 43.8262 162.61 37.0762 162.61 37.0762C162.61 37.0762 162.61 37.0762 162.38 37.0762C160.87 37.0762 157.654 37.0762 157.522 37.0762C159.623 40.3044 161.757 43.5653 163.825 46.7936C161.691 50.1196 157.391 56.7392 157.391 56.7392H162.479C162.479 56.7392 167.205 49.6631 167.304 49.5001C167.402 49.6631 172.228 56.7392 172.228 56.7392H177.25L170.783 46.7936C170.816 46.761 177.02 37.2066 177.086 37.0762Z" fill="#A6A6A6"/>
<path d="M154.437 51.6196C152.599 52.4674 150.662 52.9565 148.627 52.9565C146.264 52.9891 144.524 51.8478 143.703 49.6631C143.145 48.1631 143.113 46.5978 143.408 45.0326C143.605 43.9891 143.999 43.0109 144.754 42.2609C145.738 41.2826 146.986 40.9239 148.332 40.8261C150.104 40.7283 151.844 41.087 153.551 41.5761C153.879 41.6739 154.174 41.7717 154.503 41.8696C154.962 40.7283 155.422 39.6196 155.848 38.5109C154.667 37.8913 153.419 37.4348 152.106 37.1739C149.645 36.6522 147.183 36.587 144.754 37.337C142.029 38.1848 140.191 40.0109 139.305 42.6848C138.419 45.3587 138.386 48.1304 139.207 50.837C140.224 54.2935 142.653 56.25 146.231 56.8696C147.872 57.1304 149.513 57.0652 151.122 56.8044C153.058 56.4783 154.864 55.7935 156.57 54.75C156.078 53.6413 155.586 52.5326 155.061 51.3913C154.831 51.4565 154.634 51.5218 154.437 51.6196Z" fill="#A6A6A6"/>
<path d="M131.329 56.7067C132.839 56.7067 134.283 56.7067 135.793 56.7067C135.793 50.1524 135.793 43.6306 135.793 37.1089C134.283 37.1089 132.806 37.1089 131.329 37.1089C131.329 43.6632 131.329 50.185 131.329 56.7067Z" fill="#A6A6A6"/>
<path d="M221.332 14.1524L221.07 15.5219C224.155 15.848 224.746 16.0763 224.352 18.6198L222.415 29.7719L214.603 14.2176H207.743L207.448 15.5872C210.303 15.8806 211.452 16.1415 211.19 17.5763L209.877 24.2285C209.384 25.5654 208.432 25.8263 207.481 25.8263C203.607 25.8263 201.146 22.0111 201.146 16.1415C201.146 7.92412 206.069 1.69586 211.649 1.69586C214.374 1.69586 215.752 2.77195 216.245 7.69586H217.426C217.919 4.59804 218.509 2.44586 218.641 1.01108C217.59 0.619777 215.621 0.0654297 212.568 0.0654297C201.868 0.0654297 195.106 7.69586 195.106 16.1415C195.106 23.348 199.504 27.5219 206.923 27.5219C207.776 27.5219 208.564 27.4567 209.253 27.3589L208.104 33.2611L207.612 35.935C207.382 36.7176 206.365 37.0437 205.15 37.2393L204.822 38.6089H215.49L215.752 37.2393C212.601 36.9132 212.043 36.685 212.503 34.0111L212.601 33.5219L212.371 34.6959L213.028 31.0763L214.833 21.2285C218.936 29.2176 223.006 37.7937 223.4 38.5763L225.074 38.5437L228.389 20.5437L229.046 17.2828C229.538 15.9785 230.326 15.7828 231.672 15.5546L232 14.185H221.332V14.1524Z" fill="#A6A6A6"/>
</g>
<defs>
<clipPath id="clip0_16_869">
<rect width="232" height="57" fill="white"/>
</clipPath>
</defs>
</svg>
