<svg width="209" height="71" viewBox="0 0 209 71" fill="none" xmlns="http://www.w3.org/2000/svg">
<path d="M10.8933 55.4465C13.5412 60.264 18.2504 61.7255 22.6042 62.0864C27.7576 62.5194 33.3909 61.5992 37.0694 56.6193C38.7754 54.3098 39.895 51.3687 40.748 48.2834C42.5073 41.9141 43.0404 21.6516 40.3925 15.9139C39.1131 13.1532 37.1938 11.0061 35.1147 9.47244C28.4507 4.43838 20.7916 5.41272 14.6252 11.2768C10.4313 15.2643 9.63163 20.0999 9.08075 26.7939C8.61871 32.261 8.36992 50.8455 10.8933 55.4465Z" fill="#A6A6A6"/>
<path d="M34.6882 36.4831H35.3813V34.7149H34.6882C31.4007 34.7149 28.5218 36.3929 26.7626 38.937V33.9571C29.8013 33.3075 33.622 30.2221 33.622 23.2755H31.8805C31.8805 29.2839 28.7884 31.4852 26.727 32.0986V29.2298C28.4685 28.7606 29.4815 26.8661 29.4815 23.9431C29.4815 20.4247 27.0824 17.6641 24.0437 17.6641C21.3425 17.6641 15.7981 19.7751 15.7981 26.2707C15.7981 32.1167 21.538 33.8849 25.0033 34.0653V34.6608V38.919C23.2973 36.3929 20.4185 34.7149 17.1309 34.7149H16.4023V36.4831H17.0953C21.2004 36.4831 24.559 39.6587 24.9677 43.7185C23.2084 41.1924 20.3474 39.5505 17.0953 39.5505H16.4023V41.3187H17.0953C21.4669 41.3187 25.021 44.9273 25.021 49.366V50.0697V51.5131H26.7626V50.0697V49.366C26.7626 44.9273 30.3167 41.3187 34.6882 41.3187H35.3813V39.5505H34.6882C31.4362 39.5505 28.5574 41.2104 26.8159 43.7185C27.2068 39.6587 30.601 36.4831 34.6882 36.4831ZM17.5752 26.2707C17.5752 20.5871 22.7286 19.4143 24.0792 19.4143C26.1584 19.4143 27.7932 21.399 27.7932 23.9431C27.7932 24.8092 27.6866 26.5955 26.7448 27.2991C26.6382 25.5309 25.8385 23.4559 24.3635 22.644C23.475 22.1568 22.5154 22.211 21.6091 22.8064C20.6495 23.4379 20.2941 24.6287 20.6672 25.8918C21.1293 27.4435 22.622 28.9772 24.9855 29.2839V32.2971C23.244 32.1888 17.5752 31.3408 17.5752 26.2707ZM25.0566 27.5157C23.5638 27.245 22.6575 26.3248 22.391 25.4046C22.3377 25.2061 22.1777 24.5566 22.6042 24.2859C22.853 24.1235 23.0307 24.0874 23.1907 24.0874C23.3506 24.0874 23.4928 24.1416 23.5994 24.1957C24.3635 24.6468 25.0033 26.1083 25.0566 27.5157Z" fill="white"/>
<path d="M53.8982 47.8142C53.6495 47.5435 53.4184 47.3811 53.2052 47.2729C52.9564 47.1827 52.7432 47.1285 52.5121 47.1285C52.1567 47.1285 51.8724 47.1827 51.5703 47.327C51.3037 47.4714 51.0549 47.6337 50.8417 47.8503C50.6462 48.0668 50.4863 48.3194 50.3797 48.6081C50.273 48.9148 50.2197 49.2035 50.2197 49.5644C50.2197 49.9252 50.273 50.25 50.3797 50.5748C50.4863 50.8815 50.6462 51.1522 50.8417 51.3687C51.0372 51.5852 51.2682 51.7837 51.5703 51.8919C51.8369 52.0363 52.1567 52.0904 52.5121 52.0904C52.7787 52.0904 53.0453 52.0363 53.294 51.8919C53.5428 51.7476 53.7738 51.5672 53.9871 51.2604L54.9467 51.9641C54.6446 52.3791 54.2714 52.7039 53.8449 52.8663C53.4184 53.0648 52.9564 53.1369 52.4766 53.1369C51.9612 53.1369 51.4814 53.0467 51.0549 52.8843C50.6284 52.7219 50.2553 52.4693 49.9532 52.1806C49.6333 51.8739 49.3845 51.495 49.2246 51.062C49.0291 50.6289 48.958 50.1598 48.958 49.6185C48.958 49.0772 49.0469 48.59 49.2246 48.157C49.42 47.724 49.6511 47.3451 49.9532 47.0383C50.273 46.7316 50.6284 46.497 51.0549 46.3346C51.4814 46.1722 51.9435 46.082 52.4766 46.082C52.9386 46.082 53.3296 46.1722 53.7383 46.3346C54.1115 46.497 54.4847 46.7677 54.8045 47.1466L53.8982 47.8142Z" fill="#A6A6A6"/>
<path d="M57.5767 46.2446H58.7495V52.9387H57.5767V46.2446Z" fill="#A6A6A6"/>
<path d="M67.3151 50.4667C67.3151 50.8817 67.2262 51.2246 67.1018 51.5493C66.9774 51.8741 66.782 52.1448 66.5332 52.3974C66.2844 52.6139 66.0178 52.8124 65.6979 52.9206C65.3781 53.065 65.0227 53.1191 64.6495 53.1191C64.2763 53.1191 63.9209 53.065 63.601 52.9206C63.2811 52.7763 62.979 52.6139 62.748 52.3974C62.4992 52.1808 62.3215 51.8741 62.1794 51.5493C62.0372 51.2246 61.9839 50.8637 61.9839 50.4667V46.2446H63.1567V50.4487C63.1567 50.6111 63.1923 50.7735 63.2456 50.9719C63.2989 51.1704 63.3878 51.3328 63.4944 51.4591C63.601 51.6215 63.7609 51.7298 63.9564 51.838C64.1519 51.9463 64.3829 51.9824 64.6495 51.9824C64.916 51.9824 65.1648 51.9282 65.3425 51.838C65.538 51.7298 65.6979 51.6215 65.8046 51.4591C65.9112 51.2967 66 51.1343 66.0534 50.9719C66.1067 50.7735 66.1422 50.6111 66.1422 50.4487V46.2446H67.3151V50.4667Z" fill="#A6A6A6"/>
<path d="M70.6203 46.2446H73.2148C73.6413 46.2446 74.0678 46.3348 74.4765 46.4611C74.8853 46.5875 75.2584 46.822 75.5428 47.0927C75.8626 47.3633 76.1114 47.7242 76.2891 48.1572C76.4846 48.5722 76.5557 49.0774 76.5557 49.6548C76.5557 50.2322 76.4491 50.7194 76.2358 51.1524C76.0226 51.5674 75.756 51.9102 75.4006 52.1809C75.0452 52.4515 74.672 52.668 74.2811 52.8124C73.8723 52.9567 73.4458 53.0108 73.0549 53.0108H70.6025V46.2988L70.6203 46.2446ZM72.6817 51.8561C73.0549 51.8561 73.4103 51.8019 73.7302 51.7117C74.05 51.6215 74.3521 51.4952 74.5832 51.2967C74.8319 51.0983 75.0096 50.8817 75.1518 50.593C75.294 50.2863 75.3651 49.9615 75.3651 49.5285C75.3651 49.1135 75.3117 48.7707 75.1696 48.5C75.0274 48.1933 74.8675 47.9768 74.6542 47.7963C74.441 47.6159 74.1744 47.4716 73.8723 47.3814C73.5702 47.2911 73.2326 47.237 72.8772 47.237H71.8109V51.7659H72.6639V51.8561H72.6817Z" fill="#A6A6A6"/>
<path d="M81.6913 46.2446H82.7043L85.5298 52.9387H84.197L83.575 51.3869H80.714L80.1275 52.9387H78.8125L81.6913 46.2446ZM83.2018 50.3946L82.1889 47.6881L81.1405 50.3946H83.2018Z" fill="#A6A6A6"/>
<path d="M88.1245 46.2446H90.719C91.1455 46.2446 91.5719 46.3348 91.9807 46.4611C92.3894 46.6055 92.7626 46.822 93.0469 47.0927C93.3668 47.3633 93.6156 47.7242 93.7933 48.1572C93.9888 48.5722 94.0598 49.0774 94.0598 49.6548C94.0598 50.2322 93.9532 50.7194 93.74 51.1524C93.5267 51.5674 93.2602 51.9102 92.9047 52.1809C92.5493 52.4515 92.1762 52.668 91.7852 52.8124C91.3765 52.9567 90.95 53.0108 90.559 53.0108H88.1067V46.2988L88.1245 46.2446ZM90.1858 51.8561C90.559 51.8561 90.9144 51.8019 91.2343 51.7117C91.5542 51.6215 91.8563 51.4952 92.0873 51.2967C92.3361 51.0983 92.5138 50.8817 92.656 50.593C92.7981 50.2863 92.8692 49.9615 92.8692 49.5285C92.8692 49.1135 92.8159 48.7707 92.6737 48.5C92.5316 48.1933 92.3716 47.9768 92.1584 47.7963C91.9451 47.6159 91.6786 47.4716 91.3765 47.3814C91.0744 47.2911 90.7367 47.237 90.3813 47.237H89.3151V51.7659H90.1681V51.8561H90.1858Z" fill="#A6A6A6"/>
<path d="M100.919 46.2446H102.288L104.082 51.3148L105.93 46.2446H107.192L104.527 52.9387H103.514L100.919 46.2446Z" fill="#A6A6A6"/>
<path d="M109.751 46.2446H110.924V52.9387H109.751V46.2446Z" fill="#A6A6A6"/>
<path d="M113.448 46.2446H114.816L116.611 51.3148L118.459 46.2446H119.721L117.055 52.9387H116.042L113.448 46.2446Z" fill="#A6A6A6"/>
<path d="M123.914 46.2446H124.927L127.753 52.9387H126.42L125.798 51.3869H122.937L122.351 52.9387H121.036L123.914 46.2446ZM125.372 50.3946L124.359 47.6881L123.31 50.3946H125.372Z" fill="#A6A6A6"/>
<path d="M64.8981 34.3L63.5298 34.5706V39.1536L63.6186 40.0016L63.6542 40.6512C63.2988 40.561 63.1211 40.5429 63.1211 40.5429C62.9611 40.5429 62.8189 40.5429 62.7123 40.5429C62.4102 40.5429 61.6106 40.7955 60.3666 41.2466C59.1049 41.7157 57.8787 41.9503 56.6881 41.9503C54.0936 41.9503 51.9611 40.9218 50.2907 38.8649C48.7091 36.9343 47.9094 34.6608 47.9094 32.0085C47.9094 29.1938 48.6913 26.7038 50.2374 24.5386C51.8723 22.2832 53.8093 21.1465 56.0839 21.1465C56.6526 21.1465 57.239 21.2006 57.8965 21.345C58.5362 21.4532 59.2293 21.5976 59.9579 21.7239C60.491 21.7239 60.9175 21.6697 61.2907 21.5615C61.6461 21.4171 61.9126 21.3089 62.0726 21.2547L63.4587 27.1368L62.4458 27.3894L62.0726 26.7399C61.2374 25.2784 60.4732 24.2138 59.7446 23.5643C58.785 22.6621 57.6655 22.2291 56.4393 22.2291C54.84 22.2291 53.5782 23.0771 52.6719 24.719C51.8723 26.1625 51.4991 27.8586 51.4991 29.8614C51.4991 32.5498 52.0855 34.9315 53.2584 36.9884C54.5734 39.2979 56.2794 40.4527 58.3763 40.4527C59.0516 40.4527 59.4425 40.4166 59.6025 40.3445C59.7624 40.2542 59.9046 40.2001 60.0112 40.1279V34.5526L58.4118 34.4082V33.4519H64.8626L64.8981 34.3Z" fill="#A6A6A6"/>
<path d="M75.6672 29.0677C75.6672 29.609 75.4717 30.0781 75.0807 30.4029C74.672 30.7637 74.1922 30.9261 73.588 30.9261C73.2859 30.9261 72.9483 30.8359 72.5218 30.6735C72.4329 30.6374 72.3618 30.5833 72.2197 30.5292C72.0775 30.7457 72.0064 30.9081 71.9176 31.0524C71.7043 31.4674 71.5444 31.8463 71.4378 32.135C71.3311 32.4417 71.2423 32.7304 71.1712 33.0011C70.9757 33.813 70.8691 34.625 70.8691 35.473V40.3266L72.4507 40.5792V41.4814H66.3731V40.5612L67.8126 40.3447V33.5243C67.8126 32.8928 67.7237 32.2433 67.5638 31.5396C67.4038 30.8359 67.2439 30.3487 67.0484 30.0961C66.9418 29.9337 66.7463 29.8255 66.462 29.7353C66.1599 29.6811 65.9999 29.627 65.9822 29.627V28.779L69.2164 27.3896C69.5185 27.9851 69.6429 28.2918 69.6785 28.3459C69.8206 28.6166 69.9273 28.9414 69.9983 29.3564C70.0872 29.7353 70.1938 30.1503 70.3004 30.5472C70.4071 30.9622 70.4604 31.3592 70.4604 31.7741L70.7625 31.0163C71.1357 30.042 71.5622 29.2842 72.042 28.6888C72.6639 27.9851 73.3037 27.6242 73.9967 27.6242C74.672 27.6242 75.1163 27.7686 75.3651 28.0572C75.5605 28.2738 75.6672 28.5985 75.6672 29.0677Z" fill="#A6A6A6"/>
<path d="M89.226 40.3084C88.9773 40.6873 88.7462 40.9941 88.5508 41.1565C87.9643 41.7339 87.2713 42.0045 86.4894 42.0045C85.9562 42.0045 85.4942 41.8421 85.121 41.5354C84.7478 41.2286 84.4457 40.7776 84.268 40.2363L83.6283 40.7595C83.0952 41.1926 82.6154 41.5173 82.1355 41.7158C81.6557 41.9143 81.1226 42.0225 80.5006 42.0225C79.5588 42.0225 78.7591 41.6978 78.1016 41.0121C77.4441 40.3265 77.1064 39.5145 77.1064 38.5402C77.1064 37.2591 77.7462 36.1044 79.0257 35.0398C80.1452 34.1196 81.5669 33.3799 83.2373 32.8927L83.9659 32.6762V31.4853C83.9659 30.7816 83.7171 30.1501 83.2729 29.6088C83.0596 29.3562 82.6864 29.1217 82.2066 28.9593C82.0467 28.9051 81.8334 28.851 81.5313 28.7608C81.5669 29.1217 81.3892 29.5547 81.0515 29.9877C80.625 30.529 80.0919 30.7997 79.4522 30.7997C78.9901 30.7997 78.617 30.6553 78.2971 30.3847C77.9772 30.114 77.8173 29.7532 77.8173 29.3021C77.8173 28.7608 78.0661 28.3458 78.5103 28.0752C78.9546 27.8045 79.5588 27.6602 80.2696 27.6602C82.1355 27.6602 83.6816 28.0752 84.9078 28.8871C86.2406 29.7893 86.9159 30.9981 86.9159 32.5679V38.9552C86.9159 39.28 87.0047 39.5867 87.1646 39.8032C87.3246 40.0558 87.5378 40.1641 87.8399 40.1641C88.0354 40.1641 88.2664 40.0558 88.533 39.8032C88.5685 39.7671 88.6396 39.695 88.7285 39.6048L89.226 40.3084ZM84.1081 39.0454V33.7046L83.575 33.8129C82.562 34.0655 81.7268 34.5707 81.0693 35.3285C80.394 36.0863 80.0564 36.8802 80.0564 37.7463C80.0564 38.3778 80.2696 38.9191 80.6784 39.3702C81.0871 39.8393 81.5847 40.0558 82.2066 40.0558C82.5798 40.0558 82.953 39.9476 83.3262 39.7311C83.6461 39.5326 83.9126 39.28 84.1081 39.0454Z" fill="#A6A6A6"/>
<path d="M103.318 41.4811H97.7736V40.5248L99.1064 40.3264V32.3332C99.1064 31.6295 98.9465 30.998 98.591 30.4567C98.2356 29.8794 97.7558 29.6087 97.1694 29.6087C96.7607 29.6087 96.3875 29.6628 96.0676 29.8072C95.7122 29.9515 95.3923 30.168 95.108 30.4567L94.5394 31.0883V40.2722L95.9077 40.4707V41.445H90.0967V40.4707L91.5361 40.2722V31.3048C91.5361 30.8898 91.5006 30.6011 91.4473 30.4387C91.394 30.2402 91.2518 30.0598 91.0208 29.8613C90.9319 29.7711 90.8075 29.6989 90.6121 29.6628C90.4166 29.6267 90.2566 29.6087 90.0967 29.6087C89.8479 29.6087 89.7235 29.6087 89.688 29.6087V28.7607L93.1533 27.1909C93.5087 27.5518 93.7752 27.9487 93.9529 28.4179C94.0951 28.7246 94.1662 28.9952 94.2195 29.1757C94.2728 29.3741 94.3083 29.6087 94.3083 29.8794C94.4683 29.5185 94.8948 29.0674 95.57 28.5442C96.4763 27.8405 97.3649 27.4796 98.2179 27.4796C99.3196 27.4796 100.226 27.9126 100.937 28.7607C101.665 29.6267 102.039 30.6372 102.039 31.7919V40.2903L103.265 40.4888L103.318 41.4811Z" fill="#A6A6A6"/>
<path d="M126.42 35.942L126.153 36.6817C125.585 38.2876 124.678 39.5326 123.434 40.4528C122.173 41.3549 120.733 41.806 119.116 41.806C116.61 41.806 114.602 40.7956 113.11 38.8289C111.724 37.0065 111.031 34.7331 111.031 32.0627C111.031 29.1577 111.759 26.6678 113.199 24.5928C114.78 22.3374 116.77 21.2007 119.223 21.2007C119.685 21.2007 120.591 21.345 121.942 21.5796C122.51 21.7239 122.884 21.742 123.043 21.7239C123.665 21.6337 124.039 21.5615 124.163 21.5255C124.305 21.4894 124.589 21.3811 125.016 21.2007L126.349 27.2091L125.389 27.4256L125.034 26.7941C124.181 25.2784 123.434 24.1959 122.741 23.5463C121.782 22.6261 120.715 22.157 119.489 22.157C117.854 22.157 116.61 23.005 115.704 24.683C114.905 26.1445 114.531 27.8767 114.531 29.8795C114.531 32.3694 115.047 34.5166 116.024 36.3209C117.179 38.4139 118.725 39.4604 120.698 39.4604C121.711 39.4604 122.617 39.1898 123.417 38.6124C124.216 38.035 124.856 37.2591 125.318 36.2487L125.62 35.5992L126.42 35.942Z" fill="#A6A6A6"/>
<path d="M140.103 40.3084C139.854 40.6873 139.623 40.9941 139.428 41.1565C138.841 41.7339 138.148 42.0045 137.367 42.0045C136.833 42.0045 136.371 41.8421 135.998 41.5354C135.625 41.2286 135.323 40.7776 135.145 40.2363L134.505 40.7595C133.972 41.1926 133.493 41.5173 133.013 41.7158C132.533 41.9143 132 42.0225 131.378 42.0225C130.436 42.0225 129.636 41.6978 128.979 41.0121C128.304 40.3265 127.984 39.5145 127.984 38.5402C127.984 37.2591 128.623 36.1044 129.903 35.0398C131.022 34.1196 132.444 33.3799 134.115 32.8927L134.843 32.6762V31.4853C134.843 30.7816 134.594 30.1501 134.15 29.6088C133.937 29.3562 133.564 29.1217 133.084 28.9593C132.924 28.9051 132.711 28.851 132.409 28.7608C132.444 29.1217 132.266 29.5547 131.929 29.9877C131.502 30.529 130.969 30.7997 130.329 30.7997C129.867 30.7997 129.494 30.6553 129.174 30.3847C128.854 30.114 128.694 29.7532 128.694 29.3021C128.694 28.7608 128.943 28.3458 129.388 28.0752C129.85 27.8045 130.436 27.6602 131.147 27.6602C133.013 27.6602 134.559 28.0752 135.785 28.8871C137.118 29.7893 137.793 30.9981 137.793 32.5679V38.9552C137.793 39.28 137.882 39.5867 138.042 39.8032C138.202 40.0558 138.415 40.1641 138.717 40.1641C138.913 40.1641 139.144 40.0558 139.41 39.8032C139.446 39.7671 139.517 39.695 139.606 39.6048L140.103 40.3084ZM134.985 39.0454V33.7046L134.452 33.8129C133.439 34.0655 132.604 34.5707 131.946 35.3285C131.271 36.0863 130.934 36.8802 130.934 37.7463C130.934 38.3778 131.147 38.9191 131.556 39.3702C131.964 39.8393 132.462 40.0558 133.084 40.0558C133.457 40.0558 133.83 39.9476 134.203 39.7311C134.523 39.5326 134.825 39.28 134.985 39.0454Z" fill="#A6A6A6"/>
<path d="M147.389 41.4812H141.223V40.525L142.751 40.3265V24.2139C142.751 24.0154 142.751 23.853 142.751 23.7809C142.751 23.6365 142.751 23.4741 142.751 23.3478C142.716 23.0952 142.591 22.8787 142.396 22.7163C142.2 22.5539 141.934 22.4637 141.56 22.4637C141.205 22.4637 140.992 22.4998 140.938 22.5178V21.5616L145.772 19.6851V40.3084L147.407 40.5069V41.4632L147.389 41.4812Z" fill="#A6A6A6"/>
<path d="M159.935 36.6455L158.603 41.7698L157.91 41.6074C157.714 41.5533 157.59 41.5172 157.501 41.5172C157.394 41.4811 157.252 41.4811 157.074 41.4811H149.024V40.579L156.417 29.1215H155.102C154.515 29.1215 154.036 29.2117 153.627 29.3922C153.218 29.5906 152.792 29.8793 152.312 30.2943C151.903 30.6552 151.477 31.2145 151.05 31.9543C150.908 32.2069 150.73 32.5497 150.481 32.9828L149.593 32.676L150.748 27.9307L151.37 28.1472H151.956H159.847V29.0493L152.454 40.5068H153.716C154.391 40.5068 154.942 40.3985 155.404 40.2C155.866 40.0016 156.399 39.6588 156.985 39.1716C157.447 38.8107 157.927 38.2514 158.425 37.4575C158.585 37.2049 158.798 36.826 159.065 36.3749L159.935 36.6455Z" fill="#A6A6A6"/>
<path d="M173.654 40.3084C173.405 40.6873 173.174 40.9941 172.979 41.1565C172.393 41.7339 171.699 42.0045 170.918 42.0045C170.384 42.0045 169.922 41.8421 169.549 41.5354C169.176 41.2286 168.874 40.7776 168.696 40.2363L168.056 40.7595C167.523 41.1926 167.044 41.5173 166.564 41.7158C166.084 41.9143 165.551 42.0225 164.929 42.0225C163.987 42.0225 163.187 41.6978 162.53 41.0121C161.855 40.3265 161.535 39.5145 161.535 38.5402C161.535 37.2591 162.174 36.1044 163.454 35.0398C164.573 34.1196 165.995 33.3799 167.666 32.8927L168.394 32.6762V31.4853C168.394 30.7816 168.145 30.1501 167.701 29.6088C167.488 29.3562 167.115 29.1217 166.635 28.9593C166.475 28.9051 166.262 28.851 165.96 28.7608C165.995 29.1217 165.817 29.5547 165.48 29.9877C165.053 30.529 164.52 30.7997 163.88 30.7997C163.418 30.7997 163.045 30.6553 162.725 30.3847C162.405 30.114 162.245 29.7532 162.245 29.3021C162.245 28.7608 162.494 28.3458 162.939 28.0752C163.401 27.8045 163.987 27.6602 164.698 27.6602C166.564 27.6602 168.11 28.0752 169.336 28.8871C170.669 29.7893 171.344 30.9981 171.344 32.5679V38.9552C171.344 39.28 171.433 39.5867 171.593 39.8032C171.753 40.0558 171.966 40.1641 172.268 40.1641C172.464 40.1641 172.695 40.0558 172.961 39.8032C172.997 39.7671 173.068 39.695 173.157 39.6048L173.654 40.3084ZM168.519 39.0454V33.7046L167.985 33.8129C166.972 34.0655 166.137 34.5707 165.48 35.3285C164.804 36.0863 164.467 36.8802 164.467 37.7463C164.467 38.3778 164.68 38.9191 165.089 39.3702C165.498 39.8393 165.995 40.0558 166.617 40.0558C166.99 40.0558 167.363 39.9476 167.737 39.7311C168.074 39.5326 168.341 39.28 168.519 39.0454Z" fill="#A6A6A6"/>
<path d="M187.675 40.7956L184.317 41.9864C184.21 41.824 184.103 41.6075 183.961 41.3549C183.819 41.1023 183.766 40.9399 183.748 40.9219C183.659 40.7595 183.606 40.561 183.535 40.3806C183.481 40.1821 183.392 39.9115 183.339 39.6228L182.806 40.3084C181.971 41.391 180.905 41.9323 179.572 41.9323C178.079 41.9323 176.871 41.2286 176 39.8213C175.2 38.5402 174.792 37.0606 174.792 35.2744C174.792 33.2896 175.271 31.5935 176.213 30.1321C177.262 28.4721 178.648 27.6601 180.354 27.6601C180.922 27.6601 181.402 27.7143 181.775 27.8225C182.184 27.9308 182.628 28.1293 183.144 28.3638V23.7808C183.144 23.2576 182.93 22.9148 182.522 22.6622C182.38 22.5719 182.166 22.5178 181.882 22.5178C181.74 22.5178 181.615 22.5178 181.509 22.5178C181.473 22.5178 181.42 22.5178 181.349 22.5178V21.5615L186.129 20.0459V37.7824C186.129 38.2695 186.182 38.6484 186.271 38.9552C186.36 39.2619 186.573 39.4965 186.858 39.6949C187.16 39.8573 187.444 39.9656 187.711 39.9656V40.7775L187.675 40.7956ZM183.144 38.3598V30.2584C182.93 29.9516 182.717 29.6629 182.522 29.3923C181.989 28.869 181.349 28.6345 180.567 28.6345C179.554 28.6345 178.772 29.2299 178.292 30.4027C177.919 31.3229 177.724 32.4957 177.724 33.9572C177.724 35.4548 177.99 36.7539 178.506 37.8365C179.145 39.1356 180.052 39.7852 181.26 39.7852C181.793 39.7852 182.255 39.5686 182.628 39.1537C182.966 38.6665 183.126 38.3958 183.144 38.3598Z" fill="#A6A6A6"/>
<path d="M201.057 40.3084C200.808 40.6873 200.577 40.9941 200.381 41.1565C199.795 41.7339 199.102 42.0045 198.32 42.0045C197.787 42.0045 197.325 41.8421 196.952 41.5354C196.578 41.2286 196.276 40.7776 196.099 40.2363L195.459 40.7595C194.926 41.1926 194.446 41.5173 193.966 41.7158C193.486 41.9143 192.953 42.0225 192.331 42.0225C191.389 42.0225 190.59 41.6978 189.932 41.0121C189.257 40.3265 188.937 39.5145 188.937 38.5402C188.937 37.2591 189.577 36.1044 190.856 35.0398C191.976 34.1196 193.397 33.3799 195.068 32.8927L195.796 32.6762V31.4853C195.796 30.7816 195.548 30.1501 195.103 29.6088C194.89 29.3562 194.517 29.1217 194.037 28.9593C193.877 28.9051 193.664 28.851 193.362 28.7608C193.397 29.1217 193.22 29.5547 192.882 29.9877C192.456 30.529 191.922 30.7997 191.283 30.7997C190.821 30.7997 190.448 30.6553 190.128 30.3847C189.808 30.114 189.648 29.7532 189.648 29.3021C189.648 28.7608 189.897 28.3458 190.341 28.0752C190.803 27.8045 191.389 27.6602 192.1 27.6602C193.966 27.6602 195.512 28.0752 196.738 28.8871C198.071 29.7893 198.746 30.9981 198.746 32.5679V38.9552C198.746 39.28 198.835 39.5867 198.995 39.8032C199.155 40.0558 199.368 40.1641 199.67 40.1641C199.866 40.1641 200.097 40.0558 200.363 39.8032C200.399 39.7671 200.47 39.695 200.559 39.6048L201.057 40.3084ZM195.921 39.0454V33.7046L195.388 33.8129C194.375 34.0655 193.54 34.5707 192.882 35.3285C192.207 36.0863 191.869 36.8802 191.869 37.7463C191.869 38.3778 192.082 38.9191 192.491 39.3702C192.9 39.8393 193.397 40.0558 194.019 40.0558C194.393 40.0558 194.766 39.9476 195.139 39.7311C195.477 39.5326 195.761 39.28 195.921 39.0454Z" fill="#A6A6A6"/>
</svg>
