<svg width="74" height="74" viewBox="0 0 74 74" fill="none" xmlns="http://www.w3.org/2000/svg">
<g clip-path="url(#clip0_16_449)">
<path d="M71.3793 0.000125652H39.4828H34.5173H2.62071C2.62071 0.000125652 -0.275845 -0.309067 0.0344996 3.71043L5.31036 71.2861C5.31036 71.2861 5.27588 73.9658 8.68967 73.9658H35.1379H38.931H65.3793C68.7586 73.9658 68.7586 71.2861 68.7586 71.2861L74.0345 3.71043C74.2759 -0.274712 71.3793 0.000125652 71.3793 0.000125652Z" fill="#A6A6A6"/>
<path d="M18.4485 52.4253H5.86231L2.03473 4.08827C1.82783 2.13006 3.41404 2.0957 3.41404 2.0957H18.483" fill="white"/>
<path d="M55.6898 52.4253H68.276L72.1035 4.08827C72.3104 2.13006 70.7242 2.0957 70.7242 2.0957H55.6553" fill="white"/>
<path fill-rule="evenodd" clip-rule="evenodd" d="M39.6207 54.521C39.5172 54.521 39.3793 54.521 39.2759 54.521C39.2759 54.521 39.2759 54.521 39.2414 54.521C38.5517 54.3835 37.8965 54.1774 37.2414 53.9713C37.1724 53.9369 37.1034 53.9026 37.0345 53.8682C36.931 53.7995 36.8965 53.6964 36.931 53.5934C36.931 53.5247 36.9655 53.456 37 53.4216C37.0345 53.3185 37.1034 53.2155 37.1034 53.0781C37.1379 52.9406 37.1379 52.8032 37.1379 52.6658C37.1379 52.1848 37.1724 51.7039 37.1724 51.2229C37.2069 50.2266 37.2069 49.196 37.2414 48.1997C37.2414 48.0966 37.2069 47.9936 37.1724 47.8905C37.1034 47.9592 37.0345 48.0279 37 48.131C36.6897 48.8868 36.2759 49.5395 35.7931 50.1923C35.2759 50.8794 34.7241 51.4977 34.1034 52.1161C34.069 52.1505 34.0345 52.1848 34 52.2192C33.7931 52.391 33.5517 52.4597 33.2759 52.3566C32.931 52.2535 32.5862 52.1161 32.2069 52.0131C31.8966 51.91 31.6552 51.8069 31.4138 51.6008C31.3793 51.6008 31.3793 51.5665 31.3448 51.5665C33.4483 49.6426 35.2069 47.4782 36.4138 44.936C36.4138 44.9016 36.3793 44.9016 36.3793 44.9016C36.3448 44.8329 36.3103 44.7986 36.2069 44.8329C36.0345 44.8673 35.8965 44.8673 35.7241 44.8673C35.4828 44.9016 35.2069 44.9016 34.931 44.9016C34.4138 44.936 33.8621 44.9704 33.3448 45.0047C33.0345 45.0391 32.7241 45.0391 32.3793 45.0734C32.1034 45.0734 31.8621 45.0391 31.6207 44.9016C31.4828 44.8329 31.3793 44.6955 31.3103 44.5581C31.2759 44.4207 31.2759 44.3176 31.2759 44.1802C31.2759 43.8023 31.3103 43.39 31.3103 43.0121C31.3103 42.7717 31.3103 42.5655 31.3103 42.325C31.3103 42.0159 31.4828 41.8097 31.7931 41.7754C32.0345 41.741 32.2759 41.7067 32.5172 41.6723C32.8621 41.638 33.2069 41.6036 33.5517 41.5349C33.5517 41.5349 33.5862 41.5349 33.5862 41.5005C33.4138 41.3631 33.2759 41.1913 33.069 41.0883C32.4483 40.7104 31.8276 40.3325 31.2759 39.8859C30.5172 39.3018 29.8276 38.6834 29.2414 37.8933C28.2069 36.5191 27.6552 35.0075 27.7241 33.2898C27.7241 33.0149 27.6897 32.7744 27.5517 32.5683C27.2759 31.9843 27.0345 31.4003 26.8276 30.7819C26.6552 30.2322 26.5517 29.6482 26.5172 29.0641C26.4828 28.7549 26.5172 28.4114 26.5172 28.1022C26.5172 27.9991 26.4828 27.8961 26.4483 27.793C26.3793 27.6899 26.3103 27.6212 26.2414 27.5182C25.7586 27.0029 25.3103 26.4532 24.8621 25.9035C24.069 24.8042 23.4138 23.6017 23.0345 22.2619C22.8621 21.7122 22.7586 21.1626 22.6897 20.5785C22.6207 19.9945 22.6552 19.3761 22.6897 18.7921C22.7241 18.2081 22.7931 17.6584 22.8621 17.1087C22.8966 16.5247 22.9655 15.9063 23 15.3223C23.0345 14.9787 23.0345 14.6352 23.0345 14.2916C23.0345 13.8794 23 13.5015 22.8621 13.0892C22.7241 12.6769 22.5172 12.299 22.2414 11.9555C22.1379 11.8524 22.069 11.7494 22.0345 11.5776C22.0345 11.5432 22 11.5432 22 11.5432C22 11.5089 22 11.4402 22 11.4058C22 11.3715 22.0345 11.3371 22.0345 11.3371C22.069 11.2684 22.069 11.1997 22.1034 11.131C22.2759 10.8218 22.4828 10.6157 22.7931 10.4782C23.0345 10.3752 23.3103 10.3065 23.5517 10.2378C24.2414 10.1003 24.931 9.89422 25.5862 9.65373C25.7241 9.58502 25.8621 9.51631 26 9.41325C26.2069 9.24148 26.3793 9.0697 26.5517 8.89793C26.5862 8.86358 26.5862 8.86358 26.6207 8.82922C26.5517 8.76051 26.4828 8.72616 26.4138 8.6918C26.1724 8.55438 25.931 8.41697 25.6897 8.27955C25.4483 8.14213 25.2069 7.97035 25 7.76423C24.7586 7.52374 24.5862 7.28326 24.4828 6.93971C24.4828 6.90536 24.4828 6.90536 24.4483 6.871C24.6552 6.83665 24.8276 6.83665 25 6.80229C25.5172 6.76794 26.0345 6.63052 26.5172 6.42439C27.4483 6.04649 28.1034 5.42811 28.3793 4.46618C28.4138 4.36311 28.4828 4.26005 28.5862 4.19134C28.6897 4.12263 28.7586 4.05392 28.8621 4.01957C29.0345 3.95086 29.2069 3.88215 29.3793 3.77908C31 3.09199 32.6897 2.57667 34.4483 2.30183C34.9655 2.23312 35.5172 2.16441 36.0345 2.16441C36.1379 2.16441 36.2759 2.13006 36.3793 2.0957C36.5172 2.0957 36.6552 2.0957 36.7931 2.0957C36.8276 2.0957 36.8276 2.13006 36.8621 2.13006C37.3448 2.19877 37.8276 2.26748 38.3103 2.33619C38.6897 2.4049 39.1034 2.43925 39.4828 2.54231C40.3793 2.74844 41.2414 3.02328 42.069 3.36683C43.1034 3.81344 44.1034 4.32876 45.0345 4.9815C46.1724 5.77165 47.1724 6.73359 48 7.83294C48.8276 8.89793 49.4483 10.1003 49.8965 11.3715C50.2414 12.299 50.4483 13.2266 50.5862 14.1886C50.6552 14.7039 50.6896 15.1848 50.7241 15.7002C50.7586 16.2498 50.7241 16.7995 50.6896 17.3492C50.6552 17.8645 50.5862 18.3798 50.4827 18.8951C50.4483 19.0326 50.4483 19.17 50.4138 19.273C50.5517 19.3418 50.6552 19.4105 50.7586 19.4792C51.1379 19.7197 51.3793 20.0976 51.4828 20.5098C51.4828 20.5785 51.5172 20.6472 51.5172 20.6816C51.5172 20.8534 51.5172 21.0595 51.5172 21.2313C51.5172 21.2313 51.5172 21.2656 51.4828 21.2656C51.4483 21.4374 51.4483 21.6092 51.3793 21.7809C51.1034 23.0177 50.7241 24.2545 50.2069 25.4225C49.7586 26.4875 49.2414 27.4838 48.7586 28.5145C48.6896 28.6519 48.6207 28.7893 48.5172 28.8924C48.3103 29.1672 48.069 29.3046 47.7586 29.3733C47.6552 29.4077 47.5172 29.4077 47.4138 29.4077C47.2414 29.4077 47.1379 29.5107 47.1034 29.6482C47.1034 29.7169 47.069 29.7856 47.069 29.8543C47.069 29.9574 47.069 30.0948 47.1034 30.1978C47.1034 30.6101 47.1034 31.0567 47.1034 31.469C47.069 31.9156 47.0345 32.3622 46.931 32.7744C46.7931 33.5302 46.5862 34.286 46.3448 35.0418C45.9655 36.1756 45.3793 37.1718 44.5862 38.0651C43.8276 38.9239 42.9655 39.6454 42 40.2981C41.6207 40.5386 41.2414 40.7791 40.8621 40.9852C40.6552 41.1226 40.4483 41.26 40.2414 41.3631C40.2414 41.3631 40.2069 41.3631 40.2069 41.3975C40.2414 41.4318 40.2414 41.4662 40.2414 41.5005C40.2759 41.5005 40.3103 41.5005 40.3448 41.5005C40.5862 41.4662 40.8276 41.4318 41.1034 41.4318C41.2414 41.4318 41.3448 41.4318 41.4828 41.4318C41.8276 41.4318 42.1379 41.4318 42.4828 41.4662C42.8276 41.4662 43.0345 41.6379 43.069 41.9815C43.069 42.0502 43.069 42.1533 43.069 42.2563C43.069 42.806 43.069 43.3557 43.0345 43.871C43.0345 43.9054 43.0345 43.9397 43.0345 43.9741C43.0345 44.1115 43 44.2833 42.9655 44.4207C42.8965 44.5925 42.7931 44.6955 42.5862 44.7642C42.4138 44.8329 42.2414 44.8329 42.069 44.8329C41.6207 44.7986 41.2069 44.7986 40.7586 44.7642C40.1034 44.7299 39.4483 44.7299 38.7931 44.6955C38.6897 44.6955 38.5862 44.6955 38.5172 44.7299C38.5517 44.8673 38.5862 44.9704 38.6207 45.0734C38.8276 45.7949 39 46.5507 39.1034 47.2721C39.2069 47.9592 39.3103 48.6807 39.3793 49.4021C39.4483 50.0205 39.4828 50.6389 39.5172 51.2573C39.5517 51.7382 39.5517 52.2535 39.5517 52.7345C39.5517 53.1811 39.5517 53.6277 39.5172 54.0743C39.7931 54.2805 39.7586 54.4179 39.6207 54.521ZM28.4138 7.69552C28.6207 7.66116 28.8276 7.66116 29.0345 7.62681C29.4828 7.5581 29.8966 7.45503 30.3448 7.38632C31.0345 7.28326 31.7241 7.24891 32.4138 7.28326C33.069 7.31762 33.7241 7.38632 34.3448 7.5581C35.4828 7.86729 36.4828 8.38261 37.4138 9.13841C37.5517 9.24148 37.6897 9.34454 37.7931 9.48196C37.9655 9.65373 38 9.85986 37.8276 10.066C37.7931 10.1003 37.7586 10.1691 37.6897 10.2034C37.5172 10.3408 37.3103 10.4439 37.1034 10.5126C36.8276 10.5813 36.5862 10.5813 36.3448 10.4439C35.7586 10.1691 35.1379 10.0316 34.5172 9.96293C34.1379 9.92857 33.7241 9.92857 33.3448 9.92857C33.069 9.96293 32.7931 9.96293 32.5172 10.0316C31.931 10.1691 31.4138 10.4439 31 10.8905C30.5517 11.3715 30.1724 11.8868 29.8621 12.4708C29.3103 13.4671 28.9655 14.5321 28.7586 15.6658C28.7241 15.9063 28.6897 16.1468 28.6207 16.3873C28.5517 16.7995 28.3448 17.1087 27.931 17.3148C27.8276 17.3492 27.7586 17.4522 27.7241 17.5553C27.6207 17.7958 27.5862 18.0363 27.6207 18.3111C27.6207 18.3798 27.6552 18.4829 27.6897 18.5516C27.7586 18.689 27.8621 18.7577 28 18.7234C28.069 18.7234 28.1034 18.7234 28.1724 18.7234C28.2759 18.7234 28.3793 18.689 28.4828 18.689C29.1724 18.689 29.8276 18.7234 30.5172 18.7234C31.1724 18.7234 31.7931 18.7577 32.4483 18.7577C32.8276 18.7577 33.1724 18.8264 33.5517 18.9295C34.2759 19.1013 34.931 19.4448 35.4828 19.9601C35.7241 20.2006 36.0345 20.2693 36.3448 20.2006C36.5862 20.1663 36.8276 20.1319 37.069 20.1319C37.1379 20.1319 37.2414 20.1319 37.3103 20.1319C37.5517 20.1319 37.7931 20.0976 38.069 20.0976C38.2414 20.0976 38.4138 20.0289 38.5517 19.9258C38.7931 19.754 39.0345 19.6166 39.2759 19.4792C39.7586 19.273 40.3103 19.1356 40.8276 19.1356C41.1724 19.1013 41.5172 19.1013 41.8621 19.1013C42.7586 19.1013 43.6552 19.0669 44.5517 19.1013C44.931 19.1356 45.3448 19.1356 45.7241 19.17C46.3103 19.2043 46.8621 19.3074 47.4138 19.4448C47.4828 19.4448 47.5172 19.4448 47.5862 19.4448C47.6896 19.4448 47.7586 19.3761 47.7931 19.273C47.7931 19.2043 47.8276 19.1356 47.7931 19.1013C47.7931 18.9295 47.7586 18.7921 47.7586 18.6203C47.6896 18.0363 47.4827 17.521 47.2069 17.0056C46.8276 16.3873 46.6552 15.7002 46.6552 14.9787C46.6552 14.4977 46.6552 14.0168 46.6207 13.5358C46.6207 13.3984 46.6552 13.261 46.6552 13.1236C46.7241 13.1236 46.7586 13.1236 46.7931 13.1236C46.8276 13.1579 46.8276 13.1923 46.8621 13.2266C47.2069 13.8794 47.5172 14.5321 47.7931 15.1848C48.1379 16.0094 48.4828 16.8682 48.8276 17.6927C48.8276 17.7271 48.8621 17.7614 48.8965 17.8302C48.931 17.7271 49 17.6584 49.0345 17.5897C49.1379 17.3835 49.2069 17.1774 49.2069 16.9713C49.2069 16.8339 49.2069 16.6621 49.2069 16.5247C49.2069 15.9406 49.2414 15.3223 49.2414 14.7382C49.2069 13.9137 49.1034 13.1236 48.931 12.3334C48.7586 11.5089 48.4828 10.7187 48.1034 9.92857C47.4138 8.48567 46.4138 7.28326 45.1379 6.28697C44.2759 5.59988 43.3448 5.05021 42.3448 4.56924C40.6897 3.77908 38.931 3.40118 37.069 3.36683C36.5172 3.36683 35.9655 3.40118 35.4138 3.46989C34.7586 3.5386 34.1034 3.67602 33.4828 3.84779C32.8965 4.01957 32.3448 4.19134 31.7586 4.36311C31.4828 4.43182 31.2759 4.63795 31.0345 4.80972C31.069 4.87843 31.069 4.91279 31.1034 4.94714C31.2414 4.94714 31.3793 4.94714 31.4828 4.94714C31.7586 4.94714 31.9655 5.01585 32.2069 5.15327C32.1724 5.22198 32.1034 5.25633 32.069 5.32504C32 5.42811 31.8965 5.46246 31.7931 5.49682C31.5862 5.56553 31.4138 5.63424 31.2069 5.70295C30.3793 6.04649 29.6207 6.4931 28.8966 7.04278C28.6897 7.1802 28.5517 7.35197 28.3448 7.52374C28.3793 7.59245 28.3793 7.62681 28.4138 7.69552ZM47.5517 28.4457C47.6552 28.274 47.7931 28.1022 47.8621 27.9304C48.2069 27.1403 48.5517 26.3501 48.8621 25.5256C49.1034 24.9072 49.3793 24.2888 49.5517 23.6361C49.6552 23.2582 49.7586 22.9146 49.7586 22.5367C49.7586 22.1932 49.7241 21.8153 49.7241 21.4717C49.7241 21.4374 49.6896 21.3687 49.6896 21.3343C49.5862 21.1626 49.4828 21.0595 49.3103 20.9908C49.2759 20.9564 49.2069 20.9564 49.1379 20.9564C48.9655 20.9908 48.8276 21.0595 48.6896 21.1969C48.5862 21.3 48.5517 21.403 48.5517 21.5405C48.5862 21.6779 48.6207 21.7809 48.6552 21.9184C48.6896 22.0214 48.7241 22.0901 48.7586 22.1932C48.8276 22.468 48.7586 22.6742 48.5517 22.8803C48.4138 22.9834 48.2759 23.0521 48.1034 23.1208C48.1034 23.1208 48.1034 23.0864 48.069 23.0864C48.069 22.949 48.0345 22.8459 48.0345 22.7085C48 22.3993 48 22.0901 48 21.7809C47.9655 21.5061 47.9655 21.1969 47.931 20.9221C47.931 20.7847 47.8276 20.6472 47.7241 20.5442C47.6552 20.4755 47.5517 20.4411 47.4483 20.4755C47.3448 20.5098 47.2414 20.5098 47.1724 20.5442C46.7931 20.7159 46.5172 20.9908 46.3103 21.3343C46.2759 21.403 46.2414 21.5061 46.2069 21.5748C46.1724 21.7122 46.1379 21.8153 46.1034 21.9527C45.9655 22.468 45.8621 22.9834 45.6552 23.4987C45.4827 23.9453 45.2759 24.3232 44.931 24.6667C44.5517 25.0103 44.1034 25.2164 43.5862 25.2508C43.3448 25.2851 43.2069 25.1821 43.1379 24.9759V24.9416C43.1034 24.8729 43.1034 24.8385 43.1724 24.8041C43.2069 24.7698 43.2414 24.7698 43.2759 24.7698C43.3448 24.7354 43.4138 24.7354 43.4483 24.7354C43.8276 24.6324 44.1379 24.4606 44.4138 24.1858C44.6896 23.9109 44.8621 23.5674 44.9655 23.1895C44.9655 23.1551 44.9655 23.1551 44.9655 23.1208C44.9655 23.0177 44.931 22.949 44.8621 22.8803C44.7586 22.8116 44.6207 22.7772 44.4828 22.7429C44.3448 22.7085 44.2069 22.6742 44.069 22.6398C44 22.6055 43.931 22.5711 43.8965 22.5024C43.8621 22.4337 43.8276 22.365 43.7586 22.3306C43.5862 22.1245 43.3793 22.0214 43.1034 22.0558C43.0345 22.0558 42.9655 22.0558 42.8965 22.0901C42.5517 22.1588 42.2414 22.2276 41.8965 22.2619C41.5862 22.2963 41.2414 22.2963 40.931 22.2275C40.4483 22.1588 40 21.9871 39.5862 21.7466C39.4483 21.6779 39.3103 21.6435 39.1379 21.6092C39.1724 21.7809 39.2069 21.9184 39.3103 22.0901C39.4138 22.2619 39.3793 22.3993 39.2414 22.5367C39.1724 22.6055 39.069 22.6742 38.9655 22.7429C38.931 22.7772 38.8621 22.7772 38.7931 22.8116C38.6897 22.8459 38.6207 22.8116 38.5517 22.7429C38.5172 22.7085 38.4828 22.6398 38.4483 22.5711C38.2759 22.2619 38.1379 21.9184 38 21.5748C37.9655 21.4717 37.931 21.3687 37.8621 21.3C37.6897 21.0595 37.4828 20.8877 37.1724 20.8877C37.069 20.8877 36.9655 20.8877 36.8965 20.9221C36.5172 20.9908 36.2069 21.1626 36.0345 21.5405C35.9655 21.7122 35.931 21.884 35.8965 22.0558C35.8621 22.3306 35.8621 22.6398 35.8621 22.9146C35.8276 23.3269 35.7931 23.7048 35.6897 24.0827C35.6207 24.4263 35.5172 24.7698 35.3793 25.1133C35.2414 25.4569 35.2759 25.7661 35.4483 26.0753C35.5172 26.2127 35.6207 26.3501 35.7241 26.4875C36.3448 27.2433 37.1379 27.5869 38.1379 27.4838C38.7586 27.4151 39.3103 27.1403 39.8276 26.7967C40.0345 26.6593 40.1034 26.4875 40.069 26.247C40.0345 26.1096 40 25.9722 40 25.8348C40 25.7661 39.9655 25.7317 39.9655 25.663C39.9655 25.5256 40.0345 25.4225 40.1724 25.4569C40.2414 25.4569 40.2759 25.4569 40.3448 25.4912C40.4483 25.5256 40.5862 25.56 40.6897 25.6287C40.8965 25.7317 41.1034 25.8348 41.2759 26.0066C41.4828 26.247 41.7241 26.4875 41.931 26.728C42.1724 27.0029 42.3793 27.312 42.6207 27.5869C42.931 27.9648 43.2759 28.274 43.7241 28.4801C43.8276 28.5145 43.8965 28.5832 43.9655 28.6519C44.069 28.7206 44.1034 28.8236 44.1379 28.9267C44.2069 29.3046 44.2759 29.7169 44.2759 30.0948C44.2759 30.404 44.2414 30.6788 44.1724 30.9536C44.069 31.3315 43.8965 31.6407 43.6552 31.9499C43.3448 32.3622 43.1034 32.8088 43.0345 33.3241C42.9655 33.6333 42.8621 33.9425 42.7241 34.2517C42.6897 34.286 42.6896 34.3204 42.6552 34.3548C42.5862 34.3891 42.4828 34.4578 42.4138 34.4922C42.2759 34.3548 42.2759 34.286 42.2414 34.1486C42.2069 33.8738 42.2069 33.5646 42.1724 33.2898C42.1724 33.1867 42.1724 33.0836 42.1379 32.9806C42.0345 32.4309 41.4828 32.1561 41 32.3278C40.8621 32.3622 40.7241 32.4309 40.5862 32.4652C39.9655 32.637 39.3793 32.7401 38.7241 32.7744C38.1724 32.8088 37.5862 32.7744 37.0345 32.7057C36.8276 32.6714 36.6207 32.6714 36.4483 32.6714C36.0345 32.7057 35.6897 32.9119 35.4138 33.1523C35.3793 33.1867 35.3793 33.1867 35.3448 33.221C35.5172 33.3241 35.6897 33.4272 35.8621 33.4959C36.3793 33.7364 36.6207 34.2173 36.5172 34.767C36.4828 34.9044 36.4483 35.0762 36.3448 35.2136C36.069 34.9044 35.8276 34.5952 35.5862 34.286C35.5172 34.286 35.4483 34.3204 35.3793 34.3204C35.3793 34.3548 35.4138 34.3891 35.4138 34.4235C35.4483 34.5952 35.4828 34.8014 35.5172 34.9731C35.5517 35.4198 35.5172 35.8664 35.4138 36.313C35.3103 36.6909 35.2069 37.1031 35.1034 37.481C35.069 37.6872 35 37.8589 35 38.0651C35 38.443 35.069 38.8209 35.2414 39.1988C35.4828 39.7828 35.8621 40.2638 36.3103 40.7104C36.7931 41.2257 37.3448 41.7067 37.8621 42.1533C37.931 42.222 38 42.2563 38.069 42.2907C38.2069 42.3594 38.3103 42.325 38.3793 42.1876C38.4138 42.1189 38.4483 42.0159 38.4828 41.9128C38.5517 41.6379 38.6552 41.3631 38.8276 41.157C38.9655 40.9509 39.1034 40.7791 39.2414 40.573C39.3793 40.3668 39.5517 40.1607 39.6897 39.9546C39.931 39.5767 40.0345 39.1644 39.8965 38.6834C39.8621 38.546 39.931 38.4086 39.931 38.2712C40 38.3055 40.0345 38.3399 40.069 38.3743C40.1379 38.443 40.2069 38.4773 40.2414 38.546C40.5517 38.8209 40.8276 38.8896 41.2069 38.6834C41.3103 38.6147 41.4138 38.5804 41.5172 38.5117C42.2414 38.1338 42.931 37.6528 43.5517 37.1375C44.2069 36.5535 44.7931 35.9007 45.2069 35.1106C45.931 33.8394 46.2759 32.4309 46.3793 30.988C46.4138 30.6101 46.3793 30.2322 46.4138 29.8543C46.4138 29.7169 46.4483 29.5795 46.4828 29.442C46.5517 29.2015 46.6552 28.9611 46.7931 28.7549C46.931 28.5145 47.1034 28.274 47.2069 28.0335C47.2069 28.0335 47.2069 28.0335 47.2414 28.0335C47.3103 28.1366 47.4138 28.2053 47.5172 28.3083C47.4483 28.4114 47.5172 28.4114 47.5517 28.4457ZM28.2759 25.0103C28.2759 25.0103 28.2759 25.0446 28.2759 25.0103C28.2759 25.1821 28.3103 25.3538 28.3448 25.5256C28.3448 25.56 28.3793 25.5943 28.3793 25.5943C28.6207 26.0066 28.8966 26.4532 29.1379 26.8654C29.2759 27.0716 29.4138 27.2433 29.5517 27.4151C29.7931 27.6899 30.1379 27.793 30.5172 27.6899C30.6552 27.6556 30.7931 27.5869 30.931 27.5182C31.2069 27.3808 31.4483 27.209 31.7241 27.0716C31.9655 26.9341 32.1724 26.7967 32.4138 26.6937C32.5172 26.6249 32.6207 26.5219 32.6897 26.3845C32.7931 26.1096 32.8966 25.8348 33.0345 25.56V25.5256C33 25.5256 33 25.5256 33 25.5256C32.7931 25.56 32.5517 25.5943 32.3448 25.6287C32.2069 25.6287 32.0345 25.663 31.8965 25.663C31.7586 25.663 31.6207 25.5943 31.5517 25.4912C31.4828 25.3882 31.4138 25.2508 31.3448 25.1477C31.4138 25.1133 31.4828 25.0446 31.5517 25.0103C31.6897 24.9072 31.8621 24.8729 32.069 24.8385C32.4828 24.8385 32.8965 24.7354 33.2759 24.5293C33.7241 24.3232 34 23.9796 34.1724 23.533C34.2069 23.4643 34.2069 23.3956 34.2069 23.3269C34.2069 23.1895 34.1724 23.0864 34.1034 22.9834C34.069 22.949 34.069 22.9146 34.0345 22.8803C33.8965 22.7429 33.8965 22.6055 34.0345 22.4337C34.1034 22.3306 34.1724 22.2276 34.2759 22.1588C34.3103 22.1245 34.3103 22.0558 34.2759 22.0214C34.2759 21.9871 34.2414 21.9871 34.2414 21.9527C34.1379 21.9871 34.0345 22.0214 33.9655 22.0558C33.5172 22.2275 33.0345 22.2276 32.5862 22.1588C32.3448 22.1245 32.1034 22.0558 31.8276 22.0214C31.5517 21.9871 31.2759 22.0214 31 22.0901C30.6207 22.1932 30.3448 22.4337 30.1034 22.7085C30.0345 22.7772 30 22.8459 29.931 22.8803C29.7931 23.0177 29.6207 23.0521 29.4483 22.949C29.3448 22.8803 29.2414 22.8116 29.1724 22.7429C29.1379 22.7085 29.1034 22.6742 29.069 22.6398C29.0345 22.6055 29 22.6055 28.9655 22.6055C28.7586 22.6055 28.5172 22.6398 28.3103 22.7085C28.2414 22.7429 28.2069 22.7772 28.2069 22.8116C28.1724 22.949 28.1724 23.0864 28.2414 23.2238C28.4828 23.8079 28.8621 24.2888 29.4138 24.6324C29.4828 24.6667 29.5517 24.7354 29.6207 24.7698C29.7586 24.8385 29.7931 24.9759 29.7586 25.1133C29.7241 25.2851 29.6552 25.4225 29.4483 25.4912C29.4138 25.4912 29.3793 25.4912 29.3103 25.4912C29.2414 25.4912 29.1724 25.4569 29.1034 25.4225C29 25.3538 28.8621 25.3195 28.7586 25.2508C28.5862 25.1821 28.4138 25.1133 28.2759 25.0103ZM31.5172 9.17277C31.3448 9.10406 31.069 9.03535 30.8965 9.03535C30.5172 9.03535 30.1379 9.10406 29.7931 9.27583C28.8621 9.72244 27.9655 10.2034 27.1034 10.7187C26.6897 10.9592 26.2759 11.1997 25.7931 11.3715C25.3448 11.5432 24.8966 11.6807 24.4138 11.6807C24.3448 11.6807 24.2759 11.6807 24.2414 11.6807C24.0345 11.715 23.9655 11.8181 24 12.0242C24 12.0586 24.0345 12.1273 24.0345 12.1616C24.1034 12.3678 24.2069 12.5395 24.3103 12.7113C24.5172 13.0548 24.6207 13.4328 24.6897 13.8107C24.7241 14.1886 24.6897 14.5665 24.6552 14.91C24.5862 15.3223 24.5517 15.7689 24.4828 16.1811C24.4138 16.6964 24.4138 17.1774 24.4138 17.6927C24.4138 18.1737 24.4483 18.6203 24.5517 19.1013C24.5862 19.2387 24.6207 19.3418 24.6552 19.4448C24.7586 19.6166 24.8966 19.6853 25.069 19.6166C25.1724 19.5822 25.2759 19.5135 25.3448 19.4792C25.4483 19.4105 25.5172 19.3418 25.5517 19.2387C25.5862 19.1356 25.6207 18.9982 25.6552 18.8608C25.6552 18.586 25.6897 18.3111 25.6897 18.0363C25.7241 17.5897 25.7931 17.1431 25.8621 16.6964C25.9655 16.0094 26.1379 15.3223 26.3793 14.6352C26.4828 14.326 26.6207 14.0511 26.8276 13.7763C27.1034 13.4327 27.3793 13.0892 27.6897 12.7457C27.8966 12.5052 28.1034 12.2647 28.2759 12.0242C28.5172 11.612 28.7931 11.234 29.1034 10.8905C29.6552 10.2378 30.3448 9.72244 31.1034 9.3789C31.2414 9.34454 31.3448 9.24148 31.5172 9.17277ZM32.4828 29.8886C32.6207 30.1291 32.7586 30.2665 32.9655 30.3009C33.069 30.3353 33.1724 30.3353 33.2759 30.3353C33.6552 30.3353 34.069 30.2665 34.4483 30.1978C34.931 30.1291 35.4138 30.0604 35.8965 30.0261C36.3103 29.9917 36.7241 29.9917 37.1724 29.9574C37.8276 29.9574 38.4828 29.9574 39.1379 30.0261C39.4138 30.0261 39.6897 30.0604 39.9655 30.0948C40.2759 30.1291 40.5862 30.1635 40.931 30.1635C41.2069 30.1978 41.4828 30.1978 41.7241 30.2322C42.1034 30.2665 42.4483 30.2665 42.7931 30.1978C42.931 30.1635 43 30.0948 43.069 29.9917C43.1034 29.923 43.1034 29.8543 43.0345 29.7856C42.9655 29.7169 42.8965 29.6482 42.7931 29.6138C42.7586 29.5795 42.6896 29.5795 42.6552 29.5451C42.2759 29.3733 41.9655 29.0985 41.7241 28.7549C41.5172 28.4801 41.3103 28.2053 41.1034 27.8961C41.0345 27.793 40.931 27.6899 40.8276 27.5869C40.7241 27.4495 40.5517 27.3808 40.3793 27.4151C40.2759 27.4151 40.1724 27.4838 40.069 27.5525C39.8965 27.6899 39.7241 27.7587 39.5172 27.8617C39.2414 27.9991 38.9655 28.1366 38.6896 28.3083C38.5517 28.377 38.4483 28.4801 38.3448 28.5832C38.2414 28.6862 38.1724 28.7549 38.069 28.8237C37.8621 28.9611 37.6552 29.0298 37.4138 28.9611C37 28.858 36.5862 28.7893 36.1724 28.6519C35.931 28.5832 35.6897 28.4801 35.4483 28.4114C35.1724 28.3083 34.8621 28.274 34.5862 28.377C34.3793 28.4457 34.2069 28.5488 34.0345 28.6862C33.7241 28.9611 33.3793 29.2015 33.0345 29.442C32.8966 29.5451 32.7586 29.6138 32.6207 29.7169C32.6552 29.7512 32.5862 29.8199 32.4828 29.8886ZM32.8276 33.5646C32.7931 33.5646 32.8276 33.5646 32.8276 33.5646C32.7241 33.7364 32.6207 33.9081 32.5517 34.0799C32.5172 34.1486 32.4828 34.2517 32.4138 34.3204C32.2759 34.5609 32.1379 34.5609 32 34.3548C31.8966 34.2517 31.8276 34.1143 31.7586 33.9769C31.6552 33.8051 31.5517 33.5989 31.5172 33.3928C31.3103 32.2591 31.1034 31.1254 30.8621 29.9917C30.8276 29.8543 30.7931 29.6825 30.7586 29.5451C30.6897 29.339 30.5517 29.2703 30.3448 29.339C30.0345 29.4077 29.7586 29.5795 29.5172 29.8199C29.2069 30.1978 29.069 30.6101 29.1724 31.0911C29.2069 31.3659 29.2759 31.6751 29.3793 31.9499C29.6207 32.8431 29.9655 33.6677 30.5172 34.4235C30.8966 34.9731 31.3793 35.4541 31.931 35.8664C32.3103 36.1412 32.7586 36.313 33.2414 36.3817C33.3103 36.3817 33.3793 36.3817 33.4828 36.3817C33.6552 36.3473 33.7586 36.2443 33.7586 36.0725C33.7586 35.9694 33.7241 35.9007 33.7241 35.7976C33.6552 35.5572 33.5862 35.2823 33.5172 35.0418C33.3793 34.5952 33.2414 34.183 33.1379 33.7364C33 33.5989 32.9655 33.5302 32.8276 33.5646ZM40 31.4346C38.5172 31.2628 37.069 31.1941 35.6207 31.4346C35.6552 31.5377 35.6897 31.6064 35.7586 31.6751C35.9655 31.9156 36.2414 32.0186 36.5517 32.0186C36.7931 32.0186 37.069 32.0186 37.3103 31.9843C37.6207 31.9843 37.8965 31.9499 38.2069 31.9156C38.4138 31.8812 38.6552 31.8812 38.8621 31.8469C39.1724 31.7782 39.4483 31.7094 39.7586 31.6407C39.8276 31.6064 39.931 31.6064 40 31.572C40 31.5377 40 31.5033 40 31.4346ZM29.4483 21.4717C29.5172 21.4717 29.6207 21.4374 29.6897 21.4717C29.9655 21.4717 30.2069 21.403 30.4828 21.3C30.8276 21.1282 31.1724 20.9908 31.5517 20.8877C32 20.7847 32.4138 20.7503 32.8621 20.8534C32.8966 20.8534 32.8965 20.8534 32.931 20.8534V20.819C32.7931 20.235 32.2759 19.8914 31.6552 20.1319C31.5517 20.1663 31.4138 20.235 31.3103 20.2693C30.7241 20.5442 30.1379 20.8534 29.5517 21.1282C29.4483 21.2313 29.4138 21.3 29.4483 21.4717ZM40.9655 21.0938C41.1724 21.0938 41.3448 21.0595 41.5172 21.0251C41.7586 20.9564 42.0345 20.9564 42.2759 20.9908C42.5862 21.0251 42.8276 21.1626 43.069 21.3687C43.2759 21.5405 43.5172 21.6779 43.7586 21.7809C43.931 21.8496 44.1034 21.8496 44.2759 21.8153C44.2414 21.7809 44.2414 21.7466 44.2069 21.7122C44.1034 21.6092 44.0345 21.5405 43.931 21.4374C43.7241 21.2656 43.5172 21.0595 43.2759 20.8877C43.1379 20.7847 43.0345 20.6816 42.8965 20.5785C42.3793 20.235 41.7586 20.235 41.2759 20.6129C41.1724 20.7503 41.069 20.8877 40.9655 21.0938ZM25.4138 20.7159C25.2069 20.7159 25.069 20.7847 24.9655 20.8877C24.8621 20.9908 24.8276 21.0938 24.8966 21.2313C25.1034 21.8153 25.3448 22.3993 25.5517 22.9834C25.5862 23.0864 25.6897 23.1208 25.7931 23.1551C25.8276 23.1551 25.8621 23.1551 25.8621 23.1208C25.8966 23.0864 25.931 23.0177 25.931 22.949C25.8621 22.3306 25.7931 21.7466 25.6897 21.1282C25.6897 21.0251 25.6207 20.9221 25.5862 20.819C25.5517 20.7503 25.4828 20.7159 25.4138 20.7159ZM30 20.0632C29.9655 20.0632 29.9655 20.0289 29.9655 20.0289C29.931 20.0289 29.8621 19.9945 29.8276 19.9945C29.4138 19.8914 29 19.9258 28.6207 20.0289C28.4828 20.0632 28.3448 20.1319 28.2414 20.235C28.1034 20.3724 28 20.5098 27.931 20.6472C27.8966 20.6816 27.8966 20.7503 27.8966 20.7847C27.8621 20.9908 28.0345 21.1626 28.2069 21.1282C28.2414 21.1282 28.3103 21.0938 28.3448 21.0938C28.931 20.7847 29.4483 20.4411 30 20.0976C29.9655 20.0632 30 20.0632 30 20.0632ZM34.7586 25.4912C34.6552 25.4912 34.5862 25.5256 34.4828 25.5256C34.3103 25.5256 34.2069 25.6287 34.1379 25.7661C34.1379 25.8004 34.1034 25.8348 34.1034 25.8348C34.0345 25.9722 34 26.1096 33.931 26.247C33.8965 26.2814 33.931 26.3158 33.931 26.3501C33.9655 26.4188 34 26.4875 34.069 26.5562C34.2069 26.728 34.3103 26.9341 34.4483 27.1059C34.4828 27.1746 34.5517 27.209 34.6207 27.209C34.6552 27.209 34.6897 27.209 34.7586 27.209C34.8621 27.209 34.8965 27.1746 34.8965 27.0716C34.8965 27.0029 34.8965 26.9685 34.8965 26.8998C34.8965 26.625 34.8621 26.3845 34.8621 26.144C34.8276 25.9035 34.7931 25.6974 34.7586 25.4912ZM45.069 20.9908C45.069 20.8534 45.0345 20.7159 45.0345 20.5785C45.0345 20.338 44.8965 20.1663 44.6897 20.0976C44.3448 19.9258 44 19.9258 43.6552 19.9945C43.5862 19.9945 43.4828 20.0289 43.4138 20.0976C43.4483 20.1319 43.4483 20.2006 43.5172 20.2006C43.8276 20.4411 44.1379 20.7159 44.4828 20.9221C44.5517 20.9564 44.6207 20.9908 44.6552 20.9908C44.7586 20.9564 44.8965 20.9908 45.069 20.9908ZM26.2069 19.6509C26.2414 19.8227 26.2759 19.9945 26.3103 20.1663C26.3448 20.2693 26.3448 20.3037 26.4828 20.3037C26.5517 20.3037 26.5862 20.3037 26.6552 20.3037C26.7931 20.3037 26.9655 20.2693 27.1034 20.2693C27.3448 20.235 27.2759 20.235 27.3103 20.0632C27.3103 19.9945 27.3448 19.9258 27.3103 19.8227C26.9655 19.754 26.5862 19.6853 26.2069 19.6509ZM45.6896 19.8571C45.6896 19.9601 45.6552 20.0288 45.6552 20.1319C45.6552 20.3037 45.7241 20.4068 45.8965 20.4411C45.931 20.4411 45.9655 20.4411 45.9655 20.4411C46.069 20.4411 46.1724 20.4411 46.2759 20.4411C46.3103 20.4411 46.3793 20.4411 46.4138 20.4068C46.5172 20.338 46.6207 20.235 46.6552 20.0976C46.6552 20.0632 46.6552 20.0632 46.6552 20.0289C46.5862 19.9258 46.5172 19.8571 46.4138 19.8571C46.2069 19.8227 45.9655 19.8571 45.6896 19.8571Z" fill="white"/>
<path fill-rule="evenodd" clip-rule="evenodd" d="M60.345 58.6777C60.345 58.6434 60.4484 58.6434 60.4829 58.5747C60.6898 58.506 60.7243 58.3685 60.7933 58.2311C60.8622 58.1281 60.9312 57.9563 60.9312 57.8532C60.9312 57.7158 60.8967 57.544 60.7933 57.4066C60.7243 57.2692 60.6208 57.2005 60.4829 57.0974C60.4484 57.0974 60.345 57.0974 60.345 57.0287V56.8913C60.4484 56.8913 60.4829 56.96 60.6208 56.96C60.7243 57.0631 60.8622 57.1318 60.8967 57.3379C61.0346 57.544 61.1036 57.6471 61.1036 57.8532C61.1036 58.0594 61.0346 58.1624 61.0002 58.3342C60.8622 58.4716 60.7243 58.609 60.6208 58.7121C60.4829 58.7121 60.414 58.8152 60.345 58.8152V58.6777ZM60.345 58.3685V58.4373H60.5519L60.4484 58.1968C60.345 58.1968 60.345 58.1281 60.345 58.0594V58.3685ZM60.345 57.8876L60.4484 57.8189C60.4829 57.8189 60.4829 57.6815 60.4829 57.6471C60.4829 57.5784 60.4829 57.5784 60.4484 57.5097C60.4484 57.441 60.345 57.441 60.345 57.3723V57.8876ZM60.1036 58.8839C60.2071 58.8839 60.2415 58.8839 60.3795 58.8152V58.6777H60.1036V58.8839ZM60.345 57.0631V56.9256C60.2415 56.8569 60.1726 56.8569 60.0691 56.8569V57.0631H60.345ZM60.345 57.3723H60.0691V57.5097H60.2071C60.2071 57.5097 60.2071 57.5784 60.276 57.5784V57.6471C60.276 57.6815 60.276 57.7502 60.2071 57.7502C60.2071 57.8189 60.1381 57.8189 60.0691 57.8189V57.9906C60.1726 58.0937 60.1726 58.1624 60.2071 58.2655L60.3105 58.3685V58.0594C60.276 58.0594 60.276 57.9563 60.276 57.9563C60.2071 57.9563 60.2071 57.9219 60.1381 57.9219C60.2071 57.9219 60.276 57.9219 60.3105 57.8532V57.3723H60.345ZM59.8622 58.8152V58.6777H60.1036V58.8839C60.0691 58.8839 59.9657 58.8839 59.8622 58.8152ZM59.8622 57.9219V57.8189H60.0691H60.1036V57.9906C60.0691 57.9906 60.0002 57.9563 59.9312 57.9563H59.8622V57.9219ZM59.8622 57.5097V57.3723H60.0691H60.1036V57.5097H60.0691H59.8622ZM59.8622 57.0631V56.9256C59.9657 56.8569 60.0691 56.8569 60.1036 56.8569V57.0631H59.8622ZM59.8622 56.9256C59.7933 56.9256 59.6898 56.9944 59.6208 56.9944C59.4829 57.0974 59.345 57.1661 59.2415 57.3723C59.1726 57.5784 59.1036 57.6815 59.1036 57.8876C59.1036 58.0937 59.1726 58.1968 59.2415 58.3685C59.3795 58.506 59.4829 58.6434 59.6208 58.7464C59.6898 58.7464 59.7933 58.8495 59.8622 58.8495V58.7121C59.7933 58.6777 59.7243 58.6777 59.6898 58.609C59.5519 58.5403 59.4829 58.4029 59.4139 58.2655C59.3105 58.1624 59.3105 57.9906 59.3105 57.8876C59.3105 57.7502 59.3105 57.5784 59.4139 57.441C59.5174 57.3035 59.5864 57.2348 59.6898 57.1318C59.7588 57.1318 59.7933 57.1318 59.8622 57.0631V56.9256ZM59.8622 57.3723H59.6898V58.4373H59.8622V57.9219V57.8189V57.5097V57.3723ZM45.4829 67.713V60.739C48.0691 56.96 54.4139 55.7576 58.7243 57.2692L58.276 60.9451C58.1036 61.0139 57.6553 61.0139 57.4829 60.7734C55.6898 58.1968 50.5174 59.6397 49.414 63.35C49.1726 65.9266 51.8277 68.5032 57.5174 66.5793L56.9657 69.7399C52.1381 70.6675 47.5864 69.9804 45.4829 67.713ZM45.4829 58.3342L45.9312 56.7539H45.4829V58.3342ZM45.4829 56.7539H45.1036V59.9145L45.4829 58.3685V56.7539ZM45.4829 60.7047C45.345 60.9451 45.2415 61.1513 45.1036 61.3918V67.1977C45.2415 67.4038 45.3795 67.61 45.4829 67.713V60.7047ZM44.7243 66.545V62.3193C44.7933 61.9758 45.0002 61.6666 45.1036 61.4261V67.232C45.0002 67.0259 44.7933 66.7854 44.7243 66.545ZM44.7243 60.6016V56.7539H45.1036V59.9145L44.9312 60.636H44.7243V60.6016ZM44.7243 56.7539H34.0002C33.2071 58.5403 34.7588 57.9906 34.7588 58.609L32.8622 65.5487V69.843H37.8277C37.8277 69.0185 37.6209 68.9154 37.1726 68.2283L38.0002 64.6211C39.0002 64.4493 41.4829 64.5867 42.3105 65.3769L43.276 61.7697L38.8622 61.9071L39.4484 59.6397L43.3105 59.7084C44.0691 59.8458 44.2071 60.5329 44.7243 60.6703V56.7539ZM44.7243 62.285C44.6553 62.388 44.5864 62.5255 44.5864 62.7316C44.1381 64.2088 44.2071 65.4456 44.7243 66.545V62.285ZM32.8967 57.8189V56.7882H33.276C33.345 57.2348 33.2071 57.5784 32.8967 57.8189ZM32.8967 56.7882V57.8189C32.7588 57.8876 32.6209 57.9219 32.5174 57.9906V56.7882H32.8967ZM32.8967 65.5143V69.8086H32.5174V66.9229L32.8967 65.5143ZM32.0691 69.8086H32.5174V66.9229L32.0691 68.3658V69.8086ZM32.0691 58.1624C32.2415 58.0937 32.3795 58.0937 32.5174 57.9906V56.7882H32.0691V58.1624ZM32.0691 56.7882V58.1281H31.9312L26.2071 62.869C27.6553 65.1708 28.276 65.8922 29.7243 68.1596C30.414 68.7437 31.1036 68.4688 31.0002 69.8774L26.0002 69.7399C24.345 69.6712 22.2071 65.9953 20.8967 64.4493L20.0346 67.3351L20.7933 68.7093L20.6553 69.6712H13.7588V69.6025V69.2933C13.8967 68.3314 14.7933 68.5719 14.9657 68.0909C16.0347 64.9303 17.0346 62.0788 17.7933 58.8839C17.9657 58.2998 17.7243 58.1281 17.1036 57.9219C16.8967 57.4753 17.0347 56.8569 17.5519 56.7195C19.3795 56.7882 21.2071 56.8569 23.0691 56.8569L23.8278 56.9256C23.7243 57.5097 23.5864 57.9906 22.8967 58.1968C22.5519 58.3342 21.6209 60.9795 21.6209 62.4224L26.6898 58.5403C26.9657 58.2311 26.9657 58.025 26.0691 57.9219C25.8967 57.6815 26.0002 57.2692 26.3105 56.8226H32.0691V56.7882ZM32.0691 68.3658V69.8086H31.6898L32.0691 68.3658Z" fill="white"/>
</g>
<defs>
<clipPath id="clip0_16_449">
<rect width="74" height="74" fill="white"/>
</clipPath>
</defs>
</svg>
