<svg width="167" height="49" viewBox="0 0 167 49" fill="none" xmlns="http://www.w3.org/2000/svg">
<g clip-path="url(#clip0_16_537)">
<mask id="mask0_16_537" style="mask-type:alpha" maskUnits="userSpaceOnUse" x="0" y="0" width="26" height="29">
<path d="M0 0.157227H25.9241V28.7572H0V0.157227Z" fill="white"/>
</mask>
<g mask="url(#mask0_16_537)">
<path fill-rule="evenodd" clip-rule="evenodd" d="M13.0592 0.157227C5.00561 0.157227 0 5.47353 0 14.0314V14.9206C0 23.5851 4.81144 28.7572 12.865 28.7572C20.919 28.7572 25.9242 23.4274 25.9242 14.8454V13.9934C25.9242 9.50848 24.712 6.00548 22.3149 3.58815C20.0911 1.34549 16.8902 0.157227 13.0592 0.157227ZM7.09431 13.53C7.09431 6.56871 10.7072 5.52819 12.8618 5.52819C17.0184 5.56265 18.8718 8.18634 18.8718 14.0314V15.3468C18.8718 18.3345 18.1063 23.3482 12.9829 23.3482C10.4543 23.3482 7.09431 22.4725 7.09431 14.883V13.53Z" fill="#A6A6A6"/>
</g>
<path fill-rule="evenodd" clip-rule="evenodd" d="M43.3172 11.4273L40.9756 10.8091C38.471 10.1567 38.0487 9.44255 38.0487 8.07921C38.0487 6.43742 39.2541 5.60643 41.6372 5.60643C44.5849 5.60643 46.7084 6.33444 48.4127 6.92184L49.2369 7.20663V1.82537L48.8942 1.65347C47.4011 0.911988 45.3332 0.15625 41.2873 0.15625C35.1598 0.15625 31.5018 3.26436 31.5018 8.46698C31.5018 14.2847 34.9277 15.9606 38.2841 16.8328L40.702 17.4542C43.5042 18.1755 43.9788 18.835 43.9788 20.4491C43.9788 22.3479 42.545 23.3132 39.7251 23.3132C37.2173 23.3132 34.7819 22.7979 32.2916 21.7367L31.4219 21.3692V26.8914L31.7579 27.0633C33.9021 28.176 36.8362 28.7598 40.2341 28.7598C46.9717 28.7598 50.6816 25.6038 50.6816 19.872C50.6816 14.484 47.7371 12.5986 43.3172 11.4273Z" fill="#A6A6A6"/>
<path fill-rule="evenodd" clip-rule="evenodd" d="M77.7387 8.66094C77.7387 1.63116 72.1618 0.157715 67.4854 0.157715H57.27V28.3319H64.0527V17.4696H66.9448L72.2485 28.3319H80.0527L73.1594 15.804C76.1973 14.4819 77.7387 12.078 77.7387 8.66094ZM64.0143 5.44986H66.7822C69.6816 5.44986 70.7623 6.39096 70.7623 8.93226C70.7623 11.6039 69.6572 12.6444 66.8238 12.6444H64.0143V5.44986Z" fill="#A6A6A6"/>
<path fill-rule="evenodd" clip-rule="evenodd" d="M97.0779 0.157227C89.0207 0.157227 84.0151 5.47353 84.0151 14.0314V14.9206C84.0151 23.5851 88.8266 28.7572 96.8805 28.7572C104.938 28.7572 109.943 23.4274 109.943 14.8454V13.9934C109.943 9.50848 108.724 6.00547 106.334 3.58815C104.11 1.34549 100.906 0.157227 97.0779 0.157227ZM91.1094 13.53C91.1094 6.56871 94.7223 5.52819 96.8805 5.52819C101.034 5.56265 102.887 8.18634 102.887 14.0314V15.3468C102.887 18.3345 102.121 23.3482 96.9984 23.3482C94.473 23.3482 91.1094 22.4725 91.1094 14.883V13.53Z" fill="#A6A6A6"/>
<path fill-rule="evenodd" clip-rule="evenodd" d="M129.513 23.1566C124.739 23.1566 122.612 20.5705 122.612 14.767V13.4516C122.612 8.29694 124.919 5.67998 129.475 5.67998C131.917 5.67998 133.687 6.25708 135.405 6.81319L136.219 7.07778V1.72028L135.89 1.54521C134.113 0.597373 131.847 0.157715 128.775 0.157715C124.885 0.157715 121.632 1.24973 119.363 3.31375C116.758 5.69028 115.442 9.26855 115.442 13.9563V14.9215C115.442 19.4373 116.609 22.93 118.92 25.3066C121.14 27.6003 124.313 28.7577 128.345 28.7577C131.483 28.7577 134.088 28.198 136.094 27.0957L136.413 26.9206V21.4669L135.537 21.8586C134.12 22.4868 132.37 23.1566 129.513 23.1566Z" fill="#A6A6A6"/>
<path fill-rule="evenodd" clip-rule="evenodd" d="M150.441 0.342285L140.485 28.3311H146.88L149.062 21.9949H157.687L159.908 28.3311H166.922L157.091 0.342285H150.441ZM153.305 8.88671L155.972 16.854H150.728L153.305 8.88671Z" fill="#A6A6A6"/>
<path fill-rule="evenodd" clip-rule="evenodd" d="M35 41.9341C35.4123 41.9341 35.7691 41.982 36.0703 42.0818C36.3716 42.1781 36.6316 42.3151 36.8534 42.4938C37.2861 42.8407 37.5669 43.3248 37.6948 43.9533L36.4027 44.1835C36.2885 43.8401 36.1223 43.5584 35.8901 43.3422C35.6616 43.1291 35.374 43.0225 35.0312 43.0225C34.5637 43.0225 34.1894 43.2186 33.9021 43.6064C33.5937 44.0254 33.4379 44.6093 33.4379 45.3547C33.4379 46.0998 33.5765 46.6769 33.8498 47.0955C34.1234 47.5146 34.4978 47.7241 34.9688 47.7241C35.4435 47.7241 35.8002 47.6108 36.0392 47.3843C36.2817 47.1541 36.4027 46.8622 36.4027 46.5014H37.7052C37.7052 47.2401 37.4662 47.8132 36.9916 48.2188C36.5138 48.624 35.8626 48.8264 35.0312 48.8264C34.1478 48.8264 33.4447 48.5175 32.9253 47.9063C32.3951 47.2813 32.1318 46.4329 32.1318 45.3579C32.1318 44.2726 32.4019 43.421 32.9461 42.8098C33.4618 42.2224 34.1514 41.9341 35 41.9341Z" fill="#A6A6A6"/>
<path fill-rule="evenodd" clip-rule="evenodd" d="M45.2849 41.9341C45.7315 41.9341 46.1406 42.0062 46.511 42.1503C46.8781 42.2981 47.197 42.5144 47.4638 42.7995C48.0284 43.3972 48.3088 44.2556 48.3088 45.3717C48.3088 46.4911 48.0284 47.3565 47.4638 47.9681C46.9301 48.5416 46.1994 48.8264 45.2745 48.8264C44.3564 48.8264 43.6292 48.5345 43.0955 47.9475C42.531 47.3431 42.2505 46.4844 42.2505 45.3717C42.2505 44.2417 42.531 43.3762 43.0955 42.7789C43.622 42.2157 44.3496 41.9341 45.2849 41.9341ZM47.0547 45.3856C47.0547 44.6263 46.8921 44.0429 46.5769 43.6305C46.2581 43.2186 45.8254 43.0122 45.2849 43.0122C44.7443 43.0122 44.3116 43.2186 43.9892 43.6305C43.6672 44.0429 43.5078 44.6263 43.5078 45.3856C43.5078 46.1409 43.6672 46.7248 43.9892 47.1264C44.3116 47.532 44.7443 47.7344 45.2849 47.7344C45.8254 47.7344 46.2581 47.532 46.5769 47.1264C46.8921 46.7248 47.0547 46.1409 47.0547 45.3856Z" fill="#A6A6A6"/>
<path fill-rule="evenodd" clip-rule="evenodd" d="M58.3062 44.095C58.3062 44.562 58.1711 44.964 57.9042 45.2971C57.6378 45.6334 57.253 45.8604 56.7544 45.9907L58.5419 48.6829H56.9586L55.4863 46.1004H54.5614V48.6829H53.3457V42.0654H55.8155C56.6054 42.0654 57.2187 42.2508 57.6585 42.6251C58.0912 42.9855 58.3062 43.4767 58.3062 44.095ZM55.7049 45.2971C56.1515 45.2971 56.4839 45.1973 56.7129 44.9949C56.9378 44.7957 57.0521 44.5275 57.0521 44.198C57.0521 43.8716 56.9482 43.6074 56.744 43.4082C56.5359 43.2054 56.2279 43.106 55.8155 43.106H54.5614V45.2971H55.7049Z" fill="#A6A6A6"/>
<path fill-rule="evenodd" clip-rule="evenodd" d="M67.6592 42.6107C68.0819 42.9747 68.2896 43.4931 68.2896 44.1732C68.2896 44.8462 68.0819 45.3682 67.6592 45.7322C67.2365 46.0931 66.6476 46.2749 65.8925 46.2749H64.7635V48.6823H63.5405V42.0645H65.8925C66.6476 42.0645 67.2365 42.2467 67.6592 42.6107ZM65.8925 45.2276C66.2701 45.2276 66.5577 45.1278 66.7483 44.9321C66.9421 44.7329 67.0355 44.479 67.0355 44.1732C67.0355 43.8607 66.9421 43.6064 66.7483 43.4072C66.5577 43.2048 66.2701 43.1054 65.8925 43.1054H64.7635V45.2276H65.8925Z" fill="#A6A6A6"/>
<path fill-rule="evenodd" clip-rule="evenodd" d="M75.7087 41.9341C76.1522 41.9341 76.5609 42.0062 76.928 42.1503C77.302 42.2981 77.6208 42.5144 77.8877 42.7995C78.4486 43.3972 78.7291 44.2556 78.7291 45.3717C78.7291 46.4911 78.4486 47.3565 77.8877 47.9681C77.3507 48.5416 76.6232 48.8264 75.6947 48.8264C74.777 48.8264 74.0531 48.5345 73.5161 47.9475C72.9548 47.3431 72.6743 46.4844 72.6743 45.3717C72.6743 44.2417 72.9548 43.3762 73.5161 42.7789C74.0459 42.2157 74.7734 41.9341 75.7087 41.9341ZM77.4754 45.3856C77.4754 44.6263 77.316 44.0429 76.9971 43.6305C76.6787 43.2186 76.2492 43.0122 75.7087 43.0122C75.1649 43.0122 74.7319 43.2186 74.4098 43.6305C74.091 44.0429 73.928 44.6263 73.928 45.3856C73.928 46.1409 74.091 46.7248 74.4098 47.1264C74.7319 47.532 75.1649 47.7344 75.7087 47.7344C76.2492 47.7344 76.6787 47.532 76.9971 47.1264C77.316 46.7248 77.4754 46.1409 77.4754 45.3856Z" fill="#A6A6A6"/>
<path fill-rule="evenodd" clip-rule="evenodd" d="M88.7284 44.095C88.7284 44.562 88.5933 44.964 88.3264 45.2971C88.06 45.6334 87.6752 45.8604 87.173 45.9907L88.9641 48.6829H87.3808L85.9085 46.1004H84.9836V48.6829H83.7715V42.0654H86.2377C87.0276 42.0654 87.6409 42.2508 88.0807 42.6251C88.5134 42.9855 88.7284 43.4767 88.7284 44.095ZM86.1235 45.2971C86.5701 45.2971 86.9061 45.1973 87.1351 44.9949C87.36 44.7957 87.4711 44.5275 87.4711 44.198C87.4711 43.8716 87.3704 43.6074 87.1626 43.4082C86.9581 43.2054 86.65 43.106 86.2377 43.106H84.9836V45.2971H86.1235Z" fill="#A6A6A6"/>
<path fill-rule="evenodd" clip-rule="evenodd" d="M95.5371 42.0645L93.2646 48.6823H94.5499L95.0245 47.2536H97.5012L97.9618 48.6823H99.2503L97.0577 42.0645H95.5371ZM96.275 43.4999L97.1999 46.3434H95.3326L96.275 43.4999Z" fill="#A6A6A6"/>
<path fill-rule="evenodd" clip-rule="evenodd" d="M102.673 42.0645V43.105H104.745V48.6823H105.954V43.105H108.022V42.0645H102.673Z" fill="#A6A6A6"/>
<mask id="mask1_16_537" style="mask-type:alpha" maskUnits="userSpaceOnUse" x="0" y="-22" width="167" height="71">
<path d="M0 48.8263H166.922V-21.1079H0V48.8263Z" fill="white"/>
</mask>
<g mask="url(#mask1_16_537)">
<path fill-rule="evenodd" clip-rule="evenodd" d="M112.641 48.6828H113.853V42.0649H112.641V48.6828Z" fill="#A6A6A6"/>
<path fill-rule="evenodd" clip-rule="evenodd" d="M123.171 42.0645L121.526 47.1712L119.905 42.0645H118.616L120.882 48.6823H122.153L124.449 42.0645H123.171Z" fill="#A6A6A6"/>
<path fill-rule="evenodd" clip-rule="evenodd" d="M131.773 41.9341C132.216 41.9341 132.625 42.0062 132.992 42.1503C133.366 42.2981 133.681 42.5144 133.952 42.7995C134.513 43.3972 134.793 44.2556 134.793 45.3717C134.793 46.4911 134.513 47.3565 133.952 47.9681C133.415 48.5416 132.684 48.8264 131.759 48.8264C130.838 48.8264 130.114 48.5345 129.58 47.9475C129.015 47.3431 128.735 46.4844 128.735 45.3717C128.735 44.2417 129.015 43.3762 129.58 42.7789C130.107 42.2157 130.838 41.9341 131.773 41.9341ZM133.54 45.3856C133.54 44.6263 133.38 44.0429 133.058 43.6305C132.739 43.2186 132.313 43.0122 131.773 43.0122C131.229 43.0122 130.796 43.2186 130.474 43.6305C130.152 44.0429 129.989 44.6263 129.989 45.3856C129.989 46.1409 130.152 46.7248 130.474 47.1264C130.796 47.532 131.229 47.7344 131.773 47.7344C132.313 47.7344 132.739 47.532 133.058 47.1264C133.38 46.7248 133.54 46.1409 133.54 45.3856Z" fill="#A6A6A6"/>
</g>
</g>
<defs>
<clipPath id="clip0_16_537">
<rect width="167" height="49" fill="white"/>
</clipPath>
</defs>
</svg>
