<svg width="91" height="88" viewBox="0 0 91 88" fill="none" xmlns="http://www.w3.org/2000/svg">
<path d="M65.8662 2.62746C87.3669 9.50296 90.3636 34.9856 90.3636 34.9856C90.9344 38.3032 90.8869 48.8328 89.6501 54.0736C88.7939 57.6796 88.0328 67.1995 72.716 79.4119C69.7668 81.7679 66.2944 84.4604 62.7268 84.845C62.2987 84.8931 61.823 84.9412 61.6327 84.6046C61.3949 84.2681 62.0608 83.4026 62.2511 83.3065C71.5268 77.6811 84.4177 68.1611 84.9885 45.7076C84.9885 45.7076 86.2728 24.6002 73.4295 14.6476C69.2911 11.4262 63.3452 7.82015 58.6835 6.52197C58.0176 6.32965 51.5484 4.88724 51.3581 5.99309C51.1203 7.57974 53.7365 7.6759 55.0684 7.72399C58.1603 7.82015 61.9657 9.74337 62.8219 10.1761C73.9052 15.7053 76.8544 22.2443 77.8057 23.8309C82.0868 30.8026 81.9441 44.1209 81.9441 46.0441C82.0868 58.1123 75.8555 66.3341 73.049 70.2767C68.2922 76.9598 57.5895 85.4701 40.1321 86.9606C36.0413 87.2971 27.0986 87.201 18.2034 82.2487C15.3494 80.662 9.64123 75.9982 6.83473 70.5651C6.02608 68.9785 4.40878 64.8917 6.31149 64.507C7.45311 64.2666 9.11798 67.8246 12.2099 71.1902C15.0164 74.2673 17.8704 77.1522 22.0564 79.2196C27.6218 82.0083 34.2813 83.5469 37.0878 83.1141C37.7062 83.018 37.7537 82.2487 37.1829 82.1045C35.4705 81.6717 32.0932 81.3833 29.2867 80.3736C24.9105 78.7869 16.8715 73.6423 12.2574 67.5842C10.545 65.3244 7.92879 60.0836 7.45311 56.2372C6.59689 49.5059 6.8823 39.986 7.16771 38.1108C8.97528 27.3408 14.6358 21.0904 19.0121 17.1958C23.2932 13.3494 31.1894 10.6569 33.1872 9.6472C33.5202 9.45488 33.3299 9.07024 33.0921 9.02216C32.7116 8.97408 32.2835 9.02216 31.8553 9.11832C31.5699 9.21448 31.237 9.26256 30.904 9.31064C29.9526 9.45488 4.64662 15.3207 4.36121 46.6211C4.31364 49.4578 1.93526 47.8231 1.64985 46.0922C0.841202 41.3322 0.936338 36.9569 2.0304 32.3893C3.98067 24.0233 9.11798 17.3401 14.1602 12.9648C21.5807 6.47389 31.9505 2.7717 40.5602 1.23312C47.8857 -0.0650496 53.8792 -1.21898 65.8662 2.62746ZM3.69526 61.2856C5.02716 61.526 5.36013 60.4202 5.265 59.8913C5.02716 58.8335 4.97959 57.8238 4.93202 56.3814C4.83689 55.0832 4.74175 53.4966 3.88554 52.4388C3.45743 51.9099 2.83905 51.5734 2.1731 51.5734C-0.96637 51.5253 0.0801192 56.6218 0.555796 58.3527C0.746067 59.122 1.07904 59.8432 1.69742 60.3721C2.1731 60.8529 2.93418 61.1414 3.69526 61.2856Z" fill="#A6A6A6"/>
<path d="M66.4373 27.052C66.0092 26.8597 65.6286 26.7155 65.3432 26.5712C64.2492 26.0424 61.4903 25.1769 59.3021 24.4557C58.0654 24.0711 56.8286 23.6383 56.5908 23.5422C56.3529 23.1575 55.8297 20.8016 55.5443 19.6477C55.4016 19.0707 55.3065 18.5899 55.2589 18.3976C55.0686 17.6764 54.8308 17.2436 54.1173 17.2917H54.0697C53.8319 17.2917 50.5973 17.9648 45.2697 19.0707C41.7021 19.84 37.9918 20.6093 37.754 20.6573C37.4686 20.7054 37.2783 20.8497 34.9475 24.4076C34.234 25.4654 33.3777 26.8116 33.235 26.9559C33.1399 27.004 32.6642 27.1963 32.141 27.4367C30.6664 28.0617 27.9075 29.2157 25.5291 30.4658C22.9128 31.8601 17.9182 34.8411 17.5377 35.5142C17.395 35.7546 17.395 36.0431 17.5377 36.2835C17.728 36.572 18.1085 36.7643 18.5842 36.7162C18.6793 36.7162 18.7745 36.7162 18.9172 36.6681C19.4404 36.572 35.2804 34.168 44.3659 33.1583C46.6491 32.9179 49.5032 32.6775 52.8805 32.4851C61.2048 32.0524 69.6243 32.0043 70.1 32.1005C70.5757 32.1967 71.0989 32.0043 71.4319 31.6197C71.7173 31.3312 71.86 30.8985 71.86 30.5138C71.86 29.6484 70.1 28.7349 66.4373 27.052Z" fill="white"/>
<path d="M37.5161 43.4959C37.4685 42.6785 37.3258 42.2939 37.088 42.1015C36.9453 42.0054 36.8026 42.0054 36.6123 42.0054H36.5647C36.1842 42.1015 36.0415 42.4862 35.9464 42.7266C35.8988 42.7747 35.8988 42.8708 35.661 43.1593C32.7593 47.15 32.3788 48.4962 32.2361 49.7463C32.0934 50.756 32.4264 51.9099 32.9972 52.4388C33.2826 52.6792 33.6155 52.7754 33.9485 52.7273C34.1864 52.6792 34.4242 52.535 34.5193 52.3427C34.6145 52.1504 34.6145 51.958 34.5669 51.7657C34.662 51.1407 35.1377 50.2271 35.661 49.1694C36.5647 47.4385 37.6588 45.2748 37.5161 43.4959Z" fill="white"/>
<path d="M37.1831 40.9479H37.2306C37.9917 40.8037 38.6577 39.9382 38.9906 39.4574C39.7042 38.4958 40.5128 37.1976 40.8933 36.5726C40.9885 36.4283 41.1788 36.0918 41.2263 35.9475C41.3215 35.7071 41.2739 35.5148 41.1788 35.4186C41.0361 35.2744 40.8458 35.2263 40.4652 35.3225C39.5615 35.5148 37.7063 36.4283 36.6123 38.015C36.089 38.7362 35.8512 39.5055 35.9463 40.0825C36.0414 40.6594 36.5171 41.0441 37.1831 40.9479Z" fill="white"/>
<path d="M53.7364 48.9769C53.5462 48.9769 53.4035 49.0731 53.4035 49.0731C52.7375 49.3616 51.5007 49.5539 50.9299 49.65C49.9786 49.7462 49.0272 49.65 47.8856 49.4577C46.5061 49.2654 44.9364 49.0731 42.9385 49.2654C42.6056 49.3135 42.2726 49.3616 41.8921 49.4096C42.5104 48.7846 44.2229 47.0056 45.1742 45.9478C45.8402 45.2266 47.0294 43.8804 47.3148 43.0149C47.4575 42.6784 47.6002 42.0533 47.3148 41.6687C47.1245 41.3802 46.744 41.284 46.2207 41.3321C46.1256 41.3321 40.3223 41.9572 40.3223 41.9572C40.1321 41.9572 39.8942 41.9572 39.7515 41.9572C39.7039 41.9572 39.7039 41.9572 39.6564 41.9572C39.038 41.9091 38.6099 42.1976 38.5147 42.6303C38.4196 43.0149 38.6099 43.4957 39.038 43.7361C39.4185 43.9765 40.0845 44.1208 41.0358 44.0727C41.3688 44.0727 41.7018 44.0246 42.0348 44.0246C42.8434 43.9285 43.4618 43.7842 43.8423 43.6881C43.0337 44.5054 40.7029 46.7171 39.2758 48.1115C39.1807 48.2076 39.0856 48.3038 38.9904 48.3999C38.2293 49.1212 37.3731 49.9385 36.945 50.804C36.612 51.5252 36.612 52.1983 37.0401 52.5349C37.278 52.7753 37.5158 52.8234 37.8488 52.7753C38.0866 52.7272 38.372 52.6791 38.8002 52.5349C39.5612 52.2945 40.7029 51.9579 42.6056 51.7656C44.1277 51.6213 45.8877 51.5252 47.8856 51.6213C48.5991 51.6213 49.3126 51.6213 49.931 51.5252C51.5483 51.3329 52.9278 50.9001 53.784 50.227L53.8316 50.1789C54.0694 49.9866 54.5451 49.602 54.3548 49.1692C54.2121 49.0731 54.0218 48.9769 53.7364 48.9769Z" fill="white"/>
<path d="M32.5212 45.3711C32.5212 45.323 33.9482 42.1978 31.2844 39.9861C29.9525 38.8802 28.0498 38.4956 26.0044 38.8322C24.9103 39.0245 23.8163 39.4572 23.1028 39.938C22.2941 40.4669 22.1038 41.0439 22.0563 41.4285C22.0087 41.8612 22.199 42.2459 22.2941 42.342C22.3892 42.4382 22.6271 42.5824 23.1503 42.4863C23.3882 42.4382 23.7211 42.342 24.1017 42.1978C23.3882 43.1594 21.2 46.3327 19.4876 51.862C18.2508 55.8526 17.9179 58.2086 18.4411 59.074C18.5838 59.2663 18.7265 59.3625 18.9644 59.4106C19.0119 59.4106 19.1071 59.4106 19.1546 59.4106C20.2487 59.2183 21.3427 56.3334 22.8649 52.3428C23.1028 51.7658 23.293 51.1888 23.5309 50.5638C26.0519 44.0248 26.1947 42.4382 26.0519 42.0055C26.813 42.0055 29.5244 42.1016 29.8574 44.2172C30.1428 45.9481 28.2876 47.5828 26.4801 48.4963C26.0044 48.7367 25.5287 48.881 25.1482 49.0252C24.7676 49.1694 24.4822 49.2656 24.2919 49.3618C24.0541 49.506 24.1017 49.6983 24.1017 49.7464C24.1968 50.083 24.9103 50.2753 26.0044 50.083H26.0995C26.8606 49.8426 30.8087 48.9771 32.5212 45.3711Z" fill="white"/>
<path d="M53.0707 56.3814C53.1182 55.9006 53.0231 55.516 52.8328 55.3237C52.7377 55.2275 52.595 55.1313 52.4523 55.1313C52.4047 55.1313 52.3096 55.1313 52.262 55.1313C51.7863 55.2275 51.5009 55.7083 51.0252 56.4295C50.5971 57.1027 50.0263 58.0162 49.075 58.9778C47.9809 60.0356 46.7917 60.901 46.3636 61.0933C46.6966 60.0836 46.7917 58.8816 46.6966 58.2085C46.649 57.5354 46.4112 57.1026 46.0306 56.8142C45.6025 56.4776 45.0793 56.4776 44.6987 56.5738C44.2231 56.6699 43.7949 56.9103 43.6047 57.0546C43.5095 57.1507 43.462 57.295 43.462 57.3911C43.5095 57.5354 43.6047 57.6796 43.8901 57.7758C44.3658 57.9681 44.2706 58.2085 44.1755 58.5451C44.1755 58.5931 44.1279 58.6893 44.1279 58.7374C44.0328 59.0259 43.9377 59.3144 43.8425 59.6509C43.462 60.8048 43.0339 62.0069 43.4144 63.0166C43.6998 63.8339 44.5085 64.2186 45.5074 64.0262C45.6977 63.9782 45.8879 63.9301 46.1258 63.882C47.2674 63.4493 48.5042 62.3434 49.836 60.6125C49.8836 62.1992 50.8825 62.9685 51.2631 63.305C51.5485 63.5454 51.929 63.6897 52.2144 63.6416C52.4047 63.5935 52.4998 63.4974 52.595 63.3531C52.6425 63.2089 52.6901 62.9685 52.4998 62.5838C52.2144 62.0069 52.5474 59.5067 52.7852 57.8719C52.9755 57.1988 53.0707 56.6699 53.0707 56.3814Z" fill="white"/>
<path d="M66.4373 52.198C66.1995 51.9576 65.6762 52.0538 63.8686 52.4865C63.3454 52.5827 62.727 52.7269 62.0135 52.8712C61.8232 52.9193 61.4427 53.0154 60.967 53.1116C60.7292 53.1597 60.4438 53.2558 60.1108 53.3039L60.2059 53.1116C60.5389 52.4384 60.8719 51.7172 60.967 51.2845C61.1097 50.8037 61.0146 50.371 60.7767 50.1306C60.5865 49.9383 60.3486 49.8421 60.1108 49.8902C59.873 49.9383 59.6351 50.0825 59.4448 50.3229C59.1594 50.6595 58.1605 51.9096 57.114 53.9289C56.7335 53.977 55.6394 54.1693 54.9259 54.0732C54.7832 54.0732 54.5454 54.0251 54.3075 54.0732C53.9746 54.1213 53.6892 54.3617 53.5464 54.6982C53.4513 54.8906 53.4513 55.131 53.5464 55.3714C53.6416 55.6598 53.8794 55.9002 54.2124 56.0445C54.6881 56.2368 55.354 56.333 56.1151 56.333C54.9735 59.2178 54.5454 61.9103 54.8308 64.3624C54.8783 64.8432 55.021 65.1317 55.1638 65.2279C55.2589 65.2759 55.354 65.324 55.4492 65.2759C55.687 65.2279 55.9724 64.8913 56.1151 64.3624C56.2578 63.9297 57.9227 58.8332 59.1594 55.6598C61.6805 54.7463 63.7259 53.977 65.3432 53.2077L65.4384 53.1597C65.9141 52.9673 66.3422 52.7269 66.4373 52.6308C66.5324 52.5346 66.58 52.4384 66.58 52.3423C66.5324 52.3423 66.4849 52.2461 66.4373 52.198Z" fill="white"/>
<path d="M43.3669 58.8812C43.3669 58.8332 43.2717 58.6889 43.129 58.6889C42.9863 58.6408 42.8912 58.6408 42.6058 58.7851C42.5107 58.8332 42.4155 58.8332 42.3204 58.8812C42.1301 58.9774 41.8447 59.0736 41.4642 59.2178C41.702 58.0158 41.9399 57.0061 42.1777 56.2368C42.5582 54.6021 42.7961 53.7366 42.5107 53.4001C42.4155 53.2558 42.2728 53.2077 42.0826 53.1597C42.035 53.1597 41.9874 53.1597 41.9399 53.1597C40.8934 53.352 39.2285 56.8138 38.182 60.1794C38.0869 60.1794 38.0393 60.2275 37.9442 60.2275C36.8025 60.516 35.5182 60.8045 34.1387 61.0929C34.4242 60.1313 34.7571 59.2178 35.1377 58.112V58.0639C35.5182 57.0061 36.1842 55.0829 36.089 54.1694C35.9939 53.5924 35.7085 53.4962 35.5658 53.4962C35.5182 53.4962 35.5182 53.4962 35.4706 53.4962C34.2814 53.6886 32.0458 57.8715 30.476 61.718L30.2858 61.7661L29.9052 61.8141C29.049 61.9584 28.2879 62.1026 27.8122 62.295C27.0512 62.5834 26.623 63.0162 26.623 63.4489C26.623 63.8335 26.9085 64.2662 27.4793 64.5066C27.9549 64.7471 28.5733 64.8432 29.3344 64.8913C28.7636 66.7664 27.9549 69.8917 28.6685 71.1418C28.8587 71.4302 29.0966 71.6226 29.382 71.6706C29.5722 71.7187 29.7625 71.7187 29.9528 71.6706C31.2371 71.4302 31.8079 69.5551 32.1409 68.1127C32.4263 66.8626 32.7593 65.6125 33.1398 64.2662C34.4717 63.8816 35.9463 63.3527 37.4209 62.6796C36.9928 64.5066 36.5647 67.3434 37.849 67.6319C38.0869 67.728 38.3247 67.728 38.515 67.68C39.0382 67.5838 39.5139 67.1992 39.8469 66.526C40.3225 65.6606 40.5128 64.4105 40.7031 63.3046C40.8458 62.4392 40.9885 61.5737 41.1312 60.7564C42.0826 60.2275 42.7485 59.6986 43.129 59.362C43.3193 59.2659 43.462 59.0255 43.3669 58.8812Z" fill="white"/>
<path d="M67.246 43.3037C66.9606 43.3037 66.7703 43.1594 66.6276 43.0152C66.2946 42.6305 66.4373 42.1497 66.7703 41.2843C66.913 40.8996 67.0082 40.515 67.1509 39.9861C67.2936 39.4091 67.1984 39.0245 67.0557 38.8322C66.913 38.5918 66.6752 38.4956 66.5325 38.4956C66.2471 38.4956 65.9617 38.6879 65.819 38.736C65.3433 38.6398 64.8676 38.6398 64.3919 38.6879C61.8708 38.8802 58.9217 40.7554 57.6373 42.9671C57.0189 44.0249 56.8762 45.0345 57.2568 45.8519C57.3044 45.9 57.3043 45.9962 57.3519 46.0442C57.3043 46.0442 57.2568 46.0923 57.2568 46.0923C56.8762 46.2846 56.4006 46.4289 55.8298 46.477C54.9735 46.5731 53.9746 46.4289 53.1184 46.3327C52.6903 46.2846 52.2622 46.2366 51.8816 46.1885C52.5951 45.5154 54.7833 43.3037 55.6395 42.342C56.02 41.9093 56.686 41.1881 56.7811 40.9958C57.1616 40.3227 57.2092 39.7457 56.8762 39.313C56.6384 38.9764 56.02 38.5918 54.6406 38.736C54.4027 38.736 54.2124 38.7841 53.9746 38.8322C51.7865 39.2168 50.3119 39.4572 49.6935 39.5053C49.4081 39.5534 49.313 39.5053 49.1227 39.4572C49.0276 39.4091 48.8849 39.4091 48.7897 39.4091H48.7422C48.4568 39.4572 48.2189 39.6015 48.0762 39.8419C47.8859 40.1303 47.8384 40.5631 47.9811 40.9477C48.2189 41.5728 48.98 41.8612 49.5508 41.8612C49.8362 41.8612 50.2643 41.8612 50.74 41.8132C51.6914 41.717 52.7379 41.5728 53.2611 41.4766C52.7379 41.9574 52.0719 42.5344 51.3584 43.1113C50.2168 44.0729 48.98 45.0345 48.1238 45.9962C47.1724 47.0539 46.6968 48.0636 46.9822 48.5925C47.1249 48.8329 47.4578 48.9771 47.7908 48.881C48.2665 48.7367 48.7422 48.6887 49.3605 48.6406C50.1216 48.5925 50.9303 48.5925 51.6914 48.5925C52.4524 48.5925 53.2135 48.5925 53.9746 48.5444C54.926 48.4483 55.687 48.304 56.353 48.0155C57.2092 47.6309 57.78 47.1982 57.8752 46.7654C58.0179 46.8135 58.1606 46.9097 58.3508 46.9097C58.6838 46.9578 59.0644 47.0058 59.4449 46.9578C61.0622 46.8135 62.5368 45.7077 63.4406 45.0826C63.6309 44.9384 63.7736 44.8422 63.9163 44.7461C64.2017 45.275 65.153 45.5634 66.2946 45.5154H66.3422C66.913 45.4673 68.1973 45.1307 68.6255 44.6499C68.7206 44.5057 68.7682 44.4095 68.7682 44.2653C68.8157 43.7845 68.5303 43.4479 67.246 43.3037ZM64.2017 40.8035C63.6784 41.9574 63.5833 42.1978 63.5357 42.6305C63.06 42.9671 61.3 43.8806 60.5865 43.9287C60.3963 43.9287 60.3487 43.9287 60.3487 43.8806C60.3487 43.8325 60.3487 43.7845 60.3487 43.7845C61.1098 41.6689 63.4882 40.9958 64.2017 40.8035Z" fill="white"/>
<path d="M79.6134 79.3637H79.8036C80.0415 79.3637 80.1366 79.4598 80.1842 79.6521C80.2317 79.8445 80.2793 80.0368 80.3269 80.0849H80.755C80.7074 80.0368 80.6599 79.8925 80.6123 79.6521C80.5647 79.4117 80.4696 79.2675 80.2793 79.2194C80.4696 79.1713 80.6599 78.979 80.6599 78.7867C80.6599 78.6425 80.5647 78.4982 80.4696 78.4021C80.3269 78.3059 80.1842 78.2578 79.8512 78.2578C79.5658 78.2578 79.328 78.3059 79.1377 78.3059V80.1329H79.5658V79.3637H79.6134ZM79.6134 78.5463C79.6609 78.5463 79.7561 78.4982 79.8512 78.4982C80.1366 78.4982 80.2318 78.5944 80.2318 78.7867C80.2318 78.979 80.0415 79.0752 79.8036 79.0752H79.6134V78.5463Z" fill="white"/>
<path d="M79.8986 80.9984C80.9451 80.9984 81.7537 80.181 81.7537 79.1713C81.7537 78.1616 80.9451 77.3442 79.8986 77.3442C78.8521 77.3442 78.0435 78.1616 78.0435 79.1713C78.0435 80.181 78.8521 80.9984 79.8986 80.9984ZM79.8986 77.6808C80.7073 77.6808 81.2781 78.3539 81.2781 79.1232C81.2781 79.9406 80.7073 80.6137 79.8986 80.6137C79.09 80.6137 78.4716 79.9887 78.4716 79.1232C78.4716 78.3539 79.09 77.6808 79.8986 77.6808Z" fill="white"/>
</svg>
