<svg width="152" height="70" viewBox="0 0 152 70" fill="none" xmlns="http://www.w3.org/2000/svg">
<g clip-path="url(#clip0_451_226)">
<path d="M0 31.3315V29.8089H4.25184V31.2396C4.25184 35.8074 7.20342 38.6951 11.8648 38.6951C16.2792 38.6951 19.0878 36.2734 19.1073 32.3947C19.1333 28.8442 16.7538 26.6522 12.8205 26.58L10.1225 26.5078C4.0438 26.37 0.364072 23.0491 0.364072 17.3722C0.364072 11.6953 4.79795 7.75098 11.4488 7.75098C18.5092 7.75098 22.852 11.6297 22.852 17.9038V19.3805H18.6002V17.9957C18.6002 14.0514 15.7916 11.5575 11.4033 11.5575C7.33345 11.5575 4.61591 13.8217 4.61591 17.2541C4.61591 20.4371 6.90436 22.3731 10.7401 22.4453L13.4382 22.5175C19.6079 22.6553 23.3786 26.2321 23.3786 32.1388C23.3786 38.531 18.8992 42.4491 11.8128 42.4491C4.72643 42.4491 0 38.2094 0 31.3315Z" fill="#A6A6A6"/>
<path d="M38.4615 8.2168H45.2294L54.9878 42.042H50.4824L49.2927 38.1634C49.2017 37.8155 48.7011 36.4767 47.0757 36.4767H36.6282C34.9574 36.4767 34.4828 37.8155 34.3657 38.1634L33.2475 42.042H28.9307L38.4615 8.2168ZM38.1625 32.808H45.5024C47.5373 32.808 47.3553 31.0557 47.2383 30.5438L42.3493 12.7977C42.2583 12.4499 42.0763 12.1742 41.7577 12.1742C41.4131 12.1742 41.2571 12.4499 41.1856 12.7977L36.4526 30.5438C36.3161 31.0754 36.1341 32.808 38.169 32.808H38.1625Z" fill="#A6A6A6"/>
<path d="M70.0189 8.21676H76.7868L86.5452 42.042H82.0398L80.8501 38.1633C80.759 37.8155 80.2584 36.4767 78.6331 36.4767H68.1856C66.5147 36.4767 66.0401 37.8155 65.9231 38.1633L64.8049 42.042H60.488L70.0189 8.21676ZM66.5277 0H80.3755V3.27489H66.5277V0ZM69.7264 32.808H77.0663C79.1012 32.808 78.9192 31.0557 78.8022 30.5438L73.9132 12.7977C73.8222 12.4498 73.6401 12.1742 73.3216 12.1742C72.977 12.1742 72.821 12.4498 72.7495 12.7977L68.0165 30.5438C67.88 31.0754 67.698 32.808 69.7329 32.808H69.7264Z" fill="#A6A6A6"/>
<path d="M94.3336 8.2168H98.5854L104.801 15.2522C105.256 15.7576 105.763 15.9873 106.237 15.9873C106.712 15.9873 107.219 15.7313 107.674 15.2522L113.844 8.2168H118.161V42.042H113.909V16.8208C113.909 15.9217 113.408 15.4163 112.791 15.4163C112.446 15.4163 112.037 15.6263 111.672 16.0595L106.276 22.3139H106.205L100.789 16.1514C100.425 15.7116 100.009 15.5279 99.6451 15.5279C99.0535 15.5279 98.5724 16.0135 98.5724 16.9127V42.042H94.3206V8.2168H94.3336Z" fill="#A6A6A6"/>
<path d="M135.474 8.2168H142.242L152 42.042H147.495L146.305 38.1634C146.214 37.8155 145.713 36.4767 144.088 36.4767H133.64C131.97 36.4767 131.495 37.8155 131.378 38.1634L130.26 42.042H125.943L135.474 8.2168ZM135.175 32.808H142.515C144.55 32.808 144.368 31.0557 144.25 30.5438L139.362 12.7977C139.271 12.4499 139.088 12.1742 138.77 12.1742C138.425 12.1742 138.269 12.4499 138.198 12.7977L133.465 30.5438C133.328 31.0754 133.146 32.808 135.181 32.808H135.175Z" fill="#A6A6A6"/>
<path d="M50.9896 69.8818V62.7413H48.7336V61.4878H54.6108V62.7413H52.3614V69.8818H50.9896Z" fill="#A6A6A6"/>
<path d="M61.8857 62.7411H58.0825V65.025H61.1706V66.2391H58.0825V68.628H61.8857V69.8815H56.7107V61.4941H61.8857V62.7477V62.7411Z" fill="#A6A6A6"/>
<path d="M64.0508 69.8815V61.4941H65.4226V68.6346H68.9788V69.8881H64.0508V69.8815Z" fill="#A6A6A6"/>
<path d="M70.3828 65.6815C70.3828 63.2597 72.2097 61.3696 74.5371 61.3696C75.7789 61.3696 76.585 61.7831 76.9751 62.1047V63.4632C76.65 63.135 75.9089 62.6363 74.7062 62.6363C73.0678 62.6363 71.7546 63.9226 71.7546 65.688C71.7546 67.4534 73.0743 68.7398 74.7062 68.7398C75.9089 68.7398 76.65 68.2344 76.9751 67.9129V69.2714C76.5915 69.593 75.7789 70.0064 74.5371 70.0064C72.2097 70.0064 70.3828 68.1163 70.3828 65.6946V65.6815Z" fill="#A6A6A6"/>
<path d="M84.5752 61.4878H85.947V69.8752H84.5752V66.2918H80.6159V69.8752H79.2441V61.4878H80.6159V65.0711H84.5752V61.4878Z" fill="#A6A6A6"/>
<path d="M94.0346 69.8815C93.7745 69.1268 93.5405 68.464 93.3455 67.8602H90.0558L89.3797 69.8815H87.9624L90.9465 61.4941H92.5003L95.5104 69.8815H94.0346ZM92.9554 66.7117C91.9477 63.7321 91.7396 63.0036 91.6681 62.4129C91.5966 63.0167 91.4081 63.7583 90.4264 66.7117H92.9554Z" fill="#A6A6A6"/>
<path d="M96.6741 65.6815C96.6741 63.2597 98.5009 61.3696 100.828 61.3696C102.07 61.3696 102.876 61.7831 103.266 62.1047V63.4632C102.941 63.135 102.2 62.6363 100.997 62.6363C99.3591 62.6363 98.0458 63.9226 98.0458 65.688C98.0458 67.4534 99.3656 68.7398 100.997 68.7398C102.2 68.7398 102.941 68.2344 103.266 67.9129V69.2714C102.883 69.593 102.07 70.0064 100.828 70.0064C98.5009 70.0064 96.6741 68.1163 96.6741 65.6946V65.6815Z" fill="#A6A6A6"/>
</g>
<defs>
<clipPath id="clip0_451_226">
<rect width="152" height="70" fill="white"/>
</clipPath>
</defs>
</svg>
