<svg width="170" height="35" viewBox="0 0 170 35" fill="none" xmlns="http://www.w3.org/2000/svg">
<path d="M25.466 25.8859C25.0492 26.1082 24.6602 26.3027 24.299 26.4694C22.5484 27.3308 20.6867 27.5809 18.7694 27.2752C16.7688 26.9418 15.7407 25.6636 15.6851 23.5518C15.6573 21.8568 16.1019 20.2452 16.4631 18.6335C17.13 15.7159 17.7969 12.7983 18.4637 9.88074C18.6305 9.15828 18.9083 8.93599 19.6586 8.93599C20.7145 8.93599 21.7982 8.93599 22.854 8.93599C23.7154 8.93599 23.8822 9.1305 23.6876 9.99189C23.0486 12.7983 22.3817 15.577 21.7426 18.3835C21.5203 19.4116 21.298 20.4119 21.1313 21.44C20.9645 22.3848 21.4369 22.9127 22.3817 22.9961C23.6876 23.135 24.8269 22.6348 25.9384 22.0791C26.0773 22.0235 26.1607 21.7734 26.2162 21.6067C27.1332 17.7166 28.0224 13.7987 28.9115 9.90853C29.106 9.10271 29.3283 8.9082 30.1342 8.9082C31.2456 8.9082 32.3293 8.9082 33.4408 8.9082C34.1077 8.9082 34.3022 9.15829 34.1632 9.79738C33.6631 11.9925 33.1629 14.1877 32.6627 16.3828C31.9403 19.5505 31.1901 22.7182 30.4676 25.9137C30.2175 26.9696 30.0786 27.1085 29.0227 27.1085C28.1057 27.1085 27.2166 27.1085 26.2996 27.1085C25.466 27.1085 25.3826 26.9696 25.5216 26.1637C25.4938 26.1082 25.466 26.0248 25.466 25.8859Z" fill="#A6A6A6"/>
<path d="M5.62632 8.13026C4.01469 8.13026 2.48642 8.13026 0.958154 8.13026C-0.0143805 8.13026 -0.125529 7.99133 0.0967646 7.01879C0.291271 6.18519 0.48578 5.3238 0.680287 4.4902C0.847007 3.73996 1.0693 3.57324 1.87511 3.57324C4.32034 3.57324 6.73778 3.57324 9.18301 3.57324C11.7672 3.57324 14.3236 3.57324 16.9077 3.57324C17.7969 3.57324 17.9358 3.73996 17.7413 4.62913C17.5468 5.51831 17.3245 6.43527 17.13 7.32445C16.9911 7.93575 16.7132 8.15805 16.0741 8.15805C14.6014 8.15805 13.1287 8.15805 11.656 8.15805C11.2948 8.15805 11.1281 8.26919 11.0447 8.63042C9.71096 14.5212 8.34941 20.412 6.98786 26.275C6.82115 26.9696 6.57106 27.1641 5.90418 27.1919C4.65378 27.1919 3.43117 27.1919 2.18077 27.1919C1.54167 27.1919 1.34717 26.9419 1.4861 26.3305C2.56978 21.579 3.68125 16.7997 4.76493 12.0482C5.0428 10.7144 5.32066 9.46402 5.62632 8.13026Z" fill="#A6A6A6"/>
<path d="M61.1998 27.5532C59.4771 27.3031 57.7821 27.053 56.0593 26.7752C55.3091 26.6362 55.2257 26.4417 55.4202 25.6915C55.5869 24.9413 55.7536 24.2188 55.9481 23.4686C56.0871 22.9128 56.3927 22.7183 56.9485 22.7739C58.5601 22.9128 60.1717 23.0795 61.7556 23.1907C62.1724 23.2185 62.617 23.1629 63.0338 23.1073C63.6451 23.024 64.0619 22.6627 64.2286 22.0514C64.3675 21.4679 64.0063 21.1345 63.5895 20.8844C62.3391 20.023 61.0609 19.1894 59.7827 18.328C58.838 17.6889 58.1711 16.8275 57.9766 15.6883C57.5598 13.0486 59.088 10.4088 61.5888 9.40849C63.1449 8.79718 64.7565 8.68604 66.3959 8.71382C67.9798 8.7694 69.5358 8.99169 71.0641 9.3807C71.5643 9.51964 71.731 9.79751 71.6198 10.2699C71.4253 11.1035 71.2586 11.9371 71.0363 12.7429C70.8974 13.2708 70.5084 13.4098 70.0082 13.3542C68.5355 13.2153 67.0906 13.1041 65.6179 12.993C65.1455 12.9652 64.6732 12.993 64.173 13.0208C63.6728 13.0485 63.3394 13.3264 63.2283 13.8266C63.1171 14.2712 63.395 14.5212 63.7006 14.7435C64.951 15.5771 66.2292 16.4107 67.4518 17.2443C68.8412 18.1891 69.7303 19.4395 69.5358 21.2178C69.3969 22.5794 68.8967 23.8298 67.952 24.8579C66.6182 26.3306 64.9232 27.0253 63.006 27.3031C62.3947 27.3865 61.7833 27.4143 61.1443 27.4421C61.2276 27.4976 61.2276 27.5254 61.1998 27.5532Z" fill="#A6A6A6"/>
<path d="M42.9714 9.90865C43.9717 9.54742 45.0276 9.15841 46.1113 8.82497C46.5003 8.71382 46.9449 8.68604 47.3617 8.68604C47.8063 8.68604 48.0564 8.9639 47.9452 9.40849C47.7229 10.381 47.5006 11.3258 47.2783 12.2983C47.1672 12.7985 46.8893 13.0208 46.3892 13.0208C45.0554 12.993 43.805 13.382 42.5824 13.8544C42.2212 13.9933 42.0267 14.2156 41.9433 14.6046C41.0541 18.4669 40.1649 22.3293 39.2758 26.1917C39.109 26.9141 38.8868 27.1086 38.1365 27.1086C37.025 27.1086 35.9136 27.1086 34.7743 27.1086C34.0797 27.1086 33.9129 26.8585 34.0519 26.1639C35.3023 20.6899 36.5805 15.1881 37.8309 9.71415C37.9698 9.15841 38.2199 8.93611 38.8034 8.93611C39.8593 8.93611 40.943 8.93611 41.9989 8.93611C42.9992 8.9639 43.0825 9.04726 42.9714 9.90865Z" fill="#A6A6A6"/>
<path d="M55.1701 12.0483C54.8922 13.2432 54.6421 14.3268 54.3921 15.3827C53.5585 18.9672 52.7526 22.5517 51.919 26.1362C51.7245 26.942 51.53 27.1365 50.6964 27.1365C49.6405 27.1365 48.5568 27.1365 47.5009 27.1365C46.6951 27.1365 46.5284 26.9142 46.6951 26.1362C47.4732 22.7184 48.279 19.3007 49.057 15.9107C49.2515 15.0493 49.446 14.1879 49.6683 13.3265C49.6961 13.1598 49.9184 12.9375 50.0573 12.9653C51.7801 12.9653 53.4751 12.7986 55.1701 12.0483Z" fill="#A6A6A6"/>
<path d="M142.059 28.2477C142.254 27.7753 142.393 27.4696 142.531 27.164C142.698 26.8583 142.893 26.5527 143.115 26.1359C142.893 26.247 142.782 26.2748 142.67 26.3304C141.003 27.2474 139.197 27.5808 137.335 27.2751C135.39 26.9695 134.251 25.8024 134.251 23.8018C134.223 21.7456 134.751 19.8283 136.307 18.3278C137.419 17.2441 138.836 16.744 140.336 16.5495C141.781 16.3828 143.226 16.355 144.699 16.2994C145.116 16.2994 145.31 16.1883 145.366 15.7715C145.421 15.4102 145.532 15.049 145.588 14.6878C145.727 13.6597 145.282 13.0484 144.226 13.0484C142.476 13.0484 140.725 13.1317 138.947 13.1873C138.864 13.1873 138.808 13.2151 138.725 13.2151C137.724 13.3262 137.613 13.1873 137.808 12.2148C137.947 11.5479 138.113 10.9088 138.252 10.2419C138.363 9.79731 138.614 9.46387 139.086 9.38051C141.615 8.85256 144.171 8.49134 146.755 8.88035C147.422 8.9915 148.089 9.186 148.672 9.46387C150.256 10.1863 151.006 11.659 150.84 13.6041C150.784 14.2432 150.701 14.8823 150.534 15.4936C149.951 17.6609 150.59 19.4949 152.062 21.0787C153.035 22.1068 154.23 22.8015 155.563 23.2461C155.647 23.2739 155.73 23.3016 155.814 23.3294C155.841 23.3294 155.841 23.385 155.897 23.4684C153.535 23.3572 151.256 23.0238 149.061 21.9679C148.922 22.6348 148.783 23.2183 148.617 23.8574C149.061 23.913 149.423 23.913 149.784 23.9685C151.312 24.302 152.813 24.7743 154.341 24.9966C158.287 25.5802 161.815 24.6076 164.65 21.69C166.345 19.9395 167.095 16.2716 165.483 13.882C164.455 12.3537 162.177 11.3256 160.537 11.7424C159.537 11.9925 158.814 12.6593 158.342 13.5485C157.842 14.4377 158.036 15.3546 158.759 16.1327C159.037 16.4383 159.37 16.744 159.565 17.1052C159.704 17.3553 159.787 17.8555 159.648 17.9944C159.454 18.1889 158.981 18.2723 158.703 18.1611C157.953 17.911 157.564 17.2997 157.397 16.5495C157.342 16.2716 157.231 15.966 157.064 15.7437C156.758 15.3269 156.314 15.3269 156.119 15.7715C155.897 16.3272 155.758 16.9941 155.841 17.5498C156.314 20.1617 158.842 21.1343 161.121 19.7449C162.01 19.1892 162.26 18.0222 161.76 16.9385C161.593 16.5773 161.371 16.2716 161.176 15.9382C161.037 15.7159 160.871 15.5492 160.732 15.3269C160.287 14.6322 160.259 14.271 160.593 13.9375C160.982 13.5207 161.843 13.4096 162.371 13.743C163.538 14.4655 164.094 15.6047 164.288 16.9107C164.65 18.9947 163.677 20.4674 162.01 21.5789C157.814 24.3298 153.396 21.1621 152.813 17.1886C152.34 13.9097 153.591 11.2978 156.314 9.38051C159.037 7.46323 161.899 7.43544 164.816 8.85257C167.289 10.0752 168.901 11.9925 169.457 14.7433C169.929 17.0774 169.512 19.3004 168.595 21.4399C166.845 25.469 163.483 27.4697 159.454 28.5811C157.647 29.0813 155.814 29.248 153.98 28.8034C153.09 28.5811 152.229 28.2477 151.34 28.0254C148.672 27.2751 145.977 26.9973 143.282 27.8587C142.92 27.9142 142.587 28.0532 142.059 28.2477ZM144.588 19.3837C143.198 19.4671 141.92 19.5782 140.698 20.1062C140.058 20.384 139.531 20.8286 139.169 21.4677C138.641 22.4403 139.03 23.3016 140.086 23.4406C141.281 23.6073 142.42 23.4128 143.504 22.9404C143.643 22.8848 143.81 22.7459 143.837 22.6348C144.088 21.5789 144.338 20.523 144.588 19.3837Z" fill="#A6A6A6"/>
<path d="M80.2612 10.2143C80.8448 9.93648 81.3449 9.6864 81.8729 9.4641C83.2344 8.8528 84.6793 8.60272 86.1798 8.76944C87.0412 8.8528 87.8192 9.15845 88.3472 9.8809C88.5972 10.2143 88.8195 10.1866 89.1252 10.0198C90.6535 9.24181 92.2373 8.71387 93.9601 8.71387C94.9326 8.71387 95.9052 8.76944 96.7943 9.29739C97.9336 9.96427 98.3782 11.0479 98.3226 12.2706C98.2948 13.521 98.1281 14.7714 97.878 15.994C97.1556 19.384 96.322 22.7739 95.5439 26.1639C95.3772 26.8586 95.0993 27.0809 94.4047 27.0809C93.2932 27.0809 92.2095 27.0809 91.0981 27.0809C90.4034 27.0809 90.2367 26.8864 90.4034 26.1917C91.1814 22.8017 91.9594 19.4117 92.7375 16.0218C92.8764 15.4382 92.9875 14.8269 93.0153 14.2434C93.0431 13.521 92.7097 13.1597 91.9872 13.0486C91.0147 12.9097 90.0699 13.1597 89.1808 13.4932C89.0696 13.5487 88.9585 13.7433 88.9307 13.91C88.0137 17.939 87.0968 21.9681 86.1798 25.9972C85.9575 26.9419 85.8186 27.0809 84.846 27.0809C83.8179 27.0809 82.7898 27.0809 81.7617 27.0809C81.0115 27.0809 80.8448 26.8586 81.0115 26.1361C81.8451 22.5516 82.6509 18.9394 83.4845 15.3549C83.5679 14.9659 83.6234 14.5769 83.6234 14.1878C83.6512 13.4376 83.3456 13.132 82.5953 13.0486C81.5672 12.9374 80.6503 13.4098 79.7611 13.7988C79.6499 13.8544 79.5666 14.0767 79.5388 14.2434C78.7052 17.8835 77.8438 21.5235 77.0102 25.1914C76.9268 25.5804 76.8157 25.9972 76.7045 26.3862C76.5656 26.8586 76.2877 27.1087 75.7876 27.1087C74.6205 27.1087 73.4535 27.1087 72.2587 27.1087C71.6474 27.1087 71.4806 26.8586 71.6196 26.2473C72.87 20.8289 74.1204 15.3827 75.3708 9.96427C75.5653 9.13067 75.7598 8.96395 76.5934 8.96395C77.5659 8.96395 78.5385 8.96395 79.511 8.96395C80.289 8.96395 80.428 9.13066 80.2612 9.90869C80.3168 9.99205 80.289 10.0476 80.2612 10.2143Z" fill="#A6A6A6"/>
<path d="M108.798 33.7217C109.354 31.9433 110.326 30.6096 111.966 29.8315C113.188 29.248 114.522 29.1369 115.856 29.2202C116.884 29.3036 117.912 29.3314 118.94 29.4425C120.246 29.5815 121.219 29.1091 121.83 27.9143C121.997 27.5808 122.164 27.2474 122.358 26.8584C122.052 26.8584 121.802 26.8584 121.58 26.8584C120.746 26.8584 120.246 26.4971 119.968 25.7191C119.829 25.3301 119.718 24.8855 119.69 24.4687C119.385 20.0228 119.107 15.577 118.829 11.1311C118.801 10.6587 118.746 10.1863 118.746 9.68618C118.718 9.21381 118.968 8.93594 119.44 8.93594C120.83 8.93594 122.247 8.93594 123.636 8.93594C124.053 8.93594 124.164 9.21381 124.164 9.57504C124.164 10.3253 124.192 11.0755 124.192 11.798C124.22 14.9657 124.247 18.1055 124.275 21.2732C124.275 21.3566 124.247 21.4677 124.275 21.5233C124.359 21.69 124.47 21.829 124.553 21.9679C124.664 21.8568 124.859 21.8012 124.914 21.6623C125.276 20.912 125.637 20.1618 125.97 19.4115C127.471 16.1605 128.999 12.9094 130.5 9.6584C130.722 9.15824 131.055 8.88037 131.639 8.90815C132.889 8.93594 134.112 8.90815 135.362 8.90815C136.057 8.90815 136.224 9.21381 135.918 9.82512C132.611 16.2161 129.332 22.6348 125.998 28.9979C125.248 30.4428 124.275 31.7488 122.775 32.4991C121.219 33.3049 119.524 33.4994 117.801 33.3327C116.356 33.1937 114.911 32.9714 113.466 32.8603C111.91 32.8603 110.382 33.1659 108.798 33.7217Z" fill="#A6A6A6"/>
<path d="M112.938 28.0253C110.604 27.7475 108.354 28.0809 106.047 28.6922C106.547 27.9698 107.048 27.2195 107.603 26.4137C107.381 26.4971 107.27 26.5526 107.131 26.6082C105.547 27.3585 103.908 27.553 102.213 27.2473C100.268 26.9139 99.184 25.6079 99.2396 23.635C99.2952 21.7178 99.7397 19.9394 101.129 18.5223C102.268 17.3275 103.713 16.7717 105.297 16.5772C106.686 16.3827 108.076 16.3549 109.493 16.3271C110.076 16.3271 110.382 16.1604 110.438 15.5769C110.465 15.1879 110.577 14.7989 110.604 14.4099C110.66 13.743 110.354 13.2984 109.687 13.1039C109.41 13.0205 109.132 12.9927 108.854 13.0205C107.103 13.0761 105.38 13.1317 103.63 13.215C102.796 13.2428 102.63 13.1039 102.824 12.2981C102.991 11.6034 103.158 10.9087 103.296 10.2141C103.38 9.79727 103.63 9.49162 104.047 9.40826C106.825 8.82474 109.604 8.40794 112.438 9.01925C114.217 9.40826 115.55 10.3808 115.8 12.2981C115.912 13.1595 115.856 14.0764 115.689 14.9378C114.939 18.4667 114.078 21.9956 113.3 25.5245C113.077 26.3304 113.05 27.164 112.938 28.0253ZM109.604 19.4393C108.576 19.4393 107.631 19.3559 106.714 19.467C105.686 19.5782 104.964 20.1895 104.658 21.2176C104.547 21.5788 104.463 21.9401 104.408 22.3013C104.297 22.9126 104.602 23.3572 105.214 23.4405C106.381 23.6073 107.52 23.385 108.576 22.9126C108.687 22.857 108.798 22.7459 108.826 22.6069C109.104 21.5788 109.354 20.5229 109.604 19.4393Z" fill="#A6A6A6"/>
<path d="M50.1682 11.3813C50.3349 10.6589 50.4461 10.0475 50.6128 9.49181C50.6406 9.38066 50.9462 9.29731 51.1407 9.29731C52.7801 9.21395 54.2528 8.79715 55.4477 7.63011C56.3368 6.76872 56.6981 5.65725 56.5036 4.43464C56.3369 3.21202 55.5032 2.37842 54.3084 2.12834C53.4748 1.93383 52.6412 2.32284 52.2522 3.10087C52.0021 3.57324 52.0855 3.99005 52.4189 4.37906C52.5856 4.57357 52.7801 4.76807 52.9191 5.01815C53.0024 5.15708 53.0024 5.43495 52.9191 5.49053C52.7801 5.57389 52.5023 5.62946 52.3911 5.5461C52.1411 5.3516 51.9743 5.04594 51.7798 4.79586C51.6131 4.57357 51.4464 4.35127 51.2797 4.12898C51.1685 4.40685 50.9462 4.65693 50.9462 4.93479C50.9184 6.32413 52.3356 7.18552 53.5582 6.51864C54.2251 6.15741 54.4196 5.43495 54.0028 4.74028C53.8638 4.51799 53.6415 4.32348 53.5582 4.0734C53.4748 3.82332 53.3915 3.43431 53.5304 3.26759C53.7805 2.96194 54.1417 3.01751 54.5029 3.2398C55.531 3.93447 55.8367 5.62946 55.0587 6.60199C54.2806 7.60232 53.2525 8.10248 51.9743 7.8524C50.585 7.57453 49.6958 6.65757 49.3902 5.32381C48.9734 3.57324 49.5291 2.10055 50.974 0.989079C52.4467 -0.150175 54.0306 -0.289106 55.67 0.488922C58.0596 1.62818 58.921 4.01783 58.0041 6.71314C57.0871 9.35288 55.0587 10.6033 52.4745 11.159C51.752 11.3257 51.0018 11.298 50.1682 11.3813Z" fill="#A6A6A6"/>
<path d="M57.3098 34.2774C56.893 33.2215 56.4484 32.1656 56.0038 31.0264C55.9205 32.1656 55.8093 33.1938 55.726 34.2497C55.6704 34.2497 55.6426 34.2497 55.587 34.2497C55.5592 34.1385 55.5037 34.0551 55.5037 33.944C55.587 32.9159 55.6426 31.8878 55.7537 30.8597C55.7537 30.7763 55.8649 30.693 55.9483 30.6096C56.0316 30.693 56.1705 30.7763 56.1983 30.8875C56.5873 31.86 56.9764 32.8325 57.4209 33.8884C57.7544 33.1382 58.0323 32.4713 58.3101 31.7766C58.4491 31.471 58.5602 31.1375 58.6991 30.8597C58.7547 30.7207 58.8936 30.6374 59.1159 30.4429C59.1993 31.8044 59.2827 32.9992 59.366 34.1941C59.2827 34.1941 59.1993 34.1941 59.1437 34.2219C59.0604 33.1938 58.977 32.1379 58.8936 30.943C58.3935 32.1379 57.9211 33.1938 57.4765 34.2497C57.4487 34.3052 57.3932 34.2774 57.3098 34.2774Z" fill="#A6A6A6"/>
<path d="M86.0687 32.4437C86.0687 31.9714 86.041 31.5268 86.0965 31.0544C86.1243 30.8877 86.291 30.6376 86.4022 30.6098C86.9579 30.582 87.5414 30.5542 88.0694 30.6654C88.9308 30.8321 89.3754 31.499 89.3754 32.3604C89.3754 33.194 88.8474 33.972 88.0694 34.1665C87.5414 34.2777 86.9857 34.3054 86.43 34.3054C86.291 34.3054 86.0687 34.0276 86.0687 33.8609C86.041 33.3885 86.0687 32.9161 86.0687 32.4437ZM86.3466 34.1665C86.9579 34.0832 87.5137 34.0831 88.0416 33.9442C88.7641 33.7497 89.1531 33.0273 89.1253 32.2492C89.0975 31.5546 88.6529 30.9988 87.9304 30.8599C87.5136 30.7765 87.0969 30.8043 86.6523 30.8043C86.5411 30.8043 86.3466 30.9988 86.3466 31.11C86.3188 32.1103 86.3466 33.055 86.3466 34.1665Z" fill="#A6A6A6"/>
<path d="M10.878 32.4157C11.1003 33.0547 11.2948 33.6383 11.5171 34.2218C11.4337 34.2496 11.3504 34.2774 11.267 34.3052C11.1837 34.0551 11.1003 33.7772 11.0447 33.5271C10.8502 32.7769 10.5724 32.5824 9.79432 32.6102C9.51646 32.6379 9.40531 32.7213 9.4331 32.9992C9.4331 33.2215 9.4331 33.416 9.4331 33.6383C9.4331 33.8328 9.4331 34.0551 9.4331 34.2496C9.37752 34.2496 9.32195 34.2774 9.26637 34.2774C9.23859 34.1662 9.15523 34.0273 9.15523 33.9161C9.15523 32.9714 9.15523 32.0266 9.12744 31.1097C9.12744 30.7762 9.26637 30.6095 9.59981 30.6095C9.84989 30.6095 10.1 30.5817 10.3501 30.6095C10.878 30.6373 11.2948 30.8874 11.4059 31.4153C11.4893 31.8877 11.2114 32.2211 10.878 32.4157ZM9.40531 31.5821C9.40531 32.3879 9.40531 32.3879 9.93326 32.3879C10.7113 32.3879 11.1281 32.11 11.1281 31.5543C11.1281 31.0541 10.7391 30.7762 10.0166 30.7762C9.40531 30.804 9.40531 30.804 9.40531 31.5821Z" fill="#A6A6A6"/>
<path d="M27.7171 34.3333C26.6612 34.3333 25.9109 33.5275 25.9387 32.4438C25.9665 31.3324 26.7723 30.4988 27.856 30.5266C28.8841 30.5543 29.6622 31.3602 29.6622 32.416C29.6344 33.5831 28.8563 34.3611 27.7171 34.3333ZM29.3565 32.4438C29.3565 31.4435 28.6896 30.7211 27.8004 30.7488C26.8279 30.7488 26.2166 31.4435 26.2166 32.4994C26.2166 33.4997 26.8835 34.1388 27.8282 34.1388C28.7452 34.1388 29.3565 33.4442 29.3565 32.4438Z" fill="#A6A6A6"/>
<path d="M47.39 32.4157C47.6123 33.0548 47.8068 33.6383 48.0291 34.2218C47.9457 34.2496 47.8623 34.2774 47.779 34.3052C47.6956 34.0273 47.6123 33.7495 47.5289 33.4716C47.3344 32.7769 47.1121 32.6102 46.3896 32.6102C46.0562 32.6102 45.8895 32.7213 45.9173 33.0826C45.9451 33.4438 45.9173 33.8328 45.8895 34.194C45.8895 34.2218 45.8339 34.2496 45.7505 34.333C45.695 34.194 45.6394 34.0829 45.6394 33.9718C45.6394 33.027 45.6394 32.0545 45.6394 31.1097C45.6394 30.8041 45.7506 30.6373 46.0562 30.6373C46.2785 30.6373 46.5286 30.6096 46.7509 30.6373C47.251 30.6651 47.6956 30.7763 47.8346 31.3042C48.0013 31.7766 47.8068 32.1934 47.39 32.4157ZM46.4174 30.7763C46.2229 30.7763 45.8061 30.7485 45.9451 31.2764C46.0562 31.6655 45.5005 32.3601 46.4174 32.3879C47.1677 32.4157 47.64 32.11 47.64 31.5821C47.6678 31.0819 47.2788 30.8041 46.4174 30.7763Z" fill="#A6A6A6"/>
<path d="M60.8665 34.2221C61.3666 32.9995 61.839 31.7769 62.3392 30.582C62.4225 30.582 62.4781 30.582 62.5614 30.582C63.0616 31.8046 63.5618 33.0273 64.0341 34.2499C63.9786 34.2777 63.8952 34.3055 63.8396 34.361C63.7285 34.1109 63.5618 33.8886 63.5062 33.6386C63.395 33.194 63.145 32.9717 62.6726 33.0551C62.6448 33.0551 62.5892 33.0551 62.5614 33.0551C61.6167 33.0551 61.6167 33.055 61.2555 33.9442C61.1999 34.0832 61.1165 34.2221 61.0332 34.361C60.9776 34.2777 60.922 34.2499 60.8665 34.2221ZM62.4503 30.8877C62.2002 31.5824 61.9779 32.1103 61.7556 32.6938C62.2558 32.6938 62.6726 32.6938 63.145 32.6938C62.9227 32.0825 62.7004 31.5546 62.4503 30.8877Z" fill="#A6A6A6"/>
<path d="M71.4532 34.2776C71.3421 33.9997 71.2032 33.7219 71.1198 33.4162C71.0364 33.0828 70.8419 32.9439 70.5085 32.9716C70.4807 32.9716 70.4807 32.9716 70.4529 32.9716C69.3415 32.9161 69.3415 32.9161 68.8969 33.9442C68.8413 34.0553 68.7579 34.1665 68.7024 34.2776C68.6468 34.2498 68.5912 34.222 68.5356 34.1942C69.0358 32.9716 69.5082 31.749 70.0083 30.5542C70.0917 30.5542 70.1473 30.5542 70.2306 30.5542C70.7308 31.7768 71.2032 32.9716 71.7033 34.1942C71.62 34.222 71.5366 34.2498 71.4532 34.2776ZM70.8142 32.7216C70.5641 32.1103 70.3418 31.5823 70.0917 30.9154C69.8416 31.5823 69.6193 32.1103 69.397 32.7216C69.8972 32.7216 70.314 32.7216 70.8142 32.7216Z" fill="#A6A6A6"/>
<path d="M79.0391 34.2499C79.5392 33.0273 80.0394 31.8046 80.5118 30.582C80.5951 30.582 80.6507 30.582 80.7341 30.582C81.2342 31.8046 81.7066 32.9995 82.2068 34.2221C82.1512 34.2499 82.0956 34.2777 82.0122 34.3055C81.8733 33.9998 81.7066 33.7219 81.5954 33.4163C81.4843 33.0828 81.2898 32.9717 80.9564 32.9995C80.9008 32.9995 80.8452 32.9995 80.7896 32.9995C79.7893 32.9995 79.7893 32.9995 79.4003 33.9164C79.3447 34.0554 79.2336 34.1943 79.178 34.3332C79.1224 34.2777 79.0668 34.2777 79.0391 34.2499ZM80.6229 30.9155C80.3728 31.5824 80.1783 32.1381 79.9282 32.7216C80.4562 32.7216 80.873 32.7216 81.3454 32.7216C81.0953 32.1381 80.873 31.5824 80.6229 30.9155Z" fill="#A6A6A6"/>
<path d="M92.9601 30.8042C92.5711 30.8042 92.2099 30.832 91.8208 30.8042C91.4318 30.7764 91.2651 30.9154 91.2929 31.3044C91.3207 31.5823 91.2929 31.8601 91.2929 32.2214C91.8486 32.2214 92.3766 32.2214 92.8767 32.2214C92.8767 32.2769 92.8767 32.3325 92.8767 32.3881C92.3766 32.3881 91.8764 32.3881 91.3207 32.3881C91.3207 32.9716 91.3207 33.4718 91.3207 34.0553C91.9042 34.0553 92.4877 34.0553 93.0712 34.0553C93.0712 34.1108 93.0712 34.1942 93.0712 34.2498C92.4322 34.2498 91.8209 34.2498 91.1818 34.222C91.1262 34.222 91.015 33.9997 91.015 33.8886C91.015 32.8882 90.9872 31.9157 91.015 30.9154C91.015 30.7764 91.1818 30.5542 91.2929 30.5542C91.8486 30.5264 92.4044 30.5264 92.9601 30.5264C92.9601 30.6653 92.9601 30.7487 92.9601 30.8042Z" fill="#A6A6A6"/>
<path d="M5.62663 34.1387C6.29351 34.1387 6.84925 34.1387 7.43277 34.1387C7.43277 34.1943 7.43277 34.2498 7.43277 34.2776C6.82146 34.2776 6.18237 34.2776 5.57106 34.2498C5.4877 34.2498 5.37655 34.0275 5.37655 33.8886C5.34877 32.9161 5.34877 31.9435 5.37655 30.971C5.37655 30.8321 5.54327 30.582 5.65442 30.582C6.21015 30.5542 6.76589 30.5542 7.32162 30.5542C7.32162 30.6376 7.32162 30.6931 7.32162 30.7765C6.98818 30.7765 6.62696 30.8043 6.29351 30.7765C5.76557 30.7209 5.54327 30.8876 5.62663 31.4434C5.65442 31.6657 5.62663 31.888 5.62663 32.2214C6.21015 32.2214 6.71032 32.2214 7.21048 32.2214C7.21048 32.277 7.21048 32.3603 7.21048 32.4159C6.84925 32.4159 6.46024 32.4159 6.09901 32.4159C5.73778 32.3881 5.57106 32.5548 5.59885 32.9161C5.65442 33.3051 5.62663 33.6663 5.62663 34.1387Z" fill="#A6A6A6"/>
<path d="M43.6942 30.6654C43.6942 31.5268 43.7776 32.3882 43.6664 33.2496C43.583 34.0554 42.9995 34.3889 42.1659 34.3333C41.4713 34.3055 41.0267 33.8887 40.9711 33.0829C40.9155 32.3326 40.9155 31.5546 40.9155 30.8044C40.9155 30.7488 40.9989 30.6654 41.1378 30.6099C41.1378 30.7766 41.1656 30.9711 41.1656 31.1378C41.1656 31.6935 41.1378 32.2771 41.1934 32.8328C41.249 33.6942 41.6102 34.111 42.3049 34.111C43.0273 34.111 43.4441 33.6664 43.4997 32.8328C43.5275 32.2493 43.4997 31.6658 43.4997 31.0822C43.4997 30.9433 43.5275 30.8044 43.5553 30.6377C43.583 30.6654 43.6386 30.6654 43.6942 30.6654Z" fill="#A6A6A6"/>
<path d="M53.6143 30.804C53.2531 30.804 52.8641 30.7484 52.5307 30.8318C52.3362 30.8874 52.0583 31.1652 52.0583 31.3597C52.0305 31.582 52.1972 31.8877 52.3917 32.0544C52.6418 32.2489 52.9753 32.3045 53.2531 32.4434C53.7255 32.6657 53.92 33.0547 53.8366 33.5827C53.7255 34.0551 53.3921 34.3051 52.9197 34.3329C52.5029 34.3607 52.0583 34.4163 51.7249 33.9717C51.836 33.9995 51.9194 34.0273 52.0305 34.0273C52.3362 34.0551 52.6418 34.1662 52.9197 34.0828C53.1698 33.9995 53.531 33.7216 53.5588 33.4993C53.5866 33.2492 53.3643 32.888 53.1698 32.6657C52.9753 32.4712 52.6696 32.4434 52.3917 32.3323C51.9471 32.1378 51.6693 31.8321 51.7526 31.332C51.836 30.8596 52.1694 30.5817 52.6418 30.5539C52.9753 30.5261 53.3365 30.6095 53.6699 30.6373C53.6421 30.6929 53.6143 30.7484 53.6143 30.804Z" fill="#A6A6A6"/>
<path d="M77.3163 30.8597C77.1218 30.8319 76.9272 30.7485 76.7327 30.7485C76.3159 30.7207 75.8991 30.7763 75.7602 31.2765C75.6213 31.7489 75.9269 31.9989 76.3159 32.1657C76.566 32.2768 76.8995 32.3046 77.094 32.4991C77.3163 32.7492 77.5386 33.0826 77.5663 33.4161C77.6219 33.8051 77.344 34.0829 76.955 34.2497C76.3993 34.472 75.7046 34.3608 75.4268 33.9718C75.7602 34.0274 76.0936 34.1107 76.3993 34.1385C76.8439 34.1663 77.2051 33.9996 77.2885 33.4994C77.3718 32.9993 77.094 32.7492 76.6772 32.5825C76.4271 32.4991 76.177 32.3879 75.9547 32.2768C75.5935 32.0823 75.3712 31.7489 75.5101 31.3598C75.6213 31.082 75.8991 30.7485 76.177 30.6374C76.5382 30.5262 76.955 30.6096 77.3718 30.6096C77.3163 30.693 77.3163 30.7763 77.3163 30.8597Z" fill="#A6A6A6"/>
<path d="M13.1012 30.6099C13.518 31.6935 13.9071 32.805 14.3516 33.9721C14.824 32.805 15.2964 31.6935 15.741 30.6099C15.8243 30.6376 15.8799 30.6654 15.9633 30.6932C15.4631 31.9158 14.963 33.1385 14.4628 34.3333C14.3794 34.3333 14.3239 34.3333 14.2405 34.3333C13.7959 33.1107 13.3513 31.9158 12.9067 30.6932C12.9623 30.6654 13.0179 30.6376 13.1012 30.6099Z" fill="#A6A6A6"/>
<path d="M101.435 30.582C101.824 31.6657 102.241 32.7772 102.658 33.972C103.158 32.7772 103.603 31.6935 104.047 30.582C104.103 30.6098 104.158 30.6376 104.214 30.6376C104.186 30.7488 104.186 30.8599 104.131 30.9711C103.714 31.9714 103.325 32.9717 102.88 33.972C102.825 34.0832 102.713 34.1665 102.63 34.2777C102.547 34.1943 102.436 34.1387 102.38 34.0276C101.991 32.9439 101.602 31.8602 101.213 30.7765C101.185 30.7488 101.213 30.6654 101.241 30.6376C101.324 30.6098 101.38 30.6098 101.435 30.582Z" fill="#A6A6A6"/>
<path d="M99.8511 33.9997C99.1286 34.5555 97.8226 34.3888 97.2669 33.7219C96.7112 33.0828 96.7112 31.8602 97.2669 31.2211C97.8504 30.5542 99.2675 30.3041 99.8511 30.8876C99.6566 30.8598 99.462 30.8043 99.2398 30.8043C98.5451 30.7487 97.8782 30.8321 97.4336 31.4434C97.0446 31.9991 96.9612 32.6104 97.2669 33.2495C97.5726 33.9442 98.295 34.2498 99.2398 34.1387C99.462 34.0831 99.6566 34.0553 99.8511 33.9997Z" fill="#A6A6A6"/>
<path d="M3.34799 30.8322C2.95898 30.8322 2.56996 30.7766 2.23652 30.86C2.04202 30.9156 1.81972 31.2212 1.79194 31.4435C1.76415 31.638 1.95866 31.9159 2.12538 32.027C2.37546 32.2215 2.68111 32.3049 2.98676 32.416C3.45914 32.6383 3.70922 32.9996 3.62586 33.5275C3.5425 33.9999 3.15348 34.3333 2.59775 34.3333C2.20874 34.3333 1.84751 34.25 1.4585 34.1944C1.48628 34.111 1.48628 34.0277 1.51407 33.9443C1.70858 33.9999 1.8753 34.0555 2.0698 34.0832C2.76447 34.2222 3.3202 33.9443 3.37578 33.4442C3.43135 32.9996 3.20906 32.7495 2.82004 32.5828C2.56996 32.4716 2.2921 32.3883 2.04202 32.2493C1.68079 32.0826 1.4585 31.777 1.56964 31.3879C1.653 31.1101 1.8753 30.7766 2.12538 30.6377C2.51439 30.4154 2.98677 30.4432 3.34799 30.8322Z" fill="#A6A6A6"/>
<path d="M22.3263 34.0553C21.4371 34.611 20.1867 34.361 19.6032 33.6385C19.0475 32.9438 19.1586 31.749 19.7977 31.1099C20.3812 30.5264 21.8262 30.2763 22.2985 30.8876C21.4094 30.6931 20.548 30.582 19.9644 31.3322C19.6866 31.6657 19.5476 32.1936 19.5476 32.6382C19.5199 33.7497 20.2701 34.1109 22.3263 34.0553Z" fill="#A6A6A6"/>
<path d="M33.0519 30.8596C32.8574 30.8318 32.6629 30.7485 32.4684 30.7485C32.0238 30.7207 31.6348 30.8041 31.4958 31.2764C31.3569 31.7488 31.6903 31.9989 32.0794 32.1656C32.3572 32.2768 32.6907 32.3323 32.8852 32.5268C33.1075 32.7491 33.3298 33.1381 33.302 33.416C33.2742 33.6939 32.9963 34.0273 32.7185 34.194C32.2461 34.4997 31.4958 34.333 31.1902 33.944C31.5236 33.9995 31.8571 34.0829 32.1627 34.1107C32.6073 34.1107 32.9963 33.9718 33.0797 33.4716C33.163 32.9714 32.8852 32.7213 32.4406 32.5546C32.1905 32.4435 31.9126 32.3601 31.6626 32.2212C31.3291 32.0267 31.1068 31.6932 31.2458 31.332C31.3847 31.0541 31.6348 30.7207 31.9126 30.6096C32.2739 30.4984 32.6907 30.5818 33.0797 30.5818C33.0797 30.6929 33.0797 30.7763 33.0519 30.8596Z" fill="#A6A6A6"/>
<path d="M37.9703 34.2778C37.9425 34.111 37.9147 33.9165 37.9147 33.7498C37.9147 32.944 37.8869 32.166 37.9147 31.3602C37.9147 30.9434 37.8036 30.7766 37.3868 30.8044C37.1367 30.8322 36.9144 30.8044 36.6643 30.8044C36.6643 30.7488 36.6643 30.6933 36.6643 30.6377C37.6091 30.6377 38.5816 30.6377 39.5263 30.6377C39.5263 30.6933 39.5263 30.7488 39.5263 30.8044C39.2207 30.8044 38.915 30.8322 38.6094 30.8044C38.2759 30.7766 38.1648 30.9156 38.1926 31.249C38.2204 32.0826 38.1926 32.9162 38.1926 33.7498C38.1926 33.9165 38.1926 34.0832 38.1926 34.25C38.1092 34.25 38.0536 34.25 37.9703 34.2778Z" fill="#A6A6A6"/>
<path d="M65.0901 30.5542C65.4791 31.1655 65.8403 31.8046 66.2571 32.4993C66.7017 31.8324 67.0907 31.1933 67.5075 30.582C67.5631 30.6098 67.6186 30.6653 67.702 30.6931C67.3408 31.2489 66.8962 31.749 66.6739 32.3603C66.4238 32.9439 66.396 33.6107 66.2571 34.3888C66.146 33.6385 66.1182 32.9716 65.8959 32.3881C65.6736 31.8046 65.2568 31.2766 64.9233 30.7209C64.9789 30.6376 65.0345 30.6098 65.0901 30.5542Z" fill="#A6A6A6"/>
<path d="M17.4359 35C17.4819 35 17.5193 33.8554 17.5193 32.4436C17.5193 31.0317 17.4819 29.8872 17.4359 29.8872C17.3899 29.8872 17.3525 31.0317 17.3525 32.4436C17.3525 33.8554 17.3899 35 17.4359 35Z" fill="#A6A6A6"/>
<path d="M24.0769 34.2495C24.0769 33.0547 24.0769 31.8599 24.0769 30.665C24.1325 30.665 24.1881 30.665 24.2436 30.665C24.2714 31.8599 24.2436 33.0547 24.2714 34.2495C24.1881 34.2495 24.1325 34.2495 24.0769 34.2495Z" fill="#A6A6A6"/>
<path d="M49.7241 34.2221C49.7241 33.0273 49.7241 31.8325 49.7241 30.6099C49.9464 30.9433 50.002 33.6942 49.7241 34.2221Z" fill="#A6A6A6"/>
</svg>
