<svg width="74" height="81" viewBox="0 0 74 81" fill="none" xmlns="http://www.w3.org/2000/svg">
<path d="M73.9053 69.3032V39.3119C73.9053 39.2302 73.9465 39.1893 73.9465 39.1076C73.9465 38.985 73.9465 38.8624 73.9053 38.7807V21.2926C73.9053 21.17 73.9465 21.0474 73.9465 20.9248C73.9465 13.4066 62.2946 0.0861816 36.9732 0.0861816C11.4049 0.0861816 0 13.4066 0 20.9248V28.198V38.5764V70.2839H0.0823458C0.411729 72.2452 2.26451 74.6968 5.59951 76.5355C11.7754 80.0086 22.3569 80.9892 36.9732 80.9892C51.5896 80.9892 62.171 80.0086 68.347 76.5355C71.682 74.6968 73.4936 72.2043 73.8641 70.2839H73.9053V70.0387C73.9053 69.9161 73.9465 69.7527 73.9465 69.6301C73.9053 69.5484 73.9053 69.4258 73.9053 69.3032Z" fill="black"/>
<path d="M68.5941 44.1743C67.2765 43.1936 65.259 42.499 62.4593 42.499C57.395 42.499 52.4955 45.6453 52.4955 53.0001C52.4955 60.028 57.395 63.3377 62.2534 63.3377C67.3589 63.3377 70.5703 60.2323 70.5703 55.656C70.5703 52.7549 68.7587 50.7936 65.0944 50.7936H64.0239C62.1299 50.7936 60.6477 51.6926 60.6477 53.613C60.6477 55.37 62.2534 56.228 63.4474 56.228C64.0239 56.228 64.4356 56.3915 64.4356 56.8409C64.4356 57.413 63.7356 57.7807 62.9945 57.7807C60.5653 57.7807 58.8772 56.1054 58.8772 53.0409C58.8772 49.6087 61.1418 48.3829 62.9122 48.3829C65.0532 48.3829 65.4237 49.4452 66.906 49.4452C68.6352 49.4452 69.8292 48.056 69.8292 46.6259C69.8292 45.5227 69.3352 44.7055 68.5941 44.1743Z" fill="white"/>
<path d="M39.7318 54.9615V59.6195C39.7318 61.7034 38.5378 63.3786 36.2733 63.3786C34.0088 63.3786 32.8147 61.7034 32.8147 59.6195V46.34C32.8147 44.2152 34.0911 42.4991 36.3556 42.4991C37.7143 42.4991 38.9083 43.0303 40.0612 45.2367L43.0668 51.0389C43.2315 51.3249 43.355 51.4475 43.5197 51.4475C43.7667 51.4475 43.8903 51.284 43.8903 50.8754V46.2174C43.8903 44.1335 45.0843 42.4583 47.3488 42.4583C49.5721 42.4583 50.8073 44.1335 50.8073 46.2174V59.4969C50.8073 61.6216 49.5309 63.3378 47.2664 63.3378C45.9489 63.3378 44.7137 62.8066 43.5609 60.6001L40.5552 54.798C40.3906 54.512 40.267 54.3894 40.1023 54.3894C39.8553 54.3894 39.7318 54.5528 39.7318 54.9615Z" fill="white"/>
<path d="M10.2109 59.5378V56.4733C10.2109 56.2281 10.3344 56.0238 10.5814 56.0238C10.9108 56.0238 11.0343 56.3507 11.1167 56.555C11.6107 57.7399 13.0518 60.2733 14.4105 61.7442C15.3163 62.7249 16.428 63.3378 17.622 63.3378C19.6394 63.3378 21.3275 61.5808 21.3275 59.7421C21.3275 58.598 20.8335 57.7399 19.8865 56.6776C18.6925 55.3701 17.2514 53.6539 16.7162 52.8367C16.5103 52.5507 16.5103 52.3464 16.5103 52.2647C16.5103 52.0195 16.6338 51.8561 16.8809 51.6109C17.4985 51.0389 18.9807 49.6496 19.8041 48.383C20.4217 47.4023 20.7099 46.5443 20.7099 45.8088C20.7099 43.9292 18.9807 42.4583 17.1279 42.4583C15.9339 42.4583 14.8222 43.112 14.0399 44.3378C13.0106 45.9722 11.8166 47.8518 11.0343 48.6281C10.8284 48.8324 10.7461 48.8733 10.5814 48.8733C10.3344 48.8733 10.2109 48.7099 10.2109 48.4238V46.2582C10.2109 44.1335 8.9345 42.4583 6.66999 42.4583C4.36431 42.4583 3.12912 44.1744 3.12912 46.2582V59.4969C3.12912 61.6216 4.36431 63.2969 6.66999 63.2969C8.9345 63.3378 10.2109 61.6217 10.2109 59.5378Z" fill="white"/>
<path d="M68.7588 65.5034C70.0351 65.5034 70.5704 66.1163 70.5704 67.1787C70.5704 69.0174 68.8411 71.5916 65.4649 73.512C59.8242 76.6582 50.1898 77.5571 36.8086 77.5571C23.4274 77.5571 13.793 76.6582 8.15228 73.512C4.77611 71.6324 3.04684 69.0582 3.04684 67.1787C3.04684 66.1163 3.62326 65.5034 4.85845 65.5034H68.7588Z" fill="white"/>
<path d="M68.7587 24.4798H4.89959C3.62323 24.4798 3.08798 23.826 3.08798 22.6819C3.08798 15.8174 13.5047 3.64111 36.8497 3.64111C59.9477 3.64111 70.6115 15.7766 70.6115 22.6819C70.6115 23.826 70.0351 24.4798 68.7587 24.4798Z" fill="white"/>
<path d="M64.6414 33.0196C64.2709 33.0196 64.1062 32.8153 64.1062 32.5293V31.0584C64.1062 30.7723 64.2709 30.568 64.6414 30.568H64.9296C65.8355 30.568 66.1237 31.2218 66.1237 31.753C66.1237 32.2842 65.8355 33.0196 64.9296 33.0196H64.6414ZM47.9253 28.0347C47.0194 27.3809 45.7431 26.8906 43.8491 26.8906C40.473 26.8906 37.2203 29.0971 37.2203 34.1637C37.2203 39.0261 40.473 41.2734 43.7256 41.2734C47.143 41.2734 49.284 39.1078 49.284 36.0024C49.284 34.0003 48.0899 32.611 45.6607 32.611H44.9608C43.6844 32.611 42.6963 33.2239 42.6963 34.5723C42.6963 35.7573 43.7668 36.3702 44.5491 36.3702C44.9608 36.3702 45.2078 36.4928 45.2078 36.8196C45.2078 37.1874 44.7549 37.4734 44.2197 37.4734C42.6139 37.4734 41.5023 36.3293 41.5023 34.2046C41.5023 31.8347 43.0257 30.9766 44.1785 30.9766C45.6196 30.9766 45.8666 31.7121 46.8548 31.7121C48.0076 31.7121 48.7899 30.7723 48.7899 29.7917C48.7487 28.9745 48.4193 28.4025 47.9253 28.0347ZM56.448 35.7573H54.9658C54.5953 35.7573 54.4306 35.9616 54.4306 36.2476V36.6562C54.4306 36.9422 54.5953 37.1465 54.9658 37.1465H56.9009C58.095 37.1465 59.0831 37.8411 59.0831 39.1078C59.0831 40.4153 58.1361 41.1099 56.9009 41.1099H52.8248C51.0956 41.1099 50.2721 40.1293 50.2721 38.7809V29.3014C50.2721 27.953 51.0956 26.9723 52.8248 26.9723H56.9009C58.095 26.9723 59.0831 27.667 59.0831 28.9336C59.0831 30.2412 58.1361 30.9358 56.9009 30.9358H54.9658C54.5953 30.9358 54.4306 31.1401 54.4306 31.4261V31.753C54.4306 32.039 54.5953 32.2433 54.9658 32.2433H56.448C57.4774 32.2433 58.3008 32.8562 58.3008 33.9594C58.3008 35.0626 57.4774 35.7573 56.448 35.7573ZM60.0301 38.9035C60.0301 40.211 60.7712 41.2325 62.1711 41.2325C63.5709 41.2325 64.3121 40.211 64.3121 38.9035V36.6153C64.3121 36.3293 64.4356 36.2067 64.6414 36.2067C64.8885 36.2067 64.9708 36.3702 65.012 36.6153C65.2179 37.7186 65.7119 39.1895 66.3295 39.9659C67.0706 40.9465 67.7706 41.2325 68.4705 41.2325C69.5822 41.2325 70.5703 40.3336 70.5703 39.2712C70.5703 38.5358 70.2821 38.0046 69.8704 37.5143C69.1293 36.5745 68.6764 36.0024 68.3882 35.2261C68.3058 35.0626 68.347 34.8992 68.5529 34.7358C69.2116 34.2046 69.9939 33.0605 69.9939 31.2627C69.9939 28.525 67.7294 26.9723 64.9708 26.9723H62.5828C60.8535 26.9723 60.0301 27.953 60.0301 29.3014V38.9035ZM26.433 38.9035C26.433 40.211 27.1741 41.2325 28.574 41.2325C29.9739 41.2325 30.715 40.211 30.715 38.9035V36.6153C30.715 36.3293 30.8385 36.2067 31.0444 36.2067C31.2914 36.2067 31.3738 36.3702 31.4149 36.6153C31.6208 37.7186 32.1149 39.1895 32.7325 39.9659C33.4736 40.9465 34.1735 41.2325 34.8734 41.2325C35.9851 41.2325 36.9733 40.3336 36.9733 39.2712C36.9733 38.5358 36.6851 38.0046 36.2733 37.5143C35.6557 36.6971 35.0793 36.0024 34.7911 35.2261C34.7088 35.0626 34.7499 34.8992 34.9558 34.7358C35.6146 34.2046 36.3968 33.0605 36.3968 31.2627C36.3968 28.525 34.1323 26.9723 31.3738 26.9723H28.9446C27.2153 26.9723 26.3918 27.953 26.3918 29.3014V38.9035H26.433ZM31.0444 33.0196C30.6738 33.0196 30.5091 32.8153 30.5091 32.5293V31.0584C30.5091 30.7723 30.6738 30.568 31.0444 30.568H31.3326C32.2384 30.568 32.5266 31.2218 32.5266 31.753C32.5266 32.2842 32.2384 33.0196 31.3326 33.0196H31.0444ZM7.45231 35.2261H7.82286C8.85219 35.2261 9.18157 35.9207 9.18157 36.5336C9.18157 37.1057 8.89336 37.882 7.82286 37.882H7.45231C7.08175 37.882 6.91706 37.6777 6.91706 37.3917V35.7164C6.91706 35.4304 7.08175 35.2261 7.45231 35.2261ZM7.45231 32.6519C7.08175 32.6519 6.91706 32.4476 6.91706 32.1616V30.6906C6.91706 30.4046 7.08175 30.2003 7.45231 30.2003H7.74052C8.68749 30.2003 8.93453 30.8541 8.93453 31.3852C8.93453 31.9164 8.64632 32.6519 7.74052 32.6519H7.45231ZM5.6407 41.1099H8.68749C11.5696 41.1099 13.34 39.1895 13.34 36.8196C13.34 34.8992 12.1872 34.0411 11.9402 33.796C11.8166 33.7143 11.7343 33.6325 11.7343 33.5508C11.7343 33.4282 11.8166 33.3874 11.899 33.2648C12.3107 32.7745 12.7224 32.039 12.7224 30.9358C12.7224 28.3616 10.952 26.9723 8.23459 26.9723H5.6407C3.91144 26.9723 3.08798 27.953 3.08798 29.3014V38.7809C3.08798 40.1293 3.91144 41.1099 5.6407 41.1099ZM19.6807 41.2325C16.181 41.2325 14.3282 39.1487 14.3282 36.5336V29.2605C14.3282 27.953 15.0693 26.9315 16.4692 26.9315C17.869 26.9315 18.6513 27.953 18.6513 29.2605V36.2885C18.6513 36.8196 18.8984 37.3917 19.6807 37.3917C20.4629 37.3917 20.7512 36.7788 20.7512 36.2885V29.2605C20.7512 27.953 21.4923 26.9315 22.8921 26.9315C24.292 26.9315 25.0331 27.953 25.0331 29.2605V36.4928C25.0743 39.1487 23.1803 41.2325 19.6807 41.2325Z" fill="white"/>
<path d="M30.3032 46.5442C30.3032 44.2969 28.9857 42.499 26.5565 42.499C24.1273 42.499 22.8097 44.2969 22.8097 46.5442V59.2925C22.8097 61.5398 24.1273 63.3377 26.5565 63.3377C28.9857 63.3377 30.3032 61.5398 30.3032 59.2925V46.5442Z" fill="white"/>
<path d="M70.0762 63.4195C70.0762 64.0324 69.6233 64.4819 69.0057 64.4819C68.3881 64.4819 67.9352 64.0324 67.9352 63.4195C67.9352 62.8066 68.3881 62.3572 69.0057 62.3572C69.6233 62.3572 70.0762 62.8066 70.0762 63.4195ZM69.8292 63.4195C69.8292 62.9701 69.4998 62.6023 69.0469 62.6023C68.594 62.6023 68.2646 62.9701 68.2646 63.4195C68.2646 63.869 68.594 64.2367 69.0469 64.2367C69.4586 64.2367 69.8292 63.869 69.8292 63.4195ZM69.4175 63.869C69.4586 63.9099 69.4175 63.9507 69.3763 63.9507H69.2939C69.2528 63.9507 69.2116 63.9507 69.1704 63.9099C69.1293 63.7873 69.0469 63.6647 69.0057 63.5421H68.8822V63.9099C68.8822 63.9507 68.841 63.9916 68.7999 63.9916H68.7175C68.6763 63.9916 68.6352 63.9507 68.6352 63.9099V62.9701C68.6352 62.9292 68.6763 62.8884 68.7175 62.8884H69.0469C69.2528 62.8884 69.4175 63.0109 69.4175 63.2152C69.4175 63.3787 69.3351 63.4604 69.2528 63.5013C69.2528 63.6238 69.3351 63.7464 69.4175 63.869ZM68.8822 63.3378H69.0469C69.1293 63.3378 69.2116 63.297 69.2116 63.2152C69.2116 63.1335 69.1704 63.0927 69.0469 63.0927H68.8822V63.3378Z" fill="#E42313"/>
</svg>
