<svg width="157" height="60" viewBox="0 0 157 60" fill="none" xmlns="http://www.w3.org/2000/svg">
<path d="M118.387 23.7822C118.387 23.7822 114.346 30.835 118.493 34.379C118.493 34.379 115.365 34.0983 115.33 29.8525C115.295 25.5717 117.614 23.8173 118.387 23.7822Z" fill="black"/>
<path d="M120.495 25.8525C120.495 25.8525 118.036 30.1333 120.566 32.3439C120.566 32.3439 118.668 32.1685 118.633 29.5719C118.598 26.9403 120.003 25.8876 120.495 25.8525Z" fill="black"/>
<path d="M112.133 29.5371C112.133 29.7126 112.133 29.888 112.133 30.0634C112.203 35.5723 116.244 35.9583 116.244 35.9583C110.868 31.3266 116.103 22.2036 116.103 22.2036C115.19 22.2738 112.765 24.0282 112.238 28.2388L112.133 29.5371Z" fill="black"/>
<path d="M112.695 28.2036H1.37496C0.637045 28.2036 0.00454712 28.4843 0.00454712 28.8703C0.00454712 29.2212 0.601907 29.537 1.37496 29.537H112.624" fill="black"/>
<path d="M155.916 16.765C155.916 16.765 157.146 10.2736 155.353 9.50164C155.002 9.36128 140.068 14.0281 139.892 14.4842C139.682 14.9404 138.698 17.0106 139.084 17.0808L155.916 16.765Z" fill="black"/>
<path d="M124.642 40.9406C124.15 40.8353 127.77 29.9578 129.808 29.8526C131.846 29.7473 135.324 30.8 135.114 31.1859C134.903 31.5719 130.756 32.5895 130.546 32.3789C130.335 32.1684 130.51 30.3438 129.948 30.3438C129.421 30.3789 125.486 41.0809 124.642 40.9406Z" fill="black"/>
<path d="M135.183 21.0457C135.183 21.0457 125.872 26.4142 125.485 27.2914C125.063 28.1686 120.812 42.8006 120.882 43.1164C120.952 43.4321 120.952 45.2217 124.325 45.0462C124.325 45.0462 125.977 45.0462 125.344 45.9585C124.747 46.9059 125.309 47.9937 126.258 48.4849C126.258 48.4849 126.012 49.8183 126.364 50.4148C126.364 50.4148 128.085 51.0464 128.12 52.1692C128.156 53.2569 127.664 56.6956 129.28 56.7307C130.896 56.7658 136.062 54.5903 137.116 54.3096C138.17 54.0289 139.4 53.3622 139.189 55.1166C138.978 56.8711 138.486 58.9062 139.33 58.9062C140.173 58.9062 140.595 59.222 140.806 57.7483C140.806 57.7483 142.492 52.7306 140.032 51.9938C137.608 51.2569 130.967 54.485 130.51 54.3447C130.053 54.2043 129.983 50.8358 129.245 50.4148C128.507 49.9937 128.191 48.4498 128.331 48.2042C128.472 47.9235 126.996 46.8006 127.031 46.4498C127.066 46.0989 127.242 44.3094 126.328 43.9234C125.415 43.5725 123.377 43.4672 122.92 42.9058C122.92 42.9058 126.68 29.0458 127.874 28.0634C129.104 27.0809 134.832 24.2387 135.078 23.8878C135.359 23.5369 135.359 21.3965 135.183 21.0457Z" fill="black"/>
<path d="M146.463 31.7122C146.463 31.7122 146.358 28.0981 148.08 29.642C149.801 31.1859 150.574 34.3789 149.942 36.3088C149.345 38.2387 148.255 39.0808 148.009 40.3791C147.763 41.6774 148.466 46.6248 147.447 47.9231C146.428 49.2214 143.968 49.7477 142.879 48.7652C141.825 47.7828 142.176 46.4143 143.02 46.5898C143.863 46.7301 145.093 47.8178 145.796 47.4319C146.498 47.0459 146.639 44.2388 146.604 41.7826C146.569 39.2913 148.009 37.7123 148.571 36.2035C149.204 34.6947 148.15 31.0806 146.463 31.7122Z" fill="black"/>
<path d="M138.592 18.0282C135.535 19.9581 137.01 24.2038 137.01 24.2038C137.01 24.2038 141.086 25.9231 142.597 21.1511C142.633 19.3967 142.492 19.2212 143.16 17.7124H138.873C138.767 17.7475 138.627 17.9931 138.592 18.0282Z" fill="black"/>
<path d="M144.601 1.817C133.322 -4.70947 124.923 9.11542 119.407 10.3786C113.784 11.6769 118.071 14.098 120.883 13.2559C126.645 11.5716 139.014 -0.990083 145.234 11.5014C146.78 11.0102 148.502 10.554 150.118 10.0979C148.326 5.15041 146.182 2.7293 144.601 1.817Z" fill="black"/>
<path d="M125.099 13.2567C121.866 13.9935 129.491 14.9058 131.108 14.4497C134.411 13.4672 139.154 8.62497 139.892 13.2567L143.793 11.9584C138.979 1.29147 128.296 12.5198 125.099 13.2567Z" fill="black"/>
<path d="M142.422 25.7821C142.422 28.8348 140.525 31.2208 140.665 32.2735C140.806 33.3261 145.971 33.291 145.971 33.291C145.971 33.291 145.409 23.6066 149.063 17.7468H143.898C143.125 19.4662 142.422 25.7821 142.422 25.7821Z" fill="black"/>
<path d="M151.84 3.60607C148.782 -0.218578 146.217 1.85165 146.217 1.85165C147.482 2.93939 150.715 6.76404 151.453 9.78165C152.894 9.36059 154.124 9.00971 154.861 8.79917C153.772 6.02718 153.069 5.11488 151.84 3.60607Z" fill="black"/>
<path d="M147.974 28.4498C153.561 31.9937 150.399 38.3096 149.555 39.0465C148.712 39.7834 148.501 43.4677 148.571 46.4151C148.642 49.3625 147.763 48.4853 147.763 50.6959C147.763 52.9065 151.383 59.9944 153.034 59.3978C154.686 58.8013 150.047 54.0995 151.383 50.5555C152.718 47.0116 153.948 38.3096 153.948 34.7657C153.948 31.2919 153.21 22.4847 155.915 17.853H150.504C148.993 20.9759 147.974 28.4498 147.974 28.4498Z" fill="black"/>
<path d="M10.5105 52.0292L4.81806 43.0114V51.5379H1.19876V34.6954H4.81806V41.9938L9.70235 34.3796L13.3216 35.2919L8.43735 42.064L14.4109 51.187L10.5105 52.0292Z" fill="black"/>
<path d="M21.2983 51.5373V50.4144C20.4901 51.0109 19.4359 51.818 18.0304 51.818C15.9923 51.818 14.4814 50.6952 14.4814 48.4144C14.4814 46.2038 16.2383 45.1863 18.7683 45.1512L21.228 45.081V44.0985C21.228 42.7301 20.7712 42.6248 19.963 42.6248C18.8737 42.6248 17.7844 42.8704 16.168 43.3617L15.149 40.73C17.0113 39.9932 18.6277 39.6072 20.3144 39.6072C23.1958 39.6072 24.7419 41.3616 24.7419 43.502V51.5724H21.2983V51.5373ZM21.228 46.9056L19.3656 46.9758C18.6277 46.9758 17.8898 47.2565 17.8898 48.1688C17.8898 48.8355 18.3115 49.2916 18.8034 49.2916C19.717 49.2916 20.6658 48.8705 21.1929 48.6249L21.228 46.9056Z" fill="black"/>
<path d="M33.527 51.5373V44.0634C33.527 42.6599 33.0702 42.4143 32.4377 42.4143C31.735 42.4143 30.0483 43.0459 29.3455 43.3967V51.5724H25.8668V40.0633H29.2753V41.2213C30.5051 40.5195 31.8052 39.6072 33.2811 39.6072C35.6354 39.6072 37.0058 41.2914 37.0058 43.7476V51.5724H33.527V51.5373Z" fill="black"/>
<path d="M44.3492 51.5373V50.4144C43.541 51.0109 42.4868 51.818 41.0813 51.818C39.0432 51.818 37.5323 50.6952 37.5323 48.4144C37.5323 46.2038 39.2892 45.1863 41.8192 45.1512L44.2789 45.081V44.0985C44.2789 42.7301 43.8221 42.6248 43.0139 42.6248C41.9246 42.6248 40.8353 42.8704 39.2189 43.3617L38.1999 40.73C40.0271 39.9932 41.6786 39.6072 43.3653 39.6072C46.2818 39.6072 47.7928 41.3616 47.7928 43.502V51.5724H44.3492V51.5373ZM44.2789 46.9056L42.4165 46.9758C41.6786 46.9758 40.9407 47.2565 40.9407 48.1688C40.9407 48.8355 41.3624 49.2916 41.8543 49.2916C42.7679 49.2916 43.6815 48.8705 44.2438 48.6249L44.2789 46.9056Z" fill="black"/>
<path d="M56.5773 51.5373V44.0634C56.5773 42.6599 56.1205 42.4143 55.488 42.4143C54.7852 42.4143 53.0985 43.0459 52.3958 43.3967V51.5724H48.917V40.0633H52.3255V41.2213C53.5553 40.5195 54.8906 39.6072 56.3313 39.6072C58.6856 39.6072 60.056 41.2914 60.056 43.7476V51.5724H56.5773V51.5373Z" fill="black"/>
<path d="M70.0364 35.6783C69.193 35.3274 68.3497 35.0116 67.3658 35.0116C66.6279 35.0116 65.9251 35.573 65.9251 37.2573V39.9942H68.8065V42.3101H65.9251V51.5383H62.4464V42.3101H60.6192V39.9942H62.4464V37.2924C62.4464 34.0642 64.625 32.3098 67.2253 32.3098C68.8416 32.3098 69.6498 32.6958 71.1257 33.2221L70.0364 35.6783Z" fill="black"/>
<path d="M71.863 51.5375V32.7651H75.3418V51.5375H71.863Z" fill="black"/>
<path d="M81.8781 51.8174C78.0479 51.8174 75.9045 49.6068 75.9045 45.9225C75.9045 42.5891 77.7668 39.5364 81.5618 39.5364C85.0054 39.5364 86.411 41.8171 87.184 44.6944L86.0596 46.2032L79.5941 47.0102C79.9806 48.3085 80.7185 49.1857 82.124 49.1857C83.4242 49.1857 84.6892 48.6594 85.919 47.9927L87.2895 50.2033C85.8488 51.1507 84.1972 51.8174 81.8781 51.8174ZM83.4945 44.3084C83.4242 43.361 83.0377 41.8873 81.6321 41.8873C80.1563 41.8873 79.3832 43.5716 79.3832 45.1505L83.4945 44.3084Z" fill="black"/>
<path d="M93.579 51.8169C89.7489 51.8169 87.6054 49.6063 87.6054 45.922C87.6054 42.5886 89.4678 39.5359 93.2628 39.5359C96.7064 39.5359 98.112 41.8166 98.885 44.6939L97.7606 46.2027L91.295 47.0097C91.6815 48.308 92.4195 49.1852 93.825 49.1852C95.1252 49.1852 96.3901 48.6589 97.62 47.9922L98.9904 50.2028C97.5146 51.1502 95.8982 51.8169 93.579 51.8169ZM95.1954 44.3079C95.1251 43.3605 94.7386 41.8868 93.3331 41.8868C91.8572 41.8868 91.0842 43.5711 91.0842 45.1501L95.1954 44.3079Z" fill="black"/>
<path d="M104.613 51.8185C102.575 51.8185 100.677 50.6957 100.677 47.9939V42.3095H98.8501V41.2218L104.191 36.2041V39.9937H107.986V42.3095H104.191V47.5026C104.191 48.6605 104.543 49.0465 105.316 49.0465C106.018 49.0465 106.686 48.8711 108.162 48.2044L109.146 50.5904C107.565 51.3623 106.3 51.8185 104.613 51.8185Z" fill="black"/>
<path d="M156.126 4.20322H155.81L155.213 3.53654H154.932V4.20322H154.686V2.48389H155.178C155.283 2.48389 155.388 2.48389 155.459 2.48389C155.529 2.48389 155.599 2.51898 155.67 2.55406C155.74 2.58915 155.775 2.62424 155.81 2.69442C155.845 2.76459 155.88 2.83477 155.88 2.90495C155.88 3.0453 155.845 3.15057 155.775 3.22075C155.705 3.29092 155.599 3.3611 155.494 3.39619L156.126 4.20322ZM155.599 2.97513C155.599 2.94004 155.599 2.86986 155.564 2.83477C155.529 2.79968 155.529 2.76459 155.494 2.72951C155.459 2.69442 155.424 2.69442 155.388 2.69442C155.353 2.69442 155.283 2.69442 155.213 2.69442H154.967V3.32601H155.178C155.248 3.32601 155.318 3.32601 155.353 3.32601C155.424 3.32601 155.459 3.29092 155.494 3.25583C155.529 3.22075 155.564 3.18566 155.564 3.15057C155.599 3.08039 155.599 3.0453 155.599 2.97513Z" fill="black"/>
<path d="M155.248 5.18537C154.299 5.18537 153.491 4.37833 153.491 3.43094C153.491 2.44846 154.264 1.67651 155.248 1.67651C156.196 1.67651 157.005 2.48355 157.005 3.43094C157.005 4.37833 156.232 5.18537 155.248 5.18537ZM155.248 1.88704C154.439 1.88704 153.772 2.55373 153.772 3.39585C153.772 4.23798 154.439 4.90466 155.248 4.90466C156.056 4.90466 156.723 4.23798 156.723 3.39585C156.723 2.55373 156.091 1.88704 155.248 1.88704Z" fill="black"/>
<path d="M1.16409 23.6771L2.67506 17.6418H3.90492L5.41589 23.6771H4.25631L3.9752 22.449H2.56964L2.28853 23.6771H1.16409ZM3.72922 21.3612L3.27242 19.3612L2.81562 21.3612H3.72922Z" fill="black"/>
<path d="M8.82375 23.6769H7.76959V23.2208C7.69931 23.2909 7.62903 23.3611 7.52361 23.4664C7.45334 23.5366 7.34792 23.6067 7.27764 23.6769C7.20737 23.7471 7.10195 23.7822 7.03167 23.7822C6.96139 23.8173 6.85598 23.8173 6.75056 23.8173C6.36403 23.8173 6.04779 23.6067 5.83695 23.1857C5.62612 22.7646 5.48557 22.1681 5.48557 21.4663C5.48557 21.0804 5.5207 20.7295 5.59098 20.4488C5.66126 20.1681 5.76668 19.8873 5.90723 19.6768C6.01265 19.4663 6.18834 19.3259 6.36403 19.2207C6.53973 19.1154 6.71542 19.0452 6.92626 19.0452C7.10195 19.0452 7.2425 19.0803 7.34792 19.1154C7.45334 19.1505 7.59389 19.2558 7.73445 19.361V17.4312H8.78861V23.6769H8.82375ZM7.76959 22.4137V20.2031C7.73445 20.1681 7.66417 20.133 7.55875 20.133C7.48848 20.0979 7.4182 20.0979 7.34792 20.0979C7.10195 20.0979 6.89112 20.2031 6.7857 20.4488C6.64514 20.6944 6.61001 21.0102 6.61001 21.4312C6.61001 21.8874 6.64515 22.2032 6.75056 22.4137C6.85598 22.6243 7.03167 22.7295 7.2425 22.7295C7.34792 22.7295 7.4182 22.6944 7.52361 22.6593C7.59389 22.5892 7.69931 22.519 7.76959 22.4137Z" fill="black"/>
<path d="M13.6032 23.6778V21.397C13.6032 21.1865 13.6032 20.9759 13.6032 20.8356C13.6032 20.6952 13.568 20.5549 13.5329 20.4496C13.4978 20.3444 13.4626 20.2742 13.3924 20.2391C13.3221 20.204 13.2518 20.1689 13.1112 20.1689C13.041 20.1689 12.9355 20.204 12.8653 20.2391C12.795 20.2742 12.6896 20.3444 12.6193 20.4496V23.6778H11.5651V21.397C11.5651 21.1865 11.5651 20.9759 11.5651 20.8356C11.5651 20.6952 11.53 20.5549 11.4949 20.4496C11.4597 20.3444 11.4246 20.2742 11.3543 20.2391C11.284 20.204 11.2137 20.1689 11.1083 20.1689C11.0381 20.1689 10.9326 20.204 10.8624 20.2391C10.7921 20.3093 10.6867 20.3444 10.6164 20.4145V23.6427H9.56223V19.1513H10.6164V19.6426C10.7921 19.432 10.9326 19.2917 11.1083 19.1864C11.2489 19.0812 11.4246 19.011 11.6354 19.011C11.8462 19.011 12.0219 19.0812 12.1625 19.2215C12.3031 19.3619 12.4436 19.5373 12.5139 19.818C12.7247 19.5724 12.9004 19.3619 13.0761 19.2215C13.2518 19.0812 13.4275 19.011 13.6032 19.011C13.7437 19.011 13.8843 19.0461 14.0249 19.1163C14.1654 19.1864 14.2708 19.2917 14.3411 19.432C14.4465 19.5724 14.5168 19.7478 14.5519 19.9584C14.5871 20.1689 14.6222 20.4145 14.6222 20.7303V23.6778H13.6032Z" fill="black"/>
<path d="M16.4849 18.4845H15.3605V17.3967H16.4849V18.4845ZM16.4498 23.6776H15.3956V19.1512H16.4498V23.6776Z" fill="black"/>
<path d="M20.385 23.6778H19.3308V21.4321C19.3308 21.2567 19.3308 21.0812 19.3308 20.8707C19.3308 20.6952 19.2957 20.5549 19.2605 20.4847C19.2254 20.3794 19.1903 20.3093 19.12 20.2742C19.0497 20.2391 18.9443 20.204 18.8389 20.204C18.7686 20.204 18.6632 20.2391 18.5929 20.2742C18.5226 20.3093 18.4172 20.3794 18.3118 20.4847V23.7129H17.2576V19.1513H18.3118V19.6426C18.4875 19.432 18.6632 19.2917 18.8037 19.1864C18.9794 19.0812 19.1551 19.011 19.3308 19.011C19.6822 19.011 19.9282 19.1513 20.1039 19.432C20.2796 19.7128 20.385 20.1338 20.385 20.6952V23.6778Z" fill="black"/>
<path d="M22.2119 18.4845H21.0875V17.3967H22.2119V18.4845ZM22.1768 23.6776H21.1226V19.1512H22.1768V23.6776Z" fill="black"/>
<path d="M23.9691 23.8174C23.7232 23.8174 23.4772 23.7823 23.2663 23.7121C23.0555 23.642 22.8798 23.5718 22.7041 23.4665V22.2735H22.7744C22.8095 22.3086 22.8798 22.3788 22.9501 22.449C23.0204 22.5191 23.0907 22.5893 23.2312 22.6595C23.3366 22.7297 23.442 22.7648 23.5475 22.8349C23.6529 22.87 23.7934 22.9051 23.934 22.9051C24.0745 22.9051 24.2151 22.87 24.3205 22.7998C24.4259 22.7297 24.4962 22.6244 24.4962 22.5191C24.4962 22.4139 24.4611 22.3437 24.4259 22.2735C24.3908 22.2033 24.2854 22.1682 24.1097 22.1332C24.0394 22.0981 23.934 22.063 23.7934 22.063C23.688 22.0279 23.5475 21.9928 23.4772 21.9577C23.1961 21.8525 23.0204 21.677 22.8798 21.4665C22.7393 21.2559 22.669 20.9752 22.669 20.6244C22.669 20.4138 22.7041 20.2384 22.7744 20.0629C22.8447 19.8875 22.9501 19.7121 23.0907 19.5717C23.2312 19.4313 23.4069 19.3261 23.5826 19.2559C23.7934 19.1857 24.0043 19.1506 24.2502 19.1506C24.4962 19.1506 24.707 19.1857 24.8827 19.2559C25.0936 19.3261 25.2341 19.3963 25.3747 19.5015V20.6594H25.3044C25.2693 20.6244 25.199 20.5542 25.1287 20.5191C25.0584 20.4489 24.9882 20.4138 24.9179 20.3436C24.8476 20.2735 24.7422 20.2384 24.6368 20.2033C24.5313 20.1682 24.4259 20.1682 24.2854 20.1682C24.1448 20.1682 24.0043 20.2033 23.8988 20.2735C23.7934 20.3436 23.7583 20.4489 23.7583 20.5542C23.7583 20.6594 23.7934 20.7296 23.8286 20.7998C23.8637 20.87 24.0043 20.9051 24.18 20.9752C24.2854 21.0103 24.3557 21.0454 24.4962 21.0454C24.6016 21.0805 24.7422 21.1156 24.8476 21.1507C25.0936 21.2559 25.2693 21.3963 25.4098 21.6068C25.5504 21.8174 25.5855 22.063 25.5855 22.4139C25.5855 22.6244 25.5504 22.8349 25.4801 23.0104C25.4098 23.1858 25.3044 23.3613 25.1638 23.5016C25.0233 23.642 24.8476 23.7472 24.6719 23.8174C24.4611 23.7823 24.2502 23.8174 23.9691 23.8174Z" fill="black"/>
<path d="M27.3773 23.7831C26.9557 23.7831 26.6394 23.6778 26.4286 23.4322C26.2177 23.1865 26.1475 22.8006 26.1475 22.2742V20.1689H25.7609V19.1865H26.1475V17.8882H27.2016V19.1865H28.2207V20.1689H27.2016V21.783C27.2016 21.9585 27.2016 22.0637 27.2016 22.2041C27.2016 22.3093 27.2368 22.4146 27.2368 22.5199C27.2719 22.6251 27.307 22.6953 27.3773 22.7304C27.4476 22.8006 27.553 22.8006 27.6936 22.8006C27.7639 22.8006 27.8341 22.8006 27.9044 22.7655C28.0098 22.7304 28.045 22.6953 28.0801 22.6602H28.1855V23.6427C28.0801 23.6778 27.9395 23.7129 27.8341 23.748C27.6936 23.748 27.553 23.7831 27.3773 23.7831Z" fill="black"/>
<path d="M30.8569 20.484H30.7867C30.7515 20.4489 30.6812 20.4489 30.611 20.4489C30.5407 20.4489 30.4353 20.4489 30.365 20.4489C30.2596 20.4489 30.1542 20.484 30.0136 20.5191C29.9082 20.5542 29.7676 20.6244 29.6622 20.6594V23.7121H28.6081V19.1506H29.6622V19.8173C29.6974 19.7471 29.7676 19.677 29.8731 19.6068C29.9433 19.5015 30.0487 19.4313 30.119 19.3963C30.1893 19.3261 30.2947 19.291 30.4001 19.2208C30.5056 19.1857 30.611 19.1506 30.6812 19.1506C30.7164 19.1506 30.7515 19.1506 30.7867 19.1506C30.8218 19.1506 30.8569 19.1506 30.8921 19.1506V20.484H30.8569Z" fill="black"/>
<path d="M33.0704 23.1859C33.0001 23.256 32.9298 23.3262 32.8595 23.3964C32.7893 23.4666 32.719 23.5367 32.6136 23.6069C32.5081 23.6771 32.4379 23.7122 32.3324 23.7473C32.227 23.7824 32.1216 23.7824 31.9459 23.7824C31.6648 23.7824 31.3837 23.642 31.208 23.3613C30.9972 23.0806 30.9269 22.7648 30.9269 22.3437C30.9269 21.9928 30.962 21.7472 31.0675 21.5367C31.1729 21.3262 31.3134 21.1507 31.4891 21.0455C31.6648 20.9051 31.9108 20.8349 32.1568 20.7998C32.4379 20.7647 32.719 20.7297 33.0001 20.6946V20.6595C33.0001 20.4139 32.9298 20.2384 32.7893 20.1332C32.6487 20.0279 32.4379 19.9928 32.1568 19.9928C32.0162 19.9928 31.8756 20.0279 31.7351 20.0981C31.5594 20.1682 31.4188 20.2384 31.2431 20.3437H31.1377V19.2559C31.2431 19.2209 31.4188 19.1507 31.6297 19.1156C31.8756 19.0454 32.0865 19.0454 32.3324 19.0454C32.8947 19.0454 33.3163 19.1858 33.5974 19.4314C33.8786 19.677 33.984 20.0981 33.984 20.6244V23.7122H32.9298V23.1859H33.0704ZM33.0704 22.4841V21.5367C32.8947 21.5718 32.7541 21.5718 32.6487 21.6069C32.5433 21.6069 32.4379 21.642 32.3324 21.7121C32.227 21.7472 32.1568 21.8174 32.1216 21.9227C32.0865 21.9928 32.0513 22.1332 32.0513 22.2736C32.0513 22.4841 32.0865 22.6244 32.1919 22.6946C32.2622 22.7648 32.4027 22.7999 32.5784 22.7999C32.6838 22.7999 32.7541 22.7648 32.8595 22.7297C32.8947 22.6595 33.0001 22.5894 33.0704 22.4841Z" fill="black"/>
<path d="M37.9196 23.6769H36.8655V23.2208C36.7952 23.2909 36.7249 23.3611 36.6195 23.4664C36.5492 23.5366 36.4438 23.6067 36.3735 23.6769C36.3033 23.7471 36.1978 23.7822 36.1276 23.7822C36.0573 23.8173 35.9519 23.8173 35.8464 23.8173C35.4599 23.8173 35.1437 23.6067 34.9328 23.1857C34.722 22.7646 34.5815 22.1681 34.5815 21.4663C34.5815 21.0804 34.6166 20.7295 34.6869 20.4488C34.7571 20.1681 34.8626 19.8873 35.0031 19.6768C35.1085 19.4663 35.2842 19.3259 35.4599 19.2207C35.6356 19.1154 35.8113 19.0452 36.0221 19.0452C36.1978 19.0452 36.3384 19.0803 36.4438 19.1154C36.5492 19.1505 36.6898 19.2558 36.8303 19.361V17.4312H37.8845V23.6769H37.9196ZM36.8655 22.4137V20.2031C36.8303 20.1681 36.7601 20.133 36.6546 20.133C36.5844 20.0979 36.5141 20.0979 36.4438 20.0979C36.1978 20.0979 35.987 20.2031 35.8816 20.4488C35.741 20.6944 35.7059 21.0102 35.7059 21.4312C35.7059 21.8874 35.741 22.2032 35.8464 22.4137C35.9519 22.6243 36.1276 22.7295 36.3384 22.7295C36.4438 22.7295 36.5141 22.6944 36.6195 22.6593C36.7249 22.5892 36.7952 22.519 36.8655 22.4137Z" fill="black"/>
<path d="M41.9252 21.3962C41.9252 22.1331 41.7846 22.7296 41.4683 23.1506C41.1521 23.5717 40.7304 23.7822 40.1682 23.7822C39.606 23.7822 39.1843 23.5717 38.9032 23.1506C38.587 22.7296 38.4464 22.1331 38.4464 21.3962C38.4464 20.6243 38.587 20.0628 38.9032 19.6067C39.2195 19.1856 39.6411 18.9751 40.1682 18.9751C40.7304 18.9751 41.1521 19.1856 41.4332 19.6067C41.7846 20.0628 41.9252 20.6593 41.9252 21.3962ZM40.8358 21.4313C40.8358 21.1506 40.8358 20.9401 40.8007 20.7646C40.7656 20.5892 40.7304 20.4488 40.6602 20.3435C40.5899 20.2383 40.5196 20.1681 40.4493 20.0979C40.379 20.0628 40.2736 20.0278 40.1682 20.0278C40.0628 20.0278 39.9925 20.0628 39.9222 20.0979C39.852 20.133 39.7817 20.2032 39.7114 20.3085C39.6411 20.4137 39.606 20.5541 39.5709 20.7295C39.5357 20.905 39.5006 21.1506 39.5006 21.4313C39.5006 21.712 39.5006 21.9225 39.5357 22.098C39.5709 22.2734 39.606 22.4138 39.6763 22.519C39.7465 22.6243 39.8168 22.6945 39.8871 22.7647C39.9574 22.7997 40.0628 22.8348 40.1682 22.8348C40.2385 22.8348 40.3439 22.7997 40.4142 22.7647C40.4845 22.7296 40.5547 22.6594 40.625 22.5541C40.6953 22.4489 40.7304 22.3085 40.7656 22.1331C40.8358 21.9225 40.8358 21.712 40.8358 21.4313Z" fill="black"/>
<path d="M44.7013 20.484H44.6311C44.5959 20.4489 44.5256 20.4489 44.4554 20.4489C44.3851 20.4489 44.2797 20.4489 44.2094 20.4489C44.104 20.4489 43.9986 20.484 43.858 20.5191C43.7526 20.5542 43.612 20.6244 43.5066 20.6594V23.7121H42.4525V19.1506H43.5066V19.8173C43.5418 19.7471 43.612 19.677 43.7174 19.6068C43.7877 19.5015 43.8931 19.4313 43.9634 19.3963C44.0337 19.3261 44.1391 19.291 44.2445 19.2208C44.3499 19.1857 44.4554 19.1506 44.5256 19.1506C44.5608 19.1506 44.5959 19.1506 44.6311 19.1506C44.6662 19.1506 44.7013 19.1506 44.7365 19.1506V20.484H44.7013Z" fill="black"/>
<path d="M49.9015 23.6769H48.8473V23.2208C48.7771 23.2909 48.7068 23.3611 48.6014 23.4664C48.5311 23.5366 48.4257 23.6067 48.3554 23.6769C48.2851 23.7471 48.1797 23.7822 48.1094 23.7822C48.0391 23.8173 47.9337 23.8173 47.8283 23.8173C47.4418 23.8173 47.1255 23.6067 46.9147 23.1857C46.7039 22.7646 46.5633 22.1681 46.5633 21.4663C46.5633 21.0804 46.5985 20.7295 46.6687 20.4488C46.739 20.1681 46.8444 19.8873 46.985 19.6768C47.0904 19.4663 47.2661 19.3259 47.4418 19.2207C47.6175 19.1154 47.7932 19.0452 48.004 19.0452C48.1797 19.0452 48.3203 19.0803 48.4257 19.1154C48.5311 19.1505 48.6716 19.2558 48.8122 19.361V17.4312H49.8664V23.6769H49.9015ZM48.8473 22.4137V20.2031C48.8122 20.1681 48.7419 20.133 48.6365 20.133C48.5662 20.0979 48.496 20.0979 48.4257 20.0979C48.1797 20.0979 47.9689 20.2031 47.8635 20.4488C47.7229 20.6944 47.6878 21.0102 47.6878 21.4312C47.6878 21.8874 47.7229 22.2032 47.8283 22.4137C47.9337 22.6243 48.1094 22.7295 48.3203 22.7295C48.4257 22.7295 48.496 22.6944 48.6014 22.6593C48.7068 22.5892 48.7771 22.519 48.8473 22.4137Z" fill="black"/>
<path d="M52.3963 23.8173C51.7638 23.8173 51.2719 23.6068 50.9205 23.1857C50.5691 22.7647 50.4286 22.2032 50.4286 21.4313C50.4286 20.6944 50.5691 20.0979 50.8854 19.6418C51.2016 19.1856 51.6584 18.9751 52.2207 18.9751C52.7477 18.9751 53.1343 19.1505 53.3802 19.5365C53.6262 19.9225 53.7668 20.4488 53.7668 21.1506V21.6769H51.4827C51.4827 21.8874 51.5179 22.0629 51.5882 22.2032C51.6584 22.3436 51.7287 22.4489 51.799 22.5541C51.9044 22.6243 52.0098 22.6945 52.1152 22.7296C52.2207 22.7647 52.3612 22.7997 52.5018 22.7997C52.6072 22.7997 52.7477 22.7647 52.8531 22.7296C52.9586 22.6945 53.064 22.6594 53.1694 22.5892C53.2397 22.5541 53.3451 22.4839 53.4154 22.4138C53.4856 22.3436 53.5559 22.3085 53.5911 22.2734H53.6965V23.4313C53.6262 23.4664 53.5208 23.5366 53.4505 23.5717C53.3802 23.6068 53.2748 23.6419 53.1694 23.677C53.064 23.712 52.9234 23.7471 52.818 23.7822C52.7126 23.7822 52.572 23.8173 52.3963 23.8173ZM52.7477 20.8348C52.7477 20.519 52.6775 20.3085 52.6072 20.1681C52.5018 20.0278 52.3612 19.9225 52.1504 19.9225C51.9395 19.9225 51.799 19.9927 51.6584 20.1681C51.553 20.3435 51.4827 20.5541 51.4827 20.8348H52.7477Z" fill="black"/>
<path d="M59.1081 18.8003H57.2458V19.9232H58.9676V21.0811H57.2458V23.6776H56.1213V17.6775H59.1081V18.8003Z" fill="black"/>
<path d="M60.6547 23.6776H59.6005V17.3967H60.6547V23.6776Z" fill="black"/>
<path d="M64.6243 21.3962C64.6243 22.1331 64.4837 22.7296 64.1675 23.1506C63.8512 23.5717 63.4295 23.7822 62.8673 23.7822C62.3051 23.7822 61.8834 23.5717 61.6023 23.1506C61.2861 22.7296 61.1455 22.1331 61.1455 21.3962C61.1455 20.6243 61.2861 20.0628 61.6023 19.6067C61.9186 19.1856 62.3402 18.9751 62.8673 18.9751C63.4295 18.9751 63.8512 19.1856 64.1323 19.6067C64.4837 20.0628 64.6243 20.6593 64.6243 21.3962ZM63.5701 21.4313C63.5701 21.1506 63.5701 20.9401 63.535 20.7646C63.4998 20.5892 63.4647 20.4488 63.3944 20.3435C63.3241 20.2383 63.2538 20.1681 63.1836 20.0979C63.1133 20.0628 63.0079 20.0278 62.9025 20.0278C62.797 20.0278 62.7268 20.0628 62.6565 20.0979C62.5862 20.133 62.5159 20.2032 62.4457 20.3085C62.3754 20.4137 62.3402 20.5541 62.3051 20.7295C62.27 20.905 62.2348 21.1506 62.2348 21.4313C62.2348 21.712 62.2348 21.9225 62.27 22.098C62.3051 22.2734 62.3402 22.4138 62.4105 22.519C62.4808 22.6243 62.5511 22.6945 62.6213 22.7647C62.6916 22.7997 62.797 22.8348 62.9025 22.8348C62.9727 22.8348 63.0782 22.7997 63.1484 22.7647C63.2187 22.7296 63.289 22.6594 63.3593 22.5541C63.4295 22.4489 63.4647 22.3085 63.4998 22.1331C63.535 21.9225 63.5701 21.712 63.5701 21.4313Z" fill="black"/>
<path d="M66.452 23.7831C66.0304 23.7831 65.7141 23.6778 65.5033 23.4322C65.2925 23.1865 65.2222 22.8006 65.2222 22.2742V20.1689H64.8357V19.1865H65.2222V17.8882H66.2764V19.1865H67.2954V20.1689H66.2764V21.783C66.2764 21.9585 66.2764 22.0637 66.2764 22.2041C66.2764 22.3093 66.3115 22.4146 66.3115 22.5199C66.3466 22.6251 66.3818 22.6953 66.452 22.7304C66.5223 22.8006 66.6277 22.8006 66.7683 22.8006C66.8386 22.8006 66.9088 22.8006 66.9791 22.7655C67.0845 22.7304 67.1197 22.6953 67.1548 22.6602H67.2602V23.6427C67.1548 23.6778 67.0143 23.7129 66.9088 23.748C66.8034 23.748 66.6277 23.7831 66.452 23.7831Z" fill="black"/>
<path d="M68.7705 18.4845H67.646V17.3967H68.7705V18.4845ZM68.7353 23.6776H67.6812V19.1512H68.7353V23.6776Z" fill="black"/>
<path d="M70.5633 23.6776H69.5091V17.3967H70.5633V23.6776Z" fill="black"/>
<path d="M72.3908 23.6776H71.3366V17.3967H72.3908V23.6776Z" fill="black"/>
<path d="M74.9904 23.1859C74.9201 23.256 74.8499 23.3262 74.8147 23.3964C74.7444 23.4666 74.6742 23.5367 74.5687 23.6069C74.4633 23.6771 74.3931 23.7122 74.2876 23.7473C74.1822 23.7824 74.0768 23.7824 73.9011 23.7824C73.62 23.7824 73.3389 23.642 73.1632 23.3613C72.9524 23.0806 72.8821 22.7648 72.8821 22.3437C72.8821 21.9928 72.9172 21.7472 73.0226 21.5367C73.1281 21.3262 73.2686 21.1507 73.4443 21.0455C73.62 20.9051 73.866 20.8349 74.1119 20.7998C74.3931 20.7647 74.6742 20.7297 74.9553 20.6946V20.6595C74.9553 20.4139 74.885 20.2384 74.7444 20.1332C74.6039 20.0279 74.3931 19.9928 74.1119 19.9928C73.9714 19.9928 73.8308 20.0279 73.6903 20.0981C73.5146 20.1682 73.374 20.2384 73.1983 20.3437H73.0929V19.2559C73.1983 19.2209 73.374 19.1507 73.5849 19.1156C73.8308 19.0454 74.0417 19.0454 74.2876 19.0454C74.8499 19.0454 75.2715 19.1858 75.5526 19.4314C75.8337 19.677 75.9392 20.0981 75.9392 20.6244V23.7122H74.885V23.1859H74.9904ZM74.9904 22.4841V21.5367C74.8147 21.5718 74.6742 21.5718 74.5687 21.6069C74.4633 21.6069 74.3579 21.642 74.2525 21.7121C74.1471 21.7472 74.0768 21.8174 74.0417 21.9227C74.0065 21.9928 73.9714 22.1332 73.9714 22.2736C73.9714 22.4841 74.0065 22.6244 74.1119 22.6946C74.1822 22.7648 74.3228 22.7999 74.4985 22.7999C74.6039 22.7999 74.6742 22.7648 74.7796 22.7297C74.8499 22.6595 74.9201 22.5894 74.9904 22.4841Z" fill="black"/>
<path d="M77.8016 23.8174C77.5556 23.8174 77.3096 23.7823 77.0988 23.7121C76.888 23.642 76.7123 23.5718 76.5366 23.4665V22.2735H76.6069C76.642 22.3086 76.7123 22.3788 76.7825 22.449C76.8528 22.5191 76.9231 22.5893 77.0637 22.6595C77.1691 22.7297 77.2745 22.7648 77.3799 22.8349C77.4853 22.87 77.6259 22.9051 77.7664 22.9051C77.907 22.9051 78.0475 22.87 78.153 22.7998C78.2584 22.7297 78.3287 22.6244 78.3287 22.5191C78.3287 22.4139 78.2935 22.3437 78.2584 22.2735C78.2232 22.2033 78.1178 22.1682 77.9421 22.1332C77.8718 22.0981 77.7664 22.063 77.6259 22.063C77.5205 22.0279 77.3799 21.9928 77.3096 21.9577C77.0285 21.8525 76.8528 21.677 76.7123 21.4665C76.5717 21.2559 76.5014 20.9752 76.5014 20.6244C76.5014 20.4138 76.5366 20.2384 76.6069 20.0629C76.6771 19.8875 76.7825 19.7121 76.9231 19.5717C77.0637 19.4313 77.2394 19.3261 77.415 19.2559C77.6259 19.1857 77.8367 19.1506 78.0827 19.1506C78.3287 19.1506 78.5395 19.1857 78.7152 19.2559C78.926 19.3261 79.0666 19.3963 79.2071 19.5015V20.6594H79.1368C79.1017 20.6244 79.0314 20.5542 78.9611 20.5191C78.8909 20.4489 78.8206 20.4138 78.7503 20.3436C78.68 20.2735 78.5746 20.2384 78.4692 20.2033C78.3638 20.1682 78.2584 20.1682 78.1178 20.1682C77.9773 20.1682 77.8367 20.2033 77.7313 20.2735C77.6259 20.3436 77.5907 20.4489 77.5907 20.5542C77.5907 20.6594 77.6259 20.7296 77.661 20.7998C77.6962 20.87 77.8367 20.9051 78.0124 20.9752C78.1178 21.0103 78.1881 21.0454 78.3287 21.0454C78.4341 21.0805 78.5746 21.1156 78.68 21.1507C78.926 21.2559 79.1017 21.3963 79.2423 21.6068C79.3828 21.8174 79.418 22.063 79.418 22.4139C79.418 22.6244 79.3828 22.8349 79.3125 23.0104C79.2423 23.1858 79.1368 23.3613 78.9963 23.5016C78.8557 23.642 78.68 23.7472 78.5043 23.8174C78.3287 23.7823 78.0827 23.8174 77.8016 23.8174Z" fill="black"/>
<path d="M84.8294 19.1506L83.1427 25.3613H82.0183L82.5102 23.5718L81.2804 19.1506H82.3697L83.0725 21.9928L83.7401 19.1506H84.8294Z" fill="black"/>
<path d="M86.5163 23.6771L88.0272 17.6418H89.2571L90.7681 23.6771H89.6085L89.3274 22.449H87.9218L87.6407 23.6771H86.5163ZM89.0814 21.3612L88.6246 19.3612L88.1678 21.3612H89.0814Z" fill="black"/>
<path d="M92.7709 23.8174C92.4898 23.8174 92.2438 23.7824 91.9978 23.6771C91.7519 23.5718 91.5762 23.4315 91.4005 23.256C91.2248 23.0455 91.1194 22.7999 91.014 22.5192C90.9085 22.2385 90.8734 21.8876 90.8734 21.4665C90.8734 21.0455 90.9085 20.6595 91.014 20.3437C91.1194 20.0279 91.2599 19.7823 91.4356 19.6068C91.6113 19.4314 91.787 19.291 92.033 19.1858C92.2438 19.0805 92.4898 19.0454 92.7358 19.0454C92.9115 19.0454 93.1223 19.0805 93.298 19.1156C93.4737 19.1858 93.6845 19.2559 93.8602 19.3963V20.6244H93.7197C93.6845 20.5542 93.6142 20.5191 93.5791 20.449C93.5088 20.3788 93.4385 20.3086 93.3683 20.2735C93.298 20.2033 93.1926 20.1682 93.1223 20.1332C93.0169 20.0981 92.9115 20.063 92.806 20.063C92.5249 20.063 92.3141 20.2033 92.1735 20.449C92.033 20.6946 91.9627 21.0455 91.9627 21.4665C91.9627 21.9227 92.033 22.2736 92.2087 22.4841C92.3492 22.6946 92.5601 22.835 92.8412 22.835C92.9817 22.835 93.0872 22.7999 93.1926 22.7648C93.298 22.7297 93.3683 22.6595 93.4385 22.6244C93.5088 22.5543 93.5791 22.5192 93.6142 22.449C93.6494 22.3788 93.7196 22.3437 93.7548 22.2736H93.8954V23.5017C93.8251 23.5367 93.7548 23.5718 93.6845 23.6069C93.6142 23.642 93.5088 23.6771 93.4385 23.7122C93.3331 23.7473 93.2277 23.7824 93.1574 23.7824C93.0169 23.7824 92.9115 23.8174 92.7709 23.8174Z" fill="black"/>
<path d="M95.6173 23.7831C95.1957 23.7831 94.8794 23.6778 94.6686 23.4322C94.4577 23.1865 94.3875 22.8006 94.3875 22.2742V20.1689H94.0009V19.1865H94.3875V17.8882H95.4416V19.1865H96.4607V20.1689H95.4416V21.783C95.4416 21.9585 95.4416 22.0637 95.4416 22.2041C95.4416 22.3093 95.4768 22.4146 95.4768 22.5199C95.5119 22.6251 95.5471 22.6953 95.6173 22.7304C95.6876 22.8006 95.793 22.8006 95.9336 22.8006C96.0039 22.8006 96.0741 22.8006 96.1444 22.7655C96.2498 22.7304 96.285 22.6953 96.3201 22.6602H96.4255V23.6427C96.3201 23.6778 96.1796 23.7129 96.0741 23.748C95.9687 23.748 95.793 23.7831 95.6173 23.7831Z" fill="black"/>
<path d="M97.9356 18.4845H96.8112V17.3967H97.9356V18.4845ZM97.9005 23.6776H96.8463V19.1512H97.9005V23.6776Z" fill="black"/>
<path d="M101.802 19.1506L100.607 23.6771H99.4476L98.2529 19.1506H99.3422L100.045 22.1682L100.713 19.1506H101.802Z" fill="black"/>
<path d="M105.42 21.3967C105.42 22.1336 105.28 22.7301 104.963 23.1511C104.647 23.5722 104.225 23.7827 103.663 23.7827C103.101 23.7827 102.679 23.5722 102.398 23.1511C102.082 22.7301 101.941 22.1336 101.941 21.3967C101.941 20.6247 102.082 20.0633 102.398 19.6072C102.714 19.1861 103.136 18.9756 103.663 18.9756C104.225 18.9756 104.647 19.1861 104.928 19.6072C105.244 20.0633 105.42 20.6598 105.42 21.3967ZM104.331 21.4318C104.331 21.1511 104.331 20.9405 104.296 20.7651C104.261 20.5897 104.225 20.4493 104.155 20.344C104.085 20.2388 104.015 20.1686 103.944 20.0984C103.874 20.0633 103.769 20.0282 103.663 20.0282C103.558 20.0282 103.487 20.0633 103.417 20.0984C103.347 20.1335 103.277 20.2037 103.206 20.3089C103.136 20.4142 103.101 20.5546 103.066 20.73C103.031 20.9055 102.996 21.1511 102.996 21.4318C102.996 21.7125 102.996 21.923 103.031 22.0985C103.066 22.2739 103.101 22.4143 103.171 22.5195C103.242 22.6248 103.312 22.695 103.382 22.7651C103.452 22.8002 103.558 22.8353 103.663 22.8353C103.733 22.8353 103.839 22.8002 103.909 22.7651C103.979 22.7301 104.05 22.6599 104.12 22.5546C104.19 22.4493 104.225 22.309 104.261 22.1336C104.331 21.923 104.331 21.7125 104.331 21.4318Z" fill="black"/>
<path d="M106.967 23.8174C106.721 23.8174 106.475 23.7823 106.264 23.7121C106.054 23.642 105.878 23.5718 105.702 23.4665V22.2735H105.773C105.808 22.3086 105.878 22.3788 105.948 22.449C106.018 22.5191 106.089 22.5893 106.229 22.6595C106.335 22.7297 106.44 22.7648 106.546 22.8349C106.651 22.87 106.792 22.9051 106.932 22.9051C107.073 22.9051 107.213 22.87 107.319 22.7998C107.424 22.7297 107.494 22.6244 107.494 22.5191C107.494 22.4139 107.459 22.3437 107.424 22.2735C107.389 22.2033 107.283 22.1682 107.108 22.1332C107.038 22.0981 106.932 22.063 106.792 22.063C106.686 22.0279 106.546 21.9928 106.475 21.9577C106.194 21.8525 106.018 21.677 105.878 21.4665C105.737 21.2559 105.667 20.9752 105.667 20.6244C105.667 20.4138 105.702 20.2384 105.773 20.0629C105.843 19.8875 105.948 19.7121 106.089 19.5717C106.229 19.4313 106.405 19.3261 106.581 19.2559C106.792 19.1857 107.002 19.1506 107.248 19.1506C107.494 19.1506 107.705 19.1857 107.881 19.2559C108.092 19.3261 108.232 19.3963 108.373 19.5015V20.6594H108.303C108.267 20.6244 108.197 20.5542 108.127 20.5191C108.057 20.4489 107.986 20.4138 107.916 20.3436C107.846 20.2735 107.74 20.2384 107.635 20.2033C107.529 20.1682 107.424 20.1682 107.283 20.1682C107.143 20.1682 107.002 20.2033 106.897 20.2735C106.792 20.3436 106.756 20.4489 106.756 20.5542C106.756 20.6594 106.792 20.7296 106.827 20.7998C106.862 20.87 107.002 20.9051 107.178 20.9752C107.283 21.0103 107.389 21.0454 107.494 21.0454C107.6 21.0805 107.74 21.1156 107.846 21.1507C108.092 21.2559 108.267 21.3963 108.408 21.6068C108.548 21.8174 108.584 22.063 108.584 22.4139C108.584 22.6244 108.548 22.8349 108.478 23.0104C108.408 23.1858 108.303 23.3613 108.162 23.5016C108.021 23.642 107.846 23.7472 107.67 23.8174C107.459 23.7823 107.248 23.8174 106.967 23.8174Z" fill="black"/>
</svg>
