<svg width="190" height="50" viewBox="0 0 190 50" fill="none" xmlns="http://www.w3.org/2000/svg">
<path d="M187.344 7.71876C184.191 4.59688 179.114 4.59688 175.96 7.71876C173.469 10.9983 173.469 15.5708 175.96 18.8503C179.114 21.9407 184.191 21.9407 187.344 18.8503C189.835 15.5708 189.835 10.9983 187.344 7.71876ZM184.222 16.706C182.993 18.1566 180.817 18.3142 179.366 17.0844C179.24 16.9583 179.114 16.8321 178.988 16.706C177.758 14.5932 177.758 11.9759 178.988 9.83155C180.217 8.38098 182.393 8.22331 183.844 9.48467C183.97 9.61081 184.096 9.70541 184.191 9.83155C185.452 11.9759 185.452 14.5617 184.222 16.706ZM155.369 6.42586C154.013 5.76364 152.531 5.4483 151.017 5.4483C149.03 5.22756 147.075 5.98438 145.688 7.40342C144.994 8.34944 144.615 9.45314 144.584 10.5884H148.337C148.4 10.0838 148.589 9.61081 148.873 9.2324C149.409 8.72786 150.102 8.47558 150.828 8.53865C151.49 8.50712 152.121 8.63325 152.72 8.88553C153.161 9.1378 153.413 9.64235 153.35 10.1469C153.35 10.6514 153.004 11.1244 152.499 11.2506C152.026 11.4398 151.521 11.5344 151.017 11.5975L149.692 11.7551C148.494 11.8497 147.327 12.1966 146.255 12.7327C144.836 13.521 144.016 15.0662 144.111 16.706C144.048 17.9358 144.521 19.1341 145.435 19.9855C146.381 20.7424 147.58 21.1523 148.81 21.1523C157.292 21.5307 157.198 16.706 157.261 15.6654V10.0838C157.481 8.60172 156.725 7.11961 155.369 6.42586ZM153.413 14.877C153.508 15.8861 153.098 16.8952 152.31 17.5574C151.616 18.0304 150.796 18.2827 149.976 18.2827C149.472 18.2827 148.999 18.125 148.62 17.8412C148.21 17.4628 147.99 16.9267 148.053 16.3591C148.021 15.6969 148.368 15.0347 148.967 14.7193C149.535 14.4355 150.134 14.2779 150.765 14.1833L151.648 14.0256C151.994 13.9625 152.341 13.8679 152.688 13.7733C152.94 13.6787 153.193 13.5526 153.445 13.3949L153.413 14.877ZM136.038 8.75939C136.858 8.69632 137.646 9.0432 138.183 9.67388C138.498 10.1154 138.687 10.6199 138.782 11.156H142.976C142.944 9.4216 142.124 7.78183 140.768 6.70967C139.318 5.82672 137.646 5.38524 135.944 5.47984C133.925 5.3537 131.939 6.14206 130.52 7.59263C129.132 9.2324 128.407 11.3452 128.565 13.521C128.47 15.5077 129.101 17.4628 130.331 19.008C131.75 20.5216 133.799 21.31 135.881 21.1208C138.088 21.2784 140.201 20.3009 141.588 18.5665C142.345 17.6205 142.818 16.4537 142.944 15.2239H138.75C138.687 15.9176 138.435 16.5798 138.025 17.1475C137.489 17.6835 136.732 17.9674 135.975 17.8728C134.745 17.9358 133.61 17.179 133.232 16.0122C132.948 15.1608 132.79 14.2779 132.822 13.3949C132.79 12.4804 132.916 11.5344 133.232 10.6514C133.61 9.48468 134.777 8.69632 136.038 8.75939ZM127.366 5.51137C118.757 5.51137 119.294 13.1111 119.294 13.1111V20.837H123.204V13.5841C123.141 12.6696 123.298 11.7867 123.645 10.9352C124.307 9.86308 125.537 9.29547 126.799 9.45314H127.272H127.934V5.47984H127.587L127.366 5.51137ZM113.081 16.8006C112.924 17.0213 112.766 17.2105 112.545 17.3997C111.915 17.8412 111.126 18.062 110.369 17.9989C109.644 18.0304 108.919 17.8728 108.288 17.4943C107.248 16.8006 106.648 15.6338 106.711 14.404H117.496C117.528 13.4264 117.496 12.4174 117.37 11.4398C117.212 10.3361 116.802 9.29547 116.172 8.38098C115.541 7.43495 114.658 6.6466 113.617 6.20513C112.514 5.73211 111.347 5.47984 110.149 5.51137C108.162 5.4483 106.27 6.17359 104.851 7.56109C103.4 9.16933 102.644 11.3137 102.801 13.4895C102.612 15.6969 103.432 17.9043 105.072 19.4179C106.554 20.6162 108.383 21.2784 110.306 21.2469C112.388 21.373 114.437 20.5847 115.888 19.071C116.519 18.4404 116.992 17.6835 117.244 16.8321L113.081 16.8006ZM107.847 9.51621C108.477 8.91706 109.297 8.63325 110.149 8.66478C111 8.63325 111.788 8.91706 112.451 9.45314C113.113 10.0523 113.491 10.9037 113.491 11.7867H106.806C106.901 10.9668 107.279 10.1784 107.847 9.51621ZM101.256 20.837H97.7558V11.8497C97.9134 10.4622 96.9043 9.2324 95.5484 9.10626C95.4222 9.10626 95.2646 9.07473 95.1384 9.10626C93.6879 9.07473 92.4896 10.21 92.4265 11.6605C92.4265 11.7236 92.4265 11.8182 92.4265 11.8813V20.837H88.8631V11.8497C89.0208 10.4938 88.0432 9.26393 86.6873 9.10626C86.5611 9.10626 86.4035 9.07473 86.2773 9.10626C84.8268 9.04319 83.6285 10.1784 83.5654 11.5975C83.5654 11.6921 83.5654 11.7867 83.5654 11.8813V20.837H79.9705V11.9443C79.7498 8.57018 82.304 5.66904 85.6782 5.4483C85.8674 5.4483 86.0566 5.4483 86.2143 5.4483C87.9486 5.41677 89.5884 6.17359 90.6606 7.52955C91.7643 6.20512 93.3725 5.4483 95.1069 5.4483C98.9856 5.4483 101.288 8.1287 101.288 11.9443V20.837H101.256ZM172.902 0.875854C172.902 0.875854 168.991 0.465909 168.991 3.61932V7.78183C168.581 7.08808 167.982 6.52046 167.289 6.14205C166.563 5.73211 165.743 5.54291 164.892 5.54291C163.094 5.47984 161.36 6.29972 160.225 7.71876C158.964 9.48467 158.364 11.629 158.49 13.7733C158.396 15.7284 159.027 17.652 160.256 19.1657C161.77 20.5847 163.757 21.31 165.806 21.1838C172.996 21.1838 172.902 15.0347 172.902 15.0347V0.875854ZM168.235 16.8006C167.667 17.6205 166.721 18.0935 165.743 18.0304C164.766 18.0935 163.82 17.6205 163.284 16.8006C162.685 15.76 162.401 14.5932 162.464 13.4264C162.432 12.3227 162.716 11.219 163.252 10.2415C163.788 9.39007 164.734 8.88552 165.743 8.94859C166.469 8.94859 167.162 9.20087 167.698 9.67388C168.708 10.746 169.212 12.1966 169.086 13.6787C169.118 14.7824 168.834 15.8546 168.235 16.7691V16.8006ZM83.9123 45.5913C83.9123 46.0958 83.7231 46.6003 83.3447 46.9472C82.9978 47.3256 82.4932 47.5148 81.9572 47.5148H80.002V33.9552C79.8444 31.8739 80.7273 29.8557 82.3671 28.5628C83.8492 27.4907 85.6466 26.9546 87.4756 27.0807C89.3992 27.0492 91.2597 27.806 92.5842 29.1935C93.8771 30.7702 94.5077 32.7884 94.4131 34.8381C94.5077 36.8878 93.9086 38.9376 92.7103 40.6089C91.6697 41.9964 89.9984 42.7847 88.264 42.7532C87.4126 42.7847 86.5296 42.5955 85.7413 42.2486C84.9529 41.8702 84.3222 41.2395 83.9123 40.4827V45.5597V45.5913ZM90.4398 35.0273C90.5029 33.829 90.2191 32.6623 89.5884 31.6532C89.0208 30.8648 88.0748 30.4233 87.1288 30.4549C86.1827 30.4233 85.2682 30.8648 84.7006 31.6532C84.1015 32.6623 83.8177 33.8606 83.9123 35.0273C83.8177 36.1625 84.133 37.2978 84.7637 38.2438C85.3313 39.0322 86.2773 39.4736 87.2234 39.4421C88.1694 39.4736 89.0523 39.0322 89.5884 38.2438C90.2191 37.2978 90.5029 36.1625 90.4398 35.0273ZM120.24 41.5234V40.5458C119.64 41.5549 118.663 42.2802 117.528 42.5324C116.392 42.7847 115.194 42.6901 114.122 42.2486C112.892 41.7441 111.852 40.8611 111.158 39.7259C110.275 38.2753 109.865 36.5725 109.959 34.9012C109.865 32.883 110.432 30.8964 111.568 29.225C112.829 27.7114 114.753 26.9231 116.708 27.0492C118.505 26.8915 120.303 27.4276 121.722 28.5313C123.33 29.8557 124.213 31.8739 124.024 33.9552V41.9333C124.15 45.6228 121.249 48.6816 117.591 48.8077C117.307 48.8077 116.992 48.8077 116.708 48.7762C113.68 48.8708 111.032 46.8526 110.275 43.92H114.374C115.036 45.0236 116.329 45.6228 117.622 45.4021C118.284 45.2444 118.884 44.8344 119.325 44.2984C119.893 43.51 120.208 42.564 120.208 41.5864M113.744 35.0589C113.744 37.6762 114.5 39.0952 115.982 39.379C117.212 39.7574 118.505 39.3475 119.294 38.3384C119.704 37.7708 119.956 37.077 120.019 36.3833C120.145 35.5003 120.145 34.6174 120.019 33.7344C119.893 32.883 119.577 32.0946 119.073 31.4009C118.568 30.7071 117.78 30.3287 116.929 30.3918C115.825 30.2972 114.816 30.8963 114.343 31.8739C113.87 32.883 113.649 33.9867 113.649 35.0904M106.648 28.1213C105.292 27.4591 103.81 27.1438 102.297 27.1438C100.31 26.923 98.3549 27.6799 96.9674 29.0989C96.2737 30.0449 95.8952 31.1486 95.8637 32.3154H99.6478C99.7109 31.8108 99.9001 31.3378 100.184 30.9594C100.72 30.4549 101.414 30.2026 102.139 30.2657C102.801 30.2341 103.432 30.3603 104.031 30.6125C104.473 30.8648 104.725 31.3694 104.662 31.8739C104.662 32.3785 104.315 32.8515 103.81 32.9776C103.337 33.1668 102.833 33.2614 102.328 33.3245L101.004 33.4821C99.8055 33.5768 98.6387 33.9236 97.5666 34.4597C96.1475 35.2481 95.3276 36.7932 95.4222 38.433C95.3592 39.6628 95.8322 40.8611 96.7467 41.7126C97.6927 42.4694 98.891 42.8793 100.121 42.8793C108.603 43.2577 108.509 38.433 108.572 37.3924V31.8108C108.73 30.3287 107.973 28.8782 106.68 28.1529M104.756 36.6356C104.851 37.6447 104.441 38.6537 103.653 39.316C102.959 39.789 102.139 40.0412 101.319 40.0412C100.815 40.0412 100.342 39.8836 99.9631 39.5998C99.5532 39.2214 99.3325 38.6853 99.3955 38.1177C99.364 37.4554 99.7109 36.7932 100.31 36.4779C100.878 36.1941 101.477 36.0364 102.107 35.9418L102.99 35.7841C103.337 35.7211 103.684 35.6265 104.031 35.5319C104.283 35.4373 104.536 35.3111 104.788 35.1535L104.756 36.6356ZM138.813 29.3827C135.66 26.2608 130.583 26.2608 127.429 29.3827C124.938 32.6623 124.938 37.2347 127.429 40.5143C130.614 43.6046 135.628 43.6046 138.813 40.5143C141.304 37.2032 141.304 32.6623 138.813 29.3827ZM135.723 38.3699C134.493 39.8205 132.317 39.9782 130.867 38.7483C130.74 38.6222 130.614 38.4961 130.488 38.3699C129.258 36.2572 129.258 33.6398 130.488 31.527C131.718 30.0765 133.894 29.9188 135.344 31.1486C135.471 31.2748 135.597 31.4009 135.723 31.527C136.921 33.6398 136.921 36.2256 135.723 38.3699Z" fill="#13161D"/>
<path d="M68.6498 25.0626C68.6498 37.5502 53.4188 47.6726 34.656 47.6726C15.8932 47.6726 0.66217 37.5502 0.66217 25.0626C0.66217 12.5751 15.8932 2.42114 34.656 2.42114C53.4188 2.45268 68.6498 12.5751 68.6498 25.0626Z" fill="#13161D"/>
<path d="M67.9875 24.0852C58.685 22.5715 47.0804 27.5539 45.6929 28.09L44.9361 28.4053L45.2514 27.6485C45.7875 26.1349 46.1028 21.9093 45.9136 18.7874C45.6929 15.634 46.8912 12.6067 47.4273 11.2192L47.5219 10.9039C47.9633 9.70561 48.4994 9.70561 49.1301 9.83175C49.3508 9.83175 49.5716 9.95788 49.7923 9.95788C50.7699 9.95788 51.9682 9.51641 52.8196 9.07493C53.2611 8.85419 53.671 8.63344 54.2071 8.63344C54.5224 8.53884 54.8693 8.53885 55.0901 8.41271C55.4054 8.31811 55.7523 8.19197 56.0676 8.19197C57.2659 8.09737 58.1173 7.87663 58.1173 6.99368C58.1173 6.89907 58.1173 6.67834 57.8966 6.5522C57.6759 6.4576 57.3605 6.33146 56.383 6.5522H56.2884C55.8469 6.67834 54.8693 6.86753 55.7523 6.11071C55.7523 5.98458 55.8469 5.98458 55.8469 5.98458C56.1622 5.76384 56.5091 5.22776 56.7298 4.91242C56.8244 4.81782 56.9506 4.59708 56.8244 4.37634C56.7298 3.71412 55.7523 3.08344 54.6486 2.42123C54.4278 2.32662 54.2071 2.10588 53.9864 1.97975C53.4503 1.53827 52.1574 0.560708 51.5898 1.09679C50.833 1.75901 47.9003 4.56555 46.1659 6.52066C44.5892 8.31811 43.2963 10.3363 42.2557 12.4806L41.8142 13.4582C40.8366 15.634 39.323 18.9766 37.8094 22.54L37.1471 24.1482C37.0525 24.369 37.0525 24.4636 36.9264 24.6843C35.6335 27.617 33.8991 31.275 35.0974 33.2301C35.6335 34.0815 36.7057 34.6491 38.3454 34.7437C48.4048 35.5951 50.896 35.4059 56.7614 34.6176C57.8335 34.523 58.8111 34.3022 59.9148 34.0815C60.3563 33.9869 60.7662 33.8607 61.2077 33.8607C61.523 33.8607 61.7438 33.8608 62.0906 33.9554C62.6267 34.1761 62.8475 34.4914 63.0682 34.9329L63.2889 35.2483L63.6043 34.9329C65.4333 32.8832 66.7262 30.6127 67.5145 28.2161C67.8298 26.7971 67.956 25.4096 68.0506 24.7474V23.9906H67.9875V24.0852ZM31.2818 24.0852C31.061 23.5491 30.7457 23.013 30.6196 22.4769C29.1059 18.7874 27.5923 15.4448 26.6147 13.269L26.1733 12.386C24.975 9.89482 23.8082 7.93969 22.263 6.42605C20.5286 4.59708 17.6275 1.66441 16.8392 1.00219C16.1769 0.46611 14.884 1.53827 14.4741 1.88514C14.2534 1.97974 14.0326 2.20049 13.8119 2.32662C12.7397 2.98884 11.7622 3.61952 11.636 4.28174C11.636 4.50248 11.636 4.72321 11.7306 4.81782C11.8252 5.03856 12.046 5.3539 12.2667 5.57464C12.3613 5.66924 12.4874 5.66924 12.582 5.79537H12.7082C13.5596 6.55219 13.465 6.77294 13.3704 6.67833C12.9289 6.45759 12.6136 6.36299 12.2982 6.36299H12.2036C11.1315 6.14225 10.7846 6.26839 10.5954 6.36299C10.3747 6.45759 10.3747 6.67833 10.3747 6.80447C10.3747 7.65589 11.3522 7.87663 12.5505 8.00276C12.8659 8.00276 13.2127 8.09737 13.5281 8.2235C13.8434 8.34964 14.0641 8.44425 14.411 8.44425C14.8525 8.53885 15.3886 8.66498 15.7985 8.88572C16.6815 9.3272 17.8482 9.86328 18.8258 9.73714C19.0465 9.73714 19.2673 9.73714 19.488 9.64254C20.1502 9.54794 20.6863 9.54794 21.0963 10.7147L21.1909 11.03C21.7269 12.4175 22.9252 15.4764 22.7045 18.5982C22.4838 21.7201 22.7991 25.9457 23.3667 27.4593L23.6821 28.2161L22.9252 27.9008C21.7269 27.3647 10.5954 22.4769 1.38743 23.9906H1.16669V25.5988C1.48203 28.6261 2.77493 31.6534 5.17152 34.3653L5.39226 34.6806L5.613 34.3653C5.83374 34.05 6.05448 33.9238 6.36982 33.7031C7.12664 33.4823 7.56812 33.5769 8.54567 33.7977C9.61784 34.0184 10.7215 34.2392 11.6991 34.3338C14.9471 34.7752 17.123 34.996 20.0241 34.996C22.5153 34.996 25.5426 34.7752 30.0835 34.4599C31.6917 34.3653 32.7954 33.7977 33.3315 32.9463C34.5298 30.8965 32.89 27.3332 31.5025 24.2744C31.4079 24.4005 31.4079 24.2113 31.2818 24.0852Z" fill="#13161D"/>
<path d="M62.5637 36.005C62.343 36.0996 62.2484 36.3203 62.0276 36.4465L61.9015 36.5411C61.6808 36.6357 61.5862 36.8564 61.3654 36.9826C61.1447 37.2033 60.9239 37.2979 60.7032 37.5186C60.4825 37.6132 60.2617 37.834 60.1671 37.9601L60.0725 38.0862C59.8518 38.1809 59.631 38.4016 59.5364 38.5277C59.5364 38.5277 59.4418 38.5277 59.4418 38.6539C59.2211 38.7485 59.0004 38.9692 58.7796 39.0953C58.5589 39.2215 58.3381 39.4107 58.1174 39.5368L58.0228 39.6314L57.3606 39.9468C57.3606 39.9468 57.266 39.9468 57.266 40.0414C56.7299 40.3567 56.2884 40.5774 55.7523 40.9243C55.6577 40.9243 55.6577 41.0189 55.6577 41.0189L54.9955 41.3343C54.8694 41.3343 54.8694 41.4289 54.8694 41.4289C54.3333 41.6496 53.7972 41.9649 53.2611 42.1857C53.1665 42.1857 53.1665 42.2803 53.0404 42.2803C52.8197 42.4064 52.5989 42.501 52.3782 42.501C52.2836 42.501 52.2836 42.5956 52.1574 42.5956C51.9367 42.6902 51.6214 42.8164 51.306 42.911C50.9907 43.0056 50.7699 43.1317 50.4231 43.2263C50.3285 43.2263 50.3285 43.2263 50.2023 43.3209C49.9816 43.447 49.7609 43.447 49.5401 43.5416C49.414 43.5416 49.414 43.6362 49.3194 43.6362C49.0986 43.7308 48.7833 43.7309 48.5626 43.857H48.468C48.1526 43.9831 47.9319 44.0777 47.585 44.0777C47.4904 44.0777 47.4904 44.0777 47.3643 44.1723C47.1435 44.2669 46.9228 44.2669 46.6074 44.3931C46.5128 44.3931 46.3867 44.3931 46.3867 44.5192C46.166 44.6138 45.8506 44.6138 45.6299 44.7399H45.4091C45.0938 44.8345 44.7469 44.8345 44.4316 44.9607H44.2108C43.9901 45.0868 43.6748 45.0868 43.454 45.0868C43.3594 45.0868 43.2333 45.0868 43.1387 45.1814C42.9179 45.1814 42.6026 45.276 42.3819 45.276H42.1611C41.8458 45.3706 41.4989 45.3706 41.1836 45.3706H40.9628C40.7421 45.3706 40.4268 45.4652 40.0799 45.4652H39.7645C39.5438 45.4652 39.2285 45.5914 39.0077 45.5914H38.6924C38.377 45.5914 38.0302 45.686 37.7148 45.686H31.881C31.5657 45.686 31.2188 45.686 30.9034 45.5914H30.8088C30.4935 45.5914 30.1466 45.5914 29.8313 45.4652H29.5159C29.2952 45.4652 28.9799 45.4652 28.7591 45.3706H28.4438C28.1284 45.3706 27.7816 45.276 27.4662 45.276H27.3716C27.0563 45.276 26.8355 45.1814 26.4887 45.1814H26.1733C25.9526 45.1814 25.6372 45.0868 25.4165 45.0868H25.2273C24.912 44.9607 24.5651 44.9607 24.2497 44.8661H24.1551C23.9344 44.7715 23.6191 44.7715 23.3983 44.6453C23.3037 44.6453 23.1776 44.6453 23.083 44.5507C22.8622 44.4246 22.6415 44.4246 22.4208 44.33C22.3262 44.33 22.3262 44.33 22.2 44.2354C21.8847 44.1408 21.5378 44.1408 21.3171 44.0147H21.0963C20.8756 43.8885 20.5603 43.8885 20.3395 43.7939C20.2134 43.7939 20.1188 43.6993 20.1188 43.6993C19.898 43.6047 19.6773 43.6047 19.4566 43.4786C19.362 43.4786 19.362 43.4786 19.2358 43.3524C18.9205 43.2578 18.6997 43.1317 18.3529 43.0371C18.2583 43.0371 18.2583 43.0371 18.1321 42.9425C17.9114 42.8164 17.6906 42.7218 17.4699 42.7218C17.3753 42.7218 17.2492 42.6272 17.2492 42.6272C17.0284 42.5326 16.8077 42.4064 16.587 42.4064C16.4923 42.4064 16.4923 42.4064 16.3662 42.2803C16.1455 42.1857 15.8301 42.0595 15.5148 41.9649C15.4202 41.9649 15.4202 41.8703 15.2941 41.8703L14.6318 41.555C14.5372 41.555 14.5372 41.4604 14.4111 41.4604L13.7489 41.1451C13.7489 41.1451 13.6227 41.1451 13.6227 41.0505C13.402 40.9558 13.0867 40.8297 12.8659 40.609C12.7713 40.609 12.7713 40.5144 12.6452 40.5144C12.4244 40.4198 12.2037 40.2936 12.1091 40.199C11.983 40.199 11.983 40.1044 11.8884 40.1044L11.2261 39.7891C11.2261 39.7891 11.1315 39.7891 11.1315 39.663C10.9108 39.5684 10.6901 39.3476 10.4693 39.2215C10.3432 39.2215 10.3432 39.0953 10.2486 39.0953C10.0279 39.0007 9.93325 38.8746 9.71251 38.78C9.61791 38.78 9.61791 38.6854 9.49177 38.6854C9.27103 38.5593 9.0503 38.4647 8.95569 38.2439C8.95569 38.2439 8.86109 38.2439 8.86109 38.1493C8.64035 38.0232 8.41961 37.834 8.19887 37.7078C8.10427 37.7078 8.10427 37.6132 8.10427 37.6132C8.00967 37.4871 7.78893 37.3925 7.66279 37.1717C7.56819 37.1717 7.56819 37.0772 7.44205 37.0772C7.22132 36.951 7.12671 36.7618 6.90597 36.6357C6.68524 36.4149 6.4645 36.3203 6.36989 36.0996C6.27529 36.0996 6.27529 36.005 6.27529 36.005L5.73921 35.4689L5.64461 35.3428C5.86535 35.0274 5.95995 34.9013 6.08609 34.8067C6.52756 34.586 6.7483 34.7121 7.69433 34.9328C8.76649 35.1536 9.87018 35.3743 10.9423 35.4689C16.7762 36.2257 19.3935 36.4465 29.579 35.5635C31.5341 35.3428 32.827 34.6806 33.4892 33.5138C33.5838 33.4192 33.5838 33.2931 33.71 33.0723C33.8361 33.1669 33.8361 33.2931 33.9307 33.5138C34.5929 34.7121 35.9804 35.3428 37.841 35.5635C48.0265 36.4149 50.6123 36.2257 56.4461 35.4689C57.5183 35.3428 58.6219 35.1536 59.6941 34.9328C60.6717 34.7121 60.8924 34.7121 61.3023 34.8067C61.5231 34.9328 61.6177 35.0274 61.9646 35.6897C62.6898 35.8789 62.6898 35.8789 62.5637 36.005C62.5637 35.8789 62.5637 35.8789 62.5637 36.005ZM63.4467 13.805L63.6674 14.0257C63.8881 14.2464 63.9827 14.4672 64.2035 14.6879C64.2981 14.8141 64.2981 14.8141 64.2981 14.9087C64.3927 15.0033 64.5188 15.1294 64.5188 15.224C64.6134 15.3501 64.6134 15.3501 64.6134 15.4447C64.7396 15.5393 64.8342 15.6655 64.8342 15.7601C64.9288 15.8862 64.9288 15.8862 64.9288 15.9808C65.1495 16.4223 65.4649 16.7376 65.6856 17.1791C65.6856 17.2737 65.8117 17.2737 65.8117 17.3999C65.9063 17.526 65.9063 17.6206 66.0325 17.7152C66.0325 17.8098 66.1271 17.8098 66.1271 17.9359C66.2217 18.0621 66.2217 18.1567 66.3478 18.2513C66.3478 18.3459 66.4424 18.3459 66.4424 18.472C66.537 18.6928 66.6631 19.0081 66.7578 19.2288C66.7578 19.3234 66.7578 19.3234 66.8839 19.3234C66.8839 19.418 66.9785 19.5442 66.9785 19.6388C66.9785 19.7334 67.0731 19.8595 67.0731 19.8595C67.0731 19.9541 67.1677 20.0803 67.1677 20.1749C67.1677 20.2695 67.2623 20.3956 67.2623 20.3956C67.2623 20.4902 67.3884 20.6163 67.3884 20.7109C67.3884 20.8055 67.3884 20.9317 67.483 20.9317C67.5776 21.1524 67.5776 21.3732 67.5776 21.5939C67.5776 21.6885 67.5776 21.8146 67.6722 21.8146C67.6722 21.9092 67.6722 22.0354 67.7668 22.13V22.7922C64.7396 22.3507 59.9779 22.3507 53.1665 24.2112C50.8015 25.1888 48.6256 25.8195 46.3552 26.797C46.7966 24.6212 46.8913 21.2786 46.6705 18.7874C46.4498 15.9808 47.5535 13.1743 48.1842 11.6291L48.2788 11.3138C48.4049 11.093 48.4049 10.8723 48.5941 10.7777H48.9094C49.1302 10.7777 49.4455 10.8723 49.6663 10.8723C51.0853 10.9984 52.6935 10.1155 53.135 9.89473C53.4503 9.67399 53.8918 9.57939 54.3333 9.45325C54.6486 9.35865 54.9955 9.23251 55.4055 9.13791C55.6262 9.04331 55.8469 9.04331 56.1623 9.04331C56.4776 9.04331 56.9191 8.9487 57.3606 8.82257C59.7572 10.3362 61.8069 11.976 63.4467 13.805ZM51.9682 1.25437C52.2836 1.03364 53.0404 1.34898 54.018 2.1058C54.2387 2.32654 54.4594 2.42114 54.6802 2.54728C55.3424 2.98875 56.6353 3.74557 56.7299 4.28165C56.7299 4.37626 56.7299 4.50239 56.6353 4.59699V4.6916C56.4146 5.00694 56.0992 5.57455 55.8785 5.66915L55.6577 5.8899C55.2163 6.33137 54.5856 6.77285 54.3648 6.77285C53.7026 6.67825 53.2927 6.55211 52.7566 6.33137C53.0719 5.03847 53.5134 5.35381 54.3648 5.79529C54.3648 5.57455 54.2702 5.47995 54.2702 5.25921L54.9325 4.94387L54.1756 4.84927C54.081 4.31319 54.081 3.87171 54.081 3.33563C53.8603 3.65097 53.8603 3.99785 53.7657 4.21859C53.6711 4.43933 53.4504 4.66006 53.3242 4.75467L52.8827 4.31319C52.662 4.09245 52.3467 3.87171 52.1259 3.77711C52.1259 3.87171 52.0313 3.87171 52.0313 3.87171C52.7881 4.94387 52.7881 5.16461 51.9367 6.14217C51.1799 6.99359 50.4231 7.65581 49.6663 8.41263C50.2023 8.72797 50.8646 8.50723 51.6214 7.75041C52.5989 6.67825 52.5989 6.67824 53.8918 7.21432L54.1126 7.30893C54.6486 7.52967 54.964 7.21433 55.5001 6.99359C55.8154 6.89899 56.2569 6.67825 56.5722 6.67825H56.6984C57.4552 6.55211 57.8967 6.55211 57.9913 6.67825C57.9913 6.67825 58.0859 6.77285 58.0859 6.89898C58.0859 7.43506 57.6444 7.65581 56.2569 7.78194C55.9415 7.78194 55.5947 7.87654 55.1847 8.00268C54.8694 8.09728 54.6486 8.22342 54.3018 8.22342C53.7657 8.34956 53.3242 8.44416 52.9143 8.7595C52.0313 9.20098 50.9592 9.64246 50.1077 9.64246C49.887 9.64246 49.6663 9.64246 49.5717 9.54786C48.8148 9.45326 48.1842 9.45325 47.6165 10.8407L47.5219 11.1561C46.9859 12.6697 45.7876 15.697 45.9137 18.8504C46.1344 22.0038 45.7876 26.2294 45.2515 27.6169L44.4947 29.0359L45.9137 28.3737C46.0083 28.2476 58.3697 22.8553 67.9876 24.3689V24.8104C67.893 25.6933 67.7668 26.9862 67.4515 28.2791C66.7893 30.6757 65.4964 32.9462 63.6674 34.9013C63.4467 34.3652 63.1313 34.0183 62.4691 33.8291C62.1538 33.703 61.8069 33.6084 61.4916 33.6084C61.0501 33.6084 60.514 33.703 60.1041 33.8291C59.0319 34.0499 58.0543 34.2706 56.9506 34.3652C51.2114 35.122 48.6256 35.3428 38.5347 34.4598C37.0211 34.3652 36.0435 33.7976 35.5074 33.0408C34.4353 31.2118 36.0435 27.6169 37.3364 24.7158C37.6517 23.9589 37.9986 23.2021 38.314 22.5399C39.9222 18.5351 41.562 14.9717 42.5395 12.8905L42.7603 12.449C43.9586 9.9578 45.1253 8.12882 46.5444 6.48904C48.2788 4.72313 51.2114 1.88506 51.9682 1.25437ZM34.656 3.2095C38.9762 3.2095 43.1072 3.74557 46.7651 4.72313C46.3236 5.16461 46.0083 5.47995 45.693 5.92143C44.0216 7.78195 42.6657 9.89473 41.6881 12.1967L41.4674 12.6382C40.4898 14.8141 38.7554 18.3774 37.2418 22.3822C37.0211 23.0445 36.7057 23.6751 36.3589 24.432C35.602 26.0402 34.8452 27.8061 34.4037 29.509C33.9623 27.7746 33.1108 26.0402 32.4486 24.432L31.5657 22.3822C29.9574 18.3774 28.3176 14.8141 27.3401 12.6382L27.1194 12.1967C25.9211 9.61092 24.6282 7.65581 23.1145 5.92143C22.7992 5.60609 22.4523 5.25921 22.137 4.84927C25.8895 3.74557 30.0836 3.2095 34.656 3.2095ZM10.8162 6.77285C10.9108 6.67825 11.4784 6.67825 12.1091 6.77285H12.3298L13.3074 7.08819C13.8435 7.40353 14.1588 7.62427 14.6949 7.40353C14.7895 7.40353 14.9156 7.30893 14.9156 7.30893C16.2085 6.86745 16.2085 6.86745 17.1861 7.84501C17.9429 8.69643 18.5736 8.82257 19.1412 8.50723C18.3844 7.75041 17.533 6.99359 16.8708 6.23677C16.0193 5.25922 16.0193 4.94387 16.7762 3.96631C16.7762 3.84018 16.6816 3.84018 16.6816 3.84018C16.4608 4.06092 16.1455 4.15552 15.9247 4.37626L15.4833 4.81773C15.2625 4.59699 15.0418 4.50239 15.0418 4.28165C14.9472 4.06091 14.9472 3.74557 14.7264 3.43023C14.7264 3.87171 14.6318 4.40779 14.6318 4.94387L13.875 5.16461L14.5372 5.47995L14.4426 5.92143C15.1995 5.38535 15.7355 5.07 16.0509 6.45751C15.5148 6.67825 14.9787 6.67824 14.4426 6.89898C14.2219 6.99359 13.5597 6.45751 13.0236 6.01603C13.0236 5.92143 12.929 5.92143 12.929 5.92143L12.6137 5.60609C12.3929 5.38535 12.2983 5.07001 12.1722 4.94387V4.84927C12.0776 4.75467 12.0776 4.62853 12.0776 4.53393C12.1722 3.99785 13.4966 3.11489 14.1273 2.79955C14.348 2.70495 14.5688 2.48421 14.7895 2.35807C15.6725 1.60125 16.5239 1.15978 16.8392 1.47512C17.596 2.13733 20.4026 4.94387 22.2631 6.77285C23.6821 8.28649 24.8489 10.2416 26.0472 12.7328L26.2679 13.1743C27.2455 15.3501 28.9799 18.9135 30.4935 22.7922C30.7142 23.4544 31.0296 24.2112 31.4711 24.968C32.764 27.9007 34.4037 31.4641 33.3 33.2931C32.8586 34.1445 31.7864 34.586 30.2728 34.7121C20.2134 35.595 17.7222 35.3743 11.8568 34.6175C10.7847 34.5229 9.80711 34.3021 8.70342 34.0814C7.72586 33.8607 7.18978 33.7661 6.33836 33.9868C5.89688 34.0814 5.67614 34.4283 5.4554 34.7436C3.27955 32.1578 1.89205 29.2252 1.54517 26.0717V24.6527C11.1946 23.0445 22.8622 28.4368 22.9884 28.5629L24.4074 29.2252L23.8713 27.8061C23.3353 26.3871 22.9884 22.1615 23.2091 19.0396C23.4299 15.9177 22.2316 12.8589 21.6009 11.3453L21.5063 11.03C20.9702 9.61092 20.308 9.61092 19.5512 9.73705C19.3304 9.73705 19.1097 9.83166 19.0151 9.83166C18.1321 9.83166 16.9654 9.39018 16.2085 8.98024C15.7671 8.7595 15.231 8.53876 14.7895 8.44416C14.4742 8.34956 14.2534 8.34956 13.9381 8.22342C13.6227 8.12882 13.2759 8.00268 12.8659 8.00268C11.4469 7.78194 11.0369 7.5612 11.0369 7.11973C10.7216 6.86745 10.7216 6.77285 10.8162 6.77285ZM11.6992 8.91718C11.9199 9.01178 12.2352 9.01177 12.456 9.01177C12.6767 9.01177 12.9921 9.10637 13.2128 9.10637C13.5281 9.20097 13.875 9.32711 14.285 9.42171C14.7264 9.51632 15.0418 9.64246 15.4833 9.8632C15.9247 10.0839 17.533 10.9354 18.952 10.8407C19.1728 10.8407 19.4881 10.8408 19.7088 10.7462H20.0242C20.0242 10.7462 20.1188 10.8408 20.3395 11.2822L20.4341 11.5976C20.9702 13.1112 22.1685 15.9177 21.9478 18.7558C21.727 21.247 21.8216 24.5896 22.2631 26.7655C19.0151 25.3465 9.71251 22.0038 1.4821 23.2967C1.57671 22.4453 1.70284 21.6885 1.92358 20.8055V20.7109C1.92358 20.5848 2.01818 20.4902 2.01818 20.3956C2.01818 20.301 2.11279 20.1749 2.11279 20.0803V19.9856C2.33353 19.3234 2.64887 18.5981 2.99574 17.9359C2.99574 17.9359 2.99574 17.8413 3.09034 17.8413C3.09034 17.8413 3.09034 17.7467 3.18495 17.7467C3.27955 17.6521 3.27955 17.526 3.40569 17.4314C4.98239 14.1203 7.91507 11.3138 11.6992 8.91718ZM58.7796 8.16035C59.0004 7.84501 59.2211 7.49813 59.2211 7.08819C59.2211 6.64671 59.0004 6.23677 58.685 5.8899C58.3697 5.66916 58.0228 5.57455 57.6129 5.57455C57.6129 5.57455 57.6129 5.44842 57.739 5.44842C57.9597 5.13307 58.0543 4.6916 57.9597 4.25012C57.739 3.17796 56.3515 2.295 55.3739 1.66432C55.1532 1.56972 54.9325 1.44358 54.8378 1.34898C52.8827 -0.259263 51.8106 -0.0700548 51.2745 0.371423C50.7384 0.812901 49.4455 2.1058 48.0265 3.52484C43.8955 2.45268 39.3546 1.79046 34.7191 1.79046C29.8628 1.79046 25.1958 2.45267 20.9702 3.61943C19.5512 2.2004 18.1637 0.907503 17.596 0.371423C17.06 -0.0700548 15.8617 -0.385399 14.0327 1.34898C13.9381 1.44358 13.7173 1.56972 13.4966 1.66432C12.519 2.2004 11.1 3.08335 10.9108 4.25012C10.8162 4.6916 10.9108 5.13307 11.1315 5.44842C11.1315 5.44842 11.1315 5.57455 11.2577 5.57455C10.8162 5.57455 10.5009 5.66916 10.1855 5.8899C9.87018 6.20524 9.64944 6.55211 9.64944 7.08819C9.64944 7.75041 9.87018 8.06575 10.1855 8.38109C3.91023 12.3859 0 18.1251 0 24.3058V25.7249C0 38.9377 13.5281 49.6593 34.656 49.6593C55.8785 49.6593 69.312 38.9377 69.312 25.7249V24.432C69.2805 18.0305 65.2756 12.2913 58.7796 8.16035Z" fill="white"/>
</svg>
