<svg width="188" height="50" viewBox="0 0 188 50" fill="none" xmlns="http://www.w3.org/2000/svg">
<path d="M60.1494 9.93555C59.7636 9.93555 59.4359 10.2155 59.3756 10.5968L54.9103 38.9091C54.8941 39.0125 54.9004 39.1182 54.929 39.2189C54.9575 39.3196 55.0075 39.413 55.0756 39.4925C55.1436 39.5721 55.2281 39.636 55.3232 39.6798C55.4183 39.7236 55.5218 39.7463 55.6265 39.7463H60.922C61.3072 39.7463 61.6354 39.4657 61.6957 39.085L63.0074 30.7709C63.0672 30.3902 63.3954 30.1097 63.7812 30.1097H68.5957C74.2211 30.1097 78.9964 26.006 79.8687 20.4454C80.7481 14.8377 76.3664 9.94772 70.156 9.93555H60.1494ZM65.2971 16.2559H69.1492C72.3205 16.2559 73.3533 18.1268 73.0268 20.1958C72.7002 22.2692 71.0963 23.7965 68.0285 23.7965H64.1077L65.2971 16.2559ZM90.6391 18.1805C89.3019 18.1855 87.7633 18.4594 86.0359 19.1787C82.0737 20.8299 80.1709 24.2425 79.3628 26.7303C79.3628 26.7303 76.7909 34.3207 82.6017 38.4907C82.6017 38.4907 87.9908 42.5053 94.0573 38.2434L93.9526 38.9091C93.9364 39.0124 93.9428 39.118 93.9713 39.2186C93.9997 39.3193 94.0496 39.4126 94.1176 39.4921C94.1855 39.5717 94.2698 39.6356 94.3648 39.6794C94.4598 39.7233 94.5631 39.7461 94.6677 39.7463H99.6948C100.081 39.7463 100.408 39.4657 100.469 39.085L103.526 19.6967C103.543 19.5933 103.537 19.4875 103.508 19.3868C103.48 19.286 103.43 19.1925 103.362 19.1129C103.294 19.0332 103.21 18.9692 103.115 18.9253C103.02 18.8813 102.916 18.8585 102.811 18.8583H97.7843C97.3985 18.8583 97.0703 19.1389 97.0105 19.5196L96.8462 20.5632C96.8462 20.5632 94.6511 18.1656 90.6391 18.1805ZM90.8034 24.3044C91.3807 24.3044 91.9087 24.3841 92.3825 24.5363C94.5515 25.2324 95.7813 27.3158 95.4254 29.574C94.9865 32.3546 92.7057 34.402 89.7807 34.402C89.204 34.402 88.6759 34.3229 88.2016 34.1707C86.0331 33.4746 84.7956 31.3912 85.1515 29.133C85.5904 26.3524 87.8784 24.3044 90.8034 24.3044Z" fill="#13161D"/>
<path d="M132.542 9.93555C132.156 9.93555 131.829 10.2155 131.768 10.5968L127.303 38.9091C127.287 39.0125 127.293 39.1182 127.322 39.2189C127.35 39.3196 127.4 39.413 127.468 39.4925C127.536 39.5721 127.621 39.636 127.716 39.6798C127.811 39.7236 127.915 39.7463 128.019 39.7463H133.315C133.7 39.7463 134.028 39.4657 134.089 39.085L135.4 30.7709C135.46 30.3902 135.788 30.1097 136.174 30.1097H140.989C146.614 30.1097 151.389 26.006 152.26 20.4454C153.14 14.8377 148.759 9.94772 142.549 9.93555H132.542ZM137.69 16.2559H141.542C144.713 16.2559 145.746 18.1268 145.42 20.1958C145.093 22.2692 143.49 23.7965 140.421 23.7965H136.501L137.69 16.2559ZM163.031 18.1805C161.694 18.1855 160.156 18.4594 158.428 19.1787C154.466 20.8299 152.563 24.2425 151.755 26.7303C151.755 26.7303 149.184 34.3207 154.995 38.4907C154.995 38.4907 160.383 42.5053 166.45 38.2434L166.345 38.9091C166.329 39.0125 166.336 39.1182 166.364 39.2189C166.393 39.3196 166.443 39.413 166.511 39.4925C166.579 39.5721 166.663 39.636 166.758 39.6798C166.854 39.7236 166.957 39.7463 167.062 39.7463H172.088C172.474 39.7463 172.802 39.4657 172.862 39.085L175.921 19.6967C175.937 19.5932 175.931 19.4873 175.903 19.3865C175.874 19.2856 175.824 19.1921 175.756 19.1124C175.688 19.0328 175.604 18.9688 175.508 18.9249C175.413 18.881 175.31 18.8583 175.205 18.8583H170.178C169.792 18.8583 169.464 19.1389 169.404 19.5196L169.24 20.5632C169.24 20.5632 167.043 18.1656 163.031 18.1805ZM163.196 24.3044C163.773 24.3044 164.301 24.3841 164.775 24.5363C166.944 25.2324 168.174 27.3158 167.818 29.574C167.379 32.3546 165.098 34.402 162.173 34.402C161.596 34.402 161.068 34.3229 160.594 34.1707C158.425 33.4746 157.188 31.3912 157.544 29.133C157.983 26.3524 160.271 24.3044 163.196 24.3044Z" fill="#13161D"/>
<path d="M105.912 18.8582C105.513 18.8582 105.23 19.2472 105.352 19.6263L110.863 36.7254L105.88 44.7833C105.638 45.1745 105.919 45.6798 106.379 45.6798H112.269C112.437 45.6796 112.603 45.636 112.75 45.5533C112.896 45.4705 113.019 45.3513 113.106 45.2072L128.499 19.7491C128.735 19.3579 128.453 18.8577 127.996 18.8577H122.106C121.936 18.8578 121.769 18.9022 121.621 18.9865C121.474 19.0709 121.35 19.1922 121.264 19.3385L115.205 29.5656L112.129 19.4143C112.029 19.084 111.724 18.8577 111.38 18.8577L105.912 18.8582Z" fill="#13161D"/>
<path d="M181.633 9.93555C181.248 9.93555 180.919 10.2161 180.859 10.5968L176.393 38.908C176.376 39.0115 176.382 39.1173 176.411 39.2181C176.439 39.319 176.489 39.4125 176.557 39.4922C176.625 39.5719 176.71 39.6358 176.805 39.6797C176.9 39.7236 177.004 39.7463 177.109 39.7463H182.404C182.79 39.7463 183.118 39.4657 183.178 39.085L187.643 10.7728C187.66 10.6694 187.653 10.5638 187.625 10.4632C187.596 10.3625 187.546 10.2692 187.478 10.1897C187.411 10.1102 187.326 10.0463 187.231 10.0024C187.136 9.95852 187.033 9.93572 186.928 9.93555H181.633Z" fill="#13161D"/>
<path d="M16.0019 9.93555C15.6608 9.93583 15.3309 10.0577 15.0716 10.2793C14.8123 10.501 14.6406 10.8078 14.5872 11.1446L12.2367 26.0497C12.3463 25.3536 12.9462 24.8406 13.6513 24.8406H20.5392C27.4713 24.8406 33.3535 19.7847 34.4283 12.9331C34.5083 12.4215 34.5536 11.9052 34.5639 11.3875C32.8023 10.464 30.7328 9.93555 28.4653 9.93555H16.0019Z" fill="#F9FAFC"/>
<path d="M34.5639 11.3879C34.5536 11.9056 34.5082 12.4219 34.4283 12.9335C33.3534 19.7851 27.4707 24.841 20.5391 24.841H13.6513C12.9467 24.841 12.3462 25.3534 12.2366 26.0501L10.0754 39.7467L8.7216 48.3391C8.69518 48.5051 8.70508 48.6749 8.75065 48.8367C8.79622 48.9985 8.87638 49.1485 8.98556 49.2763C9.09474 49.4042 9.23036 49.5068 9.38306 49.5771C9.53576 49.6475 9.70191 49.6839 9.87004 49.6838H17.3462C17.6873 49.6835 18.0172 49.5616 18.2765 49.34C18.5358 49.1184 18.7075 48.8116 18.7608 48.4747L20.7301 35.9872C20.7834 35.6502 20.9554 35.3432 21.2149 35.1216C21.4744 34.8999 21.8045 34.7781 22.1458 34.7781H26.5475C33.4797 34.7781 39.3618 29.7222 40.4367 22.8705C41.1999 18.0077 38.7503 13.5825 34.5639 11.3879Z" fill="#13161D"/>
<path d="M7.50841 0C6.80386 0 6.20337 0.512404 6.09378 1.20797L0.227055 38.4021C0.115809 39.1082 0.661538 39.7467 1.37661 39.7467H10.0765L12.2367 26.0502L14.5872 11.1451C14.6405 10.8082 14.8123 10.5014 15.0716 10.2798C15.3309 10.0582 15.6607 9.93627 16.0019 9.93599H28.4653C30.7334 9.93599 32.8022 10.465 34.5639 11.388C34.6846 5.15005 29.5362 0 22.458 0H7.50841Z" fill="#13161D"/>
</svg>
