<svg width="170" height="36" viewBox="0 0 170 36" fill="none" xmlns="http://www.w3.org/2000/svg">
<path d="M25.4704 25.9611C25.0536 26.1834 24.6646 26.3779 24.3034 26.5446C22.5528 27.406 20.6911 27.6561 18.7739 27.3504C16.7732 27.017 15.7451 25.7388 15.6895 23.627C15.6617 21.932 16.1063 20.3204 16.4676 18.7087C17.1344 15.7911 17.8013 12.8735 18.4682 9.95593C18.6349 9.23348 18.9128 9.01119 19.663 9.01119C20.7189 9.01119 21.8026 9.01119 22.8585 9.01119C23.7199 9.01119 23.8866 9.2057 23.6921 10.0671C23.053 12.8735 22.3861 15.6522 21.747 18.4587C21.5247 19.4868 21.3024 20.4871 21.1357 21.5152C20.969 22.4599 21.4414 22.9879 22.3861 23.0713C23.6921 23.2102 24.8314 22.71 25.9428 22.1543C26.0818 22.0987 26.1651 21.8486 26.2207 21.6819C27.1376 17.7918 28.0268 13.8739 28.916 9.98372C29.1105 9.17791 29.3328 8.9834 30.1386 8.9834C31.2501 8.9834 32.3338 8.9834 33.4452 8.9834C34.1121 8.9834 34.3066 9.23348 34.1677 9.87258C33.6675 12.0677 33.1674 14.2629 32.6672 16.458C31.9447 19.6257 31.1945 22.7934 30.4721 25.9889C30.222 27.0448 30.083 27.1837 29.0271 27.1837C28.1102 27.1837 27.221 27.1837 26.304 27.1837C25.4704 27.1837 25.3871 27.0448 25.526 26.2389C25.4982 26.1834 25.4704 26.1 25.4704 25.9611Z" fill="black"/>
<path d="M5.63086 8.20545C4.01924 8.20545 2.49097 8.20545 0.962701 8.20545C-0.00983334 8.20545 -0.120982 8.06652 0.101312 7.09399C0.295819 6.26039 0.490327 5.399 0.684834 4.5654C0.851554 3.81515 1.07385 3.64844 1.87966 3.64844C4.32489 3.64844 6.74233 3.64844 9.18756 3.64844C11.7717 3.64844 14.3281 3.64844 16.9123 3.64844C17.8014 3.64844 17.9404 3.81515 17.7459 4.70433C17.5514 5.5935 17.3291 6.51047 17.1346 7.39964C16.9956 8.01095 16.7178 8.23324 16.0787 8.23324C14.606 8.23324 13.1333 8.23324 11.6606 8.23324C11.2994 8.23324 11.1326 8.34438 11.0493 8.70561C9.71551 14.5964 8.35396 20.4872 6.99241 26.3502C6.82569 27.0448 6.57561 27.2393 5.90873 27.2671C4.65833 27.2671 3.43571 27.2671 2.18531 27.2671C1.54622 27.2671 1.35171 27.017 1.49065 26.4057C2.57433 21.6542 3.6858 16.8749 4.76948 12.1234C5.04734 10.7896 5.32521 9.53922 5.63086 8.20545Z" fill="black"/>
<path d="M61.2043 27.6284C59.4816 27.3783 57.7866 27.1282 56.0638 26.8504C55.3136 26.7114 55.2302 26.5169 55.4247 25.7667C55.5914 25.0165 55.7581 24.294 55.9527 23.5438C56.0916 22.988 56.3972 22.7935 56.953 22.8491C58.5646 22.988 60.1762 23.1547 61.7601 23.2659C62.1769 23.2937 62.6215 23.2381 63.0383 23.1825C63.6496 23.0992 64.0664 22.7379 64.2331 22.1266C64.372 21.5431 64.0108 21.2097 63.594 20.9596C62.3436 20.0982 61.0654 19.2646 59.7872 18.4032C58.8425 17.7641 58.1756 16.9027 57.9811 15.7635C57.5643 13.1237 59.0925 10.484 61.5934 9.48369C63.1494 8.87238 64.761 8.76123 66.4004 8.78902C67.9843 8.84459 69.5403 9.06688 71.0686 9.4559C71.5688 9.59483 71.7355 9.8727 71.6243 10.3451C71.4298 11.1787 71.2631 12.0123 71.0408 12.8181C70.9019 13.346 70.5129 13.485 70.0127 13.4294C68.54 13.2905 67.0951 13.1793 65.6224 13.0682C65.15 13.0404 64.6777 13.0682 64.1775 13.096C63.6774 13.1237 63.3439 13.4016 63.2328 13.9018C63.1216 14.3464 63.3995 14.5964 63.7051 14.8187C64.9555 15.6523 66.2337 16.4859 67.4563 17.3195C68.8457 18.2643 69.7349 19.5147 69.5403 21.293C69.4014 22.6546 68.9013 23.905 67.9565 24.9331C66.6227 26.4058 64.9278 27.1005 63.0105 27.3783C62.3992 27.4617 61.7879 27.4895 61.1488 27.5173C61.2321 27.5728 61.2321 27.6006 61.2043 27.6284Z" fill="black"/>
<path d="M42.9761 9.98384C43.9764 9.62262 45.0323 9.2336 46.116 8.90016C46.505 8.78902 46.9496 8.76123 47.3664 8.76123C47.8109 8.76123 48.061 9.0391 47.9499 9.48369C47.7276 10.4562 47.5053 11.401 47.283 12.3735C47.1719 12.8737 46.894 13.096 46.3938 13.096C45.0601 13.0682 43.8097 13.4572 42.5871 13.9296C42.2258 14.0685 42.0313 14.2908 41.948 14.6798C41.0588 18.5421 40.1696 22.4045 39.2804 26.2668C39.1137 26.9893 38.8914 27.1838 38.1412 27.1838C37.0297 27.1838 35.9182 27.1838 34.779 27.1838C34.0843 27.1838 33.9176 26.9337 34.0565 26.2391C35.3069 20.7651 36.5851 15.2633 37.8355 9.78934C37.9745 9.23361 38.2245 9.01131 38.8081 9.01131C39.864 9.01131 40.9476 9.01131 42.0035 9.01131C43.0039 9.0391 43.0872 9.12246 42.9761 9.98384Z" fill="black"/>
<path d="M55.1745 12.1233C54.8966 13.3181 54.6466 14.4018 54.3965 15.4577C53.5629 19.0422 52.7571 22.6267 51.9235 26.2111C51.729 27.017 51.5345 27.2115 50.7008 27.2115C49.645 27.2115 48.5613 27.2115 47.5054 27.2115C46.6996 27.2115 46.5328 26.9892 46.6996 26.2111C47.4776 22.7934 48.2834 19.3756 49.0614 15.9856C49.2559 15.1243 49.4505 14.2629 49.6727 13.4015C49.7005 13.2348 49.9228 13.0125 50.0618 13.0402C51.7845 13.0402 53.4795 12.8735 55.1745 12.1233Z" fill="black"/>
<path d="M142.064 28.3231C142.258 27.8507 142.397 27.5451 142.536 27.2394C142.703 26.9338 142.897 26.6281 143.119 26.2113C142.897 26.3225 142.786 26.3503 142.675 26.4058C141.008 27.3228 139.201 27.6562 137.34 27.3506C135.395 27.0449 134.255 25.8779 134.255 23.8772C134.228 21.821 134.756 19.9038 136.312 18.4033C137.423 17.3196 138.84 16.8194 140.341 16.6249C141.786 16.4582 143.231 16.4304 144.703 16.3748C145.12 16.3748 145.315 16.2637 145.37 15.8469C145.426 15.4857 145.537 15.1244 145.592 14.7632C145.731 13.7351 145.287 13.1238 144.231 13.1238C142.48 13.1238 140.73 13.2072 138.951 13.2627C138.868 13.2627 138.812 13.2905 138.729 13.2905C137.729 13.4017 137.618 13.2627 137.812 12.2902C137.951 11.6233 138.118 10.9842 138.257 10.3173C138.368 9.87275 138.618 9.53931 139.09 9.45595C141.619 8.928 144.175 8.56678 146.759 8.95579C147.426 9.06694 148.093 9.26144 148.677 9.53931C150.261 10.2618 151.011 11.7345 150.844 13.6795C150.789 14.3186 150.705 14.9577 150.538 15.569C149.955 17.7364 150.594 19.5703 152.067 21.1542C153.039 22.1823 154.234 22.8769 155.568 23.3215C155.651 23.3493 155.735 23.3771 155.818 23.4049C155.846 23.4049 155.846 23.4604 155.901 23.5438C153.539 23.4327 151.261 23.0992 149.066 22.0433C148.927 22.7102 148.788 23.2937 148.621 23.9328C149.066 23.9884 149.427 23.9884 149.788 24.044C151.317 24.3774 152.817 24.8498 154.345 25.0721C158.291 25.6556 161.82 24.6831 164.654 21.7655C166.349 20.0149 167.099 16.3471 165.488 13.9574C164.46 12.4291 162.181 11.401 160.542 11.8178C159.541 12.0679 158.819 12.7348 158.347 13.624C157.846 14.5131 158.041 15.4301 158.763 16.2081C159.041 16.5138 159.375 16.8194 159.569 17.1806C159.708 17.4307 159.791 17.9309 159.653 18.0698C159.458 18.2643 158.986 18.3477 158.708 18.2365C157.958 17.9865 157.569 17.3752 157.402 16.6249C157.346 16.347 157.235 16.0414 157.068 15.8191C156.763 15.4023 156.318 15.4023 156.124 15.8469C155.901 16.4026 155.762 17.0695 155.846 17.6252C156.318 20.2372 158.847 21.2097 161.125 19.8204C162.014 19.2646 162.264 18.0976 161.764 17.0139C161.598 16.6527 161.375 16.3471 161.181 16.0136C161.042 15.7913 160.875 15.6246 160.736 15.4023C160.292 14.7076 160.264 14.3464 160.597 14.013C160.986 13.5962 161.848 13.485 162.376 13.8185C163.543 14.5409 164.098 15.6802 164.293 16.9861C164.654 19.0701 163.682 20.5428 162.014 21.6543C157.819 24.4052 153.401 21.2375 152.817 17.264C152.345 13.9852 153.595 11.3732 156.318 9.45595C159.041 7.53867 161.903 7.51088 164.821 8.92801C167.294 10.1506 168.905 12.0679 169.461 14.8188C169.934 17.1529 169.517 19.3758 168.6 21.5154C166.849 25.5444 163.487 27.5451 159.458 28.6566C157.652 29.1567 155.818 29.3234 153.984 28.8788C153.095 28.6566 152.233 28.3231 151.344 28.1008C148.677 27.3506 145.981 27.0727 143.286 27.9341C142.925 27.9897 142.591 28.1286 142.064 28.3231ZM144.592 19.4592C143.203 19.5425 141.925 19.6537 140.702 20.1816C140.063 20.4595 139.535 20.9041 139.174 21.5432C138.646 22.5157 139.035 23.3771 140.091 23.516C141.286 23.6827 142.425 23.4882 143.508 23.0159C143.647 22.9603 143.814 22.8214 143.842 22.7102C144.092 21.6543 144.342 20.5984 144.592 19.4592Z" fill="black"/>
<path d="M80.2659 10.2895C80.8494 10.0117 81.3495 9.76159 81.8775 9.5393C83.239 8.92799 84.6839 8.67791 86.1844 8.84463C87.0458 8.92799 87.8238 9.23364 88.3518 9.9561C88.6019 10.2895 88.8242 10.2618 89.1298 10.095C90.6581 9.317 92.2419 8.78906 93.9647 8.78906C94.9372 8.78906 95.9098 8.84464 96.799 9.37258C97.9382 10.0395 98.3828 11.1231 98.3272 12.3458C98.2994 13.5962 98.1327 14.8466 97.8826 16.0692C97.1602 19.4591 96.3266 22.8491 95.5485 26.2391C95.3818 26.9338 95.104 27.1561 94.4093 27.1561C93.2978 27.1561 92.2141 27.1561 91.1027 27.1561C90.408 27.1561 90.2413 26.9616 90.408 26.2669C91.186 22.8769 91.9641 19.4869 92.7421 16.097C92.881 15.5134 92.9922 14.9021 93.02 14.3186C93.0477 13.5962 92.7143 13.2349 91.9918 13.1238C91.0193 12.9849 90.0746 13.2349 89.1854 13.5684C89.0742 13.6239 88.9631 13.8184 88.9353 13.9852C88.0183 18.0142 87.1014 22.0433 86.1844 26.0724C85.9621 27.0171 85.8232 27.1561 84.8507 27.1561C83.8226 27.1561 82.7945 27.1561 81.7663 27.1561C81.0161 27.1561 80.8494 26.9338 81.0161 26.2113C81.8497 22.6268 82.6555 19.0146 83.4891 15.4301C83.5725 15.0411 83.628 14.6521 83.628 14.263C83.6558 13.5128 83.3502 13.2071 82.5999 13.1238C81.5718 13.0126 80.6549 13.485 79.7657 13.874C79.6546 13.9296 79.5712 14.1519 79.5434 14.3186C78.7098 17.9587 77.8484 21.5987 77.0148 25.2666C76.9315 25.6556 76.8203 26.0724 76.7092 26.4614C76.5702 26.9338 76.2924 27.1838 75.7922 27.1838C74.6252 27.1838 73.4581 27.1838 72.2633 27.1838C71.652 27.1838 71.4853 26.9338 71.6242 26.3225C72.8746 20.9041 74.125 15.4579 75.3754 10.0395C75.5699 9.20586 75.7644 9.03914 76.598 9.03914C77.5706 9.03914 78.5431 9.03914 79.5156 9.03914C80.2936 9.03914 80.4326 9.20586 80.2659 9.98389C80.3214 10.0672 80.2937 10.1228 80.2659 10.2895Z" fill="black"/>
<path d="M108.803 33.7971C109.358 32.0188 110.331 30.685 111.97 29.907C113.193 29.3235 114.527 29.2123 115.861 29.2957C116.889 29.379 117.917 29.4068 118.945 29.518C120.251 29.6569 121.223 29.1845 121.835 27.9897C122.001 27.6563 122.168 27.3228 122.363 26.9338C122.057 26.9338 121.807 26.9338 121.585 26.9338C120.751 26.9338 120.251 26.5726 119.973 25.7945C119.834 25.4055 119.723 24.9609 119.695 24.5441C119.389 20.0983 119.112 15.6524 118.834 11.2065C118.806 10.7342 118.75 10.2618 118.75 9.76162C118.723 9.28925 118.973 9.01138 119.445 9.01138C120.834 9.01138 122.252 9.01138 123.641 9.01138C124.058 9.01138 124.169 9.28925 124.169 9.65048C124.169 10.4007 124.197 11.151 124.197 11.8734C124.224 15.0411 124.252 18.181 124.28 21.3487C124.28 21.432 124.252 21.5432 124.28 21.5988C124.363 21.7655 124.474 21.9044 124.558 22.0433C124.669 21.9322 124.863 21.8766 124.919 21.7377C125.28 20.9875 125.642 20.2372 125.975 19.487C127.475 16.2359 129.004 12.9849 130.504 9.73384C130.726 9.23368 131.06 8.95581 131.643 8.98359C132.894 9.01138 134.116 8.98359 135.367 8.98359C136.062 8.98359 136.228 9.28925 135.923 9.90056C132.616 16.2915 129.337 22.7102 126.003 29.0734C125.252 30.5183 124.28 31.8243 122.779 32.5745C121.223 33.3803 119.528 33.5748 117.806 33.4081C116.361 33.2692 114.916 33.0469 113.471 32.9357C111.915 32.9357 110.387 33.2414 108.803 33.7971Z" fill="black"/>
<path d="M112.943 28.1008C110.609 27.8229 108.358 28.1564 106.052 28.7677C106.552 28.0452 107.052 27.295 107.608 26.4891C107.386 26.5725 107.275 26.6281 107.136 26.6837C105.552 27.4339 103.912 27.6284 102.217 27.3227C100.272 26.9893 99.1886 25.6833 99.2442 23.7105C99.2997 21.7932 99.7443 20.0149 101.134 18.5977C102.273 17.4029 103.718 16.8472 105.302 16.6527C106.691 16.4582 108.08 16.4304 109.497 16.4026C110.081 16.4026 110.387 16.2359 110.442 15.6523C110.47 15.2633 110.581 14.8743 110.609 14.4853C110.664 13.8184 110.359 13.3738 109.692 13.1793C109.414 13.096 109.136 13.0682 108.858 13.096C107.108 13.1515 105.385 13.2071 103.634 13.2905C102.801 13.3183 102.634 13.1793 102.829 12.3735C102.995 11.6788 103.162 10.9842 103.301 10.2895C103.384 9.87271 103.634 9.56706 104.051 9.4837C106.83 8.90018 109.609 8.48338 112.443 9.09469C114.221 9.4837 115.555 10.4562 115.805 12.3735C115.916 13.2349 115.861 14.1519 115.694 15.0132C114.944 18.5422 114.082 22.0711 113.304 25.6C113.082 26.4058 113.054 27.2394 112.943 28.1008ZM109.609 19.5147C108.58 19.5147 107.636 19.4313 106.719 19.5425C105.691 19.6536 104.968 20.2649 104.663 21.293C104.551 21.6543 104.468 22.0155 104.412 22.3767C104.301 22.988 104.607 23.4326 105.218 23.516C106.385 23.6827 107.525 23.4604 108.58 22.988C108.692 22.9325 108.803 22.8213 108.831 22.6824C109.108 21.6543 109.359 20.5984 109.609 19.5147Z" fill="black"/>
<path d="M50.1728 11.4565C50.3395 10.7341 50.4507 10.1227 50.6174 9.56701C50.6452 9.45586 50.9508 9.3725 51.1454 9.3725C52.7848 9.28914 54.2575 8.87234 55.4523 7.7053C56.3415 6.84391 56.7027 5.73245 56.5082 4.50983C56.3415 3.28722 55.5079 2.45361 54.313 2.20353C53.4794 2.00902 52.6458 2.39804 52.2568 3.17606C52.0067 3.64844 52.0901 4.06524 52.4235 4.45425C52.5903 4.64876 52.7848 4.84327 52.9237 5.09335C53.0071 5.23228 53.0071 5.51015 52.9237 5.56572C52.7848 5.64908 52.5069 5.70466 52.3958 5.6213C52.1457 5.42679 51.979 5.12114 51.7845 4.87106C51.6177 4.64876 51.451 4.42647 51.2843 4.20418C51.1731 4.48204 50.9509 4.73212 50.9509 5.00999C50.9231 6.39932 52.3402 7.26071 53.5628 6.59383C54.2297 6.23261 54.4242 5.51015 54.0074 4.81548C53.8685 4.59318 53.6462 4.39868 53.5628 4.1486C53.4794 3.89852 53.3961 3.50951 53.535 3.34279C53.7851 3.03713 54.1463 3.0927 54.5075 3.315C55.5357 4.00967 55.8413 5.70466 55.0633 6.67719C54.2853 7.67751 53.2571 8.17767 51.979 7.92759C50.5896 7.64972 49.7004 6.73276 49.3948 5.399C48.978 3.64844 49.5337 2.17574 50.9786 1.06427C52.4513 -0.0749801 54.0352 -0.21391 55.6746 0.564117C58.0642 1.70337 58.9256 4.09303 58.0087 6.78834C57.0917 9.42807 55.0633 10.6785 52.4791 11.2342C51.7567 11.4009 51.0064 11.3731 50.1728 11.4565Z" fill="black"/>
<path d="M57.3143 34.3526C56.8975 33.2967 56.4529 32.2408 56.0083 31.1016C55.925 32.2408 55.8138 33.269 55.7305 34.3248C55.6749 34.3248 55.6471 34.3248 55.5915 34.3248C55.5637 34.2137 55.5082 34.1303 55.5082 34.0192C55.5915 32.9911 55.6471 31.963 55.7583 30.9349C55.7583 30.8515 55.8694 30.7681 55.9528 30.6848C56.0361 30.7681 56.1751 30.8515 56.2028 30.9627C56.5919 31.9352 56.9809 32.9077 57.4255 33.9636C57.7589 33.2134 58.0368 32.5465 58.3146 31.8518C58.4536 31.5462 58.5647 31.2127 58.7036 30.9349C58.7592 30.7959 58.8982 30.7126 59.1204 30.5181C59.2038 31.8796 59.2872 33.0744 59.3705 34.2693C59.2872 34.2693 59.2038 34.2693 59.1482 34.2971C59.0649 33.269 58.9815 32.2131 58.8982 31.0182C58.398 32.2131 57.9256 33.269 57.481 34.3248C57.4532 34.3804 57.3977 34.3526 57.3143 34.3526Z" fill="black"/>
<path d="M86.0734 32.5187C86.0734 32.0463 86.0456 31.6017 86.1012 31.1294C86.129 30.9626 86.2957 30.7126 86.4068 30.6848C86.9626 30.657 87.5461 30.6292 88.074 30.7403C88.9354 30.9071 89.38 31.5739 89.38 32.4353C89.38 33.2689 88.8521 34.047 88.074 34.2415C87.5461 34.3526 86.9904 34.3804 86.4346 34.3804C86.2957 34.3804 86.0734 34.1025 86.0734 33.9358C86.0456 33.4634 86.0734 32.9911 86.0734 32.5187ZM86.3513 34.2415C86.9626 34.1581 87.5183 34.1581 88.0463 34.0192C88.7687 33.8247 89.1577 33.1022 89.1299 32.3242C89.1022 31.6295 88.6576 31.0738 87.9351 30.9348C87.5183 30.8515 87.1015 30.8793 86.6569 30.8793C86.5458 30.8793 86.3513 31.0738 86.3513 31.1849C86.3235 32.1853 86.3513 33.13 86.3513 34.2415Z" fill="black"/>
<path d="M10.8826 32.4911C11.1049 33.1302 11.2994 33.7137 11.5217 34.2972C11.4384 34.325 11.355 34.3528 11.2717 34.3806C11.1883 34.1305 11.1049 33.8526 11.0494 33.6026C10.8549 32.8523 10.577 32.6578 9.79896 32.6856C9.52109 32.7134 9.40994 32.7967 9.43773 33.0746C9.43773 33.2969 9.43773 33.4914 9.43773 33.7137C9.43773 33.9082 9.43773 34.1305 9.43773 34.325C9.38216 34.325 9.32658 34.3528 9.27101 34.3528C9.24322 34.2417 9.15986 34.1027 9.15986 33.9916C9.15986 33.0468 9.15986 32.1021 9.13208 31.1851C9.13208 30.8517 9.27101 30.685 9.60445 30.685C9.85453 30.685 10.1046 30.6572 10.3547 30.685C10.8826 30.7127 11.2994 30.9628 11.4106 31.4908C11.4939 31.9631 11.2161 32.2966 10.8826 32.4911ZM9.40994 31.6575C9.40994 32.4633 9.40995 32.4633 9.93789 32.4633C10.7159 32.4633 11.1327 32.1854 11.1327 31.6297C11.1327 31.1295 10.7437 30.8517 10.0212 30.8517C9.40994 30.8795 9.40994 30.8795 9.40994 31.6575Z" fill="black"/>
<path d="M27.7216 34.4083C26.6657 34.4083 25.9154 33.6025 25.9432 32.5188C25.971 31.4073 26.7768 30.5737 27.8605 30.6015C28.8886 30.6293 29.6666 31.4351 29.6666 32.491C29.6389 33.658 28.8608 34.4361 27.7216 34.4083ZM29.361 32.5188C29.361 31.5185 28.6941 30.796 27.8049 30.8238C26.8324 30.8238 26.2211 31.5185 26.2211 32.5744C26.2211 33.5747 26.888 34.2138 27.8327 34.2138C28.7497 34.2138 29.361 33.5191 29.361 32.5188Z" fill="black"/>
<path d="M47.3945 32.4909C47.6168 33.13 47.8113 33.7135 48.0336 34.297C47.9502 34.3248 47.8668 34.3526 47.7835 34.3804C47.7001 34.1025 47.6168 33.8247 47.5334 33.5468C47.3389 32.8521 47.1166 32.6854 46.3941 32.6854C46.0607 32.6854 45.894 32.7965 45.9218 33.1578C45.9496 33.519 45.9218 33.908 45.894 34.2692C45.894 34.297 45.8384 34.3248 45.755 34.4082C45.6995 34.2692 45.6439 34.1581 45.6439 34.0469C45.6439 33.1022 45.6439 32.1297 45.6439 31.1849C45.6439 30.8793 45.755 30.7125 46.0607 30.7125C46.283 30.7125 46.5331 30.6848 46.7554 30.7125C47.2555 30.7403 47.7001 30.8515 47.839 31.3794C48.0058 31.8518 47.8113 32.2686 47.3945 32.4909ZM46.4219 30.8515C46.2274 30.8515 45.8106 30.8237 45.9496 31.3516C46.0607 31.7406 45.505 32.4353 46.4219 32.4631C47.1722 32.4909 47.6445 32.1852 47.6445 31.6573C47.6723 31.1571 47.2833 30.8793 46.4219 30.8515Z" fill="black"/>
<path d="M60.871 34.297C61.3711 33.0744 61.8435 31.8518 62.3437 30.657C62.427 30.657 62.4826 30.657 62.5659 30.657C63.0661 31.8796 63.5663 33.1022 64.0386 34.3248C63.9831 34.3526 63.8997 34.3804 63.8441 34.436C63.733 34.1859 63.5663 33.9636 63.5107 33.7135C63.3995 33.2689 63.1495 33.0466 62.6771 33.13C62.6493 33.13 62.5937 33.13 62.5659 33.13C61.6212 33.13 61.6212 33.13 61.26 34.0192C61.2044 34.1581 61.121 34.297 61.0377 34.436C60.9821 34.3526 60.9265 34.3248 60.871 34.297ZM62.4548 30.9626C62.2047 31.6573 61.9824 32.1853 61.7601 32.7688C62.2603 32.7688 62.6771 32.7688 63.1495 32.7688C62.9272 32.1575 62.7049 31.6295 62.4548 30.9626Z" fill="black"/>
<path d="M71.4578 34.3528C71.3467 34.0749 71.2078 33.7971 71.1244 33.4914C71.041 33.158 70.8465 33.019 70.5131 33.0468C70.4853 33.0468 70.4853 33.0468 70.4575 33.0468C69.3461 32.9913 69.3461 32.9913 68.9015 34.0194C68.8459 34.1305 68.7625 34.2417 68.707 34.3528C68.6514 34.325 68.5958 34.2972 68.5402 34.2694C69.0404 33.0468 69.5128 31.8242 70.0129 30.6294C70.0963 30.6294 70.1519 30.6294 70.2352 30.6294C70.7354 31.852 71.2078 33.0468 71.7079 34.2694C71.6246 34.2972 71.5412 34.325 71.4578 34.3528ZM70.8188 32.7968C70.5687 32.1854 70.3464 31.6575 70.0963 30.9906C69.8462 31.6575 69.6239 32.1854 69.4016 32.7968C69.9018 32.7968 70.3186 32.7968 70.8188 32.7968Z" fill="black"/>
<path d="M79.0436 34.3248C79.5437 33.1022 80.0439 31.8796 80.5163 30.657C80.5996 30.657 80.6552 30.657 80.7386 30.657C81.2387 31.8796 81.7111 33.0744 82.2113 34.297C82.1557 34.3248 82.1001 34.3526 82.0167 34.3804C81.8778 34.0748 81.7111 33.7969 81.5999 33.4912C81.4888 33.1578 81.2943 33.0466 80.9609 33.0744C80.9053 33.0744 80.8497 33.0744 80.7941 33.0744C79.7938 33.0744 79.7938 33.0744 79.4048 33.9914C79.3492 34.1303 79.2381 34.2693 79.1825 34.4082C79.1269 34.3526 79.0714 34.3526 79.0436 34.3248ZM80.6274 30.9904C80.3773 31.6573 80.1828 32.213 79.9327 32.7966C80.4607 32.7966 80.8775 32.7966 81.3499 32.7966C81.0998 32.213 80.8775 31.6573 80.6274 30.9904Z" fill="black"/>
<path d="M92.9647 30.8794C92.5757 30.8794 92.2145 30.9072 91.8255 30.8794C91.4365 30.8516 91.2697 30.9906 91.2975 31.3796C91.3253 31.6575 91.2975 31.9353 91.2975 32.2966C91.8533 32.2966 92.3812 32.2966 92.8814 32.2966C92.8814 32.3521 92.8814 32.4077 92.8814 32.4633C92.3812 32.4633 91.881 32.4633 91.3253 32.4633C91.3253 33.0468 91.3253 33.5469 91.3253 34.1305C91.9088 34.1305 92.4924 34.1305 93.0759 34.1305C93.0759 34.186 93.0759 34.2694 93.0759 34.325C92.4368 34.325 91.8255 34.325 91.1864 34.2972C91.1308 34.2972 91.0197 34.0749 91.0197 33.9638C91.0197 32.9634 90.9919 31.9909 91.0197 30.9906C91.0197 30.8516 91.1864 30.6294 91.2975 30.6294C91.8533 30.6016 92.409 30.6016 92.9647 30.6016C92.9647 30.7405 92.9647 30.8239 92.9647 30.8794Z" fill="black"/>
<path d="M5.63117 34.2139C6.29805 34.2139 6.85379 34.2139 7.43731 34.2139C7.43731 34.2694 7.43731 34.325 7.43731 34.3528C6.826 34.3528 6.18691 34.3528 5.5756 34.325C5.49224 34.325 5.38109 34.1027 5.38109 33.9638C5.35331 32.9913 5.35331 32.0187 5.38109 31.0462C5.38109 30.9073 5.54781 30.6572 5.65896 30.6572C6.21469 30.6294 6.77043 30.6294 7.32616 30.6294C7.32616 30.7128 7.32616 30.7683 7.32616 30.8517C6.99272 30.8517 6.63149 30.8795 6.29805 30.8517C5.77011 30.7961 5.54781 30.9628 5.63117 31.5186C5.65896 31.7409 5.63117 31.9632 5.63117 32.2966C6.21469 32.2966 6.71486 32.2966 7.21502 32.2966C7.21502 32.3522 7.21502 32.4355 7.21502 32.4911C6.85379 32.4911 6.46478 32.4911 6.10355 32.4911C5.74232 32.4633 5.5756 32.63 5.60339 32.9913C5.65896 33.3803 5.63117 33.7415 5.63117 34.2139Z" fill="black"/>
<path d="M43.6988 30.7404C43.6988 31.6018 43.7822 32.4632 43.671 33.3246C43.5877 34.1304 43.0042 34.4638 42.1706 34.4082C41.4759 34.3804 41.0313 33.9636 40.9757 33.1578C40.9202 32.4076 40.9202 31.6296 40.9202 30.8793C40.9202 30.8238 41.0035 30.7404 41.1425 30.6848C41.1425 30.8515 41.1702 31.046 41.1702 31.2128C41.1702 31.7685 41.1425 32.352 41.198 32.9078C41.2536 33.7691 41.6148 34.1859 42.3095 34.1859C43.032 34.1859 43.4488 33.7414 43.5043 32.9078C43.5321 32.3242 43.5043 31.7407 43.5043 31.1572C43.5043 31.0183 43.5321 30.8793 43.5599 30.7126C43.5877 30.7404 43.6433 30.7404 43.6988 30.7404Z" fill="black"/>
<path d="M53.6188 30.8795C53.2576 30.8795 52.8686 30.8239 52.5351 30.9072C52.3406 30.9628 52.0627 31.2407 52.0627 31.4352C52.035 31.6575 52.2017 31.9631 52.3962 32.1299C52.6463 32.3244 52.9797 32.3799 53.2576 32.5189C53.7299 32.7412 53.9244 33.1302 53.8411 33.6581C53.7299 34.1305 53.3965 34.3806 52.9241 34.4084C52.5073 34.4361 52.0627 34.4917 51.7293 34.0471C51.8404 34.0749 51.9238 34.1027 52.035 34.1027C52.3406 34.1305 52.6463 34.2416 52.9241 34.1583C53.1742 34.0749 53.5354 33.797 53.5632 33.5748C53.591 33.3247 53.3687 32.9634 53.1742 32.7412C52.9797 32.5466 52.674 32.5189 52.3962 32.4077C51.9516 32.2132 51.6737 31.9076 51.7571 31.4074C51.8404 30.935 52.1739 30.6572 52.6463 30.6294C52.9797 30.6016 53.3409 30.6849 53.6744 30.7127C53.6466 30.7683 53.6188 30.8239 53.6188 30.8795Z" fill="black"/>
<path d="M77.3208 30.9349C77.1263 30.9071 76.9318 30.8237 76.7373 30.8237C76.3205 30.7959 75.9037 30.8515 75.7647 31.3517C75.6258 31.824 75.9315 32.0741 76.3205 32.2409C76.5706 32.352 76.904 32.3798 77.0985 32.5743C77.3208 32.8244 77.5431 33.1578 77.5709 33.4913C77.6264 33.8803 77.3486 34.1581 76.9596 34.3249C76.4038 34.5471 75.7092 34.436 75.4313 34.047C75.7647 34.1026 76.0982 34.1859 76.4038 34.2137C76.8484 34.2415 77.2096 34.0748 77.293 33.5746C77.3764 33.0744 77.0985 32.8244 76.6817 32.6577C76.4316 32.5743 76.1815 32.4631 75.9593 32.352C75.598 32.1575 75.3757 31.8241 75.5147 31.435C75.6258 31.1572 75.9037 30.8237 76.1815 30.7126C76.5428 30.6014 76.9596 30.6848 77.3764 30.6848C77.3208 30.7682 77.3208 30.8515 77.3208 30.9349Z" fill="black"/>
<path d="M13.1057 30.6848C13.5225 31.7685 13.9116 32.88 14.3561 34.047C14.8285 32.88 15.3009 31.7685 15.7455 30.6848C15.8288 30.7126 15.8844 30.7404 15.9678 30.7682C15.4676 31.9908 14.9674 33.2134 14.4673 34.4082C14.3839 34.4082 14.3284 34.4082 14.245 34.4082C13.8004 33.1856 13.3558 31.9908 12.9112 30.7682C12.9668 30.7404 13.0224 30.7126 13.1057 30.6848Z" fill="black"/>
<path d="M101.44 30.657C101.829 31.7407 102.246 32.8521 102.662 34.047C103.162 32.8521 103.607 31.7685 104.052 30.657C104.107 30.6848 104.163 30.7126 104.218 30.7126C104.191 30.8237 104.191 30.9349 104.135 31.046C103.718 32.0463 103.329 33.0466 102.885 34.047C102.829 34.1581 102.718 34.2415 102.635 34.3526C102.551 34.2693 102.44 34.2137 102.384 34.1025C101.995 33.0189 101.606 31.9352 101.217 30.8515C101.19 30.8237 101.217 30.7403 101.245 30.7126C101.329 30.6848 101.384 30.6848 101.44 30.657Z" fill="black"/>
<path d="M99.8557 34.0749C99.1332 34.6307 97.8273 34.464 97.2715 33.7971C96.7158 33.158 96.7158 31.9354 97.2715 31.2963C97.855 30.6294 99.2722 30.3793 99.8557 30.9628C99.6612 30.935 99.4667 30.8795 99.2444 30.8795C98.5497 30.8239 97.8828 30.9073 97.4383 31.5186C97.0492 32.0743 96.9659 32.6856 97.2715 33.3247C97.5772 34.0194 98.2996 34.325 99.2444 34.2139C99.4667 34.1583 99.6612 34.1305 99.8557 34.0749Z" fill="black"/>
<path d="M3.35255 30.9072C2.96354 30.9072 2.57453 30.8516 2.24109 30.9349C2.04658 30.9905 1.82429 31.2962 1.7965 31.5185C1.76871 31.713 1.96322 31.9908 2.12994 32.102C2.38002 32.2965 2.68567 32.3798 2.99133 32.491C3.4637 32.7133 3.71378 33.0745 3.63042 33.6025C3.54706 34.0748 3.15805 34.4083 2.60231 34.4083C2.2133 34.4083 1.85207 34.3249 1.46306 34.2693C1.49085 34.186 1.49085 34.1026 1.51863 34.0193C1.71314 34.0748 1.87986 34.1304 2.07437 34.1582C2.76903 34.2971 3.32477 34.0193 3.38034 33.5191C3.43591 33.0745 3.21362 32.8244 2.82461 32.6577C2.57453 32.5466 2.29666 32.4632 2.04658 32.3243C1.68535 32.1576 1.46306 31.8519 1.57421 31.4629C1.65757 31.185 1.87986 30.8516 2.12994 30.7126C2.51895 30.4904 2.99133 30.5181 3.35255 30.9072Z" fill="black"/>
<path d="M22.331 34.1305C21.4418 34.6862 20.1914 34.4362 19.6079 33.7137C19.0522 33.019 19.1633 31.8242 19.8024 31.1851C20.3859 30.6016 21.8308 30.3515 22.3032 30.9628C21.414 30.7683 20.5526 30.6572 19.9691 31.4074C19.6913 31.7409 19.5523 32.2688 19.5523 32.7134C19.5245 33.8249 20.2748 34.1861 22.331 34.1305Z" fill="black"/>
<path d="M33.0565 30.9348C32.862 30.907 32.6675 30.8237 32.473 30.8237C32.0284 30.7959 31.6394 30.8793 31.5005 31.3516C31.3615 31.824 31.695 32.0741 32.084 32.2408C32.3619 32.352 32.6953 32.4075 32.8898 32.602C33.1121 32.8243 33.3344 33.2133 33.3066 33.4912C33.2788 33.7691 33.001 34.1025 32.7231 34.2692C32.2507 34.5749 31.5005 34.4082 31.1948 34.0192C31.5283 34.0747 31.8617 34.1581 32.1674 34.1859C32.6119 34.1859 33.001 34.0469 33.0843 33.5468C33.1677 33.0466 32.8898 32.7965 32.4452 32.6298C32.1951 32.5187 31.9173 32.4353 31.6672 32.2964C31.3338 32.1019 31.1115 31.7684 31.2504 31.4072C31.3893 31.1293 31.6394 30.7959 31.9173 30.6848C32.2785 30.5736 32.6953 30.657 33.0843 30.657C33.0843 30.7681 33.0843 30.8515 33.0565 30.9348Z" fill="black"/>
<path d="M37.9748 34.3527C37.947 34.186 37.9193 33.9915 37.9193 33.8248C37.9193 33.0189 37.8915 32.2409 37.9193 31.4351C37.9193 31.0183 37.8081 30.8516 37.3913 30.8794C37.1412 30.9072 36.9189 30.8794 36.6689 30.8794C36.6689 30.8238 36.6689 30.7682 36.6689 30.7126C37.6136 30.7126 38.5861 30.7126 39.5309 30.7126C39.5309 30.7682 39.5309 30.8238 39.5309 30.8794C39.2252 30.8794 38.9196 30.9072 38.6139 30.8794C38.2805 30.8516 38.1693 30.9905 38.1971 31.324C38.2249 32.1576 38.1971 32.9912 38.1971 33.8248C38.1971 33.9915 38.1971 34.1582 38.1971 34.3249C38.1138 34.3249 38.0582 34.3249 37.9748 34.3527Z" fill="black"/>
<path d="M65.0947 30.6294C65.4837 31.2407 65.8449 31.8798 66.2617 32.5745C66.7063 31.9076 67.0953 31.2685 67.5121 30.6572C67.5677 30.685 67.6233 30.7405 67.7066 30.7683C67.3454 31.3241 66.9008 31.8242 66.6785 32.4355C66.4285 33.0191 66.4007 33.6859 66.2617 34.464C66.1506 33.7137 66.1228 33.0468 65.9005 32.4633C65.6782 31.8798 65.2614 31.3518 64.928 30.7961C64.9836 30.7127 65.0391 30.685 65.0947 30.6294Z" fill="black"/>
<path d="M17.4405 35.0752C17.4865 35.0752 17.5238 33.9306 17.5238 32.5188C17.5238 31.1069 17.4865 29.9624 17.4405 29.9624C17.3944 29.9624 17.3571 31.1069 17.3571 32.5188C17.3571 33.9306 17.3944 35.0752 17.4405 35.0752Z" fill="black"/>
<path d="M24.0815 34.325C24.0815 33.1301 24.0815 31.9353 24.0815 30.7405C24.1371 30.7405 24.1927 30.7405 24.2483 30.7405C24.276 31.9353 24.2483 33.1301 24.276 34.325C24.1927 34.325 24.1371 34.325 24.0815 34.325Z" fill="black"/>
<path d="M49.7286 34.2971C49.7286 33.1023 49.7286 31.9074 49.7286 30.6848C49.9509 31.0183 50.0065 33.7691 49.7286 34.2971Z" fill="black"/>
</svg>
