<svg width="142" height="162" viewBox="0 0 142 162" fill="none" xmlns="http://www.w3.org/2000/svg">
<g clip-path="url(#clip0_305_144)">
<path d="M71 0C65.3897 0 60.8571 4.52461 60.8571 10.125V16.2C37.7188 20.8828 20.2857 41.3227 20.2857 65.8125V71.7609C20.2857 86.632 14.8022 100.997 4.91295 112.134L2.56742 114.761C-0.0950834 117.735 -0.729012 122.006 0.887506 125.645C2.50402 129.284 6.14911 131.625 10.1429 131.625H131.857C135.851 131.625 139.464 129.284 141.113 125.645C142.761 122.006 142.095 117.735 139.433 114.761L137.087 112.134C127.198 100.997 121.714 86.6637 121.714 71.7609V65.8125C121.714 41.3227 104.281 20.8828 81.1429 16.2V10.125C81.1429 4.52461 76.6103 0 71 0ZM85.3585 156.083C89.1621 152.286 91.2857 147.129 91.2857 141.75H71H50.7143C50.7143 147.129 52.838 152.286 56.6415 156.083C60.4451 159.88 65.6116 162 71 162C76.3884 162 81.5549 159.88 85.3585 156.083Z" fill="white"/>
</g>
<defs>
<clipPath id="clip0_305_144">
<rect width="142" height="162" fill="white"/>
</clipPath>
</defs>
</svg>
