<svg width="74" height="81" viewBox="0 0 74 81" fill="none" xmlns="http://www.w3.org/2000/svg">
<path d="M73.9053 69.3032V39.3119C73.9053 39.2302 73.9465 39.1893 73.9465 39.1076C73.9465 38.985 73.9465 38.8624 73.9053 38.7807V21.2926C73.9053 21.17 73.9465 21.0474 73.9465 20.9248C73.9465 13.4066 62.2946 0.0861816 36.9732 0.0861816C11.4049 0.0861816 0 13.4066 0 20.9248V28.198V38.5764V70.2839H0.0823458C0.411729 72.2452 2.26451 74.6968 5.59951 76.5355C11.7754 80.0086 22.3569 80.9892 36.9732 80.9892C51.5896 80.9892 62.171 80.0086 68.347 76.5355C71.682 74.6968 73.4936 72.2043 73.8641 70.2839H73.9053V70.0387C73.9053 69.9161 73.9465 69.7527 73.9465 69.6301C73.9053 69.5484 73.9053 69.4258 73.9053 69.3032Z" fill="white"/>
<path d="M68.5941 44.1743C67.2765 43.1936 65.2591 42.499 62.4593 42.499C57.3951 42.499 52.4955 45.6453 52.4955 53.0001C52.4955 60.028 57.3951 63.3377 62.2535 63.3377C67.3589 63.3377 70.5704 60.2323 70.5704 55.656C70.5704 52.7549 68.7588 50.7936 65.0944 50.7936H64.0239C62.1299 50.7936 60.6477 51.6926 60.6477 53.613C60.6477 55.37 62.2535 56.228 63.4475 56.228C64.0239 56.228 64.4356 56.3915 64.4356 56.8409C64.4356 57.413 63.7357 57.7807 62.9946 57.7807C60.5654 57.7807 58.8773 56.1054 58.8773 53.0409C58.8773 49.6087 61.1418 48.3829 62.9122 48.3829C65.0532 48.3829 65.4238 49.4452 66.906 49.4452C68.6353 49.4452 69.8293 48.056 69.8293 46.6259C69.8293 45.5227 69.3352 44.7055 68.5941 44.1743Z" fill="#13161D"/>
<path d="M39.7317 54.9615V59.6195C39.7317 61.7034 38.5377 63.3786 36.2732 63.3786C34.0087 63.3786 32.8147 61.7034 32.8147 59.6195V46.34C32.8147 44.2152 34.0911 42.4991 36.3556 42.4991C37.7143 42.4991 38.9083 43.0303 40.0611 45.2367L43.0667 51.0389C43.2314 51.3249 43.355 51.4475 43.5196 51.4475C43.7667 51.4475 43.8902 51.284 43.8902 50.8754V46.2174C43.8902 44.1335 45.0842 42.4583 47.3487 42.4583C49.5721 42.4583 50.8073 44.1335 50.8073 46.2174V59.4969C50.8073 61.6216 49.5309 63.3378 47.2664 63.3378C45.9489 63.3378 44.7137 62.8066 43.5608 60.6001L40.5552 54.798C40.3905 54.512 40.267 54.3894 40.1023 54.3894C39.8553 54.3894 39.7317 54.5528 39.7317 54.9615Z" fill="#13161D"/>
<path d="M10.2109 59.5378V56.4733C10.2109 56.2281 10.3344 56.0238 10.5814 56.0238C10.9108 56.0238 11.0343 56.3507 11.1167 56.555C11.6108 57.7399 13.0518 60.2733 14.4105 61.7442C15.3163 62.7249 16.428 63.3378 17.622 63.3378C19.6395 63.3378 21.3276 61.5808 21.3276 59.7421C21.3276 58.598 20.8335 57.7399 19.8865 56.6776C18.6925 55.3701 17.2514 53.6539 16.7162 52.8367C16.5103 52.5507 16.5103 52.3464 16.5103 52.2647C16.5103 52.0195 16.6339 51.8561 16.8809 51.6109C17.4985 51.0389 18.9807 49.6496 19.8042 48.383C20.4218 47.4023 20.71 46.5443 20.71 45.8088C20.71 43.9292 18.9807 42.4583 17.1279 42.4583C15.9339 42.4583 14.8222 43.112 14.04 44.3378C13.0106 45.9722 11.8166 47.8518 11.0343 48.6281C10.8285 48.8324 10.7461 48.8733 10.5814 48.8733C10.3344 48.8733 10.2109 48.7099 10.2109 48.4238V46.2582C10.2109 44.1335 8.93453 42.4583 6.67002 42.4583C4.36434 42.4583 3.12915 44.1744 3.12915 46.2582V59.4969C3.12915 61.6216 4.36434 63.2969 6.67002 63.2969C8.93453 63.3378 10.2109 61.6217 10.2109 59.5378Z" fill="#13161D"/>
<path d="M68.7588 65.5034C70.0352 65.5034 70.5704 66.1163 70.5704 67.1787C70.5704 69.0174 68.8411 71.5916 65.465 73.512C59.8243 76.6582 50.1898 77.5571 36.8086 77.5571C23.4275 77.5571 13.793 76.6582 8.15231 73.512C4.77614 71.6324 3.04688 69.0582 3.04688 67.1787C3.04688 66.1163 3.6233 65.5034 4.85848 65.5034H68.7588Z" fill="#13161D"/>
<path d="M68.7587 24.4798H4.89962C3.62326 24.4798 3.08801 23.826 3.08801 22.6819C3.08801 15.8174 13.5047 3.64111 36.8498 3.64111C59.9478 3.64111 70.6115 15.7766 70.6115 22.6819C70.6115 23.826 70.0351 24.4798 68.7587 24.4798Z" fill="#13161D"/>
<path d="M64.6415 33.0196C64.2709 33.0196 64.1062 32.8153 64.1062 32.5293V31.0584C64.1062 30.7723 64.2709 30.568 64.6415 30.568H64.9297C65.8355 30.568 66.1237 31.2218 66.1237 31.753C66.1237 32.2842 65.8355 33.0196 64.9297 33.0196H64.6415ZM47.9253 28.0347C47.0195 27.3809 45.7431 26.8906 43.8492 26.8906C40.473 26.8906 37.2203 29.0971 37.2203 34.1637C37.2203 39.0261 40.473 41.2734 43.7256 41.2734C47.143 41.2734 49.284 39.1078 49.284 36.0024C49.284 34.0003 48.09 32.611 45.6608 32.611H44.9608C43.6845 32.611 42.6963 33.2239 42.6963 34.5723C42.6963 35.7573 43.7668 36.3702 44.5491 36.3702C44.9608 36.3702 45.2079 36.4928 45.2079 36.8196C45.2079 37.1874 44.755 37.4734 44.2197 37.4734C42.614 37.4734 41.5023 36.3293 41.5023 34.2046C41.5023 31.8347 43.0257 30.9766 44.1786 30.9766C45.6196 30.9766 45.8666 31.7121 46.8548 31.7121C48.0076 31.7121 48.7899 30.7723 48.7899 29.7917C48.7487 28.9745 48.4194 28.4025 47.9253 28.0347ZM56.4481 35.7573H54.9658C54.5953 35.7573 54.4306 35.9616 54.4306 36.2476V36.6562C54.4306 36.9422 54.5953 37.1465 54.9658 37.1465H56.901C58.095 37.1465 59.0831 37.8411 59.0831 39.1078C59.0831 40.4153 58.1362 41.1099 56.901 41.1099H52.8249C51.0956 41.1099 50.2721 40.1293 50.2721 38.7809V29.3014C50.2721 27.953 51.0956 26.9723 52.8249 26.9723H56.901C58.095 26.9723 59.0831 27.667 59.0831 28.9336C59.0831 30.2412 58.1362 30.9358 56.901 30.9358H54.9658C54.5953 30.9358 54.4306 31.1401 54.4306 31.4261V31.753C54.4306 32.039 54.5953 32.2433 54.9658 32.2433H56.4481C57.4774 32.2433 58.3009 32.8562 58.3009 33.9594C58.3009 35.0627 57.4774 35.7573 56.4481 35.7573ZM60.0301 38.9035C60.0301 40.211 60.7712 41.2325 62.1711 41.2325C63.571 41.2325 64.3121 40.211 64.3121 38.9035V36.6153C64.3121 36.3293 64.4356 36.2067 64.6415 36.2067C64.8885 36.2067 64.9709 36.3702 65.012 36.6153C65.2179 37.7186 65.712 39.1895 66.3296 39.9659C67.0707 40.9465 67.7706 41.2325 68.4706 41.2325C69.5822 41.2325 70.5704 40.3336 70.5704 39.2712C70.5704 38.5358 70.2822 38.0046 69.8704 37.5143C69.1293 36.5745 68.6764 36.0024 68.3882 35.2261C68.3059 35.0626 68.347 34.8992 68.5529 34.7358C69.2117 34.2046 69.9939 33.0605 69.9939 31.2627C69.9939 28.525 67.7294 26.9723 64.9709 26.9723H62.5828C60.8536 26.9723 60.0301 27.953 60.0301 29.3014V38.9035ZM26.433 38.9035C26.433 40.211 27.1741 41.2325 28.574 41.2325C29.9739 41.2325 30.715 40.211 30.715 38.9035V36.6153C30.715 36.3293 30.8385 36.2067 31.0444 36.2067C31.2914 36.2067 31.3738 36.3702 31.415 36.6153C31.6208 37.7186 32.1149 39.1895 32.7325 39.9659C33.4736 40.9465 34.1735 41.2325 34.8735 41.2325C35.9851 41.2325 36.9733 40.3336 36.9733 39.2712C36.9733 38.5358 36.6851 38.0046 36.2734 37.5143C35.6558 36.6971 35.0793 36.0024 34.7911 35.2261C34.7088 35.0626 34.75 34.8992 34.9558 34.7358C35.6146 34.2046 36.3969 33.0605 36.3969 31.2627C36.3969 28.525 34.1324 26.9723 31.3738 26.9723H28.9446C27.2153 26.9723 26.3919 27.953 26.3919 29.3014V38.9035H26.433ZM31.0444 33.0196C30.6738 33.0196 30.5092 32.8153 30.5092 32.5293V31.0584C30.5092 30.7723 30.6738 30.568 31.0444 30.568H31.3326C32.2384 30.568 32.5266 31.2218 32.5266 31.753C32.5266 32.2842 32.2384 33.0196 31.3326 33.0196H31.0444ZM7.45234 35.2261H7.82289C8.85222 35.2261 9.1816 35.9207 9.1816 36.5336C9.1816 37.1057 8.89339 37.882 7.82289 37.882H7.45234C7.08178 37.882 6.91709 37.6777 6.91709 37.3917V35.7164C6.91709 35.4304 7.08178 35.2261 7.45234 35.2261ZM7.45234 32.6519C7.08178 32.6519 6.91709 32.4476 6.91709 32.1616V30.6906C6.91709 30.4046 7.08178 30.2003 7.45234 30.2003H7.74055C8.68752 30.2003 8.93456 30.8541 8.93456 31.3852C8.93456 31.9164 8.64635 32.6519 7.74055 32.6519H7.45234ZM5.64073 41.1099H8.68752C11.5696 41.1099 13.3401 39.1895 13.3401 36.8196C13.3401 34.8992 12.1872 34.0411 11.9402 33.796C11.8167 33.7143 11.7343 33.6325 11.7343 33.5508C11.7343 33.4282 11.8167 33.3874 11.899 33.2648C12.3107 32.7745 12.7225 32.039 12.7225 30.9358C12.7225 28.3616 10.952 26.9723 8.23462 26.9723H5.64073C3.91147 26.9723 3.08801 27.953 3.08801 29.3014V38.7809C3.08801 40.1293 3.91147 41.1099 5.64073 41.1099ZM19.6807 41.2325C16.181 41.2325 14.3282 39.1487 14.3282 36.5336V29.2605C14.3282 27.953 15.0693 26.9315 16.4692 26.9315C17.8691 26.9315 18.6514 27.953 18.6514 29.2605V36.2885C18.6514 36.8196 18.8984 37.3917 19.6807 37.3917C20.463 37.3917 20.7512 36.7788 20.7512 36.2885V29.2605C20.7512 27.953 21.4923 26.9315 22.8922 26.9315C24.292 26.9315 25.0332 27.953 25.0332 29.2605V36.4928C25.0743 39.1487 23.1804 41.2325 19.6807 41.2325Z" fill="#13161D"/>
<path d="M30.3032 46.5442C30.3032 44.2969 28.9856 42.499 26.5564 42.499C24.1272 42.499 22.8097 44.2969 22.8097 46.5442V59.2925C22.8097 61.5398 24.1272 63.3377 26.5564 63.3377C28.9856 63.3377 30.3032 61.5398 30.3032 59.2925V46.5442Z" fill="#13161D"/>
<path d="M70.0763 63.4195C70.0763 64.0324 69.6234 64.4819 69.0058 64.4819C68.3882 64.4819 67.9353 64.0324 67.9353 63.4195C67.9353 62.8066 68.3882 62.3572 69.0058 62.3572C69.6234 62.3572 70.0763 62.8066 70.0763 63.4195ZM69.8293 63.4195C69.8293 62.9701 69.4999 62.6023 69.047 62.6023C68.5941 62.6023 68.2647 62.9701 68.2647 63.4195C68.2647 63.869 68.5941 64.2367 69.047 64.2367C69.4587 64.2367 69.8293 63.869 69.8293 63.4195ZM69.4175 63.869C69.4587 63.9099 69.4175 63.9507 69.3763 63.9507H69.294C69.2528 63.9507 69.2117 63.9507 69.1705 63.9099C69.1293 63.7873 69.047 63.6647 69.0058 63.5421H68.8823V63.9099C68.8823 63.9507 68.8411 63.9916 68.7999 63.9916H68.7176C68.6764 63.9916 68.6352 63.9507 68.6352 63.9099V62.9701C68.6352 62.9292 68.6764 62.8884 68.7176 62.8884H69.047C69.2528 62.8884 69.4175 63.0109 69.4175 63.2152C69.4175 63.3787 69.3352 63.4604 69.2528 63.5013C69.2528 63.6238 69.3352 63.7464 69.4175 63.869ZM68.8823 63.3378H69.047C69.1293 63.3378 69.2117 63.297 69.2117 63.2152C69.2117 63.1335 69.1705 63.0927 69.047 63.0927H68.8823V63.3378Z" fill="#E42313"/>
</svg>
