<svg width="23" height="23" viewBox="0 0 23 23" fill="none" xmlns="http://www.w3.org/2000/svg">
<path d="M20.1582 0.839111H2.87252C2.24737 0.839111 1.64782 1.0798 1.20577 1.50822C0.763722 1.93664 0.515381 2.51771 0.515381 3.12359L0.515381 19.8764C0.515381 20.4823 0.763722 21.0634 1.20577 21.4918C1.64782 21.9202 2.24737 22.1609 2.87252 22.1609H9.61248V14.912H6.51873V11.5H9.61248V8.8995C9.61248 5.94158 11.4294 4.30771 14.2123 4.30771C15.5451 4.30771 16.9388 4.53806 16.9388 4.53806V7.44125H15.4032C13.8902 7.44125 13.4183 8.35123 13.4183 9.28453V11.5H16.7959L16.2557 14.912H13.4183V22.1609H20.1582C20.7834 22.1609 21.3829 21.9202 21.825 21.4918C22.267 21.0634 22.5154 20.4823 22.5154 19.8764V3.12359C22.5154 2.51771 22.267 1.93664 21.825 1.50822C21.3829 1.0798 20.7834 0.839111 20.1582 0.839111Z" fill="#2C2B1B"/>
</svg>
