<svg width="182" height="28" viewBox="0 0 182 28" fill="none" xmlns="http://www.w3.org/2000/svg">
<path d="M95.1438 0.341797C100.87 0.341797 105.878 3.04047 107.68 8.0966L101.584 9.86912C100.086 6.93559 97.6193 6.16454 95.1438 6.16454C90.9637 6.16454 87.7835 9.4836 87.7835 13.8396C87.7835 18.1956 91.0386 21.5545 95.3332 21.5545C98.7073 21.5545 101.161 19.782 102.121 16.9282H94.2585V11.5264H108.407C108.506 12.3068 108.558 13.0927 108.561 13.8795C108.561 21.7096 103.002 27.3418 95.2583 27.3418C87.5148 27.3418 81.4186 21.426 81.4186 13.8396C81.4186 6.25317 87.4355 0.341797 95.1438 0.341797ZM55.4879 6.70073C60.2582 6.70073 63.4164 8.8898 64.1872 12.231L58.6152 13.3433C58.4258 12.1512 57.2938 11.0789 55.4086 11.0789C53.77 11.0789 52.9463 11.7702 52.7966 12.5767C52.6952 13.104 52.9463 13.5427 54.6862 13.9061C55.1398 14.0045 55.9612 14.1737 56.7794 14.3405L57.0127 14.3881C58.1371 14.6169 59.1878 14.8278 59.1878 14.8278C62.813 15.5944 64.4735 17.7835 64.4735 20.6239C64.4735 24.8868 60.8088 27.1158 55.7698 27.1158C51.2681 27.1158 47.4007 25.4629 46.762 21.5102L52.7393 20.2916C53.0036 21.9445 54.5012 22.5604 56.1354 22.5604C57.7695 22.5604 59.0205 21.8647 59.0557 21.0227C59.113 19.7465 58.1175 18.9888 56.708 18.714C55.7345 18.5279 52.8142 17.9474 52.8142 17.9474C49.2639 17.296 47.2422 16.2635 47.2422 13.2281C47.2422 9.27533 50.6382 6.70073 55.4879 6.70073ZM119.145 6.37282C124.554 6.38168 127.964 9.12023 127.964 14.0567V26.3226H122.061V24.8957C120.455 26.2553 118.407 26.9702 116.309 26.9031C112.018 26.9031 109.142 24.395 109.142 20.5752C109.142 16.7554 112.018 14.3359 117.141 14.3359H122.048V13.9504C122.088 13.2175 121.816 12.5023 121.3 11.9837C120.783 11.4652 120.072 11.1925 119.344 11.234C117.502 11.234 116.428 11.9651 116.124 13.6623L110.336 12.4659C111.177 8.72584 114.551 6.37282 119.145 6.37282ZM74.8247 0.479168V6.96218H80.498V11.8366H74.8555V18.5722C74.8555 20.5752 75.8114 21.3861 77.4235 21.3861C78.4028 21.3516 79.3606 21.0876 80.2205 20.6151L81.6168 25.4762C80.0222 26.4088 78.2109 26.9011 76.3664 26.9031C71.574 26.9031 68.6889 24.2798 68.6889 19.2103V11.8588H65.2091V6.98434H68.6889V1.80856L74.8247 0.479168ZM138.513 0.479168V6.96218H144.186V11.8366H138.504V18.5722C138.504 20.5752 139.464 21.3861 141.072 21.3861C142.053 21.3521 143.012 21.0881 143.874 20.6151L145.292 25.4762C143.698 26.4073 141.889 26.8994 140.046 26.9031C135.253 26.9031 132.382 24.2798 132.382 19.1882V11.8588H128.893V6.98434H132.382V1.80856L138.513 0.479168ZM35.8647 6.44815C41.5777 6.46144 46.4097 10.5471 46.4097 16.6402C46.4097 22.7731 41.5644 26.8632 35.8647 26.8632C30.0372 26.8632 25.2052 22.7731 25.2052 16.6402C25.2052 10.5072 30.0504 6.44815 35.8647 6.44815ZM154.991 6.44815C160.704 6.46144 165.532 10.5471 165.532 16.6402C165.532 22.7731 160.687 26.8632 154.991 26.8632C149.164 26.8632 144.332 22.7731 144.332 16.6402C144.332 10.5072 149.177 6.44815 154.991 6.44815ZM6.53787 0.479168V10.5471H17.3515V0.479168H23.6371V26.3226H17.3515V16.1084H6.53787V26.3226H0.212646V0.479168H6.53787ZM179.83 6.67415C180.296 6.6681 180.762 6.72624 181.213 6.84697L180.944 13.0065H179.83C175.539 13.0065 173.2 15.2222 173.2 20.2606V26.3226H167.065V8.29157L173.2 6.96218V10.6623C174.579 8.34918 176.689 6.67415 179.83 6.67415ZM122.061 18.2443H117.842C116.309 18.2443 115.353 19.0552 115.353 20.2517C115.353 21.4481 116.423 22.2546 118.035 22.2546C120.145 22.2724 122.061 20.8455 122.061 18.6874V18.2443ZM35.8603 11.6284C34.5646 11.643 33.3297 12.1834 32.4357 13.127C31.5417 14.0707 31.0644 15.3375 31.112 16.6402C31.112 19.6889 33.3716 21.6564 35.8647 21.6564C38.2433 21.6564 40.4985 19.6889 40.4985 16.6402C40.4985 13.6313 38.2389 11.6284 35.8603 11.6284ZM154.991 11.6284C153.694 11.6406 152.457 12.18 151.561 13.1239C150.665 14.0678 150.186 15.336 150.234 16.6402C150.234 19.6889 152.498 21.6564 154.991 21.6564C157.365 21.6564 159.629 19.6889 159.629 16.6402C159.629 13.6313 157.365 11.6284 154.991 11.6284Z" fill="white"/>
</svg>
