<svg width="22" height="30" viewBox="0 0 22 30" fill="none" xmlns="http://www.w3.org/2000/svg">
<path d="M9.91443 13.3845L11.703 8.61848L13.3157 12.8365L16.2415 11.0893L12.1785 0.523553C11.9097 -0.189793 10.8862 -0.169116 10.6381 0.554568L6.59582 12.6091C6.42006 13.126 6.4304 13.6843 6.61649 14.2012L7.40221 16.3722L10.3693 14.6044L9.91443 13.3845Z" fill="#00F385"/>
<path d="M9.35621 21.4587L5.31391 20.0527L2.10902 21.9653L1.85056 22.1204L1.70583 22.2134L0 27.1965L3.83553 24.8601L3.82519 24.8497L4.85902 24.2294L13.5536 27.4136C14.329 27.7031 15.094 26.9381 14.7942 26.1627L10.8656 15.6589L7.88816 17.4371L9.35621 21.4587Z" fill="#00F385"/>
<path d="M19.736 29.3883L22.0001 25.8319L19.3017 18.7915L16.7482 12.1543L13.8328 13.9015L19.736 29.3883Z" fill="#00F385"/>
</svg>
