<svg width="23" height="23" viewBox="0 0 23 23" fill="none" xmlns="http://www.w3.org/2000/svg">
<path d="M11.524 6.03149C8.40076 6.03149 5.88156 8.47304 5.88156 11.5C5.88156 14.527 8.40076 16.9685 11.524 16.9685C14.6472 16.9685 17.1664 14.527 17.1664 11.5C17.1664 8.47304 14.6472 6.03149 11.524 6.03149ZM11.524 15.0552C9.50567 15.0552 7.85567 13.4609 7.85567 11.5C7.85567 9.53914 9.50076 7.94475 11.524 7.94475C13.5472 7.94475 15.1923 9.53914 15.1923 11.5C15.1923 13.4609 13.5423 15.0552 11.524 15.0552ZM18.7133 5.8078C18.7133 6.51694 18.124 7.08331 17.3972 7.08331C16.6655 7.08331 16.0811 6.51218 16.0811 5.8078C16.0811 5.10341 16.6704 4.53229 17.3972 4.53229C18.124 4.53229 18.7133 5.10341 18.7133 5.8078ZM22.4503 7.10235C22.3668 5.39373 21.9641 3.88025 20.6726 2.6333C19.386 1.38635 17.8244 0.996078 16.0615 0.910409C14.2445 0.810463 8.79852 0.810463 6.98156 0.910409C5.22353 0.991318 3.66192 1.38159 2.3704 2.62854C1.07889 3.87549 0.681117 5.38897 0.592725 7.09759C0.4896 8.85855 0.4896 14.1367 0.592725 15.8977C0.676207 17.6063 1.07889 19.1197 2.3704 20.3667C3.66192 21.6137 5.21862 22.0039 6.98156 22.0896C8.79852 22.1895 14.2445 22.1895 16.0615 22.0896C17.8244 22.0087 19.386 21.6184 20.6726 20.3667C21.9592 19.1197 22.3619 17.6063 22.4503 15.8977C22.5534 14.1367 22.5534 8.86331 22.4503 7.10235ZM20.103 17.7871C19.7199 18.72 18.9784 19.4386 18.011 19.8146C16.5624 20.3715 13.1249 20.243 11.524 20.243C9.92308 20.243 6.48067 20.3667 5.03692 19.8146C4.07442 19.4434 3.3329 18.7247 2.94496 17.7871C2.3704 16.3831 2.50299 13.0516 2.50299 11.5C2.50299 9.94845 2.37531 6.61213 2.94496 5.21288C3.32799 4.28004 4.06951 3.56138 5.03692 3.18539C6.48558 2.62854 9.92308 2.75704 11.524 2.75704C13.1249 2.75704 16.5673 2.6333 18.011 3.18539C18.9735 3.55662 19.715 4.27528 20.103 5.21288C20.6775 6.61689 20.5449 9.94845 20.5449 11.5C20.5449 13.0516 20.6775 16.3879 20.103 17.7871Z" fill="#2C2B1B"/>
</svg>
