<svg width="75" height="75" viewBox="0 0 75 75" fill="none" xmlns="http://www.w3.org/2000/svg">
<g clip-path="url(#clip0_294_149)">
<path d="M72.3256 0.537967H40.4291H35.4635H3.56699C3.56699 0.537967 0.670444 0.228775 0.980789 4.24827L6.25665 71.824C6.25665 71.824 6.22217 74.5036 9.63596 74.5036H36.0842H39.8773H66.3256C69.7049 74.5036 69.7049 71.824 69.7049 71.824L74.9808 4.24827C75.2222 0.26313 72.3256 0.537967 72.3256 0.537967Z" fill="white"/>
<path d="M19.3948 52.9632H6.8086L2.98102 4.62612C2.77412 2.6679 4.36033 2.63354 4.36033 2.63354H19.4293" fill="#13161D"/>
<path d="M56.6362 52.9632H69.2224L73.05 4.62612C73.2568 2.6679 71.6706 2.63354 71.6706 2.63354H56.6017" fill="#13161D"/>
<path fill-rule="evenodd" clip-rule="evenodd" d="M40.5672 55.0588C40.4638 55.0588 40.3258 55.0588 40.2224 55.0588C40.2224 55.0588 40.2224 55.0588 40.1879 55.0588C39.4983 54.9214 38.8431 54.7153 38.1879 54.5091C38.1189 54.4748 38.05 54.4404 37.981 54.4061C37.8776 54.3373 37.8431 54.2343 37.8776 54.1312C37.8776 54.0625 37.912 53.9938 37.9465 53.9594C37.981 53.8564 38.05 53.7533 38.05 53.6159C38.0845 53.4785 38.0845 53.3411 38.0845 53.2036C38.0845 52.7227 38.1189 52.2417 38.1189 51.7607C38.1534 50.7645 38.1534 49.7338 38.1879 48.7375C38.1879 48.6345 38.1534 48.5314 38.1189 48.4283C38.05 48.497 37.981 48.5658 37.9465 48.6688C37.6362 49.4246 37.2224 50.0774 36.7396 50.7301C36.2224 51.4172 35.6707 52.0356 35.05 52.654C35.0155 52.6883 34.981 52.7227 34.9465 52.757C34.7396 52.9288 34.4983 52.9975 34.2224 52.8944C33.8776 52.7914 33.5327 52.654 33.1534 52.5509C32.8431 52.4478 32.6017 52.3448 32.3603 52.1386C32.3258 52.1386 32.3258 52.1043 32.2914 52.1043C34.3948 50.1804 36.1534 48.0161 37.3603 45.4738C37.3603 45.4395 37.3258 45.4395 37.3258 45.4395C37.2914 45.3708 37.2569 45.3364 37.1534 45.3708C36.981 45.4051 36.8431 45.4051 36.6707 45.4051C36.4293 45.4395 36.1534 45.4395 35.8776 45.4395C35.3603 45.4738 34.8086 45.5082 34.2914 45.5425C33.981 45.5769 33.6707 45.5769 33.3258 45.6113C33.05 45.6113 32.8086 45.5769 32.5672 45.4395C32.4293 45.3708 32.3258 45.2334 32.2569 45.0959C32.2224 44.9585 32.2224 44.8555 32.2224 44.718C32.2224 44.3401 32.2569 43.9279 32.2569 43.55C32.2569 43.3095 32.2569 43.1034 32.2569 42.8629C32.2569 42.5537 32.4293 42.3476 32.7396 42.3132C32.981 42.2789 33.2224 42.2445 33.4638 42.2101C33.8086 42.1758 34.1534 42.1414 34.4983 42.0727C34.4983 42.0727 34.5327 42.0727 34.5327 42.0384C34.3603 41.901 34.2224 41.7292 34.0155 41.6261C33.3948 41.2482 32.7741 40.8703 32.2224 40.4237C31.4638 39.8397 30.7741 39.2213 30.1879 38.4311C29.1534 37.0569 28.6017 35.5453 28.6707 33.8276C28.6707 33.5528 28.6362 33.3123 28.4983 33.1062C28.2224 32.5221 27.981 31.9381 27.7741 31.3197C27.6017 30.77 27.4983 30.186 27.4638 29.602C27.4293 29.2928 27.4638 28.9492 27.4638 28.64C27.4638 28.537 27.4293 28.4339 27.3948 28.3309C27.3258 28.2278 27.2569 28.1591 27.1879 28.056C26.7052 27.5407 26.2569 26.991 25.8086 26.4413C25.0155 25.342 24.3603 24.1396 23.981 22.7997C23.8086 22.2501 23.7052 21.7004 23.6362 21.1164C23.5672 20.5323 23.6017 19.914 23.6362 19.3299C23.6707 18.7459 23.7396 18.1962 23.8086 17.6465C23.8431 17.0625 23.912 16.4441 23.9465 15.8601C23.981 15.5166 23.981 15.173 23.981 14.8295C23.981 14.4172 23.9465 14.0393 23.8086 13.627C23.6707 13.2148 23.4638 12.8369 23.1879 12.4933C23.0845 12.3903 23.0155 12.2872 22.981 12.1154C22.981 12.0811 22.9465 12.0811 22.9465 12.0811C22.9465 12.0467 22.9465 11.978 22.9465 11.9437C22.9465 11.9093 22.981 11.875 22.981 11.875C23.0155 11.8062 23.0155 11.7375 23.05 11.6688C23.2224 11.3596 23.4293 11.1535 23.7396 11.0161C23.981 10.913 24.2569 10.8443 24.4983 10.7756C25.1879 10.6382 25.8776 10.4321 26.5327 10.1916C26.6707 10.1229 26.8086 10.0542 26.9465 9.95109C27.1534 9.77932 27.3258 9.60755 27.4983 9.43577C27.5327 9.40142 27.5327 9.40142 27.5672 9.36706C27.4983 9.29835 27.4293 9.264 27.3603 9.22964C27.1189 9.09223 26.8776 8.95481 26.6362 8.81739C26.3948 8.67997 26.1534 8.5082 25.9465 8.30207C25.7052 8.06159 25.5327 7.8211 25.4293 7.47756C25.4293 7.4432 25.4293 7.4432 25.3948 7.40885C25.6017 7.37449 25.7741 7.37449 25.9465 7.34014C26.4638 7.30578 26.981 7.16836 27.4638 6.96224C28.3948 6.58433 29.05 5.96595 29.3258 5.00402C29.3603 4.90095 29.4293 4.79789 29.5327 4.72918C29.6362 4.66047 29.7052 4.59176 29.8086 4.55741C29.981 4.4887 30.1534 4.41999 30.3258 4.31692C31.9465 3.62983 33.6362 3.11451 35.3948 2.83967C35.912 2.77096 36.4638 2.70225 36.981 2.70225C37.0845 2.70225 37.2224 2.6679 37.3258 2.63354C37.4638 2.63354 37.6017 2.63354 37.7396 2.63354C37.7741 2.63354 37.7741 2.6679 37.8086 2.6679C38.2914 2.73661 38.7741 2.80532 39.2569 2.87403C39.6362 2.94274 40.05 2.97709 40.4293 3.08016C41.3258 3.28628 42.1879 3.56112 43.0155 3.90467C44.05 4.35128 45.05 4.8666 45.981 5.51934C47.1189 6.3095 48.1189 7.27143 48.9465 8.37078C49.7741 9.43577 50.3948 10.6382 50.8431 11.9093C51.1879 12.8369 51.3948 13.7645 51.5327 14.7264C51.6017 15.2417 51.6362 15.7227 51.6707 16.238C51.7051 16.7877 51.6707 17.3374 51.6362 17.887C51.6017 18.4023 51.5327 18.9177 51.4293 19.433C51.3948 19.5704 51.3948 19.7078 51.3603 19.8109C51.4982 19.8796 51.6017 19.9483 51.7051 20.017C52.0845 20.2575 52.3258 20.6354 52.4293 21.0477C52.4293 21.1164 52.4638 21.1851 52.4638 21.2194C52.4638 21.3912 52.4638 21.5973 52.4638 21.7691C52.4638 21.7691 52.4638 21.8035 52.4293 21.8035C52.3948 21.9752 52.3948 22.147 52.3258 22.3188C52.05 23.5556 51.6707 24.7923 51.1534 25.9604C50.7051 27.0254 50.1879 28.0217 49.7051 29.0523C49.6362 29.1897 49.5672 29.3271 49.4638 29.4302C49.2569 29.705 49.0155 29.8425 48.7051 29.9112C48.6017 29.9455 48.4638 29.9455 48.3603 29.9455C48.1879 29.9455 48.0845 30.0486 48.05 30.186C48.05 30.2547 48.0155 30.3234 48.0155 30.3921C48.0155 30.4952 48.0155 30.6326 48.05 30.7357C48.05 31.1479 48.05 31.5945 48.05 32.0068C48.0155 32.4534 47.981 32.9 47.8776 33.3123C47.7396 34.0681 47.5327 34.8239 47.2914 35.5797C46.912 36.7134 46.3258 37.7097 45.5327 38.6029C44.7741 39.4618 43.912 40.1832 42.9465 40.836C42.5672 41.0764 42.1879 41.3169 41.8086 41.5231C41.6017 41.6605 41.3948 41.7979 41.1879 41.901C41.1879 41.901 41.1534 41.901 41.1534 41.9353C41.1879 41.9697 41.1879 42.004 41.1879 42.0384C41.2224 42.0384 41.2569 42.0384 41.2914 42.0384C41.5327 42.004 41.7741 41.9697 42.05 41.9697C42.1879 41.9697 42.2914 41.9697 42.4293 41.9697C42.7741 41.9697 43.0845 41.9697 43.4293 42.004C43.7741 42.004 43.981 42.1758 44.0155 42.5193C44.0155 42.588 44.0155 42.6911 44.0155 42.7942C44.0155 43.3438 44.0155 43.8935 43.981 44.4088C43.981 44.4432 43.981 44.4776 43.981 44.5119C43.981 44.6493 43.9465 44.8211 43.912 44.9585C43.8431 45.1303 43.7396 45.2334 43.5327 45.3021C43.3603 45.3708 43.1879 45.3708 43.0155 45.3708C42.5672 45.3364 42.1534 45.3364 41.7051 45.3021C41.05 45.2677 40.3948 45.2677 39.7396 45.2334C39.6362 45.2334 39.5327 45.2334 39.4638 45.2677C39.4983 45.4051 39.5327 45.5082 39.5672 45.6113C39.7741 46.3327 39.9465 47.0885 40.05 47.81C40.1534 48.4971 40.2569 49.2185 40.3258 49.9399C40.3948 50.5583 40.4293 51.1767 40.4638 51.7951C40.4983 52.2761 40.4983 52.7914 40.4983 53.2724C40.4983 53.719 40.4983 54.1656 40.4638 54.6122C40.7396 54.8183 40.7052 54.9557 40.5672 55.0588ZM29.3603 8.23336C29.5672 8.199 29.7741 8.199 29.981 8.16465C30.4293 8.09594 30.8431 7.99288 31.2914 7.92417C31.981 7.8211 32.6707 7.78675 33.3603 7.8211C34.0155 7.85546 34.6707 7.92417 35.2914 8.09594C36.4293 8.40513 37.4293 8.92045 38.3603 9.67626C38.4983 9.77932 38.6362 9.88238 38.7396 10.0198C38.912 10.1916 38.9465 10.3977 38.7741 10.6038C38.7396 10.6382 38.7052 10.7069 38.6362 10.7413C38.4638 10.8787 38.2569 10.9817 38.05 11.0504C37.7741 11.1192 37.5327 11.1192 37.2914 10.9817C36.7052 10.7069 36.0845 10.5695 35.4638 10.5008C35.0845 10.4664 34.6707 10.4664 34.2914 10.4664C34.0155 10.5008 33.7396 10.5008 33.4638 10.5695C32.8776 10.7069 32.3603 10.9817 31.9465 11.4283C31.4983 11.9093 31.1189 12.4246 30.8086 13.0087C30.2569 14.0049 29.912 15.0699 29.7052 16.2036C29.6707 16.4441 29.6362 16.6846 29.5672 16.9251C29.4983 17.3374 29.2914 17.6465 28.8776 17.8527C28.7741 17.887 28.7052 17.9901 28.6707 18.0932C28.5672 18.3336 28.5327 18.5741 28.5672 18.849C28.5672 18.9177 28.6017 19.0207 28.6362 19.0894C28.7052 19.2269 28.8086 19.2956 28.9465 19.2612C29.0155 19.2612 29.05 19.2612 29.1189 19.2612C29.2224 19.2612 29.3258 19.2269 29.4293 19.2269C30.1189 19.2269 30.7741 19.2612 31.4638 19.2612C32.1189 19.2612 32.7396 19.2956 33.3948 19.2956C33.7741 19.2956 34.1189 19.3643 34.4983 19.4673C35.2224 19.6391 35.8776 19.9827 36.4293 20.498C36.6707 20.7385 36.981 20.8072 37.2914 20.7385C37.5327 20.7041 37.7741 20.6698 38.0155 20.6698C38.0845 20.6698 38.1879 20.6698 38.2569 20.6698C38.4983 20.6698 38.7396 20.6354 39.0155 20.6354C39.1879 20.6354 39.3603 20.5667 39.4983 20.4636C39.7396 20.2919 39.981 20.1544 40.2224 20.017C40.7052 19.8109 41.2569 19.6735 41.7741 19.6735C42.1189 19.6391 42.4638 19.6391 42.8086 19.6391C43.7051 19.6391 44.6017 19.6048 45.4982 19.6391C45.8776 19.6735 46.2914 19.6735 46.6707 19.7078C47.2569 19.7422 47.8086 19.8452 48.3603 19.9827C48.4293 19.9827 48.4638 19.9827 48.5327 19.9827C48.6362 19.9827 48.7051 19.914 48.7396 19.8109C48.7396 19.7422 48.7741 19.6735 48.7396 19.6391C48.7396 19.4673 48.7051 19.3299 48.7051 19.1582C48.6362 18.5741 48.4293 18.0588 48.1534 17.5435C47.7741 16.9251 47.6017 16.238 47.6017 15.5166C47.6017 15.0356 47.6017 14.5546 47.5672 14.0737C47.5672 13.9362 47.6017 13.7988 47.6017 13.6614C47.6707 13.6614 47.7051 13.6614 47.7396 13.6614C47.7741 13.6958 47.7741 13.7301 47.8086 13.7645C48.1534 14.4172 48.4638 15.0699 48.7396 15.7227C49.0845 16.5472 49.4293 17.4061 49.7741 18.2306C49.7741 18.2649 49.8086 18.2993 49.8431 18.368C49.8776 18.2649 49.9465 18.1962 49.981 18.1275C50.0845 17.9214 50.1534 17.7153 50.1534 17.5091C50.1534 17.3717 50.1534 17.1999 50.1534 17.0625C50.1534 16.4785 50.1879 15.8601 50.1879 15.2761C50.1534 14.4516 50.05 13.6614 49.8776 12.8712C49.7051 12.0467 49.4293 11.2566 49.05 10.4664C48.3603 9.02352 47.3603 7.8211 46.0845 6.82482C45.2224 6.13772 44.2914 5.58805 43.2914 5.10708C41.6362 4.31692 39.8776 3.93902 38.0155 3.90467C37.4638 3.90467 36.912 3.93902 36.3603 4.00773C35.7052 4.07644 35.05 4.21386 34.4293 4.38563C33.8431 4.55741 33.2914 4.72918 32.7052 4.90095C32.4293 4.96966 32.2224 5.17579 31.981 5.34757C32.0155 5.41627 32.0155 5.45063 32.05 5.48498C32.1879 5.48498 32.3258 5.48498 32.4293 5.48498C32.7052 5.48498 32.912 5.55369 33.1534 5.69111C33.1189 5.75982 33.05 5.79418 33.0155 5.86289C32.9465 5.96595 32.8431 6.0003 32.7396 6.03466C32.5327 6.10337 32.3603 6.17208 32.1534 6.24079C31.3258 6.58433 30.5672 7.03094 29.8431 7.58062C29.6362 7.71804 29.4983 7.88981 29.2914 8.06159C29.3258 8.13029 29.3258 8.16465 29.3603 8.23336ZM48.4982 28.9836C48.6017 28.8118 48.7396 28.64 48.8086 28.4683C49.1534 27.6781 49.4982 26.888 49.8086 26.0634C50.05 25.4451 50.3258 24.8267 50.4982 24.1739C50.6017 23.796 50.7051 23.4525 50.7051 23.0746C50.7051 22.731 50.6707 22.3531 50.6707 22.0096C50.6707 21.9752 50.6362 21.9065 50.6362 21.8722C50.5327 21.7004 50.4293 21.5973 50.2569 21.5286C50.2224 21.4943 50.1534 21.4943 50.0845 21.4943C49.912 21.5286 49.7741 21.5973 49.6362 21.7348C49.5327 21.8378 49.4983 21.9409 49.4983 22.0783C49.5327 22.2157 49.5672 22.3188 49.6017 22.4562C49.6362 22.5593 49.6707 22.628 49.7051 22.731C49.7741 23.0059 49.7051 23.212 49.4983 23.4181C49.3603 23.5212 49.2224 23.5899 49.05 23.6586C49.05 23.6586 49.05 23.6243 49.0155 23.6243C49.0155 23.4868 48.981 23.3838 48.981 23.2464C48.9465 22.9372 48.9465 22.628 48.9465 22.3188C48.912 22.0439 48.912 21.7348 48.8776 21.4599C48.8776 21.3225 48.7741 21.1851 48.6707 21.082C48.6017 21.0133 48.4983 20.9789 48.3948 21.0133C48.2914 21.0477 48.1879 21.0477 48.1189 21.082C47.7396 21.2538 47.4638 21.5286 47.2569 21.8722C47.2224 21.9409 47.1879 22.0439 47.1534 22.1127C47.1189 22.2501 47.0845 22.3531 47.05 22.4906C46.912 23.0059 46.8086 23.5212 46.6017 24.0365C46.4293 24.4831 46.2224 24.861 45.8776 25.2046C45.4983 25.5481 45.05 25.7542 44.5327 25.7886C44.2914 25.823 44.1534 25.7199 44.0845 25.5138V25.4794C44.05 25.4107 44.05 25.3763 44.1189 25.342C44.1534 25.3076 44.1879 25.3076 44.2224 25.3076C44.2914 25.2733 44.3603 25.2733 44.3948 25.2733C44.7741 25.1702 45.0845 24.9984 45.3603 24.7236C45.6362 24.4488 45.8086 24.1052 45.912 23.7273C45.912 23.693 45.912 23.693 45.912 23.6586C45.912 23.5556 45.8776 23.4868 45.8086 23.4181C45.7051 23.3494 45.5672 23.3151 45.4293 23.2807C45.2914 23.2464 45.1534 23.212 45.0155 23.1776C44.9465 23.1433 44.8776 23.1089 44.8431 23.0402C44.8086 22.9715 44.7741 22.9028 44.7051 22.8685C44.5327 22.6623 44.3258 22.5593 44.05 22.5936C43.981 22.5936 43.912 22.5936 43.8431 22.628C43.4983 22.6967 43.1879 22.7654 42.8431 22.7997C42.5327 22.8341 42.1879 22.8341 41.8776 22.7654C41.3948 22.6967 40.9465 22.5249 40.5327 22.2844C40.3948 22.2157 40.2569 22.1814 40.0845 22.147C40.1189 22.3188 40.1534 22.4562 40.2569 22.628C40.3603 22.7997 40.3258 22.9372 40.1879 23.0746C40.1189 23.1433 40.0155 23.212 39.912 23.2807C39.8776 23.3151 39.8086 23.3151 39.7396 23.3494C39.6362 23.3838 39.5672 23.3494 39.4983 23.2807C39.4638 23.2464 39.4293 23.1776 39.3948 23.1089C39.2224 22.7997 39.0845 22.4562 38.9465 22.1127C38.912 22.0096 38.8776 21.9065 38.8086 21.8378C38.6362 21.5973 38.4293 21.4256 38.1189 21.4256C38.0155 21.4256 37.912 21.4256 37.8431 21.4599C37.4638 21.5286 37.1534 21.7004 36.981 22.0783C36.912 22.2501 36.8776 22.4218 36.8431 22.5936C36.8086 22.8685 36.8086 23.1776 36.8086 23.4525C36.7741 23.8647 36.7396 24.2426 36.6362 24.6205C36.5672 24.9641 36.4638 25.3076 36.3258 25.6512C36.1879 25.9947 36.2224 26.3039 36.3948 26.6131C36.4638 26.7505 36.5672 26.888 36.6707 27.0254C37.2914 27.7812 38.0845 28.1247 39.0845 28.0217C39.7051 27.9529 40.2569 27.6781 40.7741 27.3346C40.981 27.1971 41.05 27.0254 41.0155 26.7849C40.981 26.6475 40.9465 26.5101 40.9465 26.3726C40.9465 26.3039 40.912 26.2696 40.912 26.2009C40.912 26.0634 40.981 25.9604 41.1189 25.9947C41.1879 25.9947 41.2224 25.9947 41.2914 26.0291C41.3948 26.0634 41.5327 26.0978 41.6362 26.1665C41.8431 26.2696 42.05 26.3726 42.2224 26.5444C42.4293 26.7849 42.6707 27.0254 42.8776 27.2659C43.1189 27.5407 43.3258 27.8499 43.5672 28.1247C43.8776 28.5026 44.2224 28.8118 44.6707 29.0179C44.7741 29.0523 44.8431 29.121 44.912 29.1897C45.0155 29.2584 45.05 29.3615 45.0845 29.4646C45.1534 29.8425 45.2224 30.2547 45.2224 30.6326C45.2224 30.9418 45.1879 31.2166 45.1189 31.4915C45.0155 31.8694 44.8431 32.1786 44.6017 32.4878C44.2914 32.9 44.05 33.3466 43.981 33.862C43.912 34.1711 43.8086 34.4803 43.6707 34.7895C43.6362 34.8239 43.6362 34.8582 43.6017 34.8926C43.5327 34.927 43.4293 34.9957 43.3603 35.03C43.2224 34.8926 43.2224 34.8239 43.1879 34.6865C43.1534 34.4116 43.1534 34.1024 43.1189 33.8276C43.1189 33.7245 43.1189 33.6215 43.0845 33.5184C42.981 32.9687 42.4293 32.6939 41.9465 32.8657C41.8086 32.9 41.6707 32.9687 41.5327 33.0031C40.912 33.1749 40.3258 33.2779 39.6707 33.3123C39.1189 33.3466 38.5327 33.3123 37.981 33.2436C37.7741 33.2092 37.5672 33.2092 37.3948 33.2092C36.981 33.2436 36.6362 33.4497 36.3603 33.6902C36.3258 33.7245 36.3258 33.7245 36.2914 33.7589C36.4638 33.862 36.6362 33.965 36.8086 34.0337C37.3258 34.2742 37.5672 34.7552 37.4638 35.3049C37.4293 35.4423 37.3948 35.614 37.2914 35.7515C37.0155 35.4423 36.7741 35.1331 36.5327 34.8239C36.4638 34.8239 36.3948 34.8582 36.3258 34.8582C36.3258 34.8926 36.3603 34.9269 36.3603 34.9613C36.3948 35.1331 36.4293 35.3392 36.4638 35.511C36.4983 35.9576 36.4638 36.4042 36.3603 36.8508C36.2569 37.2287 36.1534 37.641 36.05 38.0189C36.0155 38.225 35.9465 38.3968 35.9465 38.6029C35.9465 38.9808 36.0155 39.3587 36.1879 39.7366C36.4293 40.3206 36.8086 40.8016 37.2569 41.2482C37.7396 41.7635 38.2914 42.2445 38.8086 42.6911C38.8776 42.7598 38.9465 42.7942 39.0155 42.8285C39.1534 42.8972 39.2569 42.8629 39.3258 42.7255C39.3603 42.6568 39.3948 42.5537 39.4293 42.4506C39.4983 42.1758 39.6017 41.901 39.7741 41.6948C39.912 41.4887 40.05 41.3169 40.1879 41.1108C40.3258 40.9047 40.4983 40.6985 40.6362 40.4924C40.8776 40.1145 40.981 39.7023 40.8431 39.2213C40.8086 39.0839 40.8776 38.9464 40.8776 38.809C40.9465 38.8434 40.981 38.8777 41.0155 38.9121C41.0845 38.9808 41.1534 39.0152 41.1879 39.0839C41.4983 39.3587 41.7741 39.4274 42.1534 39.2213C42.2569 39.1526 42.3603 39.1182 42.4638 39.0495C43.1879 38.6716 43.8776 38.1906 44.4983 37.6753C45.1534 37.0913 45.7396 36.4386 46.1534 35.6484C46.8776 34.3773 47.2224 32.9687 47.3258 31.5258C47.3603 31.1479 47.3258 30.77 47.3603 30.3921C47.3603 30.2547 47.3948 30.1173 47.4293 29.9799C47.4983 29.7394 47.6017 29.4989 47.7396 29.2928C47.8776 29.0523 48.05 28.8118 48.1534 28.5713C48.1534 28.5713 48.1534 28.5713 48.1879 28.5713C48.2569 28.6744 48.3603 28.7431 48.4638 28.8462C48.3948 28.9492 48.4638 28.9492 48.4982 28.9836ZM29.2224 25.5481C29.2224 25.5481 29.2224 25.5825 29.2224 25.5481C29.2224 25.7199 29.2569 25.8917 29.2914 26.0634C29.2914 26.0978 29.3258 26.1322 29.3258 26.1322C29.5672 26.5444 29.8431 26.991 30.0845 27.4033C30.2224 27.6094 30.3603 27.7812 30.4983 27.953C30.7396 28.2278 31.0845 28.3309 31.4638 28.2278C31.6017 28.1934 31.7396 28.1247 31.8776 28.056C32.1534 27.9186 32.3948 27.7468 32.6707 27.6094C32.912 27.472 33.1189 27.3346 33.3603 27.2315C33.4638 27.1628 33.5672 27.0597 33.6362 26.9223C33.7396 26.6475 33.8431 26.3726 33.981 26.0978V26.0634C33.9465 26.0634 33.9465 26.0634 33.9465 26.0634C33.7396 26.0978 33.4983 26.1322 33.2914 26.1665C33.1534 26.1665 32.981 26.2009 32.8431 26.2009C32.7052 26.2009 32.5672 26.1322 32.4983 26.0291C32.4293 25.926 32.3603 25.7886 32.2914 25.6855C32.3603 25.6512 32.4293 25.5825 32.4983 25.5481C32.6362 25.4451 32.8086 25.4107 33.0155 25.3763C33.4293 25.3763 33.8431 25.2733 34.2224 25.0672C34.6707 24.861 34.9465 24.5175 35.1189 24.0709C35.1534 24.0022 35.1534 23.9335 35.1534 23.8647C35.1534 23.7273 35.1189 23.6243 35.05 23.5212C35.0155 23.4868 35.0155 23.4525 34.981 23.4181C34.8431 23.2807 34.8431 23.1433 34.981 22.9715C35.05 22.8685 35.1189 22.7654 35.2224 22.6967C35.2569 22.6623 35.2569 22.5936 35.2224 22.5593C35.2224 22.5249 35.1879 22.5249 35.1879 22.4906C35.0845 22.5249 34.981 22.5593 34.912 22.5936C34.4638 22.7654 33.981 22.7654 33.5327 22.6967C33.2914 22.6623 33.05 22.5936 32.7741 22.5593C32.4983 22.5249 32.2224 22.5593 31.9465 22.628C31.5672 22.731 31.2914 22.9715 31.05 23.2464C30.981 23.3151 30.9465 23.3838 30.8776 23.4181C30.7396 23.5555 30.5672 23.5899 30.3948 23.4868C30.2914 23.4181 30.1879 23.3494 30.1189 23.2807C30.0845 23.2464 30.05 23.212 30.0155 23.1776C29.981 23.1433 29.9465 23.1433 29.912 23.1433C29.7052 23.1433 29.4638 23.1776 29.2569 23.2464C29.1879 23.2807 29.1534 23.3151 29.1534 23.3494C29.1189 23.4868 29.1189 23.6243 29.1879 23.7617C29.4293 24.3457 29.8086 24.8267 30.3603 25.1702C30.4293 25.2046 30.4983 25.2733 30.5672 25.3076C30.7052 25.3763 30.7396 25.5138 30.7052 25.6512C30.6707 25.823 30.6017 25.9604 30.3948 26.0291C30.3603 26.0291 30.3258 26.0291 30.2569 26.0291C30.1879 26.0291 30.1189 25.9947 30.05 25.9604C29.9465 25.8917 29.8086 25.8573 29.7052 25.7886C29.5327 25.7199 29.3603 25.6512 29.2224 25.5481ZM32.4638 9.71061C32.2914 9.6419 32.0155 9.57319 31.8431 9.57319C31.4638 9.57319 31.0845 9.6419 30.7396 9.81367C29.8086 10.2603 28.912 10.7413 28.05 11.2566C27.6362 11.4971 27.2224 11.7375 26.7396 11.9093C26.2914 12.0811 25.8431 12.2185 25.3603 12.2185C25.2914 12.2185 25.2224 12.2185 25.1879 12.2185C24.981 12.2529 24.912 12.3559 24.9465 12.562C24.9465 12.5964 24.981 12.6651 24.981 12.6995C25.05 12.9056 25.1534 13.0774 25.2569 13.2491C25.4638 13.5927 25.5672 13.9706 25.6362 14.3485C25.6707 14.7264 25.6362 15.1043 25.6017 15.4478C25.5327 15.8601 25.4983 16.3067 25.4293 16.719C25.3603 17.2343 25.3603 17.7153 25.3603 18.2306C25.3603 18.7115 25.3948 19.1581 25.4983 19.6391C25.5327 19.7765 25.5672 19.8796 25.6017 19.9827C25.7052 20.1544 25.8431 20.2231 26.0155 20.1544C26.1189 20.1201 26.2224 20.0514 26.2914 20.017C26.3948 19.9483 26.4638 19.8796 26.4983 19.7765C26.5327 19.6735 26.5672 19.5361 26.6017 19.3986C26.6017 19.1238 26.6362 18.849 26.6362 18.5741C26.6707 18.1275 26.7396 17.6809 26.8086 17.2343C26.912 16.5472 27.0845 15.8601 27.3258 15.173C27.4293 14.8638 27.5672 14.589 27.7741 14.3141C28.05 13.9706 28.3258 13.627 28.6362 13.2835C28.8431 13.043 29.05 12.8025 29.2224 12.562C29.4638 12.1498 29.7396 11.7719 30.05 11.4283C30.6017 10.7756 31.2914 10.2603 32.05 9.91674C32.1879 9.88238 32.2914 9.77932 32.4638 9.71061ZM33.4293 30.4265C33.5672 30.667 33.7052 30.8044 33.912 30.8387C34.0155 30.8731 34.1189 30.8731 34.2224 30.8731C34.6017 30.8731 35.0155 30.8044 35.3948 30.7357C35.8776 30.667 36.3603 30.5983 36.8431 30.5639C37.2569 30.5296 37.6707 30.5296 38.1189 30.4952C38.7741 30.4952 39.4293 30.4952 40.0845 30.5639C40.3603 30.5639 40.6362 30.5983 40.912 30.6326C41.2224 30.667 41.5327 30.7013 41.8776 30.7013C42.1534 30.7357 42.4293 30.7357 42.6707 30.77C43.05 30.8044 43.3948 30.8044 43.7396 30.7357C43.8776 30.7013 43.9465 30.6326 44.0155 30.5296C44.05 30.4608 44.05 30.3921 43.981 30.3234C43.912 30.2547 43.8431 30.186 43.7396 30.1516C43.7051 30.1173 43.6362 30.1173 43.6017 30.0829C43.2224 29.9112 42.912 29.6363 42.6707 29.2928C42.4638 29.0179 42.2569 28.7431 42.05 28.4339C41.981 28.3309 41.8776 28.2278 41.7741 28.1247C41.6707 27.9873 41.4983 27.9186 41.3258 27.953C41.2224 27.953 41.1189 28.0217 41.0155 28.0904C40.8431 28.2278 40.6707 28.2965 40.4638 28.3996C40.1879 28.537 39.912 28.6744 39.6362 28.8462C39.4983 28.9149 39.3948 29.0179 39.2914 29.121C39.1879 29.2241 39.1189 29.2928 39.0155 29.3615C38.8086 29.4989 38.6017 29.5676 38.3603 29.4989C37.9465 29.3958 37.5327 29.3271 37.1189 29.1897C36.8776 29.121 36.6362 29.0179 36.3948 28.9492C36.1189 28.8462 35.8086 28.8118 35.5327 28.9149C35.3258 28.9836 35.1534 29.0867 34.981 29.2241C34.6707 29.4989 34.3258 29.7394 33.981 29.9799C33.8431 30.0829 33.7052 30.1516 33.5672 30.2547C33.6017 30.2891 33.5327 30.3578 33.4293 30.4265ZM33.7741 34.1024C33.7741 34.1024 33.7396 34.1024 33.7741 34.1024C33.6707 34.2742 33.5672 34.446 33.4983 34.6178C33.4638 34.6865 33.4293 34.7895 33.3603 34.8582C33.2224 35.0987 33.0845 35.0987 32.9465 34.8926C32.8431 34.7895 32.7741 34.6521 32.7052 34.5147C32.6017 34.3429 32.4983 34.1368 32.4638 33.9307C32.2569 32.797 32.05 31.6633 31.8086 30.5296C31.7741 30.3921 31.7396 30.2204 31.7052 30.0829C31.6362 29.8768 31.4983 29.8081 31.2914 29.8768C30.981 29.9455 30.7052 30.1173 30.4638 30.3578C30.1534 30.7357 30.0155 31.1479 30.1189 31.6289C30.1534 31.9037 30.2224 32.2129 30.3258 32.4878C30.5672 33.381 30.912 34.2055 31.4638 34.9613C31.8431 35.511 32.3258 35.9919 32.8776 36.4042C33.2569 36.679 33.7052 36.8508 34.1879 36.9195C34.2569 36.9195 34.3258 36.9195 34.4293 36.9195C34.6017 36.8852 34.7052 36.7821 34.7052 36.6103C34.7052 36.5073 34.6707 36.4386 34.6707 36.3355C34.6017 36.095 34.5327 35.8202 34.4638 35.5797C34.3258 35.1331 34.1879 34.7208 34.0845 34.2742C33.9465 34.1368 33.912 34.0681 33.7741 34.1024ZM40.9465 31.9724C39.4638 31.8007 38.0155 31.732 36.5672 31.9724C36.6017 32.0755 36.6362 32.1442 36.7051 32.2129C36.912 32.4534 37.1879 32.5565 37.4983 32.5565C37.7396 32.5565 38.0155 32.5565 38.2569 32.5221C38.5672 32.5221 38.8431 32.4878 39.1534 32.4534C39.3603 32.4191 39.6017 32.4191 39.8086 32.3847C40.1189 32.316 40.3948 32.2473 40.7052 32.1786C40.7741 32.1442 40.8776 32.1442 40.9465 32.1099C40.9465 32.0755 40.9465 32.0412 40.9465 31.9724ZM30.3948 22.0096C30.4638 22.0096 30.5672 21.9752 30.6362 22.0096C30.912 22.0096 31.1534 21.9409 31.4293 21.8378C31.7741 21.666 32.1189 21.5286 32.4983 21.4256C32.9465 21.3225 33.3603 21.2881 33.8086 21.3912C33.8431 21.3912 33.8431 21.3912 33.8776 21.3912V21.3568C33.7396 20.7728 33.2224 20.4293 32.6017 20.6698C32.4983 20.7041 32.3603 20.7728 32.2569 20.8072C31.6707 21.082 31.0845 21.3912 30.4983 21.666C30.3948 21.7691 30.3603 21.8378 30.3948 22.0096ZM41.912 21.6317C42.1189 21.6317 42.2914 21.5973 42.4638 21.563C42.7051 21.4943 42.981 21.4943 43.2224 21.5286C43.5327 21.563 43.7741 21.7004 44.0155 21.9065C44.2224 22.0783 44.4638 22.2157 44.7051 22.3188C44.8776 22.3875 45.05 22.3875 45.2224 22.3531C45.1879 22.3188 45.1879 22.2844 45.1534 22.2501C45.05 22.147 44.981 22.0783 44.8776 21.9752C44.6707 21.8035 44.4638 21.5973 44.2224 21.4256C44.0845 21.3225 43.981 21.2194 43.8431 21.1164C43.3258 20.7728 42.7051 20.7728 42.2224 21.1507C42.1189 21.2881 42.0155 21.4256 41.912 21.6317ZM26.3603 21.2538C26.1534 21.2538 26.0155 21.3225 25.9121 21.4256C25.8086 21.5286 25.7741 21.6317 25.8431 21.7691C26.05 22.3531 26.2914 22.9372 26.4983 23.5212C26.5327 23.6243 26.6362 23.6586 26.7396 23.693C26.7741 23.693 26.8086 23.693 26.8086 23.6586C26.8431 23.6243 26.8776 23.5556 26.8776 23.4868C26.8086 22.8685 26.7396 22.2844 26.6362 21.666C26.6362 21.563 26.5672 21.4599 26.5327 21.3568C26.4983 21.2881 26.4293 21.2538 26.3603 21.2538ZM30.9465 20.601C30.912 20.601 30.912 20.5667 30.912 20.5667C30.8776 20.5667 30.8086 20.5323 30.7741 20.5323C30.3603 20.4293 29.9465 20.4636 29.5672 20.5667C29.4293 20.601 29.2914 20.6698 29.1879 20.7728C29.05 20.9102 28.9465 21.0477 28.8776 21.1851C28.8431 21.2194 28.8431 21.2881 28.8431 21.3225C28.8086 21.5286 28.981 21.7004 29.1534 21.666C29.1879 21.666 29.2569 21.6317 29.2914 21.6317C29.8776 21.3225 30.3948 20.9789 30.9465 20.6354C30.912 20.601 30.9465 20.601 30.9465 20.601ZM35.7052 26.0291C35.6017 26.0291 35.5327 26.0634 35.4293 26.0634C35.2569 26.0634 35.1534 26.1665 35.0845 26.3039C35.0845 26.3383 35.05 26.3726 35.05 26.3726C34.981 26.5101 34.9465 26.6475 34.8776 26.7849C34.8431 26.8192 34.8776 26.8536 34.8776 26.888C34.912 26.9567 34.9465 27.0254 35.0155 27.0941C35.1534 27.2659 35.2569 27.472 35.3948 27.6438C35.4293 27.7125 35.4983 27.7468 35.5672 27.7468C35.6017 27.7468 35.6362 27.7468 35.7052 27.7468C35.8086 27.7468 35.8431 27.7125 35.8431 27.6094C35.8431 27.5407 35.8431 27.5063 35.8431 27.4376C35.8431 27.1628 35.8086 26.9223 35.8086 26.6818C35.7741 26.4413 35.7396 26.2352 35.7052 26.0291ZM46.0155 21.5286C46.0155 21.3912 45.981 21.2538 45.981 21.1164C45.981 20.8759 45.8431 20.7041 45.6362 20.6354C45.2914 20.4636 44.9465 20.4636 44.6017 20.5323C44.5327 20.5323 44.4293 20.5667 44.3603 20.6354C44.3948 20.6698 44.3948 20.7385 44.4638 20.7385C44.7741 20.9789 45.0845 21.2538 45.4293 21.4599C45.4983 21.4943 45.5672 21.5286 45.6017 21.5286C45.7051 21.4943 45.8431 21.5286 46.0155 21.5286ZM27.1534 20.1888C27.1879 20.3606 27.2224 20.5323 27.2569 20.7041C27.2914 20.8072 27.2914 20.8415 27.4293 20.8415C27.4983 20.8415 27.5327 20.8415 27.6017 20.8415C27.7396 20.8415 27.912 20.8072 28.05 20.8072C28.2914 20.7728 28.2224 20.7728 28.2569 20.601C28.2569 20.5323 28.2914 20.4636 28.2569 20.3606C27.912 20.2919 27.5327 20.2231 27.1534 20.1888ZM46.6362 20.3949C46.6362 20.498 46.6017 20.5667 46.6017 20.6698C46.6017 20.8415 46.6707 20.9446 46.8431 20.9789C46.8776 20.9789 46.912 20.9789 46.912 20.9789C47.0155 20.9789 47.1189 20.9789 47.2224 20.9789C47.2569 20.9789 47.3258 20.9789 47.3603 20.9446C47.4638 20.8759 47.5672 20.7728 47.6017 20.6354C47.6017 20.601 47.6017 20.601 47.6017 20.5667C47.5327 20.4636 47.4638 20.3949 47.3603 20.3949C47.1534 20.3606 46.912 20.3949 46.6362 20.3949Z" fill="#13161D"/>
<path fill-rule="evenodd" clip-rule="evenodd" d="M61.2913 59.2156C61.2913 59.1812 61.3947 59.1812 61.4292 59.1125C61.6361 59.0438 61.6706 58.9064 61.7395 58.769C61.8085 58.6659 61.8775 58.4941 61.8775 58.3911C61.8775 58.2536 61.843 58.0819 61.7395 57.9445C61.6706 57.807 61.5671 57.7383 61.4292 57.6353C61.3947 57.6353 61.2913 57.6353 61.2913 57.5666V57.4291C61.3947 57.4291 61.4292 57.4978 61.5671 57.4978C61.6706 57.6009 61.8085 57.6696 61.843 57.8757C61.9809 58.0819 62.0499 58.1849 62.0499 58.3911C62.0499 58.5972 61.9809 58.7003 61.9464 58.872C61.8085 59.0095 61.6706 59.1469 61.5671 59.2499C61.4292 59.2499 61.3602 59.353 61.2913 59.353V59.2156ZM61.2913 58.9064V58.9751H61.4982L61.3947 58.7346C61.2913 58.7346 61.2913 58.6659 61.2913 58.5972V58.9064V58.9064ZM61.2913 58.4254L61.3947 58.3567C61.4292 58.3567 61.4292 58.2193 61.4292 58.1849C61.4292 58.1162 61.4292 58.1162 61.3947 58.0475C61.3947 57.9788 61.2913 57.9788 61.2913 57.9101V58.4254ZM61.0499 59.4217C61.1533 59.4217 61.1878 59.4217 61.3258 59.353V59.2156H61.0499V59.4217ZM61.2913 57.6009V57.4635C61.1878 57.3948 61.1189 57.3948 61.0154 57.3948V57.6009H61.2913ZM61.2913 57.9101H61.0154V58.0475H61.1533C61.1533 58.0475 61.1533 58.1162 61.2223 58.1162V58.1849C61.2223 58.2193 61.2223 58.288 61.1533 58.288C61.1533 58.3567 61.0844 58.3567 61.0154 58.3567V58.5285C61.1189 58.6316 61.1189 58.7003 61.1533 58.8033L61.2568 58.9064V58.5972C61.2223 58.5972 61.2223 58.4941 61.2223 58.4941C61.1533 58.4941 61.1533 58.4598 61.0844 58.4598C61.1533 58.4598 61.2223 58.4598 61.2568 58.3911V57.9101H61.2913ZM60.8085 59.353V59.2156H61.0499V59.4217C61.0154 59.4217 60.912 59.4217 60.8085 59.353ZM60.8085 58.4598V58.3567H61.0154H61.0499V58.5285C61.0154 58.5285 60.9464 58.4941 60.8775 58.4941H60.8085V58.4598ZM60.8085 58.0475V57.9101H61.0154H61.0499V58.0475H61.0154H60.8085ZM60.8085 57.6009V57.4635C60.912 57.3948 61.0154 57.3948 61.0499 57.3948V57.6009H60.8085ZM60.8085 57.4635C60.7396 57.4635 60.6361 57.5322 60.5671 57.5322C60.4292 57.6353 60.2913 57.704 60.1878 57.9101C60.1189 58.1162 60.0499 58.2193 60.0499 58.4254C60.0499 58.6315 60.1189 58.7346 60.1878 58.9064C60.3258 59.0438 60.4292 59.1812 60.5671 59.2843C60.6361 59.2843 60.7396 59.3874 60.8085 59.3874V59.2499C60.7396 59.2156 60.6706 59.2156 60.6361 59.1469C60.4982 59.0782 60.4292 58.9407 60.3602 58.8033C60.2568 58.7003 60.2568 58.5285 60.2568 58.4254C60.2568 58.288 60.2568 58.1162 60.3602 57.9788C60.4637 57.8414 60.5327 57.7727 60.6361 57.6696C60.7051 57.6696 60.7396 57.6696 60.8085 57.6009V57.4635ZM60.8085 57.9101H60.6361V58.9751H60.8085V58.4598V58.3567V58.0475V57.9101ZM46.4292 68.2509V61.2769C49.0154 57.4978 55.3602 56.2954 59.6706 57.807L59.2223 61.483C59.0499 61.5517 58.6016 61.5517 58.4292 61.3112C56.6361 58.7346 51.4637 60.1775 50.3602 63.8878C50.1189 66.4644 52.774 69.041 58.4637 67.1172L57.912 70.2778C53.0844 71.2054 48.5327 70.5183 46.4292 68.2509ZM46.4292 58.872L46.8775 57.2917H46.4292V58.872ZM46.4292 57.2917H46.0499V60.4523L46.4292 58.9064V57.2917ZM46.4292 61.2425C46.2913 61.483 46.1878 61.6891 46.0499 61.9296V67.7355C46.1878 67.9417 46.3258 68.1478 46.4292 68.2509V61.2425ZM45.6706 67.0828V62.8572C45.7396 62.5136 45.9465 62.2044 46.0499 61.964V67.7699C45.9465 67.5638 45.7396 67.3233 45.6706 67.0828ZM45.6706 61.1394V57.2917H46.0499V60.4523L45.8775 61.1738H45.6706V61.1394ZM45.6706 57.2917H34.9465C34.1533 59.0782 35.7051 58.5285 35.7051 59.1469L33.8085 66.0865V70.3808H38.774C38.774 69.5563 38.5671 69.4533 38.1189 68.7662L38.9465 65.1589C39.9464 64.9872 42.4292 65.1246 43.2568 65.9147L44.2223 62.3075L39.8085 62.4449L40.3947 60.1775L44.2568 60.2462C45.0154 60.3836 45.1533 61.0707 45.6706 61.2082V57.2917V57.2917ZM45.6706 62.8228C45.6016 62.9259 45.5327 63.0633 45.5327 63.2694C45.0844 64.7467 45.1533 65.9834 45.6706 67.0828V62.8228ZM33.843 58.3567V57.3261H34.2223C34.2913 57.7727 34.1533 58.1162 33.843 58.3567ZM33.843 57.3261V58.3567C33.7051 58.4254 33.5671 58.4598 33.4637 58.5285V57.3261H33.843ZM33.843 66.0522V70.3465H33.4637V67.4607L33.843 66.0522ZM33.0154 70.3465H33.4637V67.4607L33.0154 68.9036V70.3465ZM33.0154 58.7003C33.1878 58.6316 33.3258 58.6316 33.4637 58.5285V57.3261H33.0154V58.7003ZM33.0154 57.3261V58.6659H32.8775L27.1534 63.4068C28.6016 65.7086 29.2223 66.4301 30.6706 68.6975C31.3602 69.2815 32.0499 69.0067 31.9465 70.4152L26.9465 70.2778C25.2913 70.2091 23.1534 66.5331 21.843 64.9872L20.9809 67.873L21.7396 69.2471L21.6016 70.2091H14.7051V70.1404V69.8312C14.843 68.8692 15.7396 69.1097 15.912 68.6288C16.9809 65.4681 17.9809 62.6167 18.7396 59.4217C18.912 58.8377 18.6706 58.6659 18.0499 58.4598C17.843 58.0132 17.9809 57.3948 18.4982 57.2574C20.3258 57.3261 22.1534 57.3948 24.0154 57.3948L24.774 57.4635C24.6706 58.0475 24.5327 58.5285 23.843 58.7346C23.4982 58.872 22.5671 61.5173 22.5671 62.9602L27.6361 59.0782C27.912 58.769 27.912 58.5628 27.0154 58.4598C26.843 58.2193 26.9465 57.807 27.2568 57.3604H33.0154V57.3261ZM33.0154 68.9036V70.3465H32.6361L33.0154 68.9036Z" fill="#13161D"/>
</g>
<defs>
<clipPath id="clip0_294_149">
<rect width="74" height="74" fill="white" transform="translate(0.946533 0.537842)"/>
</clipPath>
</defs>
</svg>
