<svg width="153" height="49" viewBox="0 0 153 49" fill="none" xmlns="http://www.w3.org/2000/svg">
<path d="M18.0703 22.8968L20.6746 15.957L23.023 22.0989L27.2832 19.5548L21.3671 4.1699C20.9757 3.13119 19.4854 3.1613 19.1241 4.21506L13.2381 21.7677C12.9822 22.5204 12.9972 23.3333 13.2682 24.086L14.4123 27.2473L18.7327 24.6731L18.0703 22.8968Z" fill="black"/>
<path d="M17.2574 34.6538L11.3714 32.6064L6.70476 35.3914L6.32841 35.6172L6.11766 35.7527L3.63379 43.0086L9.21874 39.6064L9.20368 39.5914L10.7091 38.6882L23.3693 43.3247C24.4983 43.7462 25.6123 42.6322 25.1757 41.5032L19.4553 26.2086L15.1198 28.7978L17.2574 34.6538Z" fill="black"/>
<path d="M32.3713 46.2L35.6681 41.0215L31.7391 30.7699L28.0208 21.1054L23.7756 23.6495L32.3713 46.2Z" fill="black"/>
<path d="M52.9046 14.0753L44.9111 36.1892H40.0487L32.1003 14.0753H36.9477L42.4724 29.4753L48.0423 14.0753H52.9046Z" fill="black"/>
<path d="M69.1026 14.0753H73.679V36.1892H69.1026V34.3677C68.1844 35.1355 67.1005 35.6624 65.836 35.9484L65.5951 35.9935C64.8725 36.129 64.1198 36.1892 63.3371 36.1892C62.5543 36.1892 61.8016 36.129 61.079 35.9935L60.8381 35.9484C58.3994 35.4366 56.5026 34.2323 55.1177 32.3204C53.7026 30.4086 52.9951 28.015 52.9951 25.1247C52.9951 22.2193 53.7026 19.8107 55.1177 17.8839C56.5328 15.972 58.4596 14.7828 60.9134 14.3011L61.1392 14.2409C61.8467 14.1204 62.5844 14.0602 63.3521 14.0602C64.1199 14.0602 64.8575 14.1204 65.565 14.2409L65.7908 14.3011C67.0854 14.572 68.1994 15.0989 69.1328 15.8817V14.0753H69.1026ZM69.1026 25.0946C69.1026 23.2731 68.7414 21.828 68.0037 20.7441C67.0403 19.329 65.4897 18.6215 63.3371 18.6215C61.1693 18.6215 59.6037 19.329 58.6553 20.7441C57.9328 21.843 57.5715 23.3032 57.5715 25.1097C57.5715 26.9312 57.9328 28.3763 58.6553 29.4602C59.6188 30.8903 61.1844 31.5978 63.3371 31.5978C65.4897 31.5978 67.0403 30.8903 68.0037 29.4753C68.7414 28.3914 69.1026 26.9462 69.1026 25.1247V25.0946Z" fill="black"/>
<path d="M92.2552 15.0237C93.896 15.8516 95.1605 17.1312 96.0638 18.8774C96.982 20.6387 97.4336 22.7161 97.4336 25.1247V36.1892H92.8573V25.1247C92.8573 23.3032 92.5562 21.8581 91.939 20.7742C91.1261 19.3441 89.8014 18.6366 87.9799 18.6366C86.1734 18.6366 84.8638 19.329 84.0659 20.714C83.4336 21.7677 83.1175 23.1828 83.1025 24.9742V36.2043H78.5261V14.0753H83.1025V15.4C83.2982 15.2645 83.4939 15.1441 83.7046 15.0237C84.9842 14.3763 86.4143 14.0602 87.9799 14.0602C89.5455 14.0602 90.9756 14.3763 92.2552 15.0237Z" fill="black"/>
<path d="M108.89 35.9484C106.451 35.4366 104.554 34.2323 103.169 32.3204C101.754 30.4086 101.047 28.015 101.047 25.1247C101.047 22.2194 101.754 19.8108 103.169 17.8839C104.584 15.972 106.511 14.7828 108.965 14.3011L109.191 14.2409C109.898 14.1204 110.636 14.0602 111.404 14.0602C112.171 14.0602 112.909 14.1204 113.617 14.2409L113.827 14.3011C115.122 14.572 116.236 15.0989 117.169 15.8817V3.71828H121.746V36.1892H117.169V34.3677C116.251 35.1355 115.167 35.6624 113.903 35.9484L113.662 35.9935C112.939 36.129 112.186 36.1892 111.404 36.1892C110.621 36.1892 109.868 36.129 109.146 35.9935L108.89 35.9484ZM111.389 18.6366C109.221 18.6366 107.655 19.3441 106.707 20.7591C105.984 21.8581 105.623 23.3183 105.623 25.1247C105.623 26.9462 105.984 28.3914 106.707 29.4753C107.67 30.9054 109.236 31.6129 111.389 31.6129C113.541 31.6129 115.092 30.9054 116.055 29.4903C116.793 28.4064 117.154 26.9613 117.154 25.1398V25.0946C117.154 23.2731 116.793 21.828 116.055 20.7441C115.092 19.3441 113.541 18.6366 111.389 18.6366Z" fill="black"/>
<path d="M130.522 35.2258C128.881 34.3978 127.616 33.1183 126.713 31.3871C125.795 29.6107 125.343 27.5333 125.343 25.1247V14.0602H129.92V25.1247C129.92 26.9613 130.221 28.4215 130.838 29.4903C131.651 30.9054 132.976 31.6129 134.797 31.6129C136.603 31.6129 137.913 30.9355 138.726 29.5656C139.358 28.4968 139.674 27.0667 139.69 25.2903V14.0602H144.266V36.1742H139.69V34.8495C139.494 35 139.298 35.1204 139.087 35.2258C137.808 35.8731 136.378 36.1892 134.812 36.1892C133.231 36.1892 131.801 35.8731 130.522 35.2258Z" fill="black"/>
</svg>
