<svg width="192" height="48" viewBox="0 0 192 48" fill="none" xmlns="http://www.w3.org/2000/svg">
<g clip-path="url(#clip0_294_325)">
<path d="M31.4754 40.2814C31.6105 40.1469 31.7456 40.0394 31.8537 39.9049C31.9077 39.8243 31.9618 39.7436 32.0158 39.663C32.0428 39.6361 32.0699 39.5823 32.0969 39.5554C32.205 39.3941 32.286 39.2328 32.3671 39.0714C32.3941 38.9908 32.4482 38.9101 32.4752 38.8294C32.5022 38.7757 32.5293 38.7488 32.5293 38.695C32.5293 38.6681 32.5563 38.6412 32.5563 38.6143C32.8535 37.7808 32.9346 36.8935 32.7995 35.9255C32.5563 33.9627 31.5024 32.6721 29.6108 31.973C28.6649 31.6235 27.584 31.4622 26.2058 31.4622C25.3411 31.4622 24.4493 31.4622 23.5576 31.4622H20.3418V46.8151H22.4766V41.8678H26.7193C26.7193 41.8678 28.4217 44.0995 29.0433 44.933C29.5297 45.5783 30.0161 46.1967 30.4755 46.842C31.043 46.842 31.6375 46.842 32.205 46.842H32.6644C32.5293 46.6807 32.3941 46.5194 32.2861 46.3311L29.3675 42.5668L28.692 41.6795C29.0703 41.5989 29.4756 41.4913 29.881 41.33C30.4755 41.0342 31.016 40.7116 31.4754 40.2814ZM28.9892 39.8243C28.3677 40.1201 27.8002 40.2814 27.2868 40.3083C26.7193 40.3352 26.1788 40.3352 25.6113 40.3352C25.26 40.3352 24.8817 40.3352 24.5304 40.3352C24.1791 40.3352 23.8008 40.3352 23.4495 40.3352H22.5577V33.0754H25.206C25.8275 33.0754 26.449 33.0754 27.0706 33.1023C28.0975 33.1561 28.9622 33.4787 29.6648 34.0972C30.4214 34.7694 30.7998 35.6567 30.7728 36.7591C30.7728 38.1841 30.1512 39.2596 28.9892 39.8243Z" fill="white"/>
<path d="M15.5857 39.125H9.04613V40.4963H13.8833V43.9111C13.7211 44.0724 13.532 44.2337 13.3158 44.3682C13.2077 44.4488 13.0726 44.5026 12.9645 44.5564C12.8564 44.6102 12.7483 44.6371 12.6132 44.6908C12.37 44.7715 12.1268 44.879 11.8565 44.9328C10.6405 45.2555 9.31636 45.3093 8.85697 45.3093C8.80292 45.3093 8.74887 45.3093 8.69483 45.3093C8.4246 45.3093 8.12734 45.3093 7.83009 45.2824C5.88441 45.1479 4.42516 44.0993 3.72256 42.3785C2.93889 40.4694 2.88484 38.5066 3.56042 36.5169C4.26302 34.4465 5.7493 33.2097 7.91115 32.9139C9.1272 32.7526 10.4243 32.8064 12.1268 33.1559C12.7753 33.2904 13.4509 33.4517 14.0995 33.613C14.1265 33.613 14.1535 33.613 14.1805 33.6399L14.6399 32.2686C13.1807 31.7309 11.5863 31.3813 9.93789 31.2469C9.45148 31.1931 9.01911 31.1931 8.58673 31.1931C7.45176 31.1931 6.4519 31.3544 5.53311 31.6771C3.72256 32.3224 2.45247 33.5055 1.72284 35.1725C0.614891 37.7 0.587868 40.335 1.61475 43.0507C2.34438 44.9866 3.80363 46.2234 5.91144 46.7881C7.45176 47.1914 9.10018 47.1914 11.235 46.815C12.6132 46.5461 14.0184 46.0621 15.6398 45.2555C15.6398 43.696 15.6398 42.1096 15.6398 40.5501V39.125H15.5857Z" fill="white"/>
<path d="M48.2838 31.4351V33.2634C48.2838 35.522 48.2838 37.7806 48.2838 40.0392C48.2838 40.9534 48.1217 41.7869 47.8244 42.5129C47.0407 44.4219 45.6085 45.3092 43.3656 45.2285C41.3659 45.1748 39.9066 44.0455 39.3662 42.1902C39.15 41.4373 39.0419 40.7114 39.0149 40.0392C38.9878 37.7806 38.9878 35.4682 38.9878 33.2365V31.4351H36.799V33.1559C36.799 35.28 36.799 37.4311 36.799 39.5552C36.799 41.2222 37.0151 42.4591 37.4745 43.5884C38.0961 45.121 39.1229 46.1158 40.6362 46.5998C42.5549 47.2182 44.5546 47.2451 46.5003 46.6267C48.0676 46.1427 49.1215 45.121 49.7701 43.5346C50.2025 42.4322 50.4186 41.1954 50.4186 39.5014C50.4186 37.4311 50.4186 35.3338 50.4186 33.2634V31.4351H48.2838V31.4351Z" fill="white"/>
<path d="M66.1731 33.129C65.2543 32.2148 64.0653 31.6771 62.525 31.5158C61.6332 31.4351 60.6874 31.4082 59.7957 31.4082H59.5254C58.8498 31.4082 58.1743 31.4082 57.4987 31.4082H55.3909V46.7612H57.5257V42.486H60.4442C60.8766 42.486 61.2819 42.486 61.7143 42.486C62.7682 42.4591 63.687 42.2709 64.5517 41.9214C65.9029 41.3567 66.7676 40.4694 67.227 39.1788C67.6054 38.1302 67.6864 36.974 67.4702 35.6834C67.2541 34.6616 66.8487 33.8012 66.1731 33.129ZM64.6598 39.5552C63.9842 40.335 63.0384 40.7921 61.8764 40.8727C61.2279 40.8996 60.5793 40.9265 59.9848 40.9265H58.985H58.4985C58.3094 40.9265 57.4987 40.9265 57.4987 40.9265V40.0123V33.0484H58.4445C58.8228 33.0753 59.2282 33.0484 59.6065 33.0753C60.4983 33.1021 61.417 33.129 62.3358 33.2635C64.2815 33.5323 65.5246 35.0918 65.4705 37.1353C65.4705 37.7537 65.3624 38.7217 64.6598 39.5552Z" fill="white"/>
<path d="M81.5494 31.6234C80.5495 31.3007 79.5226 31.1394 78.4958 31.1394C77.4419 31.1394 76.3609 31.3276 75.28 31.6772C73.7937 32.188 72.6587 33.1291 71.8751 34.5004C71.1995 35.7372 70.8482 37.1892 70.8212 39.0713C70.8482 40.6308 71.0373 41.787 71.4427 42.8356C72.2264 44.7984 73.6046 46.0353 75.6313 46.6268C77.2257 47.1108 78.9281 47.1646 80.6306 46.7881C83.441 46.1966 85.1705 44.5296 85.8461 41.7332C86.3325 39.7166 86.2785 37.7269 85.6569 35.791C84.9813 33.6669 83.6302 32.2956 81.5494 31.6234ZM83.441 42.0828C82.7925 43.8842 81.3873 44.9598 79.4146 45.2286C79.0903 45.2824 78.766 45.2824 78.4417 45.2824C77.6581 45.2824 76.9014 45.148 76.2258 44.8522C74.7936 44.2607 73.7937 43.1045 73.3884 41.5181C73.1992 40.7921 73.0371 40.1199 73.0371 39.2595C73.0101 38.8562 73.0101 38.5873 73.0101 38.3991C73.1452 37.2967 73.2262 36.7321 73.7667 35.6297C74.4963 34.1508 75.7394 33.2098 77.4419 32.9678C78.6579 32.7796 79.7929 32.8871 80.7927 33.2904C82.198 33.8551 83.1708 34.9844 83.6032 36.517C84.1436 38.5067 84.0896 40.3619 83.441 42.0828Z" fill="white"/>
<path d="M101.628 41.1954C101.52 41.0341 101.438 40.9534 101.357 40.8458C98.9523 37.6462 93.953 31.0049 93.953 31.0049C93.953 31.0049 90.7103 31.0049 90.6022 31.0049C90.6022 36.4362 90.6022 41.8138 90.6022 47.1914C91.8452 47.1914 93.0613 47.1914 94.3043 47.1914C94.3043 43.8573 94.3043 40.5501 94.3043 37.1622C94.4124 37.2966 94.4665 37.3504 94.5205 37.4311C96.9526 40.6307 101.925 47.1914 101.925 47.1914C101.925 47.1914 104.006 47.1914 104.897 47.1914C105.033 47.1914 105.168 47.1914 105.303 47.1914C105.303 41.7869 105.303 36.4093 105.303 31.0318C104.06 31.0318 102.871 31.0318 101.601 31.0318C101.628 34.3928 101.628 37.7537 101.628 41.1954Z" fill="white"/>
<path d="M158.782 30.978H153.755C153.755 30.978 150.026 40.4963 148.243 45.1211C147.972 45.7932 147.702 46.4923 147.432 47.1914C147.486 47.2183 151.404 47.1914 151.404 47.1914L152.539 44.18H159.971C159.971 44.18 160.808 46.4117 161.106 47.1914C162.43 47.1914 163.754 47.1914 165.105 47.1914C162.97 41.8138 158.782 30.978 158.782 30.978ZM153.782 40.819C154.62 38.5604 155.431 36.3287 156.242 34.1508C157.052 36.3287 157.863 38.5604 158.728 40.819C157.052 40.819 155.431 40.819 153.782 40.819Z" fill="white"/>
<path d="M146.621 31.0049C146.486 31.0049 142.379 31.0049 142.379 31.0049C142.379 31.0049 138.785 36.3287 138.568 36.6244C138.514 36.5707 134.704 31.0049 134.704 31.0049C134.704 31.0049 134.704 31.0049 134.515 31.0049C133.272 31.0049 130.624 31.0049 130.515 31.0049C132.245 33.6668 134.001 36.3556 135.704 39.0175C133.947 41.76 130.407 47.2183 130.407 47.2183H134.596C134.596 47.2183 138.487 41.3836 138.568 41.2492C138.649 41.3836 142.622 47.2183 142.622 47.2183H146.756L141.433 39.0175C141.46 38.9906 146.567 31.1124 146.621 31.0049Z" fill="white"/>
<path d="M127.975 42.997C126.462 43.696 124.868 44.0994 123.192 44.0994C121.247 44.1263 119.814 43.1852 119.139 41.3837C118.679 40.1468 118.652 38.8562 118.896 37.5656C119.058 36.7052 119.382 35.8986 120.003 35.2801C120.814 34.4735 121.841 34.1777 122.949 34.0971C124.408 34.0164 125.84 34.3122 127.246 34.7155C127.516 34.7962 127.759 34.8768 128.029 34.9575C128.408 34.0164 128.786 33.1022 129.137 32.188C128.164 31.6772 127.138 31.3007 126.057 31.0856C124.03 30.6554 122.003 30.6017 120.003 31.2201C117.761 31.9192 116.247 33.4249 115.518 35.6297C114.788 37.8345 114.761 40.12 115.437 42.3517C116.274 45.2018 118.274 46.815 121.22 47.3259C122.571 47.541 123.922 47.4872 125.246 47.2721C126.84 47.0033 128.327 46.4386 129.732 45.5782C129.326 44.664 128.921 43.7498 128.489 42.8087C128.3 42.8625 128.137 42.9163 127.975 42.997Z" fill="white"/>
<path d="M108.951 47.1916C110.194 47.1916 111.383 47.1916 112.626 47.1916C112.626 41.7871 112.626 36.4096 112.626 31.032C111.383 31.032 110.167 31.032 108.951 31.032C108.951 36.4364 108.951 41.814 108.951 47.1916Z" fill="white"/>
<path d="M183.049 12.1029L182.832 13.2322C185.373 13.501 185.859 13.6892 185.535 15.7865L183.94 24.9822L177.509 12.1566H171.861L171.618 13.2859C173.969 13.5279 174.915 13.743 174.698 14.9261L173.617 20.4112C173.212 21.5136 172.428 21.7287 171.645 21.7287C168.456 21.7287 166.429 18.5828 166.429 13.743C166.429 6.96728 170.483 1.8317 175.077 1.8317C177.32 1.8317 178.455 2.719 178.86 6.77907H179.833C180.238 4.22472 180.725 2.45012 180.833 1.26705C179.968 0.944398 178.347 0.487305 175.833 0.487305C167.024 0.487305 161.457 6.77907 161.457 13.743C161.457 19.6852 165.078 23.1269 171.185 23.1269C171.888 23.1269 172.537 23.0731 173.104 22.9925L172.158 27.8592L171.753 30.064C171.564 30.7093 170.726 30.9781 169.726 31.1395L169.456 32.2688H178.238L178.455 31.1395C175.86 30.8706 175.401 30.6824 175.779 28.4776L175.86 28.0743L175.671 29.0422L176.212 26.0577L177.698 17.9375C181.076 24.5251 184.427 31.5966 184.751 32.2419L186.129 32.215L188.859 17.3729L189.399 14.6841C189.804 13.6086 190.453 13.4473 191.561 13.259L191.831 12.1298H183.049V12.1029Z" fill="white"/>
</g>
<defs>
<clipPath id="clip0_294_325">
<rect width="191" height="47" fill="white" transform="translate(0.831055 0.433594)"/>
</clipPath>
</defs>
</svg>
