<svg width="92" height="88" viewBox="0 0 92 88" fill="none" xmlns="http://www.w3.org/2000/svg">
<path d="M66.8128 2.62746C88.3134 9.50296 91.3102 34.9856 91.3102 34.9856C91.881 38.3032 91.8334 48.8328 90.5966 54.0736C89.7404 57.6796 88.9793 67.1995 73.6625 79.412C70.7133 81.7679 67.2409 84.4604 63.6733 84.845C63.2452 84.8931 62.7695 84.9412 62.5793 84.6046C62.3414 84.2681 63.0074 83.4026 63.1976 83.3065C72.4733 77.6811 85.3642 68.1611 85.935 45.7075C85.935 45.7075 87.2193 24.6002 74.376 14.6476C70.2377 11.4262 64.2917 7.82015 59.6301 6.52197C58.9641 6.32965 52.4949 4.88724 52.3046 5.99309C52.0668 7.57974 54.683 7.6759 56.0149 7.72399C59.1068 7.82015 62.9122 9.74336 63.7684 10.1761C74.8517 15.7053 77.8009 22.2443 78.7523 23.8309C83.0334 30.8026 82.8907 44.1209 82.8907 46.0441C83.0334 58.1123 76.802 66.3341 73.9955 70.2767C69.2387 76.9598 58.536 85.4701 41.0787 86.9606C36.9878 87.2971 28.0451 87.201 19.1499 82.2487C16.2959 80.662 10.5878 75.9982 7.78127 70.5652C6.97261 68.9785 5.35531 64.8917 7.25802 64.507C8.39965 64.2666 10.0645 67.8246 13.1564 71.1902C15.9629 74.2673 18.817 77.1522 23.0029 79.2196C28.5683 82.0083 35.2278 83.5469 38.0343 83.1141C38.6527 83.018 38.7003 82.2487 38.1295 82.1045C36.417 81.6717 33.0397 81.3833 30.2332 80.3736C25.857 78.7869 17.818 73.6423 13.204 67.5842C11.4915 65.3244 8.87532 60.0836 8.39965 56.2372C7.54343 49.5059 7.82883 39.986 8.11424 38.1108C9.92181 27.3408 15.5824 21.0904 19.9586 17.1958C24.2397 13.3494 32.1359 10.6569 34.1338 9.6472C34.4667 9.45488 34.2765 9.07024 34.0386 9.02216C33.6581 8.97408 33.23 9.02216 32.8019 9.11832C32.5165 9.21448 32.1835 9.26256 31.8505 9.31064C30.8992 9.45488 5.59315 15.3207 5.30775 46.6211C5.26018 49.4578 2.88179 47.8231 2.59639 46.0922C1.78774 41.3322 1.88287 36.9569 2.97693 32.3893C4.9272 24.0233 10.0645 17.3401 15.1067 12.9648C22.5273 6.47389 32.897 2.7717 41.5068 1.23312C48.8322 -0.0650496 54.8257 -1.21898 66.8128 2.62746ZM4.6418 61.2856C5.97369 61.526 6.30667 60.4202 6.21153 59.8913C5.97369 58.8335 5.92613 57.8238 5.87856 56.3814C5.78342 55.0832 5.68829 53.4966 4.83207 52.4388C4.40396 51.9099 3.78558 51.5734 3.11963 51.5734C-0.019837 51.5253 1.02665 56.6218 1.50233 58.3527C1.6926 59.122 2.02557 59.8432 2.64395 60.3721C3.11963 60.8529 3.88071 61.1414 4.6418 61.2856Z" fill="white"/>
<path d="M67.3837 27.0523C66.9556 26.86 66.5751 26.7157 66.2897 26.5715C65.1956 26.0426 62.4367 25.1772 60.2486 24.456C59.0118 24.0713 57.775 23.6386 57.5372 23.5424C57.2994 23.1578 56.7761 20.8018 56.4907 19.6479C56.348 19.0709 56.2529 18.5901 56.2053 18.3978C56.015 17.6766 55.7772 17.2439 55.0637 17.292H55.0161C54.7783 17.292 51.5437 17.9651 46.2161 19.0709C42.6485 19.8402 38.9382 20.6095 38.7004 20.6576C38.415 20.7057 38.2247 20.8499 35.8939 24.4079C35.1804 25.4656 34.3241 26.8119 34.1814 26.9561C34.0863 27.0042 33.6106 27.1965 33.0874 27.4369C31.6128 28.062 28.8539 29.2159 26.4755 30.466C23.8593 31.8603 18.8646 34.8413 18.4841 35.5145C18.3414 35.7549 18.3414 36.0433 18.4841 36.2837C18.6744 36.5722 19.0549 36.7645 19.5306 36.7165C19.6257 36.7165 19.7209 36.7165 19.8636 36.6684C20.3868 36.5722 36.2269 34.1682 45.3123 33.1585C47.5955 32.9181 50.4496 32.6777 53.8269 32.4854C62.1513 32.0527 70.5707 32.0046 71.0464 32.1007C71.5221 32.1969 72.0453 32.0046 72.3783 31.6199C72.6637 31.3315 72.8064 30.8987 72.8064 30.5141C72.8064 29.6486 71.0464 28.7351 67.3837 27.0523Z" fill="#13161D"/>
<path d="M38.4625 43.4959C38.4149 42.6785 38.2722 42.2939 38.0344 42.1015C37.8917 42.0054 37.749 42.0054 37.5587 42.0054H37.5112C37.1306 42.1015 36.9879 42.4862 36.8928 42.7266C36.8452 42.7747 36.8452 42.8708 36.6074 43.1593C33.7057 47.15 33.3252 48.4962 33.1825 49.7463C33.0398 50.756 33.3728 51.9099 33.9436 52.4388C34.229 52.6792 34.562 52.7754 34.8949 52.7273C35.1328 52.6792 35.3706 52.535 35.4657 52.3427C35.5609 52.1504 35.5609 51.958 35.5133 51.7657C35.6084 51.1407 36.0841 50.2271 36.6074 49.1694C37.5112 47.4385 38.6052 45.2748 38.4625 43.4959Z" fill="#13161D"/>
<path d="M38.1296 40.9477H38.1772C38.9383 40.8034 39.6042 39.938 39.9372 39.4572C40.6507 38.4956 41.4593 37.1974 41.8399 36.5723C41.935 36.4281 42.1253 36.0915 42.1729 35.9473C42.268 35.7069 42.2204 35.5146 42.1253 35.4184C41.9826 35.2742 41.7923 35.2261 41.4118 35.3222C40.508 35.5146 38.6528 36.4281 37.5588 38.0148C37.0355 38.736 36.7977 39.5052 36.8928 40.0822C36.988 40.6592 37.4637 41.0438 38.1296 40.9477Z" fill="#13161D"/>
<path d="M54.6831 48.9772C54.4928 48.9772 54.3501 49.0733 54.3501 49.0733C53.6842 49.3618 52.4474 49.5541 51.8766 49.6503C50.9252 49.7464 49.9739 49.6503 48.8322 49.458C47.4528 49.2656 45.883 49.0733 43.8852 49.2656C43.5522 49.3137 43.2193 49.3618 42.8387 49.4099C43.4571 48.7848 45.1695 47.0059 46.1209 45.9481C46.7868 45.2269 47.976 43.8806 48.2614 43.0152C48.4041 42.6786 48.5468 42.0536 48.2614 41.6689C48.0712 41.3804 47.6906 41.2843 47.1674 41.3324C47.0722 41.3324 41.269 41.9574 41.269 41.9574C41.0787 41.9574 40.8409 41.9574 40.6982 41.9574C40.6506 41.9574 40.6506 41.9574 40.603 41.9574C39.9846 41.9093 39.5565 42.1978 39.4614 42.6305C39.3663 43.0152 39.5565 43.496 39.9846 43.7364C40.3652 43.9768 41.0311 44.121 41.9825 44.0729C42.3155 44.0729 42.6484 44.0249 42.9814 44.0249C43.7901 43.9287 44.4084 43.7845 44.789 43.6883C43.9803 44.5057 41.6495 46.7174 40.2225 48.1117C40.1273 48.2079 40.0322 48.304 39.9371 48.4002C39.176 49.1214 38.3198 49.9388 37.8917 50.8042C37.5587 51.5254 37.5587 52.1986 37.9868 52.5351C38.2246 52.7755 38.4625 52.8236 38.7955 52.7755C39.0333 52.7274 39.3187 52.6794 39.7468 52.5351C40.5079 52.2947 41.6495 51.9581 43.5522 51.7658C45.0744 51.6216 46.8344 51.5254 48.8322 51.6216C49.5458 51.6216 50.2593 51.6216 50.8777 51.5254C52.495 51.3331 53.8744 50.9004 54.7306 50.2273L54.7782 50.1792C55.0161 49.9868 55.4917 49.6022 55.3015 49.1695C55.1588 49.0733 54.9685 48.9772 54.6831 48.9772Z" fill="#13161D"/>
<path d="M33.4678 45.3711C33.4678 45.323 34.8948 42.1978 32.2311 39.9861C30.8992 38.8802 28.9964 38.4956 26.951 38.8322C25.857 39.0245 24.7629 39.4572 24.0494 39.938C23.2408 40.4669 23.0505 41.0439 23.0029 41.4285C22.9553 41.8612 23.1456 42.2459 23.2408 42.342C23.3359 42.4382 23.5737 42.5824 24.097 42.4863C24.3348 42.4382 24.6678 42.342 25.0483 42.1978C24.3348 43.1594 22.1467 46.3327 20.4343 51.862C19.1975 55.8526 18.8645 58.2086 19.3878 59.074C19.5305 59.2663 19.6732 59.3625 19.911 59.4106C19.9586 59.4106 20.0537 59.4106 20.1013 59.4106C21.1953 59.2183 22.2894 56.3334 23.8116 52.3428C24.0494 51.7658 24.2397 51.1888 24.4775 50.5638C26.9986 44.0248 27.1413 42.4382 26.9986 42.0055C27.7597 42.0055 30.471 42.1016 30.804 44.2172C31.0894 45.9481 29.2343 47.5828 27.4267 48.4963C26.951 48.7367 26.4754 48.881 26.0948 49.0252C25.7143 49.1694 25.4289 49.2656 25.2386 49.3618C25.0008 49.506 25.0483 49.6983 25.0483 49.7464C25.1435 50.083 25.857 50.2753 26.951 50.083H27.0462C27.8073 49.8426 31.7554 48.9771 33.4678 45.3711Z" fill="#13161D"/>
<path d="M54.0171 56.3814C54.0646 55.9006 53.9695 55.516 53.7792 55.3237C53.6841 55.2275 53.5414 55.1313 53.3987 55.1313C53.3511 55.1313 53.256 55.1313 53.2084 55.1313C52.7327 55.2275 52.4473 55.7083 51.9717 56.4295C51.5435 57.1027 50.9727 58.0162 50.0214 58.9778C48.9273 60.0356 47.7381 60.901 47.31 61.0933C47.643 60.0836 47.7381 58.8816 47.643 58.2085C47.5954 57.5354 47.3576 57.1026 46.977 56.8142C46.5489 56.4776 46.0257 56.4776 45.6451 56.5738C45.1695 56.6699 44.7414 56.9103 44.5511 57.0546C44.456 57.1507 44.4084 57.295 44.4084 57.3911C44.456 57.5354 44.5511 57.6796 44.8365 57.7758C45.3122 57.9681 45.217 58.2085 45.1219 58.5451C45.1219 58.5931 45.0743 58.6893 45.0743 58.7374C44.9792 59.0259 44.8841 59.3144 44.7889 59.6509C44.4084 60.8048 43.9803 62.0069 44.3608 63.0166C44.6462 63.8339 45.4549 64.2186 46.4538 64.0262C46.6441 63.9782 46.8343 63.9301 47.0722 63.882C48.2138 63.4493 49.4506 62.3434 50.7825 60.6125C50.83 62.1992 51.8289 62.9685 52.2095 63.305C52.4949 63.5454 52.8754 63.6897 53.1608 63.6416C53.3511 63.5935 53.4462 63.4974 53.5414 63.3531C53.589 63.2089 53.6365 62.9685 53.4463 62.5838C53.1608 62.0069 53.4938 59.5067 53.7317 57.8719C53.9219 57.1988 54.0171 56.6699 54.0171 56.3814Z" fill="#13161D"/>
<path d="M67.3836 52.1983C67.1457 51.9579 66.6225 52.054 64.8149 52.4868C64.2917 52.5829 63.6733 52.7272 62.9598 52.8714C62.7695 52.9195 62.389 53.0157 61.9133 53.1118C61.6755 53.1599 61.3901 53.2561 61.0571 53.3041L61.1522 53.1118C61.4852 52.4387 61.8182 51.7175 61.9133 51.2848C62.056 50.804 61.9609 50.3712 61.723 50.1308C61.5328 49.9385 61.2949 49.8423 61.0571 49.8904C60.8192 49.9385 60.5814 50.0827 60.3911 50.3231C60.1057 50.6597 59.1068 51.9098 58.0603 53.9292C57.6798 53.9773 56.5857 54.1696 55.8722 54.0734C55.7295 54.0734 55.4917 54.0253 55.2538 54.0734C54.9209 54.1215 54.6354 54.3619 54.4927 54.6985C54.3976 54.8908 54.3976 55.1312 54.4927 55.3716C54.5879 55.6601 54.8257 55.9005 55.1587 56.0447C55.6344 56.237 56.3003 56.3332 57.0614 56.3332C55.9198 59.218 55.4917 61.9105 55.7771 64.3626C55.8246 64.8435 55.9673 65.1319 56.11 65.2281C56.2052 65.2762 56.3003 65.3243 56.3954 65.2762C56.6333 65.2281 56.9187 64.8915 57.0614 64.3626C57.2041 63.9299 58.869 58.8334 60.1057 55.6601C62.6268 54.7466 64.6722 53.9773 66.2895 53.208L66.3847 53.1599C66.8603 52.9676 67.2885 52.7272 67.3836 52.631C67.4787 52.5349 67.5263 52.4387 67.5263 52.3425C67.4787 52.3425 67.4312 52.2464 67.3836 52.1983Z" fill="#13161D"/>
<path d="M44.3132 58.8812C44.3132 58.8332 44.218 58.6889 44.0753 58.6889C43.9326 58.6408 43.8375 58.6408 43.5521 58.7851C43.4569 58.8332 43.3618 58.8332 43.2667 58.8812C43.0764 58.9774 42.791 59.0736 42.4105 59.2178C42.6483 58.0158 42.8861 57.0061 43.124 56.2368C43.5045 54.6021 43.7424 53.7366 43.457 53.4001C43.3618 53.2558 43.2191 53.2077 43.0288 53.1597C42.9813 53.1597 42.9337 53.1597 42.8861 53.1597C41.8397 53.352 40.1748 56.8138 39.1283 60.1794C39.0332 60.1794 38.9856 60.2275 38.8905 60.2275C37.7488 60.516 36.4645 60.8045 35.085 61.0929C35.3704 60.1313 35.7034 59.2178 36.084 58.112V58.0639C36.4645 57.0061 37.1304 55.0829 37.0353 54.1694C36.9402 53.5924 36.6548 53.4962 36.5121 53.4962C36.4645 53.4962 36.4645 53.4962 36.4169 53.4962C35.2277 53.6886 32.9921 57.8715 31.4223 61.718L31.232 61.7661L30.8515 61.8141C29.9953 61.9584 29.2342 62.1026 28.7585 62.295C27.9974 62.5834 27.5693 63.0162 27.5693 63.4489C27.5693 63.8335 27.8547 64.2662 28.4256 64.5066C28.9012 64.7471 29.5196 64.8432 30.2807 64.8913C29.7099 66.7664 28.9012 69.8917 29.6147 71.1418C29.805 71.4302 30.0429 71.6226 30.3283 71.6706C30.5185 71.7187 30.7088 71.7187 30.8991 71.6706C32.1834 71.4302 32.7542 69.5551 33.0872 68.1127C33.3726 66.8626 33.7056 65.6125 34.0861 64.2662C35.418 63.8816 36.8926 63.3527 38.3672 62.6796C37.9391 64.5066 37.511 67.3434 38.7953 67.6319C39.0332 67.728 39.271 67.728 39.4613 67.68C39.9845 67.5838 40.4602 67.1992 40.7932 66.526C41.2688 65.6606 41.4591 64.4105 41.6494 63.3046C41.7921 62.4392 41.9348 61.5737 42.0775 60.7564C43.0288 60.2275 43.6948 59.6986 44.0753 59.362C44.2656 59.2659 44.4083 59.0255 44.3132 58.8812Z" fill="#13161D"/>
<path d="M68.1924 43.3034C67.907 43.3034 67.7167 43.1592 67.574 43.0149C67.2411 42.6303 67.3838 42.1495 67.7167 41.284C67.8594 40.8994 67.9546 40.5147 68.0973 39.9859C68.24 39.4089 68.1448 39.0242 68.0021 38.8319C67.8594 38.5915 67.6216 38.4954 67.4789 38.4954C67.1935 38.4954 66.9081 38.6877 66.7654 38.7358C66.2897 38.6396 65.814 38.6396 65.3383 38.6877C62.8173 38.88 59.8681 40.7551 58.5837 42.9668C57.9654 44.0246 57.8227 45.0343 58.2032 45.8517C58.2508 45.8998 58.2508 45.9959 58.2983 46.044C58.2508 46.044 58.2032 46.0921 58.2032 46.0921C57.8227 46.2844 57.347 46.4286 56.7762 46.4767C55.9199 46.5729 54.921 46.4286 54.0648 46.3325C53.6367 46.2844 53.2086 46.2363 52.828 46.1882C53.5416 45.5151 55.7297 43.3034 56.5859 42.3418C56.9664 41.9091 57.6324 41.1879 57.7275 40.9955C58.1081 40.3224 58.1556 39.7455 57.8227 39.3127C57.5848 38.9762 56.9664 38.5915 55.587 38.7358C55.3491 38.7358 55.1589 38.7838 54.921 38.8319C52.7329 39.2166 51.2583 39.457 50.6399 39.5051C50.3545 39.5531 50.2594 39.5051 50.0691 39.457C49.974 39.4089 49.8313 39.4089 49.7361 39.4089H49.6886C49.4032 39.457 49.1653 39.6012 49.0226 39.8416C48.8324 40.1301 48.7848 40.5628 48.9275 40.9475C49.1653 41.5725 49.9264 41.861 50.4972 41.861C50.7826 41.861 51.2107 41.861 51.6864 41.8129C52.6378 41.7168 53.6843 41.5725 54.2075 41.4764C53.6843 41.9572 53.0183 42.5341 52.3048 43.1111C51.1632 44.0727 49.9264 45.0343 49.0702 45.9959C48.1188 47.0537 47.6432 48.0634 47.9286 48.5923C48.0713 48.8327 48.4042 48.9769 48.7372 48.8807C49.2129 48.7365 49.6886 48.6884 50.307 48.6403C51.068 48.5923 51.8767 48.5923 52.6378 48.5923C53.3989 48.5923 54.1599 48.5923 54.921 48.5442C55.8724 48.448 56.6335 48.3038 57.2994 48.0153C58.1556 47.6307 58.7264 47.1979 58.8216 46.7652C58.9643 46.8133 59.107 46.9094 59.2973 46.9094C59.6302 46.9575 60.0108 47.0056 60.3913 46.9575C62.0086 46.8133 63.4832 45.7074 64.387 45.0824C64.5773 44.9381 64.72 44.842 64.8627 44.7458C65.1481 45.2747 66.0994 45.5632 67.2411 45.5151H67.2886C67.8594 45.467 69.1438 45.1305 69.5719 44.6497C69.667 44.5054 69.7146 44.4093 69.7146 44.265C69.7621 43.7842 69.4767 43.4476 68.1924 43.3034ZM65.1481 40.8032C64.6248 41.9572 64.5297 42.1976 64.4821 42.6303C64.0065 42.9668 62.2464 43.8804 61.5329 43.9285C61.3427 43.9285 61.2951 43.9285 61.2951 43.8804C61.2951 43.8323 61.2951 43.7842 61.2951 43.7842C62.0562 41.6687 64.4346 40.9955 65.1481 40.8032Z" fill="#13161D"/>
<path d="M80.5599 79.3639H80.7502C80.988 79.3639 81.0831 79.4601 81.1307 79.6524C81.1783 79.8447 81.2259 80.037 81.2734 80.0851H81.7015C81.654 80.037 81.6064 79.8928 81.5588 79.6524C81.5113 79.412 81.4161 79.2677 81.2258 79.2197C81.4161 79.1716 81.6064 78.9793 81.6064 78.7869C81.6064 78.6427 81.5113 78.4985 81.4161 78.4023C81.2734 78.3061 81.1307 78.2581 80.7977 78.2581C80.5123 78.2581 80.2745 78.3061 80.0842 78.3061V80.1332H80.5123V79.3639H80.5599ZM80.5599 78.5465C80.6075 78.5465 80.7026 78.4985 80.7977 78.4985C81.0831 78.4985 81.1783 78.5946 81.1783 78.7869C81.1783 78.9793 80.988 79.0754 80.7502 79.0754H80.5599V78.5465Z" fill="#13161D"/>
<path d="M80.8453 80.9984C81.8918 80.9984 82.7004 80.181 82.7004 79.1713C82.7004 78.1616 81.8918 77.3442 80.8453 77.3442C79.7988 77.3442 78.9901 78.1616 78.9901 79.1713C78.9901 80.181 79.7988 80.9984 80.8453 80.9984ZM80.8453 77.6808C81.6539 77.6808 82.2247 78.3539 82.2247 79.1232C82.2247 79.9406 81.6539 80.6137 80.8453 80.6137C80.0366 80.6137 79.4182 79.9887 79.4182 79.1232C79.4182 78.3539 80.0366 77.6808 80.8453 77.6808Z" fill="#13161D"/>
</svg>
