<svg width="251" height="334" viewBox="0 0 251 334" fill="none" xmlns="http://www.w3.org/2000/svg">
<g filter="url(#filter0_d_340_185)">
<rect x="4" width="243" height="326" rx="20" fill="white"/>
</g>
<g clip-path="url(#clip0_340_185)">
<path d="M124.5 131C147.972 131 167 111.972 167 88.5C167 65.0279 147.972 46 124.5 46C101.028 46 82 65.0279 82 88.5C82 111.972 101.028 131 124.5 131Z" fill="#FEEFC3"/>
<path d="M124.5 61.5956C125.211 61.1853 126.087 61.1853 126.797 61.5956L148.374 74.053C149.085 74.4634 149.523 75.2218 149.523 76.0426V100.957C149.523 101.778 149.085 102.537 148.374 102.947L126.797 115.404C126.087 115.815 125.211 115.815 124.5 115.404L102.923 102.947C102.212 102.537 101.774 101.778 101.774 100.957V76.0426C101.774 75.2218 102.212 74.4634 102.923 74.053L124.5 61.5956Z" fill="#FCC934"/>
<path d="M118.737 82.93V91.073H120.114V92.535H118.737V95H117.241V92.535H111.002V91.073L117.139 82.93H118.737ZM112.838 91.073H117.241V85.225L112.838 91.073ZM121.639 82.93H130.224V84.324C127.81 87.435 126.11 91.056 126.11 95H124.546C124.546 91.09 126.11 87.469 128.524 84.392H121.639V82.93ZM131.584 82.93H140.169V84.324C137.755 87.435 136.055 91.056 136.055 95H134.491C134.491 91.09 136.055 87.469 138.469 84.392H131.584V82.93Z" fill="#FF8A00"/>
</g>
<path d="M72.7699 147.64H75.2179V159H72.7699V147.64ZM77.2353 150.52H79.4113L79.4753 151.848C79.8913 150.888 80.7393 150.328 81.8273 150.328C83.0113 150.328 83.8753 150.968 84.2433 152.072C84.6753 150.904 85.5553 150.328 86.7233 150.328C88.4513 150.328 89.5553 151.432 89.5553 153.544V159H87.1393V154.344C87.1393 152.936 86.7553 152.248 85.9233 152.248C84.9473 152.248 84.4673 152.968 84.4673 154.344V159H82.3233V154.344C82.3233 152.936 81.9393 152.248 81.1233 152.248C80.1473 152.248 79.6673 152.984 79.6673 154.344V159H77.2353V150.52ZM91.3916 161.4V150.52H93.7116L93.7596 151.768C94.2236 150.84 95.1036 150.328 96.2876 150.328C98.6876 150.328 99.9036 152.264 99.9036 154.76C99.9036 157.256 98.6876 159.192 96.2876 159.192C95.1836 159.192 94.3196 158.712 93.8236 157.816V161.4H91.3916ZM93.6636 154.76C93.6636 156.152 94.2556 157.352 95.5356 157.352C96.8316 157.352 97.4236 156.152 97.4236 154.76C97.4236 153.384 96.7996 152.168 95.5356 152.168C94.2556 152.168 93.6636 153.384 93.6636 154.76ZM101.385 153.144C101.721 151.336 103.113 150.328 105.337 150.328C107.913 150.328 109.241 151.592 109.241 154.024V156.68C109.241 157.24 109.465 157.352 109.769 157.352H110.089V159L109.657 159.016C109.097 159.032 107.449 159.192 107.209 157.72C106.809 158.584 105.833 159.192 104.297 159.192C102.585 159.192 101.257 158.264 101.257 156.776C101.257 155.192 102.425 154.6 104.473 154.184L106.809 153.72C106.793 152.488 106.313 151.912 105.337 151.912C104.521 151.912 104.009 152.36 103.817 153.272L101.385 153.144ZM103.737 156.68C103.737 157.208 104.185 157.624 105.049 157.624C106.089 157.624 106.841 156.84 106.841 155.32V155.224L105.433 155.48C104.457 155.672 103.737 155.816 103.737 156.68ZM117.054 153.768C116.91 152.744 116.238 152.184 115.39 152.184C114.19 152.184 113.518 153.128 113.518 154.76C113.518 156.392 114.19 157.336 115.39 157.336C116.286 157.336 116.942 156.776 117.086 155.672L119.582 155.768C119.358 157.88 117.646 159.192 115.39 159.192C112.766 159.192 111.038 157.448 111.038 154.76C111.038 152.072 112.766 150.328 115.39 150.328C117.582 150.328 119.31 151.592 119.534 153.656L117.054 153.768ZM121.633 148.6H124.065V150.52H126.289V152.312H124.065V156.216C124.065 156.856 124.385 157.192 124.993 157.192H126.305V159H124.481C122.625 159 121.633 158.088 121.633 156.216V152.312H120.257V150.52H121.633V148.6ZM131.593 159.192C128.969 159.192 127.241 157.448 127.241 154.76C127.241 152.072 128.969 150.328 131.593 150.328C134.217 150.328 135.945 152.072 135.945 154.76C135.945 157.448 134.217 159.192 131.593 159.192ZM129.721 154.76C129.721 156.392 130.393 157.336 131.593 157.336C132.793 157.336 133.465 156.392 133.465 154.76C133.465 153.128 132.793 152.184 131.593 152.184C130.393 152.184 129.721 153.128 129.721 154.76ZM140.851 154.76C140.851 152.072 142.579 150.328 145.203 150.328C147.539 150.328 149.363 151.944 149.347 154.936V155.384H143.379C143.443 156.648 144.115 157.4 145.203 157.4C145.907 157.4 146.531 157 146.803 156.344L149.235 156.52C148.723 158.168 147.139 159.192 145.203 159.192C142.579 159.192 140.851 157.448 140.851 154.76ZM143.395 153.928H146.899C146.771 152.648 146.035 152.12 145.203 152.12C144.179 152.12 143.523 152.808 143.395 153.928ZM150.892 150.52H153.068L153.132 151.88C153.596 150.76 154.54 150.328 155.66 150.328C157.516 150.328 158.588 151.576 158.588 153.544V159H156.172V154.344C156.172 153 155.868 152.248 154.876 152.248C153.852 152.248 153.324 153 153.324 154.344V159H150.892V150.52ZM164.329 147.64H166.761V156.536C166.761 156.952 166.985 157.192 167.401 157.192H168.009V159H166.697C165.289 159 164.329 158.152 164.329 156.632V147.64ZM169.26 153.144C169.596 151.336 170.988 150.328 173.212 150.328C175.788 150.328 177.116 151.592 177.116 154.024V156.68C177.116 157.24 177.34 157.352 177.644 157.352H177.964V159L177.532 159.016C176.972 159.032 175.324 159.192 175.084 157.72C174.684 158.584 173.708 159.192 172.172 159.192C170.46 159.192 169.132 158.264 169.132 156.776C169.132 155.192 170.3 154.6 172.348 154.184L174.684 153.72C174.668 152.488 174.188 151.912 173.212 151.912C172.396 151.912 171.884 152.36 171.692 153.272L169.26 153.144ZM171.612 156.68C171.612 157.208 172.06 157.624 172.924 157.624C173.964 157.624 174.716 156.84 174.716 155.32V155.224L173.308 155.48C172.332 155.672 171.612 155.816 171.612 156.68ZM44.6884 167.64H47.1204V171.688C47.6164 170.824 48.5444 170.328 49.6164 170.328C51.8244 170.328 53.2004 172.04 53.2004 174.76C53.2004 177.48 51.8244 179.192 49.6164 179.192C48.4804 179.192 47.5364 178.664 47.0564 177.784L47.0084 179H44.6884V167.64ZM46.9764 174.76C46.9764 176.328 47.6964 177.352 48.8484 177.352C49.9684 177.352 50.7364 176.328 50.7364 174.76C50.7364 173.144 50.0004 172.136 48.8484 172.136C47.7124 172.136 46.9764 173.144 46.9764 174.76ZM62.4923 179H60.3003L60.2523 177.672C59.7883 178.776 58.8443 179.192 57.7563 179.192C55.9323 179.192 54.8603 177.944 54.8603 175.976V170.52H57.2923V175.176C57.2923 176.52 57.5803 177.272 58.5563 177.272C59.5483 177.272 60.0763 176.52 60.0763 175.176V170.52H62.4923V179ZM57.8683 169.256L58.8763 167.176H60.8123L59.3563 169.256H57.8683ZM69.6507 173.272C69.5227 172.488 68.8507 172.008 68.1147 172.008C67.3947 172.008 66.8347 172.392 66.8667 173C66.8987 173.624 67.6187 173.896 68.4187 174.024C70.9147 174.424 72.1467 175.08 72.1467 176.68C72.1467 178.376 70.5467 179.192 68.3707 179.192C65.8907 179.192 64.3067 178.12 64.1787 176.312L66.6107 176.184C66.7547 177 67.3467 177.496 68.3227 177.496C68.9307 177.496 69.6667 177.24 69.6667 176.632C69.6507 175.912 68.8347 175.784 68.0187 175.608C65.6827 175.16 64.3707 174.584 64.3707 173.016C64.3707 171.32 65.7947 170.312 68.2107 170.312C70.3547 170.312 71.7947 171.4 72.0827 173.176L69.6507 173.272ZM81.9251 181.4H79.4931V177.816C78.9971 178.712 78.1331 179.192 77.0291 179.192C74.6291 179.192 73.4131 177.256 73.4131 174.76C73.4131 172.264 74.6291 170.328 77.0291 170.328C78.2131 170.328 79.0931 170.84 79.5571 171.768L79.6051 170.52H81.9251V181.4ZM75.8931 174.76C75.8931 176.152 76.4851 177.352 77.7811 177.352C79.0611 177.352 79.6531 176.152 79.6531 174.76C79.6531 173.384 79.0611 172.168 77.7811 172.168C76.5171 172.168 75.8931 173.384 75.8931 174.76ZM91.3517 179H89.1597L89.1117 177.672C88.6477 178.776 87.7037 179.192 86.6157 179.192C84.7917 179.192 83.7197 177.944 83.7197 175.976V170.52H86.1517V175.176C86.1517 176.52 86.4397 177.272 87.4157 177.272C88.4077 177.272 88.9357 176.52 88.9357 175.176V170.52H91.3517V179ZM93.0381 174.76C93.0381 172.072 94.7661 170.328 97.3901 170.328C99.7261 170.328 101.55 171.944 101.534 174.936V175.384H95.5661C95.6301 176.648 96.3021 177.4 97.3901 177.4C98.0941 177.4 98.7181 177 98.9901 176.344L101.422 176.52C100.91 178.168 99.3261 179.192 97.3901 179.192C94.7661 179.192 93.0381 177.448 93.0381 174.76ZM95.5821 173.928H99.0861C98.9581 172.648 98.2221 172.12 97.3901 172.12C96.3661 172.12 95.7101 172.808 95.5821 173.928ZM111.316 167.64V179H108.996L108.948 177.784C108.468 178.664 107.524 179.192 106.388 179.192C104.18 179.192 102.804 177.48 102.804 174.76C102.804 172.04 104.18 170.328 106.388 170.328C107.46 170.328 108.388 170.824 108.884 171.688V167.64H111.316ZM105.268 174.76C105.268 176.328 106.036 177.352 107.156 177.352C108.308 177.352 109.028 176.328 109.028 174.76C109.028 173.144 108.292 172.136 107.156 172.136C106.004 172.136 105.268 173.144 105.268 174.76ZM113.104 173.144C113.44 171.336 114.832 170.328 117.056 170.328C119.632 170.328 120.96 171.592 120.96 174.024V176.68C120.96 177.24 121.184 177.352 121.488 177.352H121.808V179L121.376 179.016C120.816 179.032 119.168 179.192 118.928 177.72C118.528 178.584 117.552 179.192 116.016 179.192C114.304 179.192 112.976 178.264 112.976 176.776C112.976 175.192 114.144 174.6 116.192 174.184L118.528 173.72C118.512 172.488 118.032 171.912 117.056 171.912C116.24 171.912 115.728 172.36 115.536 173.272L113.104 173.144ZM115.456 176.68C115.456 177.208 115.904 177.624 116.768 177.624C117.808 177.624 118.56 176.84 118.56 175.32V175.224L117.152 175.48C116.176 175.672 115.456 175.816 115.456 176.68ZM135.05 167.64V179H132.73L132.682 177.784C132.202 178.664 131.258 179.192 130.122 179.192C127.914 179.192 126.538 177.48 126.538 174.76C126.538 172.04 127.914 170.328 130.122 170.328C131.194 170.328 132.122 170.824 132.618 171.688V167.64H135.05ZM129.002 174.76C129.002 176.328 129.77 177.352 130.89 177.352C132.042 177.352 132.762 176.328 132.762 174.76C132.762 173.144 132.026 172.136 130.89 172.136C129.738 172.136 129.002 173.144 129.002 174.76ZM136.647 174.76C136.647 172.072 138.375 170.328 140.999 170.328C143.335 170.328 145.159 171.944 145.143 174.936V175.384H139.175C139.239 176.648 139.911 177.4 140.999 177.4C141.703 177.4 142.327 177 142.599 176.344L145.031 176.52C144.519 178.168 142.935 179.192 140.999 179.192C138.375 179.192 136.647 177.448 136.647 174.76ZM139.191 173.928H142.695C142.567 172.648 141.831 172.12 140.999 172.12C139.975 172.12 139.319 172.808 139.191 173.928ZM160.485 179H158.997L158.869 177.336C158.341 178.52 157.029 179.256 155.445 179.256C152.213 179.256 150.101 176.696 150.101 173.336C150.101 169.96 152.213 167.384 155.573 167.384C158.165 167.384 159.909 168.888 160.453 171.368L157.925 171.48C157.621 170.184 156.805 169.448 155.525 169.448C153.525 169.448 152.613 171.128 152.613 173.336C152.613 175.528 153.541 177.192 155.525 177.192C156.997 177.192 157.829 176.248 158.021 174.888H155.525V173.08H160.485V179ZM166.359 179.192C163.735 179.192 162.007 177.448 162.007 174.76C162.007 172.072 163.735 170.328 166.359 170.328C168.983 170.328 170.711 172.072 170.711 174.76C170.711 177.448 168.983 179.192 166.359 179.192ZM164.487 174.76C164.487 176.392 165.159 177.336 166.359 177.336C167.559 177.336 168.231 176.392 168.231 174.76C168.231 173.128 167.559 172.184 166.359 172.184C165.159 172.184 164.487 173.128 164.487 174.76ZM176.312 179.192C173.688 179.192 171.96 177.448 171.96 174.76C171.96 172.072 173.688 170.328 176.312 170.328C178.936 170.328 180.664 172.072 180.664 174.76C180.664 177.448 178.936 179.192 176.312 179.192ZM174.44 174.76C174.44 176.392 175.112 177.336 176.312 177.336C177.512 177.336 178.184 176.392 178.184 174.76C178.184 173.128 177.512 172.184 176.312 172.184C175.112 172.184 174.44 173.128 174.44 174.76ZM185.593 178.6C183.385 178.6 181.913 177 181.913 174.584C181.913 172.024 183.385 170.328 185.577 170.328C186.665 170.328 187.577 170.872 188.025 171.816V170.52H190.409V177.976C190.409 180.232 188.665 181.592 186.169 181.592C184.185 181.592 182.649 180.648 182.153 179.192L184.617 179.032C184.841 179.576 185.417 179.912 186.201 179.912C187.337 179.912 187.977 179.352 187.977 178.232V177.32C187.577 178.104 186.633 178.6 185.593 178.6ZM184.393 174.552C184.393 176.024 185.129 176.952 186.233 176.952C187.353 176.952 188.057 176.024 188.073 174.552C188.089 173.08 187.369 172.152 186.233 172.152C185.097 172.152 184.393 173.08 184.393 174.552ZM192.501 167.64H194.933V176.536C194.933 176.952 195.157 177.192 195.573 177.192H196.181V179H194.869C193.461 179 192.501 178.152 192.501 176.632V167.64ZM197.21 174.76C197.21 172.072 198.938 170.328 201.562 170.328C203.898 170.328 205.722 171.944 205.706 174.936V175.384H199.738C199.802 176.648 200.474 177.4 201.562 177.4C202.266 177.4 202.89 177 203.162 176.344L205.594 176.52C205.082 178.168 203.498 179.192 201.562 179.192C198.938 179.192 197.21 177.448 197.21 174.76ZM199.754 173.928H203.258C203.13 172.648 202.394 172.12 201.562 172.12C200.538 172.12 199.882 172.808 199.754 173.928Z" fill="#424242"/>
<path d="M43.8933 206V198.19H44.8613V201.6H48.6453V198.19H49.6133V206H48.6453V202.546H44.8613V206H43.8933ZM51.2425 201.886C51.4735 200.753 52.3865 200.038 53.6295 200.038C55.1365 200.038 55.9835 200.918 55.9835 202.48V204.812C55.9835 205.054 56.0935 205.164 56.3355 205.164H56.5775V206H56.1705C55.5765 206 55.0485 205.813 55.0485 205.109C54.8065 205.637 54.1685 206.132 53.2445 206.132C52.0895 206.132 51.1435 205.516 51.1435 204.471C51.1435 203.261 52.0455 202.964 53.3435 202.711L55.0375 202.381C55.0265 201.413 54.5645 200.94 53.6295 200.94C52.9035 200.94 52.4195 201.303 52.2435 201.963L51.2425 201.886ZM52.1335 204.471C52.1335 204.922 52.5185 205.296 53.3655 205.296C54.3115 205.296 55.0595 204.636 55.0595 203.272V203.217L53.6955 203.459C52.8375 203.613 52.1335 203.657 52.1335 204.471ZM61.0809 201.974C60.9489 201.325 60.2999 200.94 59.6619 200.94C59.0239 200.94 58.5069 201.259 58.5069 201.809C58.5069 202.381 59.2659 202.612 59.8819 202.733C61.2019 202.986 62.1809 203.349 62.1809 204.515C62.1809 205.648 61.0039 206.132 59.9039 206.132C58.5179 206.132 57.4619 205.373 57.3739 204.163L58.3639 204.097C58.4849 204.79 59.0349 205.23 59.9039 205.23C60.4539 205.23 61.1909 205.054 61.1909 204.46C61.1909 203.767 60.3769 203.701 59.7169 203.547C58.6609 203.305 57.5169 203.008 57.5169 201.864C57.5169 200.742 58.4189 200.038 59.7609 200.038C60.9269 200.038 61.8839 200.775 62.0709 201.908L61.0809 201.974ZM70.0817 202.128C69.9607 201.38 69.3337 200.94 68.6407 200.94C67.5737 200.94 66.9577 201.743 66.9577 203.085C66.9577 204.427 67.5737 205.23 68.6407 205.23C69.3667 205.23 69.9937 204.757 70.1257 203.932L71.1267 203.998C70.9397 205.318 69.8727 206.132 68.6407 206.132C67.0237 206.132 65.9677 204.944 65.9677 203.085C65.9677 201.226 67.0237 200.038 68.6407 200.038C69.8287 200.038 70.9177 200.808 71.0717 202.062L70.0817 202.128ZM74.7208 206.132C73.1038 206.132 72.0478 204.944 72.0478 203.085C72.0478 201.226 73.1038 200.038 74.7208 200.038C76.3378 200.038 77.3938 201.226 77.3938 203.085C77.3938 204.944 76.3378 206.132 74.7208 206.132ZM73.0378 203.085C73.0378 204.427 73.6538 205.23 74.7208 205.23C75.7878 205.23 76.4038 204.427 76.4038 203.085C76.4038 201.743 75.7878 200.94 74.7208 200.94C73.6538 200.94 73.0378 201.743 73.0378 203.085ZM78.7379 200.17H79.5959L79.6289 201.171C79.9259 200.39 80.6079 200.038 81.4109 200.038C82.7419 200.038 83.3799 201.017 83.3799 202.249V206H82.4339V202.513C82.4339 201.446 82.0819 200.874 81.2129 200.874C80.2889 200.874 79.6839 201.446 79.6839 202.513V206H78.7379V200.17ZM88.3231 201.974C88.1911 201.325 87.5421 200.94 86.9041 200.94C86.2661 200.94 85.7491 201.259 85.7491 201.809C85.7491 202.381 86.5081 202.612 87.1241 202.733C88.4441 202.986 89.4231 203.349 89.4231 204.515C89.4231 205.648 88.2461 206.132 87.1461 206.132C85.7601 206.132 84.7041 205.373 84.6161 204.163L85.6061 204.097C85.7271 204.79 86.2771 205.23 87.1461 205.23C87.6961 205.23 88.4331 205.054 88.4331 204.46C88.4331 203.767 87.6191 203.701 86.9591 203.547C85.9031 203.305 84.7591 203.008 84.7591 201.864C84.7591 200.742 85.6611 200.038 87.0031 200.038C88.1691 200.038 89.1261 200.775 89.3131 201.908L88.3231 201.974ZM90.4599 203.085C90.4599 201.226 91.5159 200.038 93.1329 200.038C94.4089 200.038 95.5639 200.863 95.6629 202.953L95.6739 203.382H91.4609C91.5489 204.548 92.1429 205.23 93.1329 205.23C93.7489 205.23 94.3099 204.878 94.5739 204.273L95.5859 204.35C95.2449 205.45 94.2549 206.132 93.1329 206.132C91.5159 206.132 90.4599 204.944 90.4599 203.085ZM91.4829 202.546H94.6399C94.4749 201.336 93.8259 200.94 93.1329 200.94C92.2199 200.94 91.6369 201.534 91.4829 202.546ZM99.2858 205.692C97.7788 205.692 96.7118 204.526 96.7118 202.865C96.7118 201.204 97.7678 200.038 99.2748 200.038C100.067 200.038 100.727 200.434 100.991 201.072V200.17H101.893V205.428C101.893 206.968 100.837 207.782 99.3078 207.782C98.0648 207.782 97.1408 207.111 96.8658 206.088L97.8558 206.022C98.0978 206.561 98.5928 206.88 99.3078 206.88C100.331 206.88 100.947 206.451 100.947 205.648V204.691C100.661 205.307 100.023 205.692 99.2858 205.692ZM97.7018 202.865C97.7018 204.053 98.3288 204.79 99.3408 204.79C100.32 204.79 100.947 204.053 100.958 202.865C100.98 201.677 100.353 200.94 99.3408 200.94C98.3288 200.94 97.7018 201.677 97.7018 202.865ZM108.225 206H107.323V205.043C107.015 205.791 106.344 206.132 105.585 206.132C104.287 206.132 103.649 205.153 103.649 203.921V200.17H104.595V203.646C104.595 204.724 104.947 205.296 105.783 205.296C106.674 205.296 107.279 204.724 107.279 203.646V200.17H108.225V206ZM109.826 200.17H110.772V206H109.826V200.17ZM109.804 199.257V198.19H110.794V199.257H109.804ZM117.362 198.19V206H116.504L116.471 205.186C116.152 205.769 115.448 206.132 114.634 206.132C113.116 206.132 112.17 204.955 112.17 203.085C112.17 201.215 113.116 200.038 114.634 200.038C115.415 200.038 116.097 200.379 116.416 200.918V198.19H117.362ZM113.16 203.085C113.16 204.405 113.809 205.23 114.832 205.23C115.855 205.23 116.504 204.405 116.504 203.085C116.504 201.743 115.855 200.896 114.832 200.896C113.809 200.896 113.16 201.743 113.16 203.085ZM121.428 206.132C119.811 206.132 118.755 204.944 118.755 203.085C118.755 201.226 119.811 200.038 121.428 200.038C123.045 200.038 124.101 201.226 124.101 203.085C124.101 204.944 123.045 206.132 121.428 206.132ZM119.745 203.085C119.745 204.427 120.361 205.23 121.428 205.23C122.495 205.23 123.111 204.427 123.111 203.085C123.111 201.743 122.495 200.94 121.428 200.94C120.361 200.94 119.745 201.743 119.745 203.085ZM132.924 198.19V203.459H133.815V204.405H132.924V206H131.956V204.405H127.919V203.459L131.89 198.19H132.924ZM129.107 203.459H131.956V199.675L129.107 203.459ZM134.802 198.19H140.357V199.092C138.795 201.105 137.695 203.448 137.695 206H136.683C136.683 203.47 137.695 201.127 139.257 199.136H134.802V198.19ZM141.236 198.19H146.791V199.092C145.229 201.105 144.129 203.448 144.129 206H143.117C143.117 203.47 144.129 201.127 145.691 199.136H141.236V198.19ZM154.612 202.128C154.491 201.38 153.864 200.94 153.171 200.94C152.104 200.94 151.488 201.743 151.488 203.085C151.488 204.427 152.104 205.23 153.171 205.23C153.897 205.23 154.524 204.757 154.656 203.932L155.657 203.998C155.47 205.318 154.403 206.132 153.171 206.132C151.554 206.132 150.498 204.944 150.498 203.085C150.498 201.226 151.554 200.038 153.171 200.038C154.359 200.038 155.448 200.808 155.602 202.062L154.612 202.128ZM156.941 198.19H157.887V204.812C157.887 205.054 157.997 205.164 158.239 205.164H158.745V206H158.085C157.403 206 156.941 205.538 156.941 204.856V198.19ZM160.067 200.17H161.013V206H160.067V200.17ZM160.045 199.257V198.19H161.035V199.257H160.045ZM166.525 202.128C166.404 201.38 165.777 200.94 165.084 200.94C164.017 200.94 163.401 201.743 163.401 203.085C163.401 204.427 164.017 205.23 165.084 205.23C165.81 205.23 166.437 204.757 166.569 203.932L167.57 203.998C167.383 205.318 166.316 206.132 165.084 206.132C163.467 206.132 162.411 204.944 162.411 203.085C162.411 201.226 163.467 200.038 165.084 200.038C166.272 200.038 167.361 200.808 167.515 202.062L166.525 202.128ZM172.198 201.974C172.066 201.325 171.417 200.94 170.779 200.94C170.141 200.94 169.624 201.259 169.624 201.809C169.624 202.381 170.383 202.612 170.999 202.733C172.319 202.986 173.298 203.349 173.298 204.515C173.298 205.648 172.121 206.132 171.021 206.132C169.635 206.132 168.579 205.373 168.491 204.163L169.481 204.097C169.602 204.79 170.152 205.23 171.021 205.23C171.571 205.23 172.308 205.054 172.308 204.46C172.308 203.767 171.494 203.701 170.834 203.547C169.778 203.305 168.634 203.008 168.634 201.864C168.634 200.742 169.536 200.038 170.878 200.038C172.044 200.038 173.001 200.775 173.188 201.908L172.198 201.974ZM177.085 203.085C177.085 201.226 178.141 200.038 179.758 200.038C181.034 200.038 182.189 200.863 182.288 202.953L182.299 203.382H178.086C178.174 204.548 178.768 205.23 179.758 205.23C180.374 205.23 180.935 204.878 181.199 204.273L182.211 204.35C181.87 205.45 180.88 206.132 179.758 206.132C178.141 206.132 177.085 204.944 177.085 203.085ZM178.108 202.546H181.265C181.1 201.336 180.451 200.94 179.758 200.94C178.845 200.94 178.262 201.534 178.108 202.546ZM183.646 200.17H184.504L184.537 201.171C184.834 200.39 185.516 200.038 186.319 200.038C187.65 200.038 188.288 201.017 188.288 202.249V206H187.342V202.513C187.342 201.446 186.99 200.874 186.121 200.874C185.197 200.874 184.592 201.446 184.592 202.513V206H183.646V200.17ZM192.798 198.19H193.744V204.812C193.744 205.054 193.854 205.164 194.096 205.164H194.602V206H193.942C193.26 206 192.798 205.538 192.798 204.856V198.19ZM195.66 201.886C195.891 200.753 196.804 200.038 198.047 200.038C199.554 200.038 200.401 200.918 200.401 202.48V204.812C200.401 205.054 200.511 205.164 200.753 205.164H200.995V206H200.588C199.994 206 199.466 205.813 199.466 205.109C199.224 205.637 198.586 206.132 197.662 206.132C196.507 206.132 195.561 205.516 195.561 204.471C195.561 203.261 196.463 202.964 197.761 202.711L199.455 202.381C199.444 201.413 198.982 200.94 198.047 200.94C197.321 200.94 196.837 201.303 196.661 201.963L195.66 201.886ZM196.551 204.471C196.551 204.922 196.936 205.296 197.783 205.296C198.729 205.296 199.477 204.636 199.477 203.272V203.217L198.113 203.459C197.255 203.613 196.551 203.657 196.551 204.471ZM205.499 201.974C205.367 201.325 204.718 200.94 204.08 200.94C203.442 200.94 202.925 201.259 202.925 201.809C202.925 202.381 203.684 202.612 204.3 202.733C205.62 202.986 206.599 203.349 206.599 204.515C206.599 205.648 205.422 206.132 204.322 206.132C202.936 206.132 201.88 205.373 201.792 204.163L202.782 204.097C202.903 204.79 203.453 205.23 204.322 205.23C204.872 205.23 205.609 205.054 205.609 204.46C205.609 203.767 204.795 203.701 204.135 203.547C203.079 203.305 201.935 203.008 201.935 201.864C201.935 200.742 202.837 200.038 204.179 200.038C205.345 200.038 206.302 200.775 206.489 201.908L205.499 201.974ZM42.4293 212.19H43.3753V214.918C43.6943 214.379 44.3763 214.038 45.1573 214.038C46.6753 214.038 47.6213 215.215 47.6213 217.085C47.6213 218.955 46.6753 220.132 45.1573 220.132C44.3433 220.132 43.6393 219.769 43.3203 219.186L43.2873 220H42.4293V212.19ZM43.2873 217.085C43.2873 218.405 43.9363 219.23 44.9593 219.23C45.9823 219.23 46.6313 218.405 46.6313 217.085C46.6313 215.743 45.9823 214.896 44.9593 214.896C43.9363 214.896 43.2873 215.743 43.2873 217.085ZM53.5903 220H52.6883V219.043C52.3803 219.791 51.7093 220.132 50.9503 220.132C49.6523 220.132 49.0143 219.153 49.0143 217.921V214.17H49.9603V217.646C49.9603 218.724 50.3123 219.296 51.1483 219.296C52.0393 219.296 52.6443 218.724 52.6443 217.646V214.17H53.5903V220ZM50.8623 213.301L51.5553 211.871H52.6003L51.5993 213.301H50.8623ZM58.6962 215.974C58.5642 215.325 57.9152 214.94 57.2772 214.94C56.6392 214.94 56.1222 215.259 56.1222 215.809C56.1222 216.381 56.8812 216.612 57.4972 216.733C58.8172 216.986 59.7962 217.349 59.7962 218.515C59.7962 219.648 58.6192 220.132 57.5192 220.132C56.1332 220.132 55.0772 219.373 54.9892 218.163L55.9792 218.097C56.1002 218.79 56.6502 219.23 57.5192 219.23C58.0692 219.23 58.8062 219.054 58.8062 218.46C58.8062 217.767 57.9922 217.701 57.3322 217.547C56.2762 217.305 55.1322 217.008 55.1322 215.864C55.1322 214.742 56.0342 214.038 57.3762 214.038C58.5422 214.038 59.4992 214.775 59.6862 215.908L58.6962 215.974ZM66.0249 221.65H65.0789V219.219C64.7599 219.824 64.1549 220.132 63.3519 220.132C61.6029 220.132 60.8329 218.68 60.8329 217.085C60.8329 215.49 61.6029 214.038 63.3519 214.038C64.1989 214.038 64.8149 214.39 65.1339 215.017L65.1669 214.17H66.0249V221.65ZM61.8449 217.085C61.8449 218.174 62.3179 219.23 63.5169 219.23C64.7049 219.23 65.1889 218.163 65.1889 217.085C65.1889 216.007 64.7049 214.94 63.5169 214.94C62.3179 214.94 61.8449 215.996 61.8449 217.085ZM72.142 220H71.24V219.043C70.932 219.791 70.261 220.132 69.502 220.132C68.204 220.132 67.566 219.153 67.566 217.921V214.17H68.512V217.646C68.512 218.724 68.864 219.296 69.7 219.296C70.591 219.296 71.196 218.724 71.196 217.646V214.17H72.142V220ZM73.5409 217.085C73.5409 215.226 74.5969 214.038 76.2139 214.038C77.4899 214.038 78.6449 214.863 78.7439 216.953L78.7549 217.382H74.5419C74.6299 218.548 75.2239 219.23 76.2139 219.23C76.8299 219.23 77.3909 218.878 77.6549 218.273L78.6669 218.35C78.3259 219.45 77.3359 220.132 76.2139 220.132C74.5969 220.132 73.5409 218.944 73.5409 217.085ZM74.5639 216.546H77.7209C77.5559 215.336 76.9069 214.94 76.2139 214.94C75.3009 214.94 74.7179 215.534 74.5639 216.546ZM84.9849 212.19V220H84.1269L84.0939 219.186C83.7749 219.769 83.0709 220.132 82.2569 220.132C80.7389 220.132 79.7929 218.955 79.7929 217.085C79.7929 215.215 80.7389 214.038 82.2569 214.038C83.0379 214.038 83.7199 214.379 84.0389 214.918V212.19H84.9849ZM80.7829 217.085C80.7829 218.405 81.4319 219.23 82.4549 219.23C83.4779 219.23 84.1269 218.405 84.1269 217.085C84.1269 215.743 83.4779 214.896 82.4549 214.896C81.4319 214.896 80.7829 215.743 80.7829 217.085ZM86.4768 215.886C86.7078 214.753 87.6208 214.038 88.8638 214.038C90.3708 214.038 91.2178 214.918 91.2178 216.48V218.812C91.2178 219.054 91.3278 219.164 91.5698 219.164H91.8118V220H91.4048C90.8108 220 90.2828 219.813 90.2828 219.109C90.0408 219.637 89.4028 220.132 88.4788 220.132C87.3238 220.132 86.3778 219.516 86.3778 218.471C86.3778 217.261 87.2798 216.964 88.5778 216.711L90.2718 216.381C90.2608 215.413 89.7988 214.94 88.8638 214.94C88.1378 214.94 87.6538 215.303 87.4778 215.963L86.4768 215.886ZM87.3678 218.471C87.3678 218.922 87.7528 219.296 88.5998 219.296C89.5458 219.296 90.2938 218.636 90.2938 217.272V217.217L88.9298 217.459C88.0718 217.613 87.3678 217.657 87.3678 218.471ZM96.3153 215.974C96.1833 215.325 95.5343 214.94 94.8963 214.94C94.2583 214.94 93.7413 215.259 93.7413 215.809C93.7413 216.381 94.5003 216.612 95.1163 216.733C96.4363 216.986 97.4153 217.349 97.4153 218.515C97.4153 219.648 96.2383 220.132 95.1383 220.132C93.7523 220.132 92.6963 219.373 92.6083 218.163L93.5983 218.097C93.7193 218.79 94.2693 219.23 95.1383 219.23C95.6883 219.23 96.4253 219.054 96.4253 218.46C96.4253 217.767 95.6113 217.701 94.9513 217.547C93.8953 217.305 92.7513 217.008 92.7513 215.864C92.7513 214.742 93.6533 214.038 94.9953 214.038C96.1613 214.038 97.1183 214.775 97.3053 215.908L96.3153 215.974ZM106.394 212.19V220H105.536L105.503 219.186C105.184 219.769 104.48 220.132 103.666 220.132C102.148 220.132 101.202 218.955 101.202 217.085C101.202 215.215 102.148 214.038 103.666 214.038C104.447 214.038 105.129 214.379 105.448 214.918V212.19H106.394ZM102.192 217.085C102.192 218.405 102.841 219.23 103.864 219.23C104.887 219.23 105.536 218.405 105.536 217.085C105.536 215.743 104.887 214.896 103.864 214.896C102.841 214.896 102.192 215.743 102.192 217.085ZM107.787 217.085C107.787 215.226 108.843 214.038 110.46 214.038C111.736 214.038 112.891 214.863 112.99 216.953L113.001 217.382H108.788C108.876 218.548 109.47 219.23 110.46 219.23C111.076 219.23 111.637 218.878 111.901 218.273L112.913 218.35C112.572 219.45 111.582 220.132 110.46 220.132C108.843 220.132 107.787 218.944 107.787 217.085ZM108.81 216.546H111.967C111.802 215.336 111.153 214.94 110.46 214.94C109.547 214.94 108.964 215.534 108.81 216.546ZM123.477 220H122.773L122.685 218.724C122.355 219.582 121.387 220.176 120.353 220.176C118.098 220.176 116.811 218.361 116.811 216.106C116.811 213.84 118.087 212.014 120.353 212.014C122.014 212.014 123.103 213.048 123.444 214.588L122.432 214.654C122.179 213.609 121.475 212.96 120.353 212.96C118.571 212.96 117.823 214.434 117.823 216.106C117.823 217.767 118.582 219.23 120.353 219.23C121.706 219.23 122.465 218.251 122.542 216.986H120.353V216.04H123.477V220ZM127.368 220.132C125.751 220.132 124.695 218.944 124.695 217.085C124.695 215.226 125.751 214.038 127.368 214.038C128.985 214.038 130.041 215.226 130.041 217.085C130.041 218.944 128.985 220.132 127.368 220.132ZM125.685 217.085C125.685 218.427 126.301 219.23 127.368 219.23C128.435 219.23 129.051 218.427 129.051 217.085C129.051 215.743 128.435 214.94 127.368 214.94C126.301 214.94 125.685 215.743 125.685 217.085ZM133.749 220.132C132.132 220.132 131.076 218.944 131.076 217.085C131.076 215.226 132.132 214.038 133.749 214.038C135.366 214.038 136.422 215.226 136.422 217.085C136.422 218.944 135.366 220.132 133.749 220.132ZM132.066 217.085C132.066 218.427 132.682 219.23 133.749 219.23C134.816 219.23 135.432 218.427 135.432 217.085C135.432 215.743 134.816 214.94 133.749 214.94C132.682 214.94 132.066 215.743 132.066 217.085ZM140.031 219.692C138.524 219.692 137.457 218.526 137.457 216.865C137.457 215.204 138.513 214.038 140.02 214.038C140.812 214.038 141.472 214.434 141.736 215.072V214.17H142.638V219.428C142.638 220.968 141.582 221.782 140.053 221.782C138.81 221.782 137.886 221.111 137.611 220.088L138.601 220.022C138.843 220.561 139.338 220.88 140.053 220.88C141.076 220.88 141.692 220.451 141.692 219.648V218.691C141.406 219.307 140.768 219.692 140.031 219.692ZM138.447 216.865C138.447 218.053 139.074 218.79 140.086 218.79C141.065 218.79 141.692 218.053 141.703 216.865C141.725 215.677 141.098 214.94 140.086 214.94C139.074 214.94 138.447 215.677 138.447 216.865ZM144.394 212.19H145.34V218.812C145.34 219.054 145.45 219.164 145.692 219.164H146.198V220H145.538C144.856 220 144.394 219.538 144.394 218.856V212.19ZM147.05 217.085C147.05 215.226 148.106 214.038 149.723 214.038C150.999 214.038 152.154 214.863 152.253 216.953L152.264 217.382H148.051C148.139 218.548 148.733 219.23 149.723 219.23C150.339 219.23 150.9 218.878 151.164 218.273L152.176 218.35C151.835 219.45 150.845 220.132 149.723 220.132C148.106 220.132 147.05 218.944 147.05 217.085ZM148.073 216.546H151.23C151.065 215.336 150.416 214.94 149.723 214.94C148.81 214.94 148.227 215.534 148.073 216.546ZM156.052 217.085C156.052 215.226 157.108 214.038 158.725 214.038C160.001 214.038 161.156 214.863 161.255 216.953L161.266 217.382H157.053C157.141 218.548 157.735 219.23 158.725 219.23C159.341 219.23 159.902 218.878 160.166 218.273L161.178 218.35C160.837 219.45 159.847 220.132 158.725 220.132C157.108 220.132 156.052 218.944 156.052 217.085ZM157.075 216.546H160.232C160.067 215.336 159.418 214.94 158.725 214.94C157.812 214.94 157.229 215.534 157.075 216.546ZM162.613 214.17H163.471L163.504 215.171C163.801 214.39 164.483 214.038 165.286 214.038C166.617 214.038 167.255 215.017 167.255 216.249V220H166.309V216.513C166.309 215.446 165.957 214.874 165.088 214.874C164.164 214.874 163.559 215.446 163.559 216.513V220H162.613V214.17ZM171.688 214.522C171.897 213.081 172.92 212.014 174.482 212.014C175.912 212.014 176.968 212.96 176.968 214.236C176.968 215.38 176.066 216.15 174.889 216.876C174.306 217.217 172.777 218.273 172.744 219.054H177.034V220H171.545C171.545 217.635 173.239 216.788 174.548 215.952C175.351 215.435 175.956 214.841 175.956 214.236C175.956 213.488 175.351 212.96 174.482 212.96C173.547 212.96 172.909 213.543 172.7 214.588L171.688 214.522ZM181.018 220.176C179.335 220.176 178.136 219.285 178.136 217.855C178.136 216.887 178.697 216.139 179.632 215.765C178.917 215.457 178.51 214.951 178.51 214.159C178.51 212.927 179.566 212.014 181.018 212.014C182.481 212.014 183.526 212.927 183.526 214.159C183.526 214.951 183.108 215.457 182.404 215.765C183.339 216.15 183.9 216.898 183.9 217.855C183.9 219.285 182.701 220.176 181.018 220.176ZM179.148 217.778C179.148 218.669 179.874 219.23 181.018 219.23C182.162 219.23 182.888 218.669 182.888 217.778C182.888 216.887 182.162 216.326 181.018 216.326C179.874 216.326 179.148 216.887 179.148 217.778ZM179.522 214.159C179.522 214.896 180.094 215.358 181.018 215.358C181.942 215.358 182.514 214.896 182.514 214.159C182.514 213.422 181.942 212.96 181.018 212.96C180.094 212.96 179.522 213.422 179.522 214.159ZM192.793 212.19V220H191.935L191.902 219.186C191.583 219.769 190.879 220.132 190.065 220.132C188.547 220.132 187.601 218.955 187.601 217.085C187.601 215.215 188.547 214.038 190.065 214.038C190.846 214.038 191.528 214.379 191.847 214.918V212.19H192.793ZM188.591 217.085C188.591 218.405 189.24 219.23 190.263 219.23C191.286 219.23 191.935 218.405 191.935 217.085C191.935 215.743 191.286 214.896 190.263 214.896C189.24 214.896 188.591 215.743 188.591 217.085ZM194.549 214.17H195.495V220H194.549V214.17ZM194.626 213.301L195.319 211.871H196.364L195.363 213.301H194.626ZM196.992 215.886C197.223 214.753 198.136 214.038 199.379 214.038C200.886 214.038 201.733 214.918 201.733 216.48V218.812C201.733 219.054 201.843 219.164 202.085 219.164H202.327V220H201.92C201.326 220 200.798 219.813 200.798 219.109C200.556 219.637 199.918 220.132 198.994 220.132C197.839 220.132 196.893 219.516 196.893 218.471C196.893 217.261 197.795 216.964 199.093 216.711L200.787 216.381C200.776 215.413 200.314 214.94 199.379 214.94C198.653 214.94 198.169 215.303 197.993 215.963L196.992 215.886ZM197.883 218.471C197.883 218.922 198.268 219.296 199.115 219.296C200.061 219.296 200.809 218.636 200.809 217.272V217.217L199.445 217.459C198.587 217.613 197.883 217.657 197.883 218.471ZM206.831 215.974C206.699 215.325 206.05 214.94 205.412 214.94C204.774 214.94 204.257 215.259 204.257 215.809C204.257 216.381 205.016 216.612 205.632 216.733C206.952 216.986 207.931 217.349 207.931 218.515C207.931 219.648 206.754 220.132 205.654 220.132C204.268 220.132 203.212 219.373 203.124 218.163L204.114 218.097C204.235 218.79 204.785 219.23 205.654 219.23C206.204 219.23 206.941 219.054 206.941 218.46C206.941 217.767 206.127 217.701 205.467 217.547C204.411 217.305 203.267 217.008 203.267 215.864C203.267 214.742 204.169 214.038 205.511 214.038C206.677 214.038 207.634 214.775 207.821 215.908L206.831 215.974Z" fill="#424242"/>
<path fill-rule="evenodd" clip-rule="evenodd" d="M61.5 236.85C61.1962 236.85 60.95 236.604 60.95 236.3C60.95 235.996 61.1962 235.75 61.5 235.75H64.25C64.5538 235.75 64.8 235.996 64.8 236.3V239.05C64.8 239.354 64.5538 239.6 64.25 239.6C63.9462 239.6 63.7 239.354 63.7 239.05V237.628L61.3389 239.989C61.1241 240.204 60.7759 240.204 60.5611 239.989L59.3 238.728L56.9389 241.089C56.7241 241.304 56.3759 241.304 56.1611 241.089C55.9463 240.874 55.9463 240.526 56.1611 240.311L58.9111 237.561C59.1259 237.346 59.4741 237.346 59.6889 237.561L60.95 238.822L62.9222 236.85H61.5Z" fill="#00A057"/>
<path d="M73.03 236.74V239.614H73.516V240.13H73.03V241H72.502V240.13H70.3V239.614L72.466 236.74H73.03ZM70.948 239.614H72.502V237.55L70.948 239.614ZM75.8305 241.096C74.7925 241.096 74.1385 240.238 74.1385 238.876C74.1385 237.502 74.7925 236.644 75.8305 236.644C76.8685 236.644 77.5225 237.502 77.5225 238.876C77.5225 240.238 76.8685 241.096 75.8305 241.096ZM74.6905 238.876C74.6905 239.968 75.0985 240.58 75.8305 240.58C76.5625 240.58 76.9705 239.968 76.9705 238.876C76.9705 237.778 76.5625 237.16 75.8305 237.16C75.0985 237.16 74.6905 237.778 74.6905 238.876ZM79.8617 241.096C78.8237 241.096 78.1697 240.238 78.1697 238.876C78.1697 237.502 78.8237 236.644 79.8617 236.644C80.8997 236.644 81.5537 237.502 81.5537 238.876C81.5537 240.238 80.8997 241.096 79.8617 241.096ZM78.7217 238.876C78.7217 239.968 79.1297 240.58 79.8617 240.58C80.5937 240.58 81.0017 239.968 81.0017 238.876C81.0017 237.778 80.5937 237.16 79.8617 237.16C79.1297 237.16 78.7217 237.778 78.7217 238.876ZM83.659 239.41C83.659 238.396 84.235 237.748 85.117 237.748C85.813 237.748 86.443 238.198 86.497 239.338L86.503 239.572H84.205C84.253 240.208 84.577 240.58 85.117 240.58C85.453 240.58 85.759 240.388 85.903 240.058L86.455 240.1C86.269 240.7 85.729 241.072 85.117 241.072C84.235 241.072 83.659 240.424 83.659 239.41ZM84.217 239.116H85.939C85.849 238.456 85.495 238.24 85.117 238.24C84.619 238.24 84.301 238.564 84.217 239.116ZM87.2378 237.82H87.7058L87.7238 238.366C87.8858 237.94 88.2578 237.748 88.6958 237.748C89.4218 237.748 89.7698 238.282 89.7698 238.954V241H89.2538V239.098C89.2538 238.516 89.0618 238.204 88.5878 238.204C88.0838 238.204 87.7538 238.516 87.7538 239.098V241H87.2378V237.82ZM94.276 238.888C94.21 238.48 93.868 238.24 93.49 238.24C92.908 238.24 92.572 238.678 92.572 239.41C92.572 240.142 92.908 240.58 93.49 240.58C93.886 240.58 94.228 240.322 94.3 239.872L94.846 239.908C94.744 240.628 94.162 241.072 93.49 241.072C92.608 241.072 92.032 240.424 92.032 239.41C92.032 238.396 92.608 237.748 93.49 237.748C94.138 237.748 94.732 238.168 94.816 238.852L94.276 238.888ZM96.8064 241.072C95.9244 241.072 95.3484 240.424 95.3484 239.41C95.3484 238.396 95.9244 237.748 96.8064 237.748C97.6884 237.748 98.2644 238.396 98.2644 239.41C98.2644 240.424 97.6884 241.072 96.8064 241.072ZM95.8884 239.41C95.8884 240.142 96.2244 240.58 96.8064 240.58C97.3884 240.58 97.7244 240.142 97.7244 239.41C97.7244 238.678 97.3884 238.24 96.8064 238.24C96.2244 238.24 95.8884 238.678 95.8884 239.41ZM98.9976 237.82H99.4656L99.4836 238.348C99.6336 237.964 99.9576 237.748 100.396 237.748C100.858 237.748 101.188 237.988 101.326 238.408C101.464 237.982 101.794 237.748 102.292 237.748C102.934 237.748 103.306 238.186 103.306 238.954V241H102.79V239.098C102.79 238.528 102.568 238.204 102.184 238.204C101.692 238.204 101.41 238.528 101.41 239.098V241H100.894V239.098C100.894 238.54 100.666 238.204 100.288 238.204C99.8016 238.204 99.5136 238.54 99.5136 239.098V241H98.9976V237.82ZM104.148 241.9V237.82H104.616L104.634 238.282C104.808 237.94 105.144 237.748 105.606 237.748C106.56 237.748 106.98 238.54 106.98 239.41C106.98 240.28 106.56 241.072 105.606 241.072C105.168 241.072 104.838 240.904 104.664 240.574V241.9H104.148ZM104.604 239.41C104.604 239.998 104.868 240.58 105.516 240.58C106.17 240.58 106.428 240.004 106.428 239.41C106.428 238.816 106.17 238.24 105.516 238.24C104.868 238.24 104.604 238.822 104.604 239.41ZM107.625 238.756C107.751 238.138 108.249 237.748 108.927 237.748C109.749 237.748 110.211 238.228 110.211 239.08V240.352C110.211 240.484 110.271 240.544 110.403 240.544H110.535V241H110.313C109.989 241 109.701 240.898 109.701 240.514C109.569 240.802 109.221 241.072 108.717 241.072C108.087 241.072 107.571 240.736 107.571 240.166C107.571 239.506 108.063 239.344 108.771 239.206L109.695 239.026C109.689 238.498 109.437 238.24 108.927 238.24C108.531 238.24 108.267 238.438 108.171 238.798L107.625 238.756ZM108.111 240.166C108.111 240.412 108.321 240.616 108.783 240.616C109.299 240.616 109.707 240.256 109.707 239.512V239.482L108.963 239.614C108.495 239.698 108.111 239.722 108.111 240.166ZM111.179 237.82H111.635L111.653 238.39C111.755 238 111.989 237.82 112.403 237.82H112.715V238.276H112.403C111.917 238.276 111.695 238.558 111.695 239.104V241H111.179V237.82ZM113.215 238.756C113.341 238.138 113.839 237.748 114.517 237.748C115.339 237.748 115.801 238.228 115.801 239.08V240.352C115.801 240.484 115.861 240.544 115.993 240.544H116.125V241H115.903C115.579 241 115.291 240.898 115.291 240.514C115.159 240.802 114.811 241.072 114.307 241.072C113.677 241.072 113.161 240.736 113.161 240.166C113.161 239.506 113.653 239.344 114.361 239.206L115.285 239.026C115.279 238.498 115.027 238.24 114.517 238.24C114.121 238.24 113.857 238.438 113.761 238.798L113.215 238.756ZM113.701 240.166C113.701 240.412 113.911 240.616 114.373 240.616C114.889 240.616 115.297 240.256 115.297 239.512V239.482L114.553 239.614C114.085 239.698 113.701 239.722 113.701 240.166ZM118.803 238.888C118.737 238.48 118.395 238.24 118.017 238.24C117.435 238.24 117.099 238.678 117.099 239.41C117.099 240.142 117.435 240.58 118.017 240.58C118.413 240.58 118.755 240.322 118.827 239.872L119.373 239.908C119.271 240.628 118.689 241.072 118.017 241.072C117.135 241.072 116.559 240.424 116.559 239.41C116.559 238.396 117.135 237.748 118.017 237.748C118.665 237.748 119.259 238.168 119.343 238.852L118.803 238.888ZM119.957 237.82H120.473V241H119.957V237.82ZM119.945 237.322V236.74H120.485V237.322H119.945ZM122.693 241.072C121.811 241.072 121.235 240.424 121.235 239.41C121.235 238.396 121.811 237.748 122.693 237.748C123.575 237.748 124.151 238.396 124.151 239.41C124.151 240.424 123.575 241.072 122.693 241.072ZM121.775 239.41C121.775 240.142 122.111 240.58 122.693 240.58C123.275 240.58 123.611 240.142 123.611 239.41C123.611 238.678 123.275 238.24 122.693 238.24C122.111 238.24 121.775 238.678 121.775 239.41ZM122.477 237.346L122.855 236.566H123.425L122.879 237.346H122.477ZM124.914 237.82H125.382L125.4 238.366C125.562 237.94 125.934 237.748 126.372 237.748C127.098 237.748 127.446 238.282 127.446 238.954V241H126.93V239.098C126.93 238.516 126.738 238.204 126.264 238.204C125.76 238.204 125.43 238.516 125.43 239.098V241H124.914V237.82ZM131.952 238.888C131.886 238.48 131.544 238.24 131.166 238.24C130.584 238.24 130.248 238.678 130.248 239.41C130.248 240.142 130.584 240.58 131.166 240.58C131.562 240.58 131.904 240.322 131.976 239.872L132.522 239.908C132.42 240.628 131.838 241.072 131.166 241.072C130.284 241.072 129.708 240.424 129.708 239.41C129.708 238.396 130.284 237.748 131.166 237.748C131.814 237.748 132.408 238.168 132.492 238.852L131.952 238.888ZM134.482 241.072C133.6 241.072 133.024 240.424 133.024 239.41C133.024 238.396 133.6 237.748 134.482 237.748C135.364 237.748 135.94 238.396 135.94 239.41C135.94 240.424 135.364 241.072 134.482 241.072ZM133.564 239.41C133.564 240.142 133.9 240.58 134.482 240.58C135.064 240.58 135.4 240.142 135.4 239.41C135.4 238.678 135.064 238.24 134.482 238.24C133.9 238.24 133.564 238.678 133.564 239.41ZM136.673 237.82H137.141L137.159 238.366C137.321 237.94 137.693 237.748 138.131 237.748C138.857 237.748 139.205 238.282 139.205 238.954V241H138.689V239.098C138.689 238.516 138.497 238.204 138.023 238.204C137.519 238.204 137.189 238.516 137.189 239.098V241H136.673V237.82ZM141.468 239.41C141.468 238.396 142.044 237.748 142.926 237.748C143.622 237.748 144.252 238.198 144.306 239.338L144.312 239.572H142.014C142.062 240.208 142.386 240.58 142.926 240.58C143.262 240.58 143.568 240.388 143.712 240.058L144.264 240.1C144.078 240.7 143.538 241.072 142.926 241.072C142.044 241.072 141.468 240.424 141.468 239.41ZM142.026 239.116H143.748C143.658 238.456 143.304 238.24 142.926 238.24C142.428 238.24 142.11 238.564 142.026 239.116ZM145.076 236.74H145.592V240.352C145.592 240.484 145.652 240.544 145.784 240.544H146.06V241H145.7C145.328 241 145.076 240.748 145.076 240.376V236.74ZM148.281 241.9V237.82H148.749L148.767 238.282C148.941 237.94 149.277 237.748 149.739 237.748C150.693 237.748 151.113 238.54 151.113 239.41C151.113 240.28 150.693 241.072 149.739 241.072C149.301 241.072 148.971 240.904 148.797 240.574V241.9H148.281ZM148.737 239.41C148.737 239.998 149.001 240.58 149.649 240.58C150.303 240.58 150.561 240.004 150.561 239.41C150.561 238.816 150.303 238.24 149.649 238.24C149.001 238.24 148.737 238.822 148.737 239.41ZM151.675 239.41C151.675 238.396 152.251 237.748 153.133 237.748C153.829 237.748 154.459 238.198 154.513 239.338L154.519 239.572H152.221C152.269 240.208 152.593 240.58 153.133 240.58C153.469 240.58 153.775 240.388 153.919 240.058L154.471 240.1C154.285 240.7 153.745 241.072 153.133 241.072C152.251 241.072 151.675 240.424 151.675 239.41ZM152.233 239.116H153.955C153.865 238.456 153.511 238.24 153.133 238.24C152.635 238.24 152.317 238.564 152.233 239.116ZM155.253 237.82H155.709L155.727 238.39C155.829 238 156.063 237.82 156.477 237.82H156.789V238.276H156.477C155.991 238.276 155.769 238.558 155.769 239.104V241H155.253V237.82ZM157.55 237.82H158.066V241H157.55V237.82ZM157.538 237.322V236.74H158.078V237.322H157.538ZM160.287 241.072C159.405 241.072 158.829 240.424 158.829 239.41C158.829 238.396 159.405 237.748 160.287 237.748C161.169 237.748 161.745 238.396 161.745 239.41C161.745 240.424 161.169 241.072 160.287 241.072ZM159.369 239.41C159.369 240.142 159.705 240.58 160.287 240.58C160.869 240.58 161.205 240.142 161.205 239.41C161.205 238.678 160.869 238.24 160.287 238.24C159.705 238.24 159.369 238.678 159.369 239.41ZM165.141 236.74V241H164.673L164.655 240.556C164.481 240.874 164.097 241.072 163.653 241.072C162.825 241.072 162.309 240.43 162.309 239.41C162.309 238.39 162.825 237.748 163.653 237.748C164.079 237.748 164.451 237.934 164.625 238.228V236.74H165.141ZM162.849 239.41C162.849 240.13 163.203 240.58 163.761 240.58C164.319 240.58 164.673 240.13 164.673 239.41C164.673 238.678 164.319 238.216 163.761 238.216C163.203 238.216 162.849 238.678 162.849 239.41ZM167.359 241.072C166.477 241.072 165.901 240.424 165.901 239.41C165.901 238.396 166.477 237.748 167.359 237.748C168.241 237.748 168.817 238.396 168.817 239.41C168.817 240.424 168.241 241.072 167.359 241.072ZM166.441 239.41C166.441 240.142 166.777 240.58 167.359 240.58C167.941 240.58 168.277 240.142 168.277 239.41C168.277 238.678 167.941 238.24 167.359 238.24C166.777 238.24 166.441 238.678 166.441 239.41ZM170.936 238.756C171.062 238.138 171.56 237.748 172.238 237.748C173.06 237.748 173.522 238.228 173.522 239.08V240.352C173.522 240.484 173.582 240.544 173.714 240.544H173.846V241H173.624C173.3 241 173.012 240.898 173.012 240.514C172.88 240.802 172.532 241.072 172.028 241.072C171.398 241.072 170.882 240.736 170.882 240.166C170.882 239.506 171.374 239.344 172.082 239.206L173.006 239.026C173 238.498 172.748 238.24 172.238 238.24C171.842 238.24 171.578 238.438 171.482 238.798L170.936 238.756ZM171.422 240.166C171.422 240.412 171.632 240.616 172.094 240.616C172.61 240.616 173.018 240.256 173.018 239.512V239.482L172.274 239.614C171.806 239.698 171.422 239.722 171.422 240.166ZM174.49 237.82H174.958L174.976 238.366C175.138 237.94 175.51 237.748 175.948 237.748C176.674 237.748 177.022 238.282 177.022 238.954V241H176.506V239.098C176.506 238.516 176.314 238.204 175.84 238.204C175.336 238.204 175.006 238.516 175.006 239.098V241H174.49V237.82ZM178.142 237.1H178.658V237.82H179.51V238.276H178.658V240.148C178.658 240.412 178.784 240.544 179.036 240.544H179.498V241H179.036C178.46 241 178.142 240.694 178.142 240.148V238.276H177.68V237.82H178.142V237.1ZM179.928 239.41C179.928 238.396 180.504 237.748 181.386 237.748C182.082 237.748 182.712 238.198 182.766 239.338L182.772 239.572H180.474C180.522 240.208 180.846 240.58 181.386 240.58C181.722 240.58 182.028 240.388 182.172 240.058L182.724 240.1C182.538 240.7 181.998 241.072 181.386 241.072C180.504 241.072 179.928 240.424 179.928 239.41ZM180.486 239.116H182.208C182.118 238.456 181.764 238.24 181.386 238.24C180.888 238.24 180.57 238.564 180.486 239.116ZM183.507 237.82H183.963L183.981 238.39C184.083 238 184.317 237.82 184.731 237.82H185.043V238.276H184.731C184.245 238.276 184.023 238.558 184.023 239.104V241H183.507V237.82ZM185.804 237.82H186.32V241H185.804V237.82ZM185.792 237.322V236.74H186.332V237.322H185.792ZM188.541 241.072C187.659 241.072 187.083 240.424 187.083 239.41C187.083 238.396 187.659 237.748 188.541 237.748C189.423 237.748 189.999 238.396 189.999 239.41C189.999 240.424 189.423 241.072 188.541 241.072ZM187.623 239.41C187.623 240.142 187.959 240.58 188.541 240.58C189.123 240.58 189.459 240.142 189.459 239.41C189.459 238.678 189.123 238.24 188.541 238.24C187.959 238.24 187.623 238.678 187.623 239.41ZM190.732 237.82H191.188L191.206 238.39C191.308 238 191.542 237.82 191.956 237.82H192.268V238.276H191.956C191.47 238.276 191.248 238.558 191.248 239.104V241H190.732V237.82Z" fill="#00A057"/>
<path fill-rule="evenodd" clip-rule="evenodd" d="M51.2517 294.27V295.939H55.2321C55.113 296.878 54.8011 297.562 54.3261 298.039C53.7469 298.62 52.8403 299.261 51.2517 299.261C48.801 299.261 46.8849 297.279 46.8849 294.821C46.8849 292.364 48.801 290.383 51.2517 290.383C52.5731 290.383 53.5386 290.904 54.2517 291.574L55.4249 290.398C54.4296 289.444 53.1082 288.714 51.2517 288.714C47.8951 288.714 45.073 291.455 45.073 294.821C45.073 298.188 47.8951 300.929 51.2517 300.929C53.0636 300.929 54.4296 300.333 55.4993 299.216C56.5981 298.113 56.9398 296.565 56.9398 295.313C56.9398 294.926 56.9107 294.568 56.8505 294.27H51.2517Z" fill="#4285F4"/>
<path fill-rule="evenodd" clip-rule="evenodd" d="M61.9152 299.246C60.7244 299.246 59.6966 298.261 59.6966 296.857C59.6966 295.439 60.7244 294.468 61.9152 294.468C63.106 294.468 64.1331 295.439 64.1331 296.857C64.1331 298.261 63.106 299.246 61.9152 299.246ZM61.9152 292.916C59.7419 292.916 57.9699 294.573 57.9699 296.857C57.9699 299.127 59.7419 300.799 61.9152 300.799C64.0884 300.799 65.8604 299.127 65.8604 296.857C65.8604 294.573 64.0884 292.916 61.9152 292.916Z" fill="#E94235"/>
<path fill-rule="evenodd" clip-rule="evenodd" d="M79.2726 299.246C78.0818 299.246 77.1738 298.231 77.1738 296.858C77.1738 295.468 78.0818 294.468 79.2726 294.468C80.4485 294.468 81.3714 295.484 81.3714 296.872C81.3714 298.246 80.4485 299.246 79.2726 299.246ZM81.2517 293.796H81.1921C80.8051 293.334 80.0608 292.916 79.1231 292.916C77.1583 292.916 75.4471 294.632 75.4471 296.858C75.4471 299.067 77.1583 300.799 79.1231 300.799C80.0608 300.799 80.8051 300.381 81.1921 299.903H81.2517V300.455C81.2517 301.962 80.4479 302.769 79.1529 302.769C78.096 302.769 77.4404 302.007 77.1725 301.365L75.6691 301.992C76.1014 303.037 77.2469 304.322 79.1529 304.322C81.1772 304.322 82.8897 303.127 82.8897 300.216V293.119H81.2517V293.796Z" fill="#4285F4"/>
<path fill-rule="evenodd" clip-rule="evenodd" d="M70.7109 299.246C69.5201 299.246 68.493 298.261 68.493 296.857C68.493 295.439 69.5201 294.468 70.7109 294.468C71.9017 294.468 72.9288 295.439 72.9288 296.857C72.9288 298.261 71.9017 299.246 70.7109 299.246ZM70.7109 292.916C68.5377 292.916 66.7657 294.573 66.7657 296.857C66.7657 299.127 68.5377 300.799 70.7109 300.799C72.8841 300.799 74.6561 299.127 74.6561 296.857C74.6561 294.573 72.8841 292.916 70.7109 292.916Z" fill="#FBBC04"/>
<path fill-rule="evenodd" clip-rule="evenodd" d="M84.2426 300.799H85.9408V288.877H84.2426V300.799Z" fill="#34A853"/>
<path fill-rule="evenodd" clip-rule="evenodd" d="M91.0599 294.393C91.7589 294.393 92.3509 294.75 92.5484 295.263L88.999 296.738C88.999 295.076 90.1709 294.393 91.0599 294.393ZM91.1878 299.246C90.3096 299.246 89.6844 298.843 89.2818 298.052L94.537 295.872L94.3583 295.424C94.0309 294.543 93.0336 292.916 90.9943 292.916C88.9692 292.916 87.2872 294.513 87.2872 296.857C87.2872 299.067 88.9544 300.799 91.1878 300.799C92.9889 300.799 94.0309 299.694 94.4632 299.052L93.1229 298.156C92.6763 298.813 92.066 299.246 91.1878 299.246Z" fill="#E94235"/>
<path d="M103.295 300.489C102.779 300.489 102.268 300.379 101.762 300.16C101.256 299.941 100.81 299.618 100.423 299.19C100.036 298.762 99.7528 298.23 99.5742 297.593L100.78 297.1C100.949 297.717 101.256 298.235 101.703 298.653C102.149 299.071 102.69 299.28 103.325 299.28C103.722 299.28 104.084 299.21 104.412 299.071C104.749 298.921 105.017 298.707 105.216 298.429C105.424 298.15 105.528 297.812 105.528 297.414C105.528 296.886 105.33 296.468 104.933 296.16C104.546 295.841 103.97 295.547 103.206 295.279L102.536 295.04C102.139 294.891 101.743 294.702 101.346 294.473C100.949 294.244 100.621 293.945 100.363 293.577C100.105 293.199 99.9761 292.726 99.9761 292.159C99.9761 291.641 100.115 291.168 100.393 290.74C100.671 290.313 101.053 289.969 101.539 289.71C102.025 289.452 102.586 289.322 103.221 289.322C103.886 289.322 104.442 289.447 104.888 289.695C105.345 289.934 105.702 290.223 105.96 290.561C106.228 290.89 106.406 291.193 106.496 291.472L105.32 291.98C105.26 291.771 105.146 291.557 104.978 291.338C104.809 291.109 104.581 290.92 104.293 290.77C104.015 290.611 103.663 290.531 103.236 290.531C102.889 290.531 102.561 290.601 102.254 290.74C101.956 290.88 101.713 291.074 101.524 291.323C101.346 291.562 101.256 291.84 101.256 292.159C101.256 292.607 101.435 292.96 101.792 293.219C102.149 293.477 102.631 293.711 103.236 293.92L103.936 294.159C104.253 294.269 104.576 294.403 104.903 294.562C105.241 294.721 105.553 294.925 105.841 295.174C106.129 295.423 106.362 295.732 106.54 296.1C106.719 296.458 106.808 296.891 106.808 297.399C106.808 297.946 106.699 298.419 106.481 298.817C106.273 299.205 105.995 299.523 105.647 299.772C105.3 300.021 104.918 300.2 104.501 300.31C104.094 300.429 103.692 300.489 103.295 300.489ZM111.803 300.489C111.068 300.489 110.413 300.315 109.838 299.966C109.272 299.618 108.826 299.14 108.498 298.533C108.181 297.926 108.022 297.234 108.022 296.458C108.022 295.732 108.171 295.06 108.468 294.443C108.776 293.826 109.203 293.333 109.749 292.965C110.304 292.587 110.954 292.398 111.698 292.398C112.453 292.398 113.098 292.567 113.634 292.905C114.179 293.234 114.596 293.691 114.884 294.279C115.182 294.866 115.331 295.538 115.331 296.294C115.331 296.364 115.325 296.433 115.316 296.503C115.316 296.573 115.31 296.632 115.301 296.682H109.287C109.327 297.279 109.471 297.777 109.719 298.175C109.977 298.563 110.294 298.857 110.671 299.056C111.048 299.245 111.44 299.339 111.847 299.339C112.403 299.339 112.86 299.21 113.217 298.951C113.584 298.682 113.877 298.354 114.095 297.966L115.167 298.488C114.869 299.066 114.442 299.543 113.887 299.922C113.331 300.3 112.636 300.489 111.803 300.489ZM111.698 293.547C111.083 293.547 110.572 293.741 110.165 294.129C109.758 294.517 109.491 295.02 109.362 295.637H113.991C113.981 295.348 113.896 295.045 113.738 294.726C113.589 294.398 113.351 294.119 113.024 293.89C112.696 293.662 112.254 293.547 111.698 293.547ZM119.31 300.489C118.744 300.489 118.248 300.379 117.821 300.16C117.395 299.941 117.057 299.643 116.809 299.265C116.571 298.877 116.452 298.439 116.452 297.951C116.452 297.394 116.596 296.926 116.884 296.548C117.172 296.16 117.559 295.871 118.045 295.682C118.531 295.483 119.067 295.383 119.652 295.383C120.158 295.383 120.605 295.438 120.992 295.547C121.379 295.657 121.657 295.766 121.825 295.876V295.413C121.825 294.836 121.622 294.378 121.215 294.04C120.808 293.701 120.313 293.532 119.727 293.532C119.31 293.532 118.918 293.627 118.551 293.816C118.193 293.995 117.911 294.249 117.702 294.577L116.75 293.861C117.047 293.413 117.455 293.059 117.97 292.801C118.497 292.532 119.082 292.398 119.727 292.398C120.759 292.398 121.568 292.671 122.153 293.219C122.739 293.766 123.031 294.502 123.031 295.428V300.25H121.825V299.16H121.766C121.568 299.499 121.255 299.807 120.828 300.086C120.402 300.354 119.896 300.489 119.31 300.489ZM119.429 299.369C119.866 299.369 120.262 299.26 120.62 299.041C120.987 298.822 121.28 298.528 121.498 298.16C121.716 297.792 121.825 297.389 121.825 296.951C121.597 296.792 121.31 296.662 120.962 296.563C120.625 296.463 120.253 296.413 119.846 296.413C119.122 296.413 118.591 296.563 118.253 296.861C117.916 297.16 117.747 297.528 117.747 297.966C117.747 298.384 117.906 298.722 118.223 298.981C118.541 299.24 118.943 299.369 119.429 299.369ZM124.792 300.25V292.636H125.997V293.861H126.057C126.156 293.572 126.32 293.323 126.548 293.114C126.786 292.895 127.054 292.726 127.352 292.607C127.66 292.477 127.962 292.412 128.26 292.412C128.488 292.412 128.666 292.427 128.796 292.457C128.925 292.477 129.044 292.512 129.153 292.562V293.935C128.836 293.776 128.478 293.696 128.081 293.696C127.714 293.696 127.377 293.801 127.069 294.01C126.761 294.219 126.514 294.498 126.325 294.846C126.146 295.194 126.057 295.577 126.057 295.995V300.25H124.792ZM133.361 300.489C132.617 300.489 131.952 300.315 131.367 299.966C130.791 299.608 130.34 299.125 130.012 298.518C129.685 297.901 129.521 297.21 129.521 296.443C129.521 295.667 129.685 294.975 130.012 294.368C130.34 293.761 130.791 293.283 131.367 292.935C131.952 292.577 132.617 292.398 133.361 292.398C134.215 292.398 134.914 292.597 135.46 292.995C136.016 293.383 136.408 293.885 136.636 294.502L135.49 294.98C135.301 294.512 135.018 294.159 134.641 293.92C134.274 293.671 133.828 293.547 133.302 293.547C132.855 293.547 132.438 293.666 132.051 293.905C131.675 294.144 131.367 294.483 131.129 294.92C130.89 295.348 130.771 295.856 130.771 296.443C130.771 297.02 130.89 297.528 131.129 297.966C131.367 298.404 131.675 298.742 132.051 298.981C132.438 299.22 132.855 299.339 133.302 299.339C133.838 299.339 134.299 299.215 134.686 298.966C135.073 298.717 135.361 298.364 135.549 297.906L136.681 298.384C136.432 298.971 136.031 299.469 135.475 299.877C134.92 300.285 134.215 300.489 133.361 300.489ZM138.049 300.25V289.561H139.314V292.711L139.255 293.756H139.314C139.512 293.378 139.835 293.059 140.282 292.801C140.738 292.532 141.239 292.398 141.785 292.398C142.747 292.398 143.462 292.681 143.928 293.248C144.395 293.806 144.628 294.512 144.628 295.368V300.25H143.363V295.562C143.363 294.826 143.174 294.308 142.797 294.01C142.43 293.701 141.993 293.547 141.487 293.547C141.071 293.547 140.698 293.666 140.371 293.905C140.043 294.144 139.785 294.453 139.597 294.831C139.408 295.209 139.314 295.602 139.314 296.01V300.25H138.049ZM154.874 300.489C154.09 300.489 153.361 300.35 152.686 300.071C152.021 299.782 151.435 299.389 150.929 298.891C150.433 298.384 150.046 297.792 149.768 297.115C149.491 296.428 149.351 295.692 149.351 294.906C149.351 294.109 149.491 293.373 149.768 292.696C150.046 292.019 150.433 291.432 150.929 290.935C151.435 290.427 152.021 290.034 152.686 289.755C153.361 289.467 154.09 289.322 154.874 289.322C155.688 289.322 156.422 289.477 157.077 289.785C157.732 290.084 158.297 290.512 158.774 291.069L157.866 291.95C157.082 291.004 156.085 290.531 154.874 290.531C154.11 290.531 153.406 290.711 152.76 291.069C152.115 291.427 151.599 291.935 151.212 292.592C150.825 293.239 150.631 294.01 150.631 294.906C150.631 295.791 150.825 296.563 151.212 297.219C151.599 297.876 152.115 298.384 152.76 298.742C153.406 299.1 154.11 299.28 154.874 299.28C155.569 299.28 156.184 299.135 156.719 298.847C157.266 298.558 157.747 298.17 158.163 297.682L159.086 298.578C158.62 299.135 158.025 299.593 157.3 299.951C156.576 300.31 155.767 300.489 154.874 300.489ZM163.86 300.489C163.096 300.489 162.421 300.31 161.835 299.951C161.25 299.593 160.789 299.11 160.451 298.503C160.123 297.886 159.96 297.2 159.96 296.443C159.96 295.687 160.123 295.005 160.451 294.398C160.789 293.781 161.25 293.293 161.835 292.935C162.421 292.577 163.096 292.398 163.86 292.398C164.624 292.398 165.299 292.582 165.884 292.95C166.47 293.308 166.926 293.796 167.253 294.413C167.591 295.02 167.76 295.697 167.76 296.443C167.76 297.2 167.591 297.886 167.253 298.503C166.926 299.11 166.47 299.593 165.884 299.951C165.299 300.31 164.624 300.489 163.86 300.489ZM163.86 299.339C164.316 299.339 164.743 299.225 165.14 298.996C165.547 298.767 165.875 298.439 166.122 298.011C166.37 297.573 166.494 297.05 166.494 296.443C166.494 295.836 166.37 295.319 166.122 294.891C165.875 294.453 165.547 294.119 165.14 293.89C164.743 293.662 164.316 293.547 163.86 293.547C163.404 293.547 162.972 293.662 162.565 293.89C162.158 294.119 161.831 294.453 161.582 294.891C161.335 295.319 161.21 295.836 161.21 296.443C161.21 297.05 161.335 297.573 161.582 298.011C161.831 298.439 162.158 298.767 162.565 298.996C162.972 299.225 163.404 299.339 163.86 299.339ZM169.084 300.25V292.636H170.289V293.756H170.349C170.547 293.388 170.87 293.069 171.316 292.801C171.772 292.532 172.269 292.398 172.805 292.398C173.737 292.398 174.437 292.671 174.904 293.219C175.38 293.756 175.618 294.473 175.618 295.368V300.25H174.353V295.562C174.353 294.826 174.174 294.308 173.817 294.01C173.469 293.701 173.018 293.547 172.463 293.547C172.046 293.547 171.678 293.666 171.361 293.905C171.043 294.134 170.795 294.433 170.617 294.801C170.438 295.169 170.349 295.557 170.349 295.965V300.25H169.084ZM180.004 300.489C179.151 300.489 178.456 300.29 177.92 299.892C177.384 299.484 177.012 299.001 176.804 298.444L177.935 297.936C178.134 298.394 178.421 298.747 178.798 298.996C179.176 299.245 179.607 299.369 180.093 299.369C180.56 299.369 180.947 299.275 181.254 299.086C181.572 298.896 181.731 298.618 181.731 298.25C181.731 297.911 181.582 297.647 181.284 297.458C180.996 297.269 180.59 297.11 180.063 296.981L179.141 296.742C178.783 296.642 178.446 296.503 178.128 296.324C177.811 296.145 177.553 295.916 177.354 295.637C177.166 295.348 177.071 295 177.071 294.592C177.071 294.134 177.205 293.741 177.473 293.413C177.741 293.084 178.094 292.835 178.53 292.666C178.967 292.487 179.433 292.398 179.929 292.398C180.575 292.398 181.16 292.542 181.686 292.83C182.222 293.109 182.599 293.512 182.817 294.04L181.716 294.547C181.528 294.169 181.275 293.905 180.957 293.756C180.639 293.607 180.287 293.532 179.9 293.532C179.483 293.532 179.121 293.627 178.813 293.816C178.506 293.995 178.352 294.244 178.352 294.562C178.352 294.881 178.476 295.12 178.724 295.279C178.982 295.438 179.295 295.567 179.662 295.667L180.763 295.951C182.262 296.339 183.011 297.075 183.011 298.16C183.011 298.638 182.877 299.051 182.609 299.399C182.341 299.747 181.979 300.016 181.522 300.205C181.066 300.394 180.56 300.489 180.004 300.489ZM187.961 300.489C187.197 300.489 186.522 300.31 185.936 299.951C185.351 299.593 184.89 299.11 184.552 298.503C184.224 297.886 184.061 297.2 184.061 296.443C184.061 295.687 184.224 295.005 184.552 294.398C184.89 293.781 185.351 293.293 185.936 292.935C186.522 292.577 187.197 292.398 187.961 292.398C188.725 292.398 189.4 292.582 189.985 292.95C190.571 293.308 191.027 293.796 191.354 294.413C191.692 295.02 191.861 295.697 191.861 296.443C191.861 297.2 191.692 297.886 191.354 298.503C191.027 299.11 190.571 299.593 189.985 299.951C189.4 300.31 188.725 300.489 187.961 300.489ZM187.961 299.339C188.417 299.339 188.844 299.225 189.241 298.996C189.648 298.767 189.976 298.439 190.223 298.011C190.471 297.573 190.595 297.05 190.595 296.443C190.595 295.836 190.471 295.319 190.223 294.891C189.976 294.453 189.648 294.119 189.241 293.89C188.844 293.662 188.417 293.547 187.961 293.547C187.505 293.547 187.073 293.662 186.666 293.89C186.259 294.119 185.932 294.453 185.683 294.891C185.436 295.319 185.311 295.836 185.311 296.443C185.311 297.05 185.436 297.573 185.683 298.011C185.932 298.439 186.259 298.767 186.666 298.996C187.073 299.225 187.505 299.339 187.961 299.339ZM193.257 300.25V289.561H194.522V300.25H193.257ZM199.704 300.489C198.969 300.489 198.314 300.315 197.739 299.966C197.173 299.618 196.727 299.14 196.399 298.533C196.081 297.926 195.923 297.234 195.923 296.458C195.923 295.732 196.072 295.06 196.369 294.443C196.677 293.826 197.103 293.333 197.649 292.965C198.205 292.587 198.855 292.398 199.599 292.398C200.353 292.398 200.999 292.567 201.534 292.905C202.08 293.234 202.497 293.691 202.785 294.279C203.083 294.866 203.231 295.538 203.231 296.294C203.231 296.364 203.226 296.433 203.217 296.503C203.217 296.573 203.211 296.632 203.202 296.682H197.188C197.227 297.279 197.371 297.777 197.62 298.175C197.877 298.563 198.195 298.857 198.572 299.056C198.949 299.245 199.341 299.339 199.748 299.339C200.304 299.339 200.76 299.21 201.118 298.951C201.484 298.682 201.777 298.354 201.996 297.966L203.068 298.488C202.77 299.066 202.343 299.543 201.788 299.922C201.231 300.3 200.537 300.489 199.704 300.489ZM199.599 293.547C198.984 293.547 198.473 293.741 198.066 294.129C197.659 294.517 197.391 295.02 197.262 295.637H201.892C201.882 295.348 201.797 295.045 201.639 294.726C201.49 294.398 201.252 294.119 200.924 293.89C200.597 293.662 200.155 293.547 199.599 293.547Z" fill="#5E5E5E"/>
<defs>
<filter id="filter0_d_340_185" x="0" y="0" width="251" height="334" filterUnits="userSpaceOnUse" color-interpolation-filters="sRGB">
<feFlood flood-opacity="0" result="BackgroundImageFix"/>
<feColorMatrix in="SourceAlpha" type="matrix" values="0 0 0 0 0 0 0 0 0 0 0 0 0 0 0 0 0 0 127 0" result="hardAlpha"/>
<feOffset dy="4"/>
<feGaussianBlur stdDeviation="2"/>
<feComposite in2="hardAlpha" operator="out"/>
<feColorMatrix type="matrix" values="0 0 0 0 0 0 0 0 0 0 0 0 0 0 0 0 0 0 0.25 0"/>
<feBlend mode="normal" in2="BackgroundImageFix" result="effect1_dropShadow_340_185"/>
<feBlend mode="normal" in="SourceGraphic" in2="effect1_dropShadow_340_185" result="shape"/>
</filter>
<clipPath id="clip0_340_185">
<rect width="85" height="85" fill="white" transform="translate(82 46)"/>
</clipPath>
</defs>
</svg>
