<svg width="105" height="44" viewBox="0 0 105 44" fill="none" xmlns="http://www.w3.org/2000/svg">
<path fill-rule="evenodd" clip-rule="evenodd" d="M104.719 22.5646C104.719 15.1643 101.135 9.32495 94.2835 9.32495C87.4035 9.32495 83.2408 15.1643 83.2408 22.5068C83.2408 31.2079 88.1551 35.6019 95.2085 35.6019C98.6485 35.6019 101.25 34.8214 103.216 33.7229V27.9414C101.25 28.9242 98.9954 29.5313 96.1336 29.5313C93.3296 29.5313 90.8435 28.5484 90.5255 25.1374H104.661C104.661 24.7616 104.719 23.2584 104.719 22.5646ZM90.4388 19.8184C90.4388 16.5518 92.4334 15.1932 94.2546 15.1932C96.018 15.1932 97.8969 16.5518 97.8969 19.8184H90.4388Z" fill="white"/>
<path fill-rule="evenodd" clip-rule="evenodd" d="M72.0826 9.32495C69.2497 9.32495 67.4285 10.6547 66.4167 11.5797L66.0409 9.78747H59.6813V43.4936L66.9081 41.9615L66.9371 33.7807C67.9777 34.5323 69.5098 35.6019 72.0537 35.6019C77.2281 35.6019 81.9401 31.4392 81.9401 22.2755C81.9111 13.8923 77.1414 9.32495 72.0826 9.32495ZM70.3481 29.2422C68.6426 29.2422 67.6308 28.6352 66.9371 27.8836L66.9081 17.1589C67.6597 16.3206 68.7004 15.7424 70.3481 15.7424C72.9787 15.7424 74.7999 18.691 74.7999 22.4779C74.7999 26.3515 73.0076 29.2422 70.3481 29.2422Z" fill="white"/>
<path fill-rule="evenodd" clip-rule="evenodd" d="M49.7371 7.61941L56.9928 6.05841V0.190186L49.7371 1.72228V7.61941Z" fill="white"/>
<path d="M56.9928 9.81641H49.7371V35.1105H56.9928V9.81641Z" fill="white"/>
<path fill-rule="evenodd" clip-rule="evenodd" d="M41.9609 11.9555L41.4984 9.81638H35.2544V35.1104H42.4813V17.9683C44.1868 15.7424 47.0776 16.1471 47.9737 16.4651V9.81638C47.0487 9.46949 43.6665 8.83353 41.9609 11.9555Z" fill="white"/>
<path fill-rule="evenodd" clip-rule="evenodd" d="M27.5071 3.54346L20.4537 5.04665L20.4248 28.2016C20.4248 32.4799 23.6335 35.6308 27.9118 35.6308C30.2823 35.6308 32.0167 35.1972 32.9707 34.6768V28.8086C32.0456 29.1844 27.4782 30.5142 27.4782 26.2358V15.9737H32.9707V9.81639H27.4782L27.5071 3.54346Z" fill="white"/>
<path fill-rule="evenodd" clip-rule="evenodd" d="M7.9657 17.1589C7.9657 16.0315 8.89074 15.5979 10.4228 15.5979C12.6198 15.5979 15.3949 16.2628 17.5919 17.448V10.6547C15.1926 9.70075 12.8222 9.32495 10.4228 9.32495C4.55461 9.32495 0.6521 12.3891 0.6521 17.5058C0.6521 25.4842 11.6369 24.2123 11.6369 27.6523C11.6369 28.9821 10.4806 29.4157 8.86183 29.4157C6.46251 29.4157 3.39831 28.4328 0.970082 27.1031V33.983C3.65848 35.1393 6.37578 35.6308 8.86183 35.6308C14.8746 35.6308 19.0084 32.6533 19.0084 27.4789C18.9795 18.8644 7.9657 20.3965 7.9657 17.1589Z" fill="white"/>
</svg>
