<svg width="23" height="23" viewBox="0 0 23 23" fill="none" xmlns="http://www.w3.org/2000/svg">
<path d="M19.2325 3.93743C17.1749 1.93852 14.4347 0.839111 11.5227 0.839111C5.51196 0.839111 0.620891 5.5794 0.620891 11.4048C0.620891 13.2657 1.12178 15.0838 2.07446 16.6877L0.527588 22.1609L6.3075 20.6903C7.89857 21.5327 9.69098 21.9753 11.5178 21.9753H11.5227C17.5285 21.9753 22.5276 17.235 22.5276 11.4096C22.5276 8.58729 21.2901 5.93635 19.2325 3.93743ZM11.5227 20.1953C9.89232 20.1953 8.29634 19.7717 6.90661 18.9721L6.57759 18.7818L3.14991 19.6527L4.0633 16.4116L3.84723 16.0785C2.93875 14.6792 2.46241 13.0658 2.46241 11.4048C2.46241 6.56458 6.52848 2.62386 11.5276 2.62386C13.9486 2.62386 16.2222 3.53765 17.9312 5.19865C19.6401 6.85966 20.691 9.06323 20.6861 11.4096C20.6861 16.2546 16.5169 20.1953 11.5227 20.1953ZM16.4923 13.6179C16.2222 13.4846 14.8816 12.8469 14.6312 12.7612C14.3807 12.6708 14.199 12.628 14.0173 12.8945C13.8356 13.161 13.3151 13.7512 13.153 13.932C12.9959 14.1081 12.8338 14.1319 12.5637 13.9986C10.9629 13.2229 9.91196 12.6137 8.85616 10.8575C8.57625 10.3911 9.13607 10.4244 9.65661 9.41542C9.745 9.23932 9.7008 9.08702 9.63205 8.95376C9.5633 8.8205 9.01821 7.5212 8.79232 6.99292C8.57134 6.47891 8.34545 6.5503 8.17848 6.54078C8.02134 6.53126 7.83964 6.53126 7.65794 6.53126C7.47625 6.53126 7.18161 6.5979 6.93116 6.85966C6.68071 7.12618 5.97848 7.76393 5.97848 9.06323C5.97848 10.3625 6.95571 11.619 7.0883 11.7951C7.2258 11.9712 9.00839 14.6364 11.7437 15.7834C13.4722 16.5068 14.1499 16.5687 15.0142 16.4449C15.5396 16.3688 16.6249 15.8072 16.8508 15.1885C17.0767 14.5698 17.0767 14.0415 17.0079 13.932C16.9441 13.813 16.7624 13.7464 16.4923 13.6179Z" fill="#2C2B1B"/>
</svg>
